M48
; DRILL file {KiCad (6.0.0)} date Sat Mar  5 09:10:51 2022
; FORMAT={-:-/ absolute / inch / decimal}
; #@! TF.CreationDate,2022-03-05T09:10:51+01:00
; #@! TF.GenerationSoftware,Kicad,Pcbnew,(6.0.0)
; #@! TF.FileFunction,Plated,1,4,PTH
FMAT,2
INCH
; #@! TA.AperFunction,Plated,PTH,ViaDrill
T1C0.0157
; #@! TA.AperFunction,Plated,PTH,ComponentDrill
T2C0.0394
; #@! TA.AperFunction,Plated,PTH,ComponentDrill
T3C0.0400
; #@! TA.AperFunction,Plated,PTH,ComponentDrill
T4C0.0433
; #@! TA.AperFunction,Plated,PTH,ComponentDrill
T5C0.0512
; #@! TA.AperFunction,Plated,PTH,ComponentDrill
T6C0.0591
%
G90
G05
T1
X0.728Y-6.047
X0.835Y-6.07
X0.91Y-2.03
X0.918Y-5.298
X0.9252Y-5.2559
X0.932Y-6.102
X0.995Y-4.48
X1.1Y-6.23
X1.13Y-4.96
X1.13Y-5.095
X1.192Y-5.868
X1.235Y-5.17
X1.255Y-3.0
X1.255Y-3.41
X1.28Y-5.56
X1.2844Y-6.0494
X1.3091Y-2.5394
X1.3194Y-5.9706
X1.345Y-6.235
X1.417Y-4.388
X1.475Y-3.565
X1.485Y-3.115
X1.515Y-5.48
X1.515Y-6.06
X1.55Y-2.8
X1.595Y-6.24
X1.62Y-5.68
X1.685Y-2.425
X1.8Y-2.191
X1.82Y-6.07
X1.8274Y-5.9926
X1.845Y-6.24
X1.8898Y-2.8031
X1.9449Y-5.1181
X1.95Y-2.575
X1.9528Y-4.0157
X1.965Y-2.29
X1.965Y-4.72
X1.9685Y-3.0315
X1.9685Y-3.5512
X1.9764Y-4.5354
X2.01Y-5.525
X2.03Y-6.075
X2.0787Y-2.7559
X2.1339Y-2.3858
X2.1417Y-4.7087
X2.2362Y-5.2756
X2.265Y-6.285
X2.29Y-6.065
X2.3362Y-6.2438
X2.34Y-2.635
X2.355Y-6.055
X2.43Y-3.55
X2.445Y-3.045
X2.46Y-4.485
X2.4618Y-2.8374
X2.475Y-3.96
X2.48Y-5.67
X2.515Y-4.61
X2.545Y-6.07
X2.565Y-2.15
X2.5748Y-3.378
X2.59Y-6.255
X2.5906Y-3.8661
X2.5984Y-4.8917
X2.63Y-6.14
X2.655Y-5.525
X2.685Y-4.91
X2.73Y-2.52
X2.73Y-2.6
X2.7364Y-6.1986
X2.7402Y-5.0157
X2.811Y-4.3228
X2.814Y-6.076
X2.815Y-5.535
X2.8248Y-4.8425
X2.825Y-6.335
X2.8294Y-3.2556
X2.85Y-2.715
X2.9Y-2.03
X2.93Y-3.55
X2.9344Y-3.9356
X2.97Y-2.635
X2.995Y-5.425
X3.001Y-4.534
X3.0157Y-3.7087
X3.0217Y-2.185
X3.085Y-2.06
X3.1Y-5.485
X3.1201Y-2.5098
X3.126Y-5.189
X3.18Y-4.905
X3.19Y-2.505
X3.2Y-5.245
X3.2Y-5.46
X3.205Y-6.67
X3.2283Y-4.6654
X3.2382Y-4.8622
X3.2453Y-2.9347
X3.255Y-6.255
X3.2578Y-4.006
X3.3366Y-3.5039
X3.3465Y-3.2992
X3.3465Y-5.0157
X3.39Y-5.21
X3.405Y-6.54
X3.44Y-6.26
X3.48Y-5.52
X3.51Y-3.185
X3.51Y-4.36
X3.5433Y-3.7008
X3.59Y-6.63
X3.64Y-5.57
X3.65Y-3.93
X3.6614Y-4.5866
X3.675Y-4.505
X3.7047Y-3.1378
X3.7047Y-3.4921
X3.7087Y-5.2283
X3.73Y-5.57
X3.735Y-3.375
X3.7402Y-5.1969
X3.745Y-4.525
X3.7552Y-3.455
X3.7795Y-5.2283
X3.79Y-6.675
X3.8031Y-5.1969
X3.835Y-5.16
X3.84Y-2.615
X3.851Y-5.496
X3.855Y-3.55
X3.8661Y-2.9764
X3.87Y-5.05
X3.875Y-4.99
X3.88Y-5.575
X3.8971Y-3.095
X3.9173Y-3.4488
X3.9291Y-4.9921
X3.9865Y-4.5961
X4.01Y-4.575
X4.015Y-6.525
X4.02Y-4.73
X4.045Y-5.15
X4.065Y-4.845
X4.09Y-4.985
X4.1004Y-4.71
X4.12Y-2.56
X4.12Y-4.59
X4.125Y-4.96
X4.125Y-5.085
X4.135Y-5.175
X4.15Y-5.345
X4.155Y-4.635
X4.16Y-4.91
X4.16Y-5.045
X4.18Y-5.01
X4.19Y-6.6546
X4.1904Y-3.5198
X4.215Y-3.345
X4.225Y-2.27
X4.225Y-3.0039
X4.255Y-4.235
X4.26Y-3.105
X4.265Y-2.59
X4.265Y-4.92
X4.295Y-2.43
X4.295Y-3.13
X4.32Y-6.33
X4.33Y-4.255
X4.335Y-2.525
X4.335Y-3.15
X4.355Y-3.18
X4.356Y-3.594
X4.3646Y-3.8854
X4.365Y-2.455
X4.3676Y-3.3074
X4.3701Y-4.3904
X4.3701Y-4.4685
X4.3726Y-4.1774
X4.3852Y-2.2621
X4.39Y-6.255
X4.4094Y-5.1181
X4.425Y-4.29
X4.43Y-5.395
X4.495Y-4.345
X4.51Y-3.375
X4.5286Y-5.0364
X4.535Y-4.39
X4.5354Y-3.2286
X4.545Y-3.985
X4.55Y-4.855
X4.555Y-3.09
X4.555Y-3.425
X4.565Y-4.085
X4.575Y-3.78
X4.595Y-3.665
X4.6Y-3.5
X4.605Y-4.2796
X4.625Y-2.95
X4.625Y-3.125
X4.6325Y-4.0875
X4.655Y-3.225
X4.655Y-3.695
X4.67Y-3.919
X4.67Y-4.26
X4.685Y-4.495
X4.72Y-4.5408
X4.7966Y-3.6034
X4.8076Y-3.8874
X4.8196Y-4.1554
X4.82Y-4.455
X4.8236Y-3.3014
X4.825Y-3.15
X4.87Y-4.795
X4.875Y-4.31
X4.878Y-4.928
X4.905Y-4.5231
X4.925Y-5.995
X4.93Y-5.69
X4.95Y-4.265
X4.9894Y-5.5406
X4.99Y-4.395
X4.995Y-3.919
X5.02Y-3.515
X5.02Y-4.08
X5.025Y-3.585
X5.0446Y-5.1754
X5.045Y-4.635
X5.055Y-4.115
X5.055Y-4.92
X5.081Y-3.264
X5.082Y-5.032
X5.11Y-4.24
X5.11Y-4.345
X5.13Y-4.53
X5.14Y-3.78
X5.15Y-5.99
X5.195Y-5.685
X5.205Y-4.21
X5.21Y-3.7
X5.23Y-5.04
X5.26Y-2.54
X5.3Y-4.085
X5.32Y-3.515
X5.3252Y-2.3052
X5.33Y-5.225
X5.335Y-2.55
X5.335Y-2.5904
X5.34Y-5.945
X5.355Y-3.91
X5.36Y-3.985
X5.375Y-5.9
X5.39Y-5.09
X5.395Y-3.45
X5.395Y-4.44
X5.4Y-2.465
X5.4156Y-5.0394
X5.42Y-2.145
X5.4284Y-5.5616
X5.43Y-4.815
X5.4325Y-5.9975
X5.455Y-3.085
X5.47Y-4.97
X5.495Y-3.535
X5.5Y-4.79
X5.505Y-3.065
X5.525Y-4.405
X5.55Y-2.635
X5.57Y-5.56
X5.5736Y-2.7164
X5.575Y-3.125
X5.58Y-4.9
X5.6Y-4.865
X5.615Y-3.335
X5.625Y-4.84
X5.63Y-4.535
X5.64Y-6.06
X5.65Y-5.025
X5.675Y-2.4546
X5.711Y-1.964
X5.715Y-2.5
X5.715Y-2.915
X5.76Y-4.24
X5.8Y-6.295
X5.8Y-6.47
X5.8Y-6.53
X5.805Y-6.185
X5.805Y-6.355
X5.805Y-6.6
X5.8075Y-6.2475
X5.81Y-6.4
X5.815Y-3.0
X5.815Y-6.1
X5.815Y-6.15
X5.82Y-3.075
X5.835Y-5.16
X5.87Y-2.6081
X5.87Y-2.955
X5.87Y-3.055
X5.87Y-5.57
X5.875Y-4.9
X5.915Y-4.63
X5.925Y-2.96
X5.95Y-4.23
X5.95Y-4.6146
X5.985Y-4.905
X6.025Y-2.905
X6.04Y-4.865
X6.0454Y-3.3696
X6.0454Y-4.0446
X6.065Y-4.46
X6.07Y-5.57
X6.08Y-3.7
X6.08Y-6.38
X6.1Y-3.215
X6.1Y-3.525
X6.1Y-5.34
X6.105Y-4.37
X6.115Y-3.755
X6.12Y-4.04
X6.14Y-4.94
X6.145Y-2.93
X6.145Y-5.29
X6.19Y-5.575
X6.205Y-4.98
X6.21Y-4.825
X6.22Y-2.9026
X6.235Y-5.085
X6.24Y-5.94
X6.265Y-5.235
X6.28Y-2.925
X6.335Y-5.62
X6.3582Y-2.3073
X6.375Y-3.025
X6.405Y-4.5096
X6.435Y-5.41
X6.475Y-3.075
X6.475Y-3.27
X6.48Y-3.75
X6.485Y-6.085
X6.49Y-5.98
X6.5134Y-3.5566
X6.5174Y-3.9576
X6.5274Y-4.3726
X6.535Y-2.975
X6.575Y-4.215
X6.595Y-6.045
X6.6025Y-4.1175
X6.61Y-4.365
X6.633Y-3.933
X6.665Y-2.66
X6.675Y-2.405
X6.695Y-3.97
X6.695Y-5.79
X6.73Y-3.8046
X6.735Y-5.485
X6.74Y-3.94
X6.76Y-3.7
X6.77Y-4.025
X6.77Y-4.445
X6.795Y-2.475
X6.805Y-5.625
X6.815Y-6.245
X6.825Y-3.545
X6.835Y-4.615
X6.865Y-4.795
X6.875Y-2.95
X6.885Y-4.085
X6.91Y-4.335
X6.9534Y-3.3316
X6.9534Y-3.5616
X6.955Y-4.855
X6.955Y-5.67
X6.97Y-3.1
X6.9725Y-3.0175
X7.0274Y-4.5576
X7.035Y-4.08
X7.035Y-6.32
X7.05Y-2.965
X7.055Y-3.72
X7.065Y-6.08
X7.075Y-3.44
X7.08Y-3.675
X7.0869Y-4.3381
X7.105Y-3.085
X7.115Y-6.1
X7.125Y-5.22
X7.145Y-5.275
X7.145Y-5.325
X7.16Y-2.925
X7.16Y-6.375
X7.175Y-4.365
X7.175Y-4.63
X7.18Y-3.06
X7.225Y-4.45
X7.23Y-5.085
X7.2615Y-2.2613
X7.33Y-4.275
X7.3307Y-4.2107
X7.345Y-3.1503
X7.345Y-3.265
X7.346Y-3.981
X7.4414Y-3.9786
X7.485Y-3.99
X7.49Y-3.675
X7.515Y-2.41
X7.515Y-3.375
X7.57Y-2.965
X7.58Y-3.02
X7.585Y-4.595
X7.6Y-5.515
X7.62Y-3.855
X7.65Y-3.58
X7.65Y-6.18
X7.675Y-2.42
X7.6775Y-3.8075
X7.68Y-4.28
X7.69Y-4.37
X7.73Y-3.0354
X7.73Y-4.01
X7.735Y-4.73
X7.755Y-3.535
X7.815Y-6.125
X7.85Y-5.57
X7.875Y-3.83
X7.91Y-4.955
X7.925Y-4.25
X7.9474Y-2.9026
X7.99Y-3.335
X7.99Y-3.515
X7.99Y-3.515
X7.995Y-3.755
X7.995Y-4.205
X8.005Y-5.095
X8.01Y-6.06
X8.02Y-3.305
X8.045Y-2.97
X8.098Y-2.397
X8.1033Y-3.5717
X8.105Y-3.93
X8.105Y-4.21
X8.115Y-6.125
X8.12Y-5.395
X8.125Y-2.73
X8.13Y-3.265
X8.144Y-2.974
X8.15Y-4.845
X8.195Y-5.455
X8.23Y-2.39
X8.24Y-6.335
X8.25Y-6.155
X8.285Y-3.0846
X8.285Y-3.265
X8.3169Y-5.3346
X8.345Y-4.41
X8.36Y-2.59
X8.48Y-3.265
X8.4941Y-4.9902
X8.505Y-3.83
X8.51Y-4.1223
X8.695Y-2.295
X8.695Y-3.17
X8.695Y-4.795
X8.725Y-3.21
X8.73Y-3.83
X8.8287Y-5.374
X8.83Y-3.0
X8.83Y-3.58
X8.83Y-3.93
X8.83Y-4.945
X8.8314Y-4.4486
X8.835Y-3.265
X8.8394Y-2.6665
X8.8566Y-2.9784
X8.935Y-4.63
X9.005Y-4.41
X9.1339Y-5.1181
X9.14Y-4.975
X9.215Y-2.91
X9.215Y-3.83
X9.265Y-4.49
X9.2726Y-2.3283
X9.4Y-6.1694
X9.415Y-3.44
X9.425Y-3.85
X9.52Y-4.19
X9.54Y-2.745
X9.54Y-3.57
X9.55Y-3.28
X9.56Y-3.0
X9.56Y-3.93
X9.56Y-4.91
X9.605Y-6.055
X9.625Y-2.32
X9.63Y-2.675
X9.63Y-4.465
X9.68Y-4.62
X9.725Y-4.58
X9.745Y-2.425
X9.76Y-2.505
X9.805Y-6.13
X9.82Y-3.685
X9.835Y-3.41
X9.9Y-3.52
X10.1952Y-2.3852
X10.21Y-2.61
X10.2461Y-4.8031
X10.325Y-4.375
X10.34Y-6.315
X10.37Y-2.41
X10.4006Y-2.3556
X10.412Y-3.513
X10.45Y-6.12
X10.465Y-2.515
X10.4724Y-4.1043
X10.475Y-5.28
X10.525Y-6.375
X10.585Y-3.39
X10.585Y-3.39
X10.6004Y-2.0276
X10.615Y-3.935
X10.65Y-1.765
X10.705Y-2.6
X10.71Y-2.025
X10.715Y-6.265
X10.7185Y-2.8839
X10.725Y-4.34
X10.7283Y-1.9094
X10.75Y-5.105
X10.79Y-4.675
X10.805Y-2.295
X10.82Y-6.005
X10.825Y-4.81
X10.83Y-4.535
X10.88Y-2.13
X10.893Y-5.418
X10.91Y-4.625
X10.92Y-1.765
X10.925Y-3.355
X10.925Y-4.375
X10.935Y-1.9587
X10.99Y-2.375
X11.0078Y-2.5257
X11.0146Y-1.505
X11.025Y-3.725
X11.055Y-2.45
T2
X1.3057Y-1.6379
X1.7782Y-1.6379
X2.2537Y-1.6539
X2.7262Y-1.6539
X3.1497Y-1.6539
X3.6222Y-1.6539
X4.1057Y-1.6439
X4.5782Y-1.6439
X5.0517Y-1.6459
X5.5242Y-1.6459
X5.976Y-2.1382
X5.976Y-2.3941
X6.0357Y-1.6539
X6.5082Y-1.6539
X7.0277Y-1.6699
X7.5002Y-1.6699
X8.0097Y-1.6619
X8.3926Y-3.358
X8.394Y-3.06
X8.4006Y-2.8
X8.402Y-3.658
X8.406Y-4.016
X8.408Y-4.292
X8.4822Y-1.6619
X8.4926Y-3.358
X8.494Y-3.06
X8.5006Y-2.8
X8.502Y-3.658
X8.506Y-4.016
X8.508Y-4.292
X8.5926Y-3.358
X8.594Y-3.06
X8.6006Y-2.8
X8.602Y-3.658
X8.606Y-4.016
X8.608Y-4.292
X8.9757Y-1.6629
X9.1126Y-2.815
X9.1132Y-3.076
X9.1132Y-3.37
X9.1132Y-3.672
X9.1132Y-4.0
X9.1132Y-4.302
X9.2126Y-2.815
X9.2132Y-3.076
X9.2132Y-3.37
X9.2132Y-3.672
X9.2132Y-4.0
X9.2132Y-4.302
X9.3126Y-2.815
X9.3132Y-3.076
X9.3132Y-3.37
X9.3132Y-3.672
X9.3132Y-4.0
X9.3132Y-4.302
X9.4482Y-1.6629
X9.9277Y-1.6379
X10.4002Y-1.6379
T3
X4.022Y-2.7904
X4.022Y-2.8904
X4.022Y-2.9904
X4.022Y-3.0904
X4.022Y-3.1904
X4.022Y-3.2904
X4.022Y-3.3904
X4.022Y-3.4904
X4.022Y-3.5904
X4.022Y-3.6904
X4.022Y-3.7904
X4.022Y-3.8904
X4.022Y-3.9904
X4.022Y-4.0904
X4.022Y-4.1904
X4.022Y-4.2904
X4.022Y-4.3904
X4.022Y-4.4904
X4.122Y-2.7904
X4.122Y-2.8904
X4.122Y-2.9904
X4.122Y-3.0904
X4.122Y-3.1904
X4.122Y-3.2904
X4.122Y-3.3904
X4.122Y-3.4904
X4.122Y-3.5904
X4.122Y-3.6904
X4.122Y-3.7904
X4.122Y-3.8904
X4.122Y-3.9904
X4.122Y-4.0904
X4.122Y-4.1904
X4.122Y-4.2904
X4.122Y-4.3904
X4.122Y-4.4904
X4.2204Y-4.69
X4.3204Y-4.69
X4.4204Y-2.79
X4.4204Y-4.69
X4.5204Y-2.79
X4.5204Y-4.69
X4.6204Y-2.79
X4.6204Y-4.69
X4.7204Y-2.79
X4.7204Y-4.69
X4.8204Y-2.79
X4.8204Y-4.69
X4.9204Y-2.79
X4.9204Y-4.69
X5.0204Y-2.79
X5.1204Y-2.79
X5.1204Y-4.69
X5.2204Y-4.69
X5.3204Y-2.79
X5.3204Y-4.69
X5.4204Y-2.79
X5.4204Y-4.69
X5.5204Y-2.79
X5.5204Y-4.69
X5.6204Y-2.79
X5.6204Y-4.69
X5.7204Y-2.79
X5.7204Y-4.69
X5.8204Y-2.79
X5.8204Y-4.69
X5.9204Y-2.79
X6.0204Y-2.79
X6.0204Y-4.69
X6.1204Y-4.69
X6.1808Y-2.79
X6.2204Y-4.69
X6.2808Y-2.79
X6.3204Y-4.69
X6.3808Y-2.79
X6.4204Y-4.69
X6.4808Y-2.79
X6.5204Y-4.69
X6.5808Y-2.79
X6.6204Y-4.69
X6.6808Y-2.79
X6.7204Y-4.69
X6.7808Y-2.79
X6.8808Y-2.79
X6.9808Y-2.79
X7.0808Y-2.79
T4
X6.3336Y-5.1639
X6.5304Y-5.1639
T5
X1.3038Y-1.1556
X1.54Y-1.7146
X1.7782Y-1.1576
X2.2518Y-1.1716
X2.488Y-1.7306
X2.7262Y-1.1736
X3.1478Y-1.1716
X3.384Y-1.7306
X3.6222Y-1.1736
X4.1038Y-1.1616
X4.34Y-1.7206
X4.5782Y-1.1636
X5.0498Y-1.1636
X5.286Y-1.7226
X5.5242Y-1.1656
X6.0338Y-1.1716
X6.27Y-1.7306
X6.5082Y-1.1736
X7.0258Y-1.1876
X7.262Y-1.7466
X7.5002Y-1.1896
X8.0078Y-1.1796
X8.244Y-1.7386
X8.4822Y-1.1816
X8.9738Y-1.1806
X9.21Y-1.7396
X9.4482Y-1.1826
X9.9258Y-1.1556
X10.162Y-1.7146
X10.4002Y-1.1576
T6
X0.6181Y-2.034
X0.6181Y-2.2309
X0.6181Y-5.082
X0.6181Y-5.2789
X0.6221Y-1.1195
X0.6221Y-1.3163
X0.6221Y-1.5132
X0.6221Y-1.71
X0.6221Y-2.554
X0.6221Y-2.7509
X0.6261Y-3.056
X0.6261Y-3.2529
X0.6261Y-3.564
X0.6261Y-3.7609
X0.6261Y-4.064
X0.6261Y-4.2609
X0.6261Y-4.57
X0.6261Y-4.7669
X0.6281Y-5.614
X0.6281Y-5.8109
X0.9858Y-6.796
X1.1826Y-6.796
X1.3231Y-0.6171
X1.3795Y-6.796
X1.52Y-0.6171
X1.5763Y-6.796
X1.706Y-3.5
X1.706Y-3.6969
X1.7061Y-5.1
X1.7061Y-5.2969
X1.708Y-4.514
X1.708Y-4.7109
X1.7081Y-3.995
X1.7081Y-4.1919
X1.71Y-3.005
X1.71Y-3.2019
X1.7169Y-0.6171
X1.7732Y-6.796
X2.0678Y-6.796
X2.1601Y-5.7899
X2.2611Y-0.6231
X2.2646Y-6.796
X2.357Y-5.7899
X2.458Y-0.6231
X2.4615Y-6.796
X2.6549Y-0.6231
X2.6583Y-6.796
X2.73Y-5.7919
X2.8552Y-6.796
X2.9269Y-5.7919
X3.1571Y-0.6231
X3.1993Y-6.7901
X3.3451Y-5.7899
X3.354Y-0.6231
X3.3961Y-6.7901
X3.542Y-5.7899
X3.5509Y-0.6231
X3.593Y-6.7901
X3.7898Y-6.7901
X3.93Y-5.7899
X3.9867Y-6.7901
X4.0981Y-0.6178
X4.1269Y-5.7899
X4.1835Y-6.7901
X4.295Y-0.6178
X4.3804Y-6.7901
X4.4919Y-0.6178
X4.514Y-5.7899
X4.5772Y-6.7901
X4.7109Y-5.7899
X4.7741Y-6.7901
X4.9709Y-6.7901
X5.0803Y-0.624
X5.0901Y-5.7921
X5.1678Y-6.7901
X5.2771Y-0.624
X5.287Y-5.7921
X5.3646Y-6.7901
X5.474Y-0.624
X5.6301Y-5.7899
X5.6778Y-6.7879
X5.827Y-5.7899
X5.8747Y-6.7879
X6.0491Y-0.6221
X6.0715Y-6.7879
X6.246Y-0.6221
X6.2684Y-6.7879
X6.4055Y-5.7879
X6.4429Y-0.6221
X6.4652Y-6.7879
X6.6023Y-5.7879
X6.6621Y-6.7879
X6.7992Y-5.7879
X6.8589Y-6.7879
X6.996Y-5.7879
X7.0551Y-0.6241
X7.0558Y-6.7879
X7.252Y-0.6241
X7.3295Y-5.7859
X7.376Y-6.79
X7.4489Y-0.6241
X7.5263Y-5.7859
X7.5729Y-6.79
X7.7232Y-5.7859
X7.7697Y-6.79
X7.92Y-5.7859
X7.9666Y-6.79
X8.0051Y-0.6241
X8.202Y-0.6241
X8.2795Y-6.7899
X8.302Y-5.7899
X8.3989Y-0.6241
X8.4763Y-6.7899
X8.4989Y-5.7899
X8.6732Y-6.7899
X8.806Y-5.7879
X8.87Y-6.7899
X8.9881Y-0.6221
X9.0029Y-5.7879
X9.185Y-0.6221
X9.2095Y-6.7879
X9.3819Y-0.6221
X9.4063Y-6.7879
X9.6032Y-6.7879
X9.8Y-6.7879
X9.9401Y-0.6321
X9.97Y-3.0431
X9.97Y-3.24
X9.9829Y-3.5931
X9.9829Y-3.79
X10.0Y-4.2031
X10.0Y-4.4
X10.0Y-4.8031
X10.0Y-5.0
X10.0Y-5.4
X10.0Y-5.5969
X10.137Y-0.6321
X10.1435Y-6.7879
X10.3339Y-0.6321
X10.3403Y-6.7879
X10.5372Y-6.7879
X10.734Y-6.7879
X11.1459Y-1.188
X11.1459Y-1.3848
X11.1459Y-1.5817
X11.1459Y-1.7785
X11.1479Y-3.108
X11.1479Y-3.3048
X11.1479Y-3.5017
X11.1479Y-3.6985
X11.1499Y-2.132
X11.1499Y-2.3288
X11.1499Y-2.5257
X11.1499Y-2.7225
X11.1519Y-4.022
X11.1519Y-4.2188
X11.1519Y-4.4157
X11.1519Y-4.6125
X11.1519Y-5.9971
X11.1519Y-6.194
X11.1579Y-4.942
X11.1579Y-5.1388
X11.1579Y-5.3357
X11.1579Y-5.5325
T0
M30
