%TF.GenerationSoftware,KiCad,Pcbnew,(6.0.0)*%
%TF.CreationDate,2022-03-05T09:13:47+01:00*%
%TF.ProjectId,arduiboard1,61726475-6962-46f6-9172-64312e6b6963,rev?*%
%TF.SameCoordinates,Original*%
%TF.FileFunction,Soldermask,Top*%
%TF.FilePolarity,Negative*%
%FSLAX46Y46*%
G04 Gerber Fmt 4.6, Leading zero omitted, Abs format (unit mm)*
G04 Created by KiCad (PCBNEW (6.0.0)) date 2022-03-05 09:13:47*
%MOMM*%
%LPD*%
G01*
G04 APERTURE LIST*
G04 Aperture macros list*
%AMRoundRect*
0 Rectangle with rounded corners*
0 $1 Rounding radius*
0 $2 $3 $4 $5 $6 $7 $8 $9 X,Y pos of 4 corners*
0 Add a 4 corners polygon primitive as box body*
4,1,4,$2,$3,$4,$5,$6,$7,$8,$9,$2,$3,0*
0 Add four circle primitives for the rounded corners*
1,1,$1+$1,$2,$3*
1,1,$1+$1,$4,$5*
1,1,$1+$1,$6,$7*
1,1,$1+$1,$8,$9*
0 Add four rect primitives between the rounded corners*
20,1,$1+$1,$2,$3,$4,$5,0*
20,1,$1+$1,$4,$5,$6,$7,0*
20,1,$1+$1,$6,$7,$8,$9,0*
20,1,$1+$1,$8,$9,$2,$3,0*%
%AMOutline4P*
0 Free polygon, 4 corners , with rotation*
0 The origin of the aperture is its center*
0 number of corners: always 4*
0 $1 to $8 corner X, Y*
0 $9 Rotation angle, in degrees counterclockwise*
0 create outline with 4 corners*
4,1,4,$1,$2,$3,$4,$5,$6,$7,$8,$1,$2,$9*%
G04 Aperture macros list end*
%ADD10RoundRect,0.250000X-0.450000X0.350000X-0.450000X-0.350000X0.450000X-0.350000X0.450000X0.350000X0*%
%ADD11RoundRect,0.250000X-0.350000X-0.450000X0.350000X-0.450000X0.350000X0.450000X-0.350000X0.450000X0*%
%ADD12C,3.000000*%
%ADD13C,2.500000*%
%ADD14R,1.700000X1.700000*%
%ADD15O,1.700000X1.700000*%
%ADD16R,2.500000X2.500000*%
%ADD17RoundRect,0.250000X0.450000X-0.350000X0.450000X0.350000X-0.450000X0.350000X-0.450000X-0.350000X0*%
%ADD18RoundRect,0.150000X0.587500X0.150000X-0.587500X0.150000X-0.587500X-0.150000X0.587500X-0.150000X0*%
%ADD19RoundRect,0.250000X0.350000X0.450000X-0.350000X0.450000X-0.350000X-0.450000X0.350000X-0.450000X0*%
%ADD20Outline4P,-1.800000X-1.150000X1.800000X-0.550000X1.800000X0.550000X-1.800000X1.150000X0.000000*%
%ADD21Outline4P,-1.800000X-1.150000X1.800000X-0.550000X1.800000X0.550000X-1.800000X1.150000X180.000000*%
%ADD22RoundRect,0.150000X-0.587500X-0.150000X0.587500X-0.150000X0.587500X0.150000X-0.587500X0.150000X0*%
%ADD23C,3.200000*%
%ADD24RoundRect,0.250000X0.475000X-0.337500X0.475000X0.337500X-0.475000X0.337500X-0.475000X-0.337500X0*%
%ADD25C,2.000000*%
%ADD26RoundRect,0.250000X-0.325000X-0.450000X0.325000X-0.450000X0.325000X0.450000X-0.325000X0.450000X0*%
%ADD27RoundRect,0.250000X0.337500X0.475000X-0.337500X0.475000X-0.337500X-0.475000X0.337500X-0.475000X0*%
%ADD28Outline4P,-1.800000X-1.150000X1.800000X-0.550000X1.800000X0.550000X-1.800000X1.150000X270.000000*%
%ADD29Outline4P,-1.800000X-1.150000X1.800000X-0.550000X1.800000X0.550000X-1.800000X1.150000X90.000000*%
%ADD30RoundRect,0.150000X0.150000X-0.587500X0.150000X0.587500X-0.150000X0.587500X-0.150000X-0.587500X0*%
%ADD31RoundRect,0.150000X-0.150000X0.587500X-0.150000X-0.587500X0.150000X-0.587500X0.150000X0.587500X0*%
%ADD32RoundRect,0.250000X-0.475000X0.337500X-0.475000X-0.337500X0.475000X-0.337500X0.475000X0.337500X0*%
%ADD33R,1.700000X1.300000*%
%ADD34RoundRect,1.000000X-1.000000X-2.000000X1.000000X-2.000000X1.000000X2.000000X-1.000000X2.000000X0*%
%ADD35O,1.727200X2.032000*%
%ADD36RoundRect,0.250000X-0.337500X-0.475000X0.337500X-0.475000X0.337500X0.475000X-0.337500X0.475000X0*%
%ADD37R,1.800000X3.500000*%
%ADD38R,1.300000X1.700000*%
%ADD39RoundRect,0.249600X1.712900X0.550400X-1.712900X0.550400X-1.712900X-0.550400X1.712900X-0.550400X0*%
%ADD40RoundRect,0.150000X-0.825000X-0.150000X0.825000X-0.150000X0.825000X0.150000X-0.825000X0.150000X0*%
%ADD41R,2.000000X2.000000*%
%ADD42RoundRect,0.249600X0.550400X-1.712900X0.550400X1.712900X-0.550400X1.712900X-0.550400X-1.712900X0*%
%ADD43C,1.727200*%
%ADD44O,1.727200X1.727200*%
G04 APERTURE END LIST*
D10*
%TO.C,R127*%
X108712000Y-131486400D03*
X108712000Y-133486400D03*
%TD*%
D11*
%TO.C,R50*%
X69866000Y-76301600D03*
X71866000Y-76301600D03*
%TD*%
D12*
%TO.C,K10*%
X258114800Y-43552000D03*
D13*
X264164800Y-41602000D03*
D12*
X264164800Y-29402000D03*
X252114800Y-29352000D03*
D13*
X252164800Y-41602000D03*
%TD*%
D14*
%TO.C,JP10*%
X231475000Y-93268800D03*
D15*
X234015000Y-93268800D03*
X236555000Y-93268800D03*
%TD*%
D11*
%TO.C,R119*%
X91049600Y-163322000D03*
X93049600Y-163322000D03*
%TD*%
D16*
%TO.C,J14*%
X43386400Y-101473000D03*
D13*
X43386400Y-106473000D03*
%TD*%
D10*
%TO.C,R159*%
X222453200Y-133006000D03*
X222453200Y-135006000D03*
%TD*%
%TO.C,R138*%
X138988800Y-127778000D03*
X138988800Y-129778000D03*
%TD*%
D17*
%TO.C,R165*%
X23469600Y-160461200D03*
X23469600Y-158461200D03*
%TD*%
D16*
%TO.C,J41*%
X54867000Y-147062800D03*
D13*
X59867000Y-147062800D03*
%TD*%
D11*
%TO.C,R54*%
X64852800Y-102057200D03*
X66852800Y-102057200D03*
%TD*%
D17*
%TO.C,R66*%
X67818000Y-163560000D03*
X67818000Y-161560000D03*
%TD*%
D11*
%TO.C,R69*%
X199964800Y-64262000D03*
X201964800Y-64262000D03*
%TD*%
D17*
%TO.C,R160*%
X222418400Y-129519600D03*
X222418400Y-127519600D03*
%TD*%
D16*
%TO.C,J34*%
X262479800Y-16056000D03*
D13*
X257479800Y-16056000D03*
X252479800Y-16056000D03*
%TD*%
D18*
%TO.C,Q18*%
X93444300Y-135976400D03*
X93444300Y-134076400D03*
X91569300Y-135026400D03*
%TD*%
D16*
%TO.C,J9*%
X283257600Y-117158000D03*
D13*
X283257600Y-112158000D03*
X283257600Y-107158000D03*
X283257600Y-102158000D03*
%TD*%
D19*
%TO.C,R106*%
X86445600Y-140208000D03*
X84445600Y-140208000D03*
%TD*%
D17*
%TO.C,R63*%
X61264800Y-163610800D03*
X61264800Y-161610800D03*
%TD*%
D20*
%TO.C,D1*%
X28138800Y-50342800D03*
D21*
X33938800Y-50342800D03*
%TD*%
D11*
%TO.C,R190*%
X163795200Y-113690400D03*
X165795200Y-113690400D03*
%TD*%
D17*
%TO.C,R58*%
X48971200Y-158870400D03*
X48971200Y-156870400D03*
%TD*%
D22*
%TO.C,Q24*%
X112498900Y-89321600D03*
X112498900Y-91221600D03*
X114373900Y-90271600D03*
%TD*%
D23*
%TO.C,REF\u002A\u002A*%
X12500000Y-12500000D03*
%TD*%
D17*
%TO.C,R112*%
X85496400Y-123580400D03*
X85496400Y-121580400D03*
%TD*%
D10*
%TO.C,R13*%
X219202000Y-162271200D03*
X219202000Y-164271200D03*
%TD*%
D24*
%TO.C,C2*%
X54152800Y-65147100D03*
X54152800Y-63072100D03*
%TD*%
D25*
%TO.C,SW1*%
X160872800Y-131162400D03*
X165872800Y-131162400D03*
%TD*%
D26*
%TO.C,D5*%
X85233400Y-94030800D03*
X87283400Y-94030800D03*
%TD*%
D11*
%TO.C,R83*%
X205822800Y-92964000D03*
X207822800Y-92964000D03*
%TD*%
D22*
%TO.C,Q26*%
X112522000Y-103936800D03*
X112522000Y-105836800D03*
X114397000Y-104886800D03*
%TD*%
D27*
%TO.C,C21*%
X117674300Y-125171200D03*
X115599300Y-125171200D03*
%TD*%
D17*
%TO.C,R171*%
X36220400Y-162950400D03*
X36220400Y-160950400D03*
%TD*%
D11*
%TO.C,R198*%
X151755600Y-105257600D03*
X153755600Y-105257600D03*
%TD*%
D19*
%TO.C,R99*%
X63855600Y-121107200D03*
X61855600Y-121107200D03*
%TD*%
D28*
%TO.C,D2*%
X36677600Y-57907600D03*
D29*
X36677600Y-63707600D03*
%TD*%
D11*
%TO.C,R75*%
X206695800Y-77698600D03*
X208695800Y-77698600D03*
%TD*%
D16*
%TO.C,J36*%
X162699200Y-147012000D03*
D13*
X167699200Y-147012000D03*
X172699200Y-147012000D03*
X177699200Y-147012000D03*
%TD*%
D11*
%TO.C,R156*%
X257724400Y-152603200D03*
X259724400Y-152603200D03*
%TD*%
D19*
%TO.C,R49*%
X71866000Y-79705200D03*
X69866000Y-79705200D03*
%TD*%
%TO.C,R104*%
X60791600Y-133858000D03*
X58791600Y-133858000D03*
%TD*%
D30*
%TO.C,Q19*%
X105069600Y-157147500D03*
X106969600Y-157147500D03*
X106019600Y-155272500D03*
%TD*%
D11*
%TO.C,R150*%
X242535200Y-121767600D03*
X244535200Y-121767600D03*
%TD*%
D17*
%TO.C,R70*%
X205689200Y-64195200D03*
X205689200Y-62195200D03*
%TD*%
D16*
%TO.C,J17*%
X283105200Y-45174400D03*
D13*
X283105200Y-40174400D03*
X283105200Y-35174400D03*
X283105200Y-30174400D03*
%TD*%
D10*
%TO.C,R17*%
X195478400Y-162423600D03*
X195478400Y-164423600D03*
%TD*%
D16*
%TO.C,J39*%
X69342000Y-147113600D03*
D13*
X74342000Y-147113600D03*
%TD*%
D16*
%TO.C,J12*%
X15954400Y-142595600D03*
D13*
X15954400Y-147595600D03*
%TD*%
D31*
%TO.C,Q21*%
X130083600Y-132971300D03*
X128183600Y-132971300D03*
X129133600Y-134846300D03*
%TD*%
D11*
%TO.C,R93*%
X264277600Y-49885600D03*
X266277600Y-49885600D03*
%TD*%
D14*
%TO.C,JP6*%
X213563200Y-109016800D03*
D15*
X216103200Y-109016800D03*
X218643200Y-109016800D03*
%TD*%
D11*
%TO.C,R86*%
X187010800Y-98094800D03*
X189010800Y-98094800D03*
%TD*%
D10*
%TO.C,R97*%
X269341600Y-54270400D03*
X269341600Y-56270400D03*
%TD*%
%TO.C,R117*%
X91795600Y-155702000D03*
X91795600Y-157702000D03*
%TD*%
%TO.C,R14*%
X224180400Y-162372800D03*
X224180400Y-164372800D03*
%TD*%
D11*
%TO.C,R77*%
X168773600Y-82804000D03*
X170773600Y-82804000D03*
%TD*%
D32*
%TO.C,C24*%
X31902400Y-144330600D03*
X31902400Y-146405600D03*
%TD*%
D27*
%TO.C,C6*%
X89378700Y-83870800D03*
X87303700Y-83870800D03*
%TD*%
D11*
%TO.C,R186*%
X163592000Y-102819200D03*
X165592000Y-102819200D03*
%TD*%
D10*
%TO.C,R89*%
X178663600Y-105680000D03*
X178663600Y-107680000D03*
%TD*%
D11*
%TO.C,R79*%
X206467200Y-85191600D03*
X208467200Y-85191600D03*
%TD*%
D33*
%TO.C,D34*%
X99720400Y-158569600D03*
X99720400Y-155069600D03*
%TD*%
D16*
%TO.C,J31*%
X163648400Y-15802000D03*
D13*
X158648400Y-15802000D03*
X153648400Y-15802000D03*
%TD*%
D16*
%TO.C,J8*%
X257644400Y-172412000D03*
D13*
X262644400Y-172412000D03*
X267644400Y-172412000D03*
X272644400Y-172412000D03*
%TD*%
D10*
%TO.C,R105*%
X80137000Y-140208000D03*
X80137000Y-142208000D03*
%TD*%
D16*
%TO.C,J3*%
X15802000Y-64871600D03*
D13*
X15802000Y-69871600D03*
%TD*%
D10*
%TO.C,R149*%
X108966000Y-96688400D03*
X108966000Y-98688400D03*
%TD*%
D33*
%TO.C,D30*%
X65633600Y-136781600D03*
X65633600Y-140281600D03*
%TD*%
D12*
%TO.C,K6*%
X159258000Y-43958400D03*
D13*
X165308000Y-42008400D03*
D12*
X165308000Y-29808400D03*
X153258000Y-29758400D03*
D13*
X153308000Y-42008400D03*
%TD*%
D10*
%TO.C,R101*%
X58775600Y-124069600D03*
X58775600Y-126069600D03*
%TD*%
D16*
%TO.C,J44*%
X99822000Y-147062800D03*
D13*
X104822000Y-147062800D03*
%TD*%
D30*
%TO.C,Q31*%
X174614800Y-113510300D03*
X176514800Y-113510300D03*
X175564800Y-111635300D03*
%TD*%
D11*
%TO.C,R91*%
X205806800Y-108864400D03*
X207806800Y-108864400D03*
%TD*%
%TO.C,R194*%
X151806400Y-87782400D03*
X153806400Y-87782400D03*
%TD*%
D12*
%TO.C,K8*%
X209397600Y-44161600D03*
D13*
X215447600Y-42211600D03*
D12*
X215447600Y-30011600D03*
X203397600Y-29961600D03*
D13*
X203447600Y-42211600D03*
%TD*%
D22*
%TO.C,Q30*%
X124206000Y-103479600D03*
X124206000Y-105379600D03*
X126081000Y-104429600D03*
%TD*%
D11*
%TO.C,R3*%
X77359000Y-69342000D03*
X79359000Y-69342000D03*
%TD*%
D34*
%TO.C,L1*%
X84305600Y-62430800D03*
X94365600Y-62430800D03*
%TD*%
D10*
%TO.C,R146*%
X108712000Y-89170000D03*
X108712000Y-91170000D03*
%TD*%
D16*
%TO.C,J40*%
X43335600Y-129540000D03*
D13*
X43335600Y-134540000D03*
%TD*%
D35*
%TO.C,P10*%
X147838000Y-119126000D03*
X145298000Y-119126000D03*
X142758000Y-119126000D03*
X140218000Y-119126000D03*
X137678000Y-119126000D03*
X135138000Y-119126000D03*
X132598000Y-119126000D03*
X130058000Y-119126000D03*
%TD*%
D11*
%TO.C,R141*%
X245329200Y-78943200D03*
X247329200Y-78943200D03*
%TD*%
D10*
%TO.C,R137*%
X135026400Y-126000000D03*
X135026400Y-128000000D03*
%TD*%
D24*
%TO.C,C18*%
X92913200Y-120976300D03*
X92913200Y-118901300D03*
%TD*%
D14*
%TO.C,JP4*%
X213410800Y-92913200D03*
D15*
X215950800Y-92913200D03*
X218490800Y-92913200D03*
%TD*%
D14*
%TO.C,JP5*%
X213512400Y-102006400D03*
D15*
X216052400Y-102006400D03*
X218592400Y-102006400D03*
%TD*%
D19*
%TO.C,R108*%
X71307200Y-138734800D03*
X69307200Y-138734800D03*
%TD*%
D11*
%TO.C,R201*%
X25619200Y-111506000D03*
X27619200Y-111506000D03*
%TD*%
D16*
%TO.C,J43*%
X129289000Y-147120000D03*
D13*
X134289000Y-147120000D03*
%TD*%
D11*
%TO.C,R47*%
X71812400Y-115163600D03*
X73812400Y-115163600D03*
%TD*%
%TO.C,R102*%
X58842400Y-129844800D03*
X60842400Y-129844800D03*
%TD*%
D19*
%TO.C,R157*%
X253222000Y-152654000D03*
X251222000Y-152654000D03*
%TD*%
D10*
%TO.C,R52*%
X71069200Y-84293200D03*
X71069200Y-86293200D03*
%TD*%
D19*
%TO.C,R5*%
X89290400Y-88900000D03*
X87290400Y-88900000D03*
%TD*%
D17*
%TO.C,R60*%
X55473600Y-163306000D03*
X55473600Y-161306000D03*
%TD*%
D16*
%TO.C,J50*%
X254000000Y-127000000D03*
D13*
X254000000Y-122000000D03*
%TD*%
D17*
%TO.C,R169*%
X30276800Y-158226000D03*
X30276800Y-156226000D03*
%TD*%
D16*
%TO.C,J27*%
X90191600Y-15827400D03*
D13*
X85191600Y-15827400D03*
X80191600Y-15827400D03*
%TD*%
D12*
%TO.C,K7*%
X184454800Y-44364800D03*
D13*
X190504800Y-42414800D03*
D12*
X190504800Y-30214800D03*
X178454800Y-30164800D03*
D13*
X178504800Y-42414800D03*
%TD*%
D16*
%TO.C,J13*%
X43383200Y-114655600D03*
D13*
X43383200Y-119655600D03*
%TD*%
D10*
%TO.C,R143*%
X109270800Y-82007200D03*
X109270800Y-84007200D03*
%TD*%
D14*
%TO.C,JP11*%
X231475000Y-101600000D03*
D15*
X234015000Y-101600000D03*
X236555000Y-101600000D03*
%TD*%
D11*
%TO.C,R81*%
X169992800Y-92303600D03*
X171992800Y-92303600D03*
%TD*%
D31*
%TO.C,Q22*%
X138887200Y-136144000D03*
X136987200Y-136144000D03*
X137937200Y-138019000D03*
%TD*%
D19*
%TO.C,R211*%
X139430000Y-60325000D03*
X137430000Y-60325000D03*
%TD*%
D33*
%TO.C,D28*%
X53848000Y-136578400D03*
X53848000Y-140078400D03*
%TD*%
D11*
%TO.C,R132*%
X122596400Y-129540000D03*
X124596400Y-129540000D03*
%TD*%
D30*
%TO.C,Q10*%
X199964000Y-71803500D03*
X201864000Y-71803500D03*
X200914000Y-69928500D03*
%TD*%
D11*
%TO.C,R203*%
X31359600Y-111455200D03*
X33359600Y-111455200D03*
%TD*%
D10*
%TO.C,R158*%
X120040400Y-89525600D03*
X120040400Y-91525600D03*
%TD*%
D11*
%TO.C,R90*%
X182235600Y-108915200D03*
X184235600Y-108915200D03*
%TD*%
D10*
%TO.C,R173*%
X36372800Y-152009600D03*
X36372800Y-154009600D03*
%TD*%
D17*
%TO.C,R46*%
X71729600Y-120634000D03*
X71729600Y-118634000D03*
%TD*%
D19*
%TO.C,R140*%
X139125200Y-132791200D03*
X137125200Y-132791200D03*
%TD*%
%TO.C,R135*%
X139836400Y-124714000D03*
X137836400Y-124714000D03*
%TD*%
D24*
%TO.C,C3*%
X76758800Y-59203500D03*
X76758800Y-57128500D03*
%TD*%
D10*
%TO.C,R11*%
X209245200Y-162220400D03*
X209245200Y-164220400D03*
%TD*%
D19*
%TO.C,R10*%
X27974800Y-134264400D03*
X25974800Y-134264400D03*
%TD*%
D11*
%TO.C,R179*%
X224958400Y-71069200D03*
X226958400Y-71069200D03*
%TD*%
D16*
%TO.C,J48*%
X253565000Y-96266000D03*
D13*
X253565000Y-91266000D03*
%TD*%
D12*
%TO.C,K9*%
X233934000Y-44187000D03*
D13*
X239984000Y-42237000D03*
D12*
X239984000Y-30037000D03*
X227934000Y-29987000D03*
D13*
X227984000Y-42237000D03*
%TD*%
D11*
%TO.C,R181*%
X158105600Y-92608400D03*
X160105600Y-92608400D03*
%TD*%
%TO.C,R178*%
X176495200Y-118821200D03*
X178495200Y-118821200D03*
%TD*%
D20*
%TO.C,D3*%
X62530400Y-68935600D03*
D21*
X68330400Y-68935600D03*
%TD*%
D10*
%TO.C,R155*%
X120091200Y-81854800D03*
X120091200Y-83854800D03*
%TD*%
D16*
%TO.C,J25*%
X43608000Y-15675000D03*
D13*
X38608000Y-15675000D03*
X33608000Y-15675000D03*
%TD*%
D30*
%TO.C,Q33*%
X163642000Y-98067100D03*
X165542000Y-98067100D03*
X164592000Y-96192100D03*
%TD*%
D14*
%TO.C,JP1*%
X213375000Y-71120000D03*
D15*
X215915000Y-71120000D03*
X218455000Y-71120000D03*
%TD*%
D24*
%TO.C,C16*%
X54400000Y-124000000D03*
X54400000Y-121925000D03*
%TD*%
D19*
%TO.C,R142*%
X242554000Y-78867000D03*
X240554000Y-78867000D03*
%TD*%
D10*
%TO.C,R62*%
X58115200Y-155616400D03*
X58115200Y-157616400D03*
%TD*%
D16*
%TO.C,J35*%
X210298800Y-172462800D03*
D13*
X215298800Y-172462800D03*
X220298800Y-172462800D03*
X225298800Y-172462800D03*
%TD*%
D33*
%TO.C,D26*%
X269392400Y-59108400D03*
X269392400Y-62608400D03*
%TD*%
D10*
%TO.C,R118*%
X87426800Y-161340800D03*
X87426800Y-163340800D03*
%TD*%
D11*
%TO.C,R126*%
X108490000Y-127863600D03*
X110490000Y-127863600D03*
%TD*%
D16*
%TO.C,J30*%
X189200800Y-15852800D03*
D13*
X184200800Y-15852800D03*
X179200800Y-15852800D03*
%TD*%
D11*
%TO.C,R193*%
X146116800Y-88188800D03*
X148116800Y-88188800D03*
%TD*%
D18*
%TO.C,Q17*%
X75969100Y-135789200D03*
X75969100Y-133889200D03*
X74094100Y-134839200D03*
%TD*%
D11*
%TO.C,R114*%
X94504000Y-128371600D03*
X96504000Y-128371600D03*
%TD*%
D10*
%TO.C,R161*%
X120040400Y-96739200D03*
X120040400Y-98739200D03*
%TD*%
%TO.C,R16*%
X190093600Y-162322000D03*
X190093600Y-164322000D03*
%TD*%
D23*
%TO.C,REF\u002A\u002A*%
X286500000Y-175000000D03*
X286500000Y-175000000D03*
%TD*%
D10*
%TO.C,R4*%
X79451200Y-72542400D03*
X79451200Y-74542400D03*
%TD*%
D19*
%TO.C,R134*%
X130133600Y-129844800D03*
X128133600Y-129844800D03*
%TD*%
D14*
%TO.C,JP8*%
X231475000Y-78130400D03*
D15*
X234015000Y-78130400D03*
X236555000Y-78130400D03*
%TD*%
D14*
%TO.C,JP7*%
X231460000Y-71500000D03*
D15*
X234000000Y-71500000D03*
X236540000Y-71500000D03*
%TD*%
D11*
%TO.C,R45*%
X65090800Y-115163600D03*
X67090800Y-115163600D03*
%TD*%
%TO.C,R187*%
X224755200Y-85598000D03*
X226755200Y-85598000D03*
%TD*%
D12*
%TO.C,K2*%
X63195200Y-43958400D03*
D13*
X69245200Y-42008400D03*
D12*
X69245200Y-29808400D03*
X57195200Y-29758400D03*
D13*
X57245200Y-42008400D03*
%TD*%
D11*
%TO.C,R1*%
X55184800Y-67614800D03*
X57184800Y-67614800D03*
%TD*%
D16*
%TO.C,J53*%
X223672400Y-147012000D03*
D13*
X228672400Y-147012000D03*
%TD*%
D11*
%TO.C,R195*%
X225263200Y-102463600D03*
X227263200Y-102463600D03*
%TD*%
D36*
%TO.C,C11*%
X77397700Y-118668800D03*
X79472700Y-118668800D03*
%TD*%
D11*
%TO.C,R206*%
X35931600Y-144322800D03*
X37931600Y-144322800D03*
%TD*%
D19*
%TO.C,R109*%
X70392800Y-132486400D03*
X68392800Y-132486400D03*
%TD*%
D37*
%TO.C,D4*%
X66751200Y-63663200D03*
X66751200Y-58663200D03*
%TD*%
D16*
%TO.C,J15*%
X43332400Y-88900000D03*
D13*
X43332400Y-93900000D03*
%TD*%
D19*
%TO.C,R123*%
X103514400Y-129235200D03*
X101514400Y-129235200D03*
%TD*%
D17*
%TO.C,R67*%
X67767200Y-159445200D03*
X67767200Y-157445200D03*
%TD*%
D11*
%TO.C,R125*%
X101565200Y-133705600D03*
X103565200Y-133705600D03*
%TD*%
D27*
%TO.C,C22*%
X132507900Y-124917200D03*
X130432900Y-124917200D03*
%TD*%
D19*
%TO.C,R6*%
X81635600Y-93980000D03*
X79635600Y-93980000D03*
%TD*%
D10*
%TO.C,R18*%
X200406000Y-162372800D03*
X200406000Y-164372800D03*
%TD*%
D16*
%TO.C,J21*%
X81261400Y-172469200D03*
D13*
X86261400Y-172469200D03*
X91261400Y-172469200D03*
X96261400Y-172469200D03*
X101261400Y-172469200D03*
X106261400Y-172469200D03*
X111261400Y-172469200D03*
X116261400Y-172469200D03*
X121261400Y-172469200D03*
X126261400Y-172469200D03*
X131261400Y-172469200D03*
X136261400Y-172469200D03*
%TD*%
D16*
%TO.C,J7*%
X283410000Y-140526000D03*
D13*
X283410000Y-135526000D03*
X283410000Y-130526000D03*
X283410000Y-125526000D03*
%TD*%
D19*
%TO.C,R107*%
X77098400Y-140157200D03*
X75098400Y-140157200D03*
%TD*%
D11*
%TO.C,R148*%
X270154400Y-101549200D03*
X272154400Y-101549200D03*
%TD*%
D22*
%TO.C,Q9*%
X214149700Y-63972400D03*
X214149700Y-65872400D03*
X216024700Y-64922400D03*
%TD*%
D23*
%TO.C,REF\u002A\u002A*%
X287000000Y-12500000D03*
X287000000Y-12500000D03*
%TD*%
D38*
%TO.C,D36*%
X107825600Y-137058400D03*
X111325600Y-137058400D03*
%TD*%
D14*
%TO.C,JP9*%
X231475000Y-85598000D03*
D15*
X234015000Y-85598000D03*
X236555000Y-85598000D03*
%TD*%
D35*
%TO.C,P7*%
X179852000Y-70866000D03*
X177312000Y-70866000D03*
X174772000Y-70866000D03*
X172232000Y-70866000D03*
X169692000Y-70866000D03*
X167152000Y-70866000D03*
X164612000Y-70866000D03*
X162072000Y-70866000D03*
X159532000Y-70866000D03*
X156992000Y-70866000D03*
%TD*%
D32*
%TO.C,C14*%
X71374000Y-105867200D03*
X71374000Y-107942200D03*
%TD*%
D17*
%TO.C,R110*%
X79502000Y-135991600D03*
X79502000Y-133991600D03*
%TD*%
D10*
%TO.C,R177*%
X169621200Y-112284000D03*
X169621200Y-114284000D03*
%TD*%
D11*
%TO.C,R189*%
X157851600Y-113639600D03*
X159851600Y-113639600D03*
%TD*%
D16*
%TO.C,J22*%
X25038200Y-172618400D03*
D13*
X30038200Y-172618400D03*
X35038200Y-172618400D03*
X40038200Y-172618400D03*
X45038200Y-172618400D03*
%TD*%
D16*
%TO.C,J54*%
X210870800Y-147062800D03*
D13*
X215870800Y-147062800D03*
%TD*%
D12*
%TO.C,K4*%
X110236000Y-43704400D03*
D13*
X116286000Y-41754400D03*
D12*
X116286000Y-29554400D03*
X104236000Y-29504400D03*
D13*
X104286000Y-41754400D03*
%TD*%
D10*
%TO.C,R152*%
X108915200Y-104105200D03*
X108915200Y-106105200D03*
%TD*%
D17*
%TO.C,R116*%
X97129600Y-136178800D03*
X97129600Y-134178800D03*
%TD*%
D36*
%TO.C,C23*%
X31068100Y-116586000D03*
X33143100Y-116586000D03*
%TD*%
D30*
%TO.C,Q34*%
X163896000Y-108836700D03*
X165796000Y-108836700D03*
X164846000Y-106961700D03*
%TD*%
D19*
%TO.C,R144*%
X266531600Y-87579200D03*
X264531600Y-87579200D03*
%TD*%
%TO.C,R130*%
X122412000Y-125171200D03*
X120412000Y-125171200D03*
%TD*%
D16*
%TO.C,J1*%
X15802000Y-28434800D03*
D13*
X15802000Y-33434800D03*
X15802000Y-38434800D03*
X15802000Y-43434800D03*
%TD*%
D16*
%TO.C,J45*%
X114655600Y-147062800D03*
D13*
X119655600Y-147062800D03*
%TD*%
D16*
%TO.C,J5*%
X15903600Y-90525600D03*
D13*
X15903600Y-95525600D03*
%TD*%
D31*
%TO.C,Q16*%
X60741600Y-137289300D03*
X58841600Y-137289300D03*
X59791600Y-139164300D03*
%TD*%
D23*
%TO.C,REF\u002A\u002A*%
X12500000Y-175500000D03*
X12500000Y-175500000D03*
%TD*%
D16*
%TO.C,J26*%
X67433200Y-15827400D03*
D13*
X62433200Y-15827400D03*
X57433200Y-15827400D03*
%TD*%
D11*
%TO.C,R183*%
X224755200Y-78333600D03*
X226755200Y-78333600D03*
%TD*%
D10*
%TO.C,R68*%
X71475600Y-155651200D03*
X71475600Y-157651200D03*
%TD*%
D30*
%TO.C,Q32*%
X163540400Y-88618300D03*
X165440400Y-88618300D03*
X164490400Y-86743300D03*
%TD*%
D11*
%TO.C,R197*%
X146320000Y-105460800D03*
X148320000Y-105460800D03*
%TD*%
%TO.C,R48*%
X63414400Y-77470000D03*
X65414400Y-77470000D03*
%TD*%
D16*
%TO.C,J38*%
X186168800Y-146961200D03*
D13*
X191168800Y-146961200D03*
X196168800Y-146961200D03*
X201168800Y-146961200D03*
%TD*%
D33*
%TO.C,D40*%
X143713200Y-133733600D03*
X143713200Y-137233600D03*
%TD*%
D16*
%TO.C,J49*%
X254000000Y-111760000D03*
D13*
X254000000Y-106760000D03*
%TD*%
D16*
%TO.C,J47*%
X253238000Y-82296000D03*
D13*
X253238000Y-77296000D03*
%TD*%
D32*
%TO.C,C13*%
X65786000Y-94415700D03*
X65786000Y-96490700D03*
%TD*%
D17*
%TO.C,R168*%
X30210000Y-162798000D03*
X30210000Y-160798000D03*
%TD*%
D30*
%TO.C,Q11*%
X173903600Y-78712300D03*
X175803600Y-78712300D03*
X174853600Y-76837300D03*
%TD*%
D10*
%TO.C,R15*%
X185318400Y-162372800D03*
X185318400Y-164372800D03*
%TD*%
D11*
%TO.C,R185*%
X158816800Y-102819200D03*
X160816800Y-102819200D03*
%TD*%
D16*
%TO.C,J24*%
X144216400Y-172412000D03*
D13*
X149216400Y-172412000D03*
X154216400Y-172412000D03*
X159216400Y-172412000D03*
X164216400Y-172412000D03*
X169216400Y-172412000D03*
X174216400Y-172412000D03*
X179216400Y-172412000D03*
%TD*%
D16*
%TO.C,J6*%
X15903600Y-103225600D03*
D13*
X15903600Y-108225600D03*
%TD*%
D11*
%TO.C,R182*%
X163541200Y-92557600D03*
X165541200Y-92557600D03*
%TD*%
D16*
%TO.C,J46*%
X143005000Y-147062800D03*
D13*
X148005000Y-147062800D03*
%TD*%
D22*
%TO.C,Q39*%
X139397500Y-52517000D03*
X139397500Y-54417000D03*
X141272500Y-53467000D03*
%TD*%
D19*
%TO.C,R212*%
X135747000Y-52705000D03*
X133747000Y-52705000D03*
%TD*%
D38*
%TO.C,D38*%
X123167200Y-137820400D03*
X126667200Y-137820400D03*
%TD*%
D10*
%TO.C,R167*%
X18491200Y-155194000D03*
X18491200Y-157194000D03*
%TD*%
D16*
%TO.C,J42*%
X84966000Y-147062800D03*
D13*
X89966000Y-147062800D03*
%TD*%
D16*
%TO.C,J18*%
X283206800Y-69152000D03*
D13*
X283206800Y-64152000D03*
X283206800Y-59152000D03*
X283206800Y-54152000D03*
%TD*%
D16*
%TO.C,J29*%
X213330800Y-15852800D03*
D13*
X208330800Y-15852800D03*
X203330800Y-15852800D03*
%TD*%
D10*
%TO.C,R133*%
X123240800Y-132908800D03*
X123240800Y-134908800D03*
%TD*%
D39*
%TO.C,C5*%
X91287200Y-76454000D03*
X84887200Y-76454000D03*
%TD*%
D17*
%TO.C,R121*%
X95961200Y-160715200D03*
X95961200Y-158715200D03*
%TD*%
D30*
%TO.C,Q12*%
X174716400Y-88567500D03*
X176616400Y-88567500D03*
X175666400Y-86692500D03*
%TD*%
D16*
%TO.C,J10*%
X283156000Y-93942400D03*
D13*
X283156000Y-88942400D03*
X283156000Y-83942400D03*
X283156000Y-78942400D03*
%TD*%
D32*
%TO.C,C12*%
X65430400Y-81491000D03*
X65430400Y-83566000D03*
%TD*%
D40*
%TO.C,U1*%
X71591400Y-61239400D03*
X71591400Y-62509400D03*
X71591400Y-63779400D03*
X71591400Y-65049400D03*
X76541400Y-65049400D03*
X76541400Y-63779400D03*
X76541400Y-62509400D03*
X76541400Y-61239400D03*
%TD*%
D11*
%TO.C,R191*%
X224891600Y-93472000D03*
X226891600Y-93472000D03*
%TD*%
D38*
%TO.C,D32*%
X88465600Y-130759200D03*
X84965600Y-130759200D03*
%TD*%
D17*
%TO.C,R64*%
X61366400Y-159242000D03*
X61366400Y-157242000D03*
%TD*%
D10*
%TO.C,R170*%
X30276800Y-151654000D03*
X30276800Y-153654000D03*
%TD*%
D30*
%TO.C,Q35*%
X151653200Y-83639900D03*
X153553200Y-83639900D03*
X152603200Y-81764900D03*
%TD*%
D11*
%TO.C,R53*%
X70221600Y-90220800D03*
X72221600Y-90220800D03*
%TD*%
D22*
%TO.C,Q28*%
X124030500Y-89372400D03*
X124030500Y-91272400D03*
X125905500Y-90322400D03*
%TD*%
D19*
%TO.C,R151*%
X237728000Y-121818400D03*
X235728000Y-121818400D03*
%TD*%
D10*
%TO.C,R65*%
X64668400Y-155718000D03*
X64668400Y-157718000D03*
%TD*%
D19*
%TO.C,R115*%
X90611200Y-126034800D03*
X88611200Y-126034800D03*
%TD*%
D10*
%TO.C,R12*%
X214223600Y-162220400D03*
X214223600Y-164220400D03*
%TD*%
D24*
%TO.C,C17*%
X83566000Y-137638700D03*
X83566000Y-135563700D03*
%TD*%
D19*
%TO.C,R128*%
X117027200Y-129641600D03*
X115027200Y-129641600D03*
%TD*%
D11*
%TO.C,R78*%
X174209200Y-82702400D03*
X176209200Y-82702400D03*
%TD*%
%TO.C,R199*%
X224856800Y-109270800D03*
X226856800Y-109270800D03*
%TD*%
D17*
%TO.C,R166*%
X18440400Y-161934400D03*
X18440400Y-159934400D03*
%TD*%
D11*
%TO.C,R145*%
X269967200Y-87630000D03*
X271967200Y-87630000D03*
%TD*%
%TO.C,R87*%
X205756000Y-102006400D03*
X207756000Y-102006400D03*
%TD*%
D14*
%TO.C,JP2*%
X213207600Y-77724000D03*
D15*
X215747600Y-77724000D03*
X218287600Y-77724000D03*
%TD*%
D12*
%TO.C,K5*%
X134264400Y-43755200D03*
D13*
X140314400Y-41805200D03*
D12*
X140314400Y-29605200D03*
X128264400Y-29555200D03*
D13*
X128314400Y-41805200D03*
%TD*%
D11*
%TO.C,R51*%
X63871600Y-90220800D03*
X65871600Y-90220800D03*
%TD*%
D12*
%TO.C,K3*%
X85953600Y-43958400D03*
D13*
X92003600Y-42008400D03*
D12*
X92003600Y-29808400D03*
X79953600Y-29758400D03*
D13*
X80003600Y-42008400D03*
%TD*%
D22*
%TO.C,Q23*%
X112600500Y-82006400D03*
X112600500Y-83906400D03*
X114475500Y-82956400D03*
%TD*%
D19*
%TO.C,R136*%
X276234400Y-64211200D03*
X274234400Y-64211200D03*
%TD*%
D16*
%TO.C,J2*%
X15700400Y-51663600D03*
D13*
X15700400Y-56663600D03*
%TD*%
D11*
%TO.C,R129*%
X108474000Y-123190000D03*
X110474000Y-123190000D03*
%TD*%
D41*
%TO.C,BZ1*%
X151790400Y-54310400D03*
D25*
X151790400Y-60810400D03*
%TD*%
D11*
%TO.C,R73*%
X194275200Y-75387200D03*
X196275200Y-75387200D03*
%TD*%
D16*
%TO.C,J51*%
X254000000Y-142160000D03*
D13*
X254000000Y-137160000D03*
%TD*%
D11*
%TO.C,R120*%
X99177600Y-162610800D03*
X101177600Y-162610800D03*
%TD*%
D10*
%TO.C,R59*%
X49022000Y-152263600D03*
X49022000Y-154263600D03*
%TD*%
D16*
%TO.C,J16*%
X43434000Y-76327000D03*
D13*
X43434000Y-81327000D03*
%TD*%
D11*
%TO.C,R204*%
X26432000Y-144322800D03*
X28432000Y-144322800D03*
%TD*%
%TO.C,R85*%
X180762400Y-98247200D03*
X182762400Y-98247200D03*
%TD*%
D16*
%TO.C,J23*%
X52521000Y-172618400D03*
D13*
X57521000Y-172618400D03*
X62521000Y-172618400D03*
X67521000Y-172618400D03*
X72521000Y-172618400D03*
%TD*%
D19*
%TO.C,R55*%
X80400400Y-101752400D03*
X78400400Y-101752400D03*
%TD*%
D11*
%TO.C,R124*%
X99346000Y-139598400D03*
X101346000Y-139598400D03*
%TD*%
D17*
%TO.C,R56*%
X71755000Y-101965000D03*
X71755000Y-99965000D03*
%TD*%
D10*
%TO.C,R176*%
X42926000Y-152212800D03*
X42926000Y-154212800D03*
%TD*%
D19*
%TO.C,R147*%
X266684000Y-101447600D03*
X264684000Y-101447600D03*
%TD*%
D11*
%TO.C,R82*%
X174818800Y-92151200D03*
X176818800Y-92151200D03*
%TD*%
D27*
%TO.C,C20*%
X94509500Y-139598400D03*
X92434500Y-139598400D03*
%TD*%
D19*
%TO.C,R100*%
X63855600Y-124155200D03*
X61855600Y-124155200D03*
%TD*%
D17*
%TO.C,R61*%
X55524400Y-159089600D03*
X55524400Y-157089600D03*
%TD*%
D10*
%TO.C,R164*%
X119938800Y-103546400D03*
X119938800Y-105546400D03*
%TD*%
%TO.C,R131*%
X119227600Y-132248400D03*
X119227600Y-134248400D03*
%TD*%
D22*
%TO.C,Q25*%
X112600500Y-96535200D03*
X112600500Y-98435200D03*
X114475500Y-97485200D03*
%TD*%
D24*
%TO.C,C19*%
X82702400Y-163140300D03*
X82702400Y-161065300D03*
%TD*%
D11*
%TO.C,R95*%
X272405600Y-46939200D03*
X274405600Y-46939200D03*
%TD*%
D17*
%TO.C,R163*%
X208026000Y-129976800D03*
X208026000Y-127976800D03*
%TD*%
D35*
%TO.C,P12*%
X124978000Y-119126000D03*
X122438000Y-119126000D03*
X119898000Y-119126000D03*
X117358000Y-119126000D03*
X114818000Y-119126000D03*
X112278000Y-119126000D03*
X109738000Y-119126000D03*
X107198000Y-119126000D03*
%TD*%
D11*
%TO.C,R98*%
X273878800Y-49682400D03*
X275878800Y-49682400D03*
%TD*%
D22*
%TO.C,Q27*%
X124335300Y-81955600D03*
X124335300Y-83855600D03*
X126210300Y-82905600D03*
%TD*%
D14*
%TO.C,JP12*%
X231475000Y-109270800D03*
D15*
X234015000Y-109270800D03*
X236555000Y-109270800D03*
%TD*%
D16*
%TO.C,J32*%
X139039600Y-15849600D03*
D13*
X134039600Y-15849600D03*
X129039600Y-15849600D03*
%TD*%
D14*
%TO.C,JP3*%
X213171800Y-85293200D03*
D15*
X215711800Y-85293200D03*
X218251800Y-85293200D03*
%TD*%
D11*
%TO.C,R139*%
X143526000Y-130454400D03*
X145526000Y-130454400D03*
%TD*%
D22*
%TO.C,Q29*%
X123776500Y-96433600D03*
X123776500Y-98333600D03*
X125651500Y-97383600D03*
%TD*%
D17*
%TO.C,R202*%
X31089600Y-125815600D03*
X31089600Y-123815600D03*
%TD*%
D12*
%TO.C,K1*%
X39116000Y-43552000D03*
D13*
X45166000Y-41602000D03*
D12*
X45166000Y-29402000D03*
X33116000Y-29352000D03*
D13*
X33166000Y-41602000D03*
%TD*%
D32*
%TO.C,C4*%
X61417200Y-60989300D03*
X61417200Y-63064300D03*
%TD*%
D17*
%TO.C,R175*%
X42926000Y-158734000D03*
X42926000Y-156734000D03*
%TD*%
D30*
%TO.C,Q36*%
X151653200Y-99845100D03*
X153553200Y-99845100D03*
X152603200Y-97970100D03*
%TD*%
D31*
%TO.C,Q20*%
X115950000Y-133377700D03*
X114050000Y-133377700D03*
X115000000Y-135252700D03*
%TD*%
D19*
%TO.C,R9*%
X26552400Y-129336800D03*
X24552400Y-129336800D03*
%TD*%
D30*
%TO.C,Q14*%
X185638400Y-104721900D03*
X187538400Y-104721900D03*
X186588400Y-102846900D03*
%TD*%
D17*
%TO.C,R172*%
X36322000Y-158530800D03*
X36322000Y-156530800D03*
%TD*%
D16*
%TO.C,J20*%
X15700400Y-129082800D03*
D13*
X15700400Y-134082800D03*
%TD*%
D11*
%TO.C,R122*%
X105086400Y-160934400D03*
X107086400Y-160934400D03*
%TD*%
D16*
%TO.C,J28*%
X114093000Y-15691400D03*
D13*
X109093000Y-15691400D03*
X104093000Y-15691400D03*
%TD*%
D11*
%TO.C,R74*%
X200117200Y-75234800D03*
X202117200Y-75234800D03*
%TD*%
D30*
%TO.C,Q13*%
X186908400Y-94663500D03*
X188808400Y-94663500D03*
X187858400Y-92788500D03*
%TD*%
D11*
%TO.C,R71*%
X206314800Y-71018400D03*
X208314800Y-71018400D03*
%TD*%
D19*
%TO.C,R2*%
X57184800Y-70154800D03*
X55184800Y-70154800D03*
%TD*%
D35*
%TO.C,P11*%
X130058000Y-70866000D03*
X127518000Y-70866000D03*
X124978000Y-70866000D03*
X122438000Y-70866000D03*
X119898000Y-70866000D03*
X117358000Y-70866000D03*
X114818000Y-70866000D03*
X112278000Y-70866000D03*
%TD*%
D42*
%TO.C,C1*%
X46888400Y-67462000D03*
X46888400Y-61062000D03*
%TD*%
D16*
%TO.C,J37*%
X187350400Y-172466000D03*
D13*
X192350400Y-172466000D03*
X197350400Y-172466000D03*
X202350400Y-172466000D03*
%TD*%
D19*
%TO.C,R113*%
X96402400Y-124358400D03*
X94402400Y-124358400D03*
%TD*%
D16*
%TO.C,J19*%
X233920800Y-172412000D03*
D13*
X238920800Y-172412000D03*
X243920800Y-172412000D03*
X248920800Y-172412000D03*
%TD*%
D19*
%TO.C,R111*%
X102041200Y-125272800D03*
X100041200Y-125272800D03*
%TD*%
D10*
%TO.C,R103*%
X53848000Y-131791200D03*
X53848000Y-133791200D03*
%TD*%
D16*
%TO.C,J4*%
X15903600Y-77622400D03*
D13*
X15903600Y-82622400D03*
%TD*%
D16*
%TO.C,J33*%
X238299000Y-15802000D03*
D13*
X233299000Y-15802000D03*
X228299000Y-15802000D03*
%TD*%
D16*
%TO.C,J11*%
X15903600Y-116078000D03*
D13*
X15903600Y-121078000D03*
%TD*%
D10*
%TO.C,R205*%
X35966400Y-139208000D03*
X35966400Y-141208000D03*
%TD*%
D17*
%TO.C,R57*%
X48920400Y-163102800D03*
X48920400Y-161102800D03*
%TD*%
D35*
%TO.C,P9*%
X152918000Y-70866000D03*
X150378000Y-70866000D03*
X147838000Y-70866000D03*
X145298000Y-70866000D03*
X142758000Y-70866000D03*
X140218000Y-70866000D03*
X137678000Y-70866000D03*
X135138000Y-70866000D03*
%TD*%
D10*
%TO.C,R162*%
X208076800Y-133158400D03*
X208076800Y-135158400D03*
%TD*%
D17*
%TO.C,R174*%
X42875200Y-162950400D03*
X42875200Y-160950400D03*
%TD*%
D19*
%TO.C,R153*%
X267970000Y-132080000D03*
X265970000Y-132080000D03*
%TD*%
D35*
%TO.C,P8*%
X170698000Y-119126000D03*
X168158000Y-119126000D03*
X165618000Y-119126000D03*
X163078000Y-119126000D03*
X160538000Y-119126000D03*
X157998000Y-119126000D03*
X155458000Y-119126000D03*
X152918000Y-119126000D03*
%TD*%
D16*
%TO.C,J52*%
X283257600Y-157327600D03*
D13*
X283257600Y-152327600D03*
%TD*%
D11*
%TO.C,R154*%
X271034000Y-132181600D03*
X273034000Y-132181600D03*
%TD*%
D43*
%TO.C,P13*%
X104700000Y-114056000D03*
D44*
X102160000Y-114056000D03*
X104700000Y-111516000D03*
X102160000Y-111516000D03*
X104700000Y-108976000D03*
X102160000Y-108976000D03*
X104700000Y-106436000D03*
X102160000Y-106436000D03*
X104700000Y-103896000D03*
X102160000Y-103896000D03*
X104700000Y-101356000D03*
X102160000Y-101356000D03*
X104700000Y-98816000D03*
X102160000Y-98816000D03*
X104700000Y-96276000D03*
X102160000Y-96276000D03*
X104700000Y-93736000D03*
X102160000Y-93736000D03*
X104700000Y-91196000D03*
X102160000Y-91196000D03*
X104700000Y-88656000D03*
X102160000Y-88656000D03*
X104700000Y-86116000D03*
X102160000Y-86116000D03*
X104700000Y-83576000D03*
X102160000Y-83576000D03*
X104700000Y-81036000D03*
X102160000Y-81036000D03*
X104700000Y-78496000D03*
X102160000Y-78496000D03*
X104700000Y-75956000D03*
X102160000Y-75956000D03*
X104700000Y-73416000D03*
X102160000Y-73416000D03*
X104700000Y-70876000D03*
X102160000Y-70876000D03*
%TD*%
M02*
