%TF.GenerationSoftware,KiCad,Pcbnew,(6.0.0)*%
%TF.CreationDate,2022-03-05T09:13:47+01:00*%
%TF.ProjectId,arduiboard1,61726475-6962-46f6-9172-64312e6b6963,rev?*%
%TF.SameCoordinates,Original*%
%TF.FileFunction,Copper,L4,Bot*%
%TF.FilePolarity,Positive*%
%FSLAX46Y46*%
G04 Gerber Fmt 4.6, Leading zero omitted, Abs format (unit mm)*
G04 Created by KiCad (PCBNEW (6.0.0)) date 2022-03-05 09:13:47*
%MOMM*%
%LPD*%
G01*
G04 APERTURE LIST*
G04 Aperture macros list*
%AMRoundRect*
0 Rectangle with rounded corners*
0 $1 Rounding radius*
0 $2 $3 $4 $5 $6 $7 $8 $9 X,Y pos of 4 corners*
0 Add a 4 corners polygon primitive as box body*
4,1,4,$2,$3,$4,$5,$6,$7,$8,$9,$2,$3,0*
0 Add four circle primitives for the rounded corners*
1,1,$1+$1,$2,$3*
1,1,$1+$1,$4,$5*
1,1,$1+$1,$6,$7*
1,1,$1+$1,$8,$9*
0 Add four rect primitives between the rounded corners*
20,1,$1+$1,$2,$3,$4,$5,0*
20,1,$1+$1,$4,$5,$6,$7,0*
20,1,$1+$1,$6,$7,$8,$9,0*
20,1,$1+$1,$8,$9,$2,$3,0*%
%AMOutline4P*
0 Free polygon, 4 corners , with rotation*
0 The origin of the aperture is its center*
0 number of corners: always 4*
0 $1 to $8 corner X, Y*
0 $9 Rotation angle, in degrees counterclockwise*
0 create outline with 4 corners*
4,1,4,$1,$2,$3,$4,$5,$6,$7,$8,$1,$2,$9*%
G04 Aperture macros list end*
%TA.AperFunction,ComponentPad*%
%ADD10C,3.000000*%
%TD*%
%TA.AperFunction,ComponentPad*%
%ADD11C,2.500000*%
%TD*%
%TA.AperFunction,ComponentPad*%
%ADD12R,1.700000X1.700000*%
%TD*%
%TA.AperFunction,ComponentPad*%
%ADD13O,1.700000X1.700000*%
%TD*%
%TA.AperFunction,ComponentPad*%
%ADD14R,2.500000X2.500000*%
%TD*%
%TA.AperFunction,ComponentPad*%
%ADD15C,2.000000*%
%TD*%
%TA.AperFunction,ComponentPad*%
%ADD16O,1.727200X2.032000*%
%TD*%
%TA.AperFunction,ComponentPad*%
%ADD17R,2.000000X2.000000*%
%TD*%
%TA.AperFunction,SMDPad,CuDef*%
%ADD18RoundRect,0.250000X-0.450000X0.350000X-0.450000X-0.350000X0.450000X-0.350000X0.450000X0.350000X0*%
%TD*%
%TA.AperFunction,SMDPad,CuDef*%
%ADD19Outline4P,-1.800000X-1.150000X1.800000X-0.550000X1.800000X0.550000X-1.800000X1.150000X90.000000*%
%TD*%
%TA.AperFunction,SMDPad,CuDef*%
%ADD20Outline4P,-1.800000X-1.150000X1.800000X-0.550000X1.800000X0.550000X-1.800000X1.150000X270.000000*%
%TD*%
%TA.AperFunction,SMDPad,CuDef*%
%ADD21RoundRect,0.250000X0.350000X0.450000X-0.350000X0.450000X-0.350000X-0.450000X0.350000X-0.450000X0*%
%TD*%
%TA.AperFunction,SMDPad,CuDef*%
%ADD22RoundRect,0.150000X-0.150000X0.587500X-0.150000X-0.587500X0.150000X-0.587500X0.150000X0.587500X0*%
%TD*%
%TA.AperFunction,SMDPad,CuDef*%
%ADD23Outline4P,-1.800000X-1.150000X1.800000X-0.550000X1.800000X0.550000X-1.800000X1.150000X180.000000*%
%TD*%
%TA.AperFunction,SMDPad,CuDef*%
%ADD24Outline4P,-1.800000X-1.150000X1.800000X-0.550000X1.800000X0.550000X-1.800000X1.150000X0.000000*%
%TD*%
%TA.AperFunction,SMDPad,CuDef*%
%ADD25RoundRect,0.250000X-0.337500X-0.475000X0.337500X-0.475000X0.337500X0.475000X-0.337500X0.475000X0*%
%TD*%
%TA.AperFunction,SMDPad,CuDef*%
%ADD26RoundRect,0.150000X0.150000X-0.587500X0.150000X0.587500X-0.150000X0.587500X-0.150000X-0.587500X0*%
%TD*%
%TA.AperFunction,SMDPad,CuDef*%
%ADD27R,1.300000X1.700000*%
%TD*%
%TA.AperFunction,SMDPad,CuDef*%
%ADD28RoundRect,0.250000X0.450000X-0.350000X0.450000X0.350000X-0.450000X0.350000X-0.450000X-0.350000X0*%
%TD*%
%TA.AperFunction,SMDPad,CuDef*%
%ADD29RoundRect,0.250000X-0.350000X-0.450000X0.350000X-0.450000X0.350000X0.450000X-0.350000X0.450000X0*%
%TD*%
%TA.AperFunction,SMDPad,CuDef*%
%ADD30RoundRect,0.250000X-0.475000X0.337500X-0.475000X-0.337500X0.475000X-0.337500X0.475000X0.337500X0*%
%TD*%
%TA.AperFunction,ComponentPad*%
%ADD31C,1.727200*%
%TD*%
%TA.AperFunction,ComponentPad*%
%ADD32O,1.727200X1.727200*%
%TD*%
%TA.AperFunction,SMDPad,CuDef*%
%ADD33RoundRect,0.250000X0.475000X-0.337500X0.475000X0.337500X-0.475000X0.337500X-0.475000X-0.337500X0*%
%TD*%
%TA.AperFunction,ViaPad*%
%ADD34C,0.600000*%
%TD*%
%TA.AperFunction,ViaPad*%
%ADD35C,1.500000*%
%TD*%
%TA.AperFunction,ViaPad*%
%ADD36C,1.000000*%
%TD*%
%TA.AperFunction,ViaPad*%
%ADD37C,1.200000*%
%TD*%
%TA.AperFunction,Conductor*%
%ADD38C,0.200000*%
%TD*%
%TA.AperFunction,Conductor*%
%ADD39C,0.250000*%
%TD*%
%TA.AperFunction,Conductor*%
%ADD40C,1.000000*%
%TD*%
%TA.AperFunction,Conductor*%
%ADD41C,0.800000*%
%TD*%
G04 APERTURE END LIST*
D10*
%TO.P,K10,1*%
%TO.N,/logique/Bloc relais/COM10*%
X258114800Y-43552000D03*
D11*
%TO.P,K10,2*%
%TO.N,Net-(D57-Pad1)*%
X264164800Y-41602000D03*
D10*
%TO.P,K10,3*%
%TO.N,/logique/Bloc relais/NO10*%
X264164800Y-29402000D03*
%TO.P,K10,4*%
%TO.N,/logique/Bloc relais/NF10*%
X252114800Y-29352000D03*
D11*
%TO.P,K10,5*%
%TO.N,+12V*%
X252164800Y-41602000D03*
%TD*%
D12*
%TO.P,JP10,1,A*%
%TO.N,Net-(JP10-Pad1)*%
X231475000Y-93268800D03*
D13*
%TO.P,JP10,2,C*%
%TO.N,/logique/Collecteurs ouverts/OC10-PWM*%
X234015000Y-93268800D03*
%TO.P,JP10,3,B*%
%TO.N,Net-(JP10-Pad3)*%
X236555000Y-93268800D03*
%TD*%
D14*
%TO.P,J14,1,Pin_1*%
%TO.N,/logique/Entr\u00E9es digitales/IN7*%
X43386400Y-101473000D03*
D11*
%TO.P,J14,2,Pin_2*%
%TO.N,GND*%
X43386400Y-106473000D03*
%TD*%
D14*
%TO.P,J41,1,Pin_1*%
%TO.N,/logique/Extensions/Simple extension1/EI*%
X54867000Y-147062800D03*
D11*
%TO.P,J41,2,Pin_2*%
%TO.N,/logique/Extensions/Simple extension1/COL_EXT*%
X59867000Y-147062800D03*
%TD*%
D14*
%TO.P,J34,1,Pin_1*%
%TO.N,/logique/Bloc relais/NO10*%
X262479800Y-16056000D03*
D11*
%TO.P,J34,2,Pin_2*%
%TO.N,/logique/Bloc relais/COM10*%
X257479800Y-16056000D03*
%TO.P,J34,3,Pin_3*%
%TO.N,/logique/Bloc relais/NF10*%
X252479800Y-16056000D03*
%TD*%
D14*
%TO.P,J9,1,Pin_1*%
%TO.N,GND*%
X283257600Y-117158000D03*
D11*
%TO.P,J9,2,Pin_2*%
%TO.N,VCC*%
X283257600Y-112158000D03*
%TO.P,J9,3,Pin_3*%
%TO.N,17(Rx2)*%
X283257600Y-107158000D03*
%TO.P,J9,4,Pin_4*%
%TO.N,16(Tx2)*%
X283257600Y-102158000D03*
%TD*%
D15*
%TO.P,SW1,1,1*%
%TO.N,GND*%
X160872800Y-131162400D03*
%TO.P,SW1,2,2*%
%TO.N,Reset*%
X165872800Y-131162400D03*
%TD*%
D14*
%TO.P,J36,1,Pin_1*%
%TO.N,VCC*%
X162699200Y-147012000D03*
D11*
%TO.P,J36,2,Pin_2*%
X167699200Y-147012000D03*
%TO.P,J36,3,Pin_3*%
X172699200Y-147012000D03*
%TO.P,J36,4,Pin_4*%
X177699200Y-147012000D03*
%TD*%
D14*
%TO.P,J17,1,Pin_1*%
%TO.N,GND*%
X283105200Y-45174400D03*
D11*
%TO.P,J17,2,Pin_2*%
%TO.N,VCC*%
X283105200Y-40174400D03*
%TO.P,J17,3,Pin_3*%
%TO.N,0(Rx0)*%
X283105200Y-35174400D03*
%TO.P,J17,4,Pin_4*%
%TO.N,1(Tx0)*%
X283105200Y-30174400D03*
%TD*%
D14*
%TO.P,J39,1,Pin_1*%
%TO.N,/logique/Extensions/Simple extension2/EI*%
X69342000Y-147113600D03*
D11*
%TO.P,J39,2,Pin_2*%
%TO.N,/logique/Extensions/Simple extension2/COL_EXT*%
X74342000Y-147113600D03*
%TD*%
D14*
%TO.P,J12,1,Pin_1*%
%TO.N,/logique/Entr\u00E9es digitales/IN9*%
X15954400Y-142595600D03*
D11*
%TO.P,J12,2,Pin_2*%
%TO.N,GND*%
X15954400Y-147595600D03*
%TD*%
D12*
%TO.P,JP6,1,A*%
%TO.N,Net-(JP6-Pad1)*%
X213563200Y-109016800D03*
D13*
%TO.P,JP6,2,C*%
%TO.N,/logique/Collecteurs ouverts/OC6-PWM*%
X216103200Y-109016800D03*
%TO.P,JP6,3,B*%
%TO.N,Net-(JP6-Pad3)*%
X218643200Y-109016800D03*
%TD*%
D14*
%TO.P,J31,1,Pin_1*%
%TO.N,/logique/Bloc relais/NO7*%
X163648400Y-15802000D03*
D11*
%TO.P,J31,2,Pin_2*%
%TO.N,/logique/Bloc relais/COM7*%
X158648400Y-15802000D03*
%TO.P,J31,3,Pin_3*%
%TO.N,/logique/Bloc relais/NF7*%
X153648400Y-15802000D03*
%TD*%
D14*
%TO.P,J8,1,Pin_1*%
%TO.N,GND*%
X257644400Y-172412000D03*
D11*
%TO.P,J8,2,Pin_2*%
%TO.N,VCC*%
X262644400Y-172412000D03*
%TO.P,J8,3,Pin_3*%
%TO.N,SDA*%
X267644400Y-172412000D03*
%TO.P,J8,4,Pin_4*%
%TO.N,SCL*%
X272644400Y-172412000D03*
%TD*%
D14*
%TO.P,J3,1,Pin_1*%
%TO.N,/logique/Entr\u00E9es digitales/IN1*%
X15802000Y-64871600D03*
D11*
%TO.P,J3,2,Pin_2*%
%TO.N,GND*%
X15802000Y-69871600D03*
%TD*%
D10*
%TO.P,K6,1*%
%TO.N,/logique/Bloc relais/COM7*%
X159258000Y-43958400D03*
D11*
%TO.P,K6,2*%
%TO.N,Net-(D11-Pad1)*%
X165308000Y-42008400D03*
D10*
%TO.P,K6,3*%
%TO.N,/logique/Bloc relais/NO7*%
X165308000Y-29808400D03*
%TO.P,K6,4*%
%TO.N,/logique/Bloc relais/NF7*%
X153258000Y-29758400D03*
D11*
%TO.P,K6,5*%
%TO.N,+12V*%
X153308000Y-42008400D03*
%TD*%
D14*
%TO.P,J44,1,Pin_1*%
%TO.N,/logique/Extensions/Simple extension6/EI*%
X99822000Y-147062800D03*
D11*
%TO.P,J44,2,Pin_2*%
%TO.N,/logique/Extensions/Simple extension6/COL_EXT*%
X104822000Y-147062800D03*
%TD*%
D10*
%TO.P,K8,1*%
%TO.N,/logique/Bloc relais/COM5*%
X209397600Y-44161600D03*
D11*
%TO.P,K8,2*%
%TO.N,Net-(D13-Pad1)*%
X215447600Y-42211600D03*
D10*
%TO.P,K8,3*%
%TO.N,/logique/Bloc relais/NO5*%
X215447600Y-30011600D03*
%TO.P,K8,4*%
%TO.N,/logique/Bloc relais/NF5*%
X203397600Y-29961600D03*
D11*
%TO.P,K8,5*%
%TO.N,+12V*%
X203447600Y-42211600D03*
%TD*%
D14*
%TO.P,J40,1,Pin_1*%
%TO.N,/logique/Extensions/Simple extension/EI*%
X43335600Y-129540000D03*
D11*
%TO.P,J40,2,Pin_2*%
%TO.N,/logique/Extensions/Simple extension/COL_EXT*%
X43335600Y-134540000D03*
%TD*%
D16*
%TO.P,P10,1,Pin_1*%
%TO.N,A0*%
X147838000Y-119126000D03*
%TO.P,P10,2,Pin_2*%
%TO.N,A1*%
X145298000Y-119126000D03*
%TO.P,P10,3,Pin_3*%
%TO.N,A2*%
X142758000Y-119126000D03*
%TO.P,P10,4,Pin_4*%
%TO.N,A3*%
X140218000Y-119126000D03*
%TO.P,P10,5,Pin_5*%
%TO.N,A4*%
X137678000Y-119126000D03*
%TO.P,P10,6,Pin_6*%
%TO.N,A5*%
X135138000Y-119126000D03*
%TO.P,P10,7,Pin_7*%
%TO.N,A6*%
X132598000Y-119126000D03*
%TO.P,P10,8,Pin_8*%
%TO.N,A7*%
X130058000Y-119126000D03*
%TD*%
D12*
%TO.P,JP4,1,A*%
%TO.N,Net-(JP4-Pad1)*%
X213410800Y-92913200D03*
D13*
%TO.P,JP4,2,C*%
%TO.N,/logique/Collecteurs ouverts/OC4*%
X215950800Y-92913200D03*
%TO.P,JP4,3,B*%
%TO.N,Net-(JP4-Pad3)*%
X218490800Y-92913200D03*
%TD*%
D12*
%TO.P,JP5,1,A*%
%TO.N,Net-(JP5-Pad1)*%
X213512400Y-102006400D03*
D13*
%TO.P,JP5,2,C*%
%TO.N,/logique/Collecteurs ouverts/OC5-PWM*%
X216052400Y-102006400D03*
%TO.P,JP5,3,B*%
%TO.N,Net-(JP5-Pad3)*%
X218592400Y-102006400D03*
%TD*%
D14*
%TO.P,J43,1,Pin_1*%
%TO.N,/logique/Extensions/Simple extension5/EI*%
X129289000Y-147120000D03*
D11*
%TO.P,J43,2,Pin_2*%
%TO.N,/logique/Extensions/Simple extension5/COL_EXT*%
X134289000Y-147120000D03*
%TD*%
D14*
%TO.P,J50,1,Pin_1*%
%TO.N,/logique/Entr\u00E9es analogiques - Extension/Extention analogique simple3/COL_AIN_EXT*%
X254000000Y-127000000D03*
D11*
%TO.P,J50,2,Pin_2*%
%TO.N,/logique/Entr\u00E9es analogiques - Extension/Extention analogique simple3/A_IN_EXT*%
X254000000Y-122000000D03*
%TD*%
D14*
%TO.P,J27,1,Pin_1*%
%TO.N,/logique/Bloc relais/NO3*%
X90191600Y-15827400D03*
D11*
%TO.P,J27,2,Pin_2*%
%TO.N,/logique/Bloc relais/COM3*%
X85191600Y-15827400D03*
%TO.P,J27,3,Pin_3*%
%TO.N,/logique/Bloc relais/NF3*%
X80191600Y-15827400D03*
%TD*%
D10*
%TO.P,K7,1*%
%TO.N,/logique/Bloc relais/COM6*%
X184454800Y-44364800D03*
D11*
%TO.P,K7,2*%
%TO.N,Net-(D12-Pad1)*%
X190504800Y-42414800D03*
D10*
%TO.P,K7,3*%
%TO.N,/logique/Bloc relais/NO6*%
X190504800Y-30214800D03*
%TO.P,K7,4*%
%TO.N,/logique/Bloc relais/NF6*%
X178454800Y-30164800D03*
D11*
%TO.P,K7,5*%
%TO.N,+12V*%
X178504800Y-42414800D03*
%TD*%
D14*
%TO.P,J13,1,Pin_1*%
%TO.N,/logique/Entr\u00E9es digitales/IN8*%
X43383200Y-114655600D03*
D11*
%TO.P,J13,2,Pin_2*%
%TO.N,GND*%
X43383200Y-119655600D03*
%TD*%
D12*
%TO.P,JP11,1,A*%
%TO.N,Net-(JP11-Pad1)*%
X231475000Y-101600000D03*
D13*
%TO.P,JP11,2,C*%
%TO.N,/logique/Collecteurs ouverts/OC11-PWM*%
X234015000Y-101600000D03*
%TO.P,JP11,3,B*%
%TO.N,Net-(JP11-Pad3)*%
X236555000Y-101600000D03*
%TD*%
D14*
%TO.P,J48,1,Pin_1*%
%TO.N,/logique/Entr\u00E9es analogiques - Extension/Extention analogique simple1/COL_AIN_EXT*%
X253565000Y-96266000D03*
D11*
%TO.P,J48,2,Pin_2*%
%TO.N,/logique/Entr\u00E9es analogiques - Extension/Extention analogique simple1/A_IN_EXT*%
X253565000Y-91266000D03*
%TD*%
D10*
%TO.P,K9,1*%
%TO.N,/logique/Bloc relais/COM9*%
X233934000Y-44187000D03*
D11*
%TO.P,K9,2*%
%TO.N,Net-(D56-Pad1)*%
X239984000Y-42237000D03*
D10*
%TO.P,K9,3*%
%TO.N,/logique/Bloc relais/NO9*%
X239984000Y-30037000D03*
%TO.P,K9,4*%
%TO.N,/logique/Bloc relais/NF9*%
X227934000Y-29987000D03*
D11*
%TO.P,K9,5*%
%TO.N,+12V*%
X227984000Y-42237000D03*
%TD*%
D14*
%TO.P,J25,1,Pin_1*%
%TO.N,/logique/Bloc relais/NO1*%
X43608000Y-15675000D03*
D11*
%TO.P,J25,2,Pin_2*%
%TO.N,/logique/Bloc relais/COM1*%
X38608000Y-15675000D03*
%TO.P,J25,3,Pin_3*%
%TO.N,/logique/Bloc relais/NF1*%
X33608000Y-15675000D03*
%TD*%
D12*
%TO.P,JP1,1,A*%
%TO.N,Net-(JP1-Pad1)*%
X213375000Y-71120000D03*
D13*
%TO.P,JP1,2,C*%
%TO.N,/logique/Collecteurs ouverts/OC1*%
X215915000Y-71120000D03*
%TO.P,JP1,3,B*%
%TO.N,Net-(JP1-Pad3)*%
X218455000Y-71120000D03*
%TD*%
D14*
%TO.P,J35,1,Pin_1*%
%TO.N,Net-(J35-Pad1)*%
X210298800Y-172462800D03*
D11*
%TO.P,J35,2,Pin_2*%
%TO.N,Net-(J35-Pad2)*%
X215298800Y-172462800D03*
%TO.P,J35,3,Pin_3*%
%TO.N,Net-(J35-Pad3)*%
X220298800Y-172462800D03*
%TO.P,J35,4,Pin_4*%
%TO.N,Net-(J35-Pad4)*%
X225298800Y-172462800D03*
%TD*%
D14*
%TO.P,J30,1,Pin_1*%
%TO.N,/logique/Bloc relais/NO6*%
X189200800Y-15852800D03*
D11*
%TO.P,J30,2,Pin_2*%
%TO.N,/logique/Bloc relais/COM6*%
X184200800Y-15852800D03*
%TO.P,J30,3,Pin_3*%
%TO.N,/logique/Bloc relais/NF6*%
X179200800Y-15852800D03*
%TD*%
D12*
%TO.P,JP8,1,A*%
%TO.N,Net-(JP8-Pad1)*%
X231475000Y-78130400D03*
D13*
%TO.P,JP8,2,C*%
%TO.N,/logique/Collecteurs ouverts/OC8-PWM*%
X234015000Y-78130400D03*
%TO.P,JP8,3,B*%
%TO.N,Net-(JP8-Pad3)*%
X236555000Y-78130400D03*
%TD*%
D12*
%TO.P,JP7,1,A*%
%TO.N,Net-(JP7-Pad1)*%
X231460000Y-71500000D03*
D13*
%TO.P,JP7,2,C*%
%TO.N,/logique/Collecteurs ouverts/OC7-PWM*%
X234000000Y-71500000D03*
%TO.P,JP7,3,B*%
%TO.N,Net-(JP7-Pad3)*%
X236540000Y-71500000D03*
%TD*%
D10*
%TO.P,K2,1*%
%TO.N,/logique/Bloc relais/COM2*%
X63195200Y-43958400D03*
D11*
%TO.P,K2,2*%
%TO.N,Net-(D7-Pad1)*%
X69245200Y-42008400D03*
D10*
%TO.P,K2,3*%
%TO.N,/logique/Bloc relais/NO2*%
X69245200Y-29808400D03*
%TO.P,K2,4*%
%TO.N,/logique/Bloc relais/NF2*%
X57195200Y-29758400D03*
D11*
%TO.P,K2,5*%
%TO.N,+12V*%
X57245200Y-42008400D03*
%TD*%
D14*
%TO.P,J53,1,Pin_1*%
%TO.N,/logique/Entr\u00E9es analogiques - Extension/Extention analogique simple4/COL_AIN_EXT*%
X223672400Y-147012000D03*
D11*
%TO.P,J53,2,Pin_2*%
%TO.N,/logique/Entr\u00E9es analogiques - Extension/Extention analogique simple4/A_IN_EXT*%
X228672400Y-147012000D03*
%TD*%
D14*
%TO.P,J15,1,Pin_1*%
%TO.N,/logique/Entr\u00E9es digitales/IN6*%
X43332400Y-88900000D03*
D11*
%TO.P,J15,2,Pin_2*%
%TO.N,GND*%
X43332400Y-93900000D03*
%TD*%
D14*
%TO.P,J21,1,Pin_1*%
%TO.N,/logique/Collecteurs ouverts/OC5-PWM*%
X81261400Y-172469200D03*
D11*
%TO.P,J21,2,Pin_2*%
%TO.N,/logique/Collecteurs ouverts/OC6-PWM*%
X86261400Y-172469200D03*
%TO.P,J21,3,Pin_3*%
%TO.N,/logique/Collecteurs ouverts/OC7-PWM*%
X91261400Y-172469200D03*
%TO.P,J21,4,Pin_4*%
%TO.N,/logique/Collecteurs ouverts/OC8-PWM*%
X96261400Y-172469200D03*
%TO.P,J21,5,Pin_5*%
%TO.N,/logique/Collecteurs ouverts/OC9-PWM*%
X101261400Y-172469200D03*
%TO.P,J21,6,Pin_6*%
%TO.N,/logique/Collecteurs ouverts/OC10-PWM*%
X106261400Y-172469200D03*
%TO.P,J21,7,Pin_7*%
%TO.N,/logique/Collecteurs ouverts/OC11-PWM*%
X111261400Y-172469200D03*
%TO.P,J21,8,Pin_8*%
%TO.N,/logique/Collecteurs ouverts/OC12-PWM*%
X116261400Y-172469200D03*
%TO.P,J21,9,Pin_9*%
%TO.N,GND*%
X121261400Y-172469200D03*
%TO.P,J21,10,Pin_10*%
X126261400Y-172469200D03*
%TO.P,J21,11,Pin_11*%
X131261400Y-172469200D03*
%TO.P,J21,12,Pin_12*%
X136261400Y-172469200D03*
%TD*%
D14*
%TO.P,J7,1,Pin_1*%
%TO.N,GND*%
X283410000Y-140526000D03*
D11*
%TO.P,J7,2,Pin_2*%
%TO.N,VCC*%
X283410000Y-135526000D03*
%TO.P,J7,3,Pin_3*%
%TO.N,20(SDA)*%
X283410000Y-130526000D03*
%TO.P,J7,4,Pin_4*%
%TO.N,21(SCL)*%
X283410000Y-125526000D03*
%TD*%
D12*
%TO.P,JP9,1,A*%
%TO.N,Net-(JP9-Pad1)*%
X231475000Y-85598000D03*
D13*
%TO.P,JP9,2,C*%
%TO.N,/logique/Collecteurs ouverts/OC9-PWM*%
X234015000Y-85598000D03*
%TO.P,JP9,3,B*%
%TO.N,Net-(JP9-Pad3)*%
X236555000Y-85598000D03*
%TD*%
D16*
%TO.P,P7,1,Pin_1*%
%TO.N,SCL*%
X179852000Y-70866000D03*
%TO.P,P7,2,Pin_2*%
%TO.N,SDA*%
X177312000Y-70866000D03*
%TO.P,P7,3,Pin_3*%
%TO.N,AREF*%
X174772000Y-70866000D03*
%TO.P,P7,4,Pin_4*%
%TO.N,GND*%
X172232000Y-70866000D03*
%TO.P,P7,5,Pin_5*%
%TO.N,13(\u002A\u002A)*%
X169692000Y-70866000D03*
%TO.P,P7,6,Pin_6*%
%TO.N,12(\u002A\u002A)*%
X167152000Y-70866000D03*
%TO.P,P7,7,Pin_7*%
%TO.N,11(\u002A\u002A)*%
X164612000Y-70866000D03*
%TO.P,P7,8,Pin_8*%
%TO.N,10(\u002A\u002A)*%
X162072000Y-70866000D03*
%TO.P,P7,9,Pin_9*%
%TO.N,9(\u002A\u002A)*%
X159532000Y-70866000D03*
%TO.P,P7,10,Pin_10*%
%TO.N,8(\u002A\u002A)*%
X156992000Y-70866000D03*
%TD*%
D14*
%TO.P,J22,1,Pin_1*%
%TO.N,/logique/Entr\u00E9es analogiques/ANALOG5*%
X25038200Y-172618400D03*
D11*
%TO.P,J22,2,Pin_2*%
%TO.N,/logique/Entr\u00E9es analogiques/ANALOG6*%
X30038200Y-172618400D03*
%TO.P,J22,3,Pin_3*%
%TO.N,/logique/Entr\u00E9es analogiques/ANALOG7*%
X35038200Y-172618400D03*
%TO.P,J22,4,Pin_4*%
%TO.N,/logique/Entr\u00E9es analogiques/ANALOG8*%
X40038200Y-172618400D03*
%TO.P,J22,5,Pin_5*%
%TO.N,GND*%
X45038200Y-172618400D03*
%TD*%
D14*
%TO.P,J54,1,Pin_1*%
%TO.N,/logique/Entr\u00E9es analogiques - Extension/Extention analogique simple7/COL_AIN_EXT*%
X210870800Y-147062800D03*
D11*
%TO.P,J54,2,Pin_2*%
%TO.N,/logique/Entr\u00E9es analogiques - Extension/Extention analogique simple7/A_IN_EXT*%
X215870800Y-147062800D03*
%TD*%
D10*
%TO.P,K4,1*%
%TO.N,/logique/Bloc relais/COM4*%
X110236000Y-43704400D03*
D11*
%TO.P,K4,2*%
%TO.N,Net-(D9-Pad1)*%
X116286000Y-41754400D03*
D10*
%TO.P,K4,3*%
%TO.N,/logique/Bloc relais/NO4*%
X116286000Y-29554400D03*
%TO.P,K4,4*%
%TO.N,/logique/Bloc relais/NF4*%
X104236000Y-29504400D03*
D11*
%TO.P,K4,5*%
%TO.N,+12V*%
X104286000Y-41754400D03*
%TD*%
D14*
%TO.P,J1,1,Pin_1*%
%TO.N,Net-(D1-Pad1)*%
X15802000Y-28434800D03*
D11*
%TO.P,J1,2,Pin_2*%
X15802000Y-33434800D03*
%TO.P,J1,3,Pin_3*%
%TO.N,GND*%
X15802000Y-38434800D03*
%TO.P,J1,4,Pin_4*%
X15802000Y-43434800D03*
%TD*%
D14*
%TO.P,J45,1,Pin_1*%
%TO.N,/logique/Extensions/Simple extension7/EI*%
X114655600Y-147062800D03*
D11*
%TO.P,J45,2,Pin_2*%
%TO.N,/logique/Extensions/Simple extension7/COL_EXT*%
X119655600Y-147062800D03*
%TD*%
D14*
%TO.P,J5,1,Pin_1*%
%TO.N,/logique/Entr\u00E9es digitales/IN3*%
X15903600Y-90525600D03*
D11*
%TO.P,J5,2,Pin_2*%
%TO.N,GND*%
X15903600Y-95525600D03*
%TD*%
D14*
%TO.P,J26,1,Pin_1*%
%TO.N,/logique/Bloc relais/NO2*%
X67433200Y-15827400D03*
D11*
%TO.P,J26,2,Pin_2*%
%TO.N,/logique/Bloc relais/COM2*%
X62433200Y-15827400D03*
%TO.P,J26,3,Pin_3*%
%TO.N,/logique/Bloc relais/NF2*%
X57433200Y-15827400D03*
%TD*%
D14*
%TO.P,J38,1,Pin_1*%
%TO.N,+12V*%
X186168800Y-146961200D03*
D11*
%TO.P,J38,2,Pin_2*%
X191168800Y-146961200D03*
%TO.P,J38,3,Pin_3*%
X196168800Y-146961200D03*
%TO.P,J38,4,Pin_4*%
X201168800Y-146961200D03*
%TD*%
D14*
%TO.P,J49,1,Pin_1*%
%TO.N,/logique/Entr\u00E9es analogiques - Extension/Extention analogique simple2/COL_AIN_EXT*%
X254000000Y-111760000D03*
D11*
%TO.P,J49,2,Pin_2*%
%TO.N,/logique/Entr\u00E9es analogiques - Extension/Extention analogique simple2/A_IN_EXT*%
X254000000Y-106760000D03*
%TD*%
D14*
%TO.P,J47,1,Pin_1*%
%TO.N,/logique/Entr\u00E9es analogiques - Extension/Extention analogique simple/COL_AIN_EXT*%
X253238000Y-82296000D03*
D11*
%TO.P,J47,2,Pin_2*%
%TO.N,/logique/Entr\u00E9es analogiques - Extension/Extention analogique simple/A_IN_EXT*%
X253238000Y-77296000D03*
%TD*%
D14*
%TO.P,J24,1,Pin_1*%
%TO.N,/logique/Collecteurs ouverts/OC1*%
X144216400Y-172412000D03*
D11*
%TO.P,J24,2,Pin_2*%
%TO.N,/logique/Collecteurs ouverts/OC2*%
X149216400Y-172412000D03*
%TO.P,J24,3,Pin_3*%
%TO.N,/logique/Collecteurs ouverts/OC3*%
X154216400Y-172412000D03*
%TO.P,J24,4,Pin_4*%
%TO.N,/logique/Collecteurs ouverts/OC4*%
X159216400Y-172412000D03*
%TO.P,J24,5,Pin_5*%
%TO.N,GND*%
X164216400Y-172412000D03*
%TO.P,J24,6,Pin_6*%
X169216400Y-172412000D03*
%TO.P,J24,7,Pin_7*%
X174216400Y-172412000D03*
%TO.P,J24,8,Pin_8*%
X179216400Y-172412000D03*
%TD*%
D14*
%TO.P,J6,1,Pin_1*%
%TO.N,/logique/Entr\u00E9es digitales/IN4*%
X15903600Y-103225600D03*
D11*
%TO.P,J6,2,Pin_2*%
%TO.N,GND*%
X15903600Y-108225600D03*
%TD*%
D14*
%TO.P,J46,1,Pin_1*%
%TO.N,/logique/Extensions/Simple extension4/EI*%
X143005000Y-147062800D03*
D11*
%TO.P,J46,2,Pin_2*%
%TO.N,/logique/Extensions/Simple extension4/COL_EXT*%
X148005000Y-147062800D03*
%TD*%
D14*
%TO.P,J42,1,Pin_1*%
%TO.N,/logique/Extensions/Simple extension3/EI*%
X84966000Y-147062800D03*
D11*
%TO.P,J42,2,Pin_2*%
%TO.N,/logique/Extensions/Simple extension3/COL_EXT*%
X89966000Y-147062800D03*
%TD*%
D14*
%TO.P,J18,1,Pin_1*%
%TO.N,GND*%
X283206800Y-69152000D03*
D11*
%TO.P,J18,2,Pin_2*%
%TO.N,VCC*%
X283206800Y-64152000D03*
%TO.P,J18,3,Pin_3*%
%TO.N,15(Rx3)*%
X283206800Y-59152000D03*
%TO.P,J18,4,Pin_4*%
%TO.N,14(Tx3)*%
X283206800Y-54152000D03*
%TD*%
D14*
%TO.P,J29,1,Pin_1*%
%TO.N,/logique/Bloc relais/NO5*%
X213330800Y-15852800D03*
D11*
%TO.P,J29,2,Pin_2*%
%TO.N,/logique/Bloc relais/COM5*%
X208330800Y-15852800D03*
%TO.P,J29,3,Pin_3*%
%TO.N,/logique/Bloc relais/NF5*%
X203330800Y-15852800D03*
%TD*%
D14*
%TO.P,J10,1,Pin_1*%
%TO.N,GND*%
X283156000Y-93942400D03*
D11*
%TO.P,J10,2,Pin_2*%
%TO.N,VCC*%
X283156000Y-88942400D03*
%TO.P,J10,3,Pin_3*%
%TO.N,19(Rx1)*%
X283156000Y-83942400D03*
%TO.P,J10,4,Pin_4*%
%TO.N,18(Tx1)*%
X283156000Y-78942400D03*
%TD*%
D12*
%TO.P,JP2,1,A*%
%TO.N,Net-(JP2-Pad1)*%
X213207600Y-77724000D03*
D13*
%TO.P,JP2,2,C*%
%TO.N,/logique/Collecteurs ouverts/OC2*%
X215747600Y-77724000D03*
%TO.P,JP2,3,B*%
%TO.N,Net-(JP2-Pad3)*%
X218287600Y-77724000D03*
%TD*%
D10*
%TO.P,K5,1*%
%TO.N,/logique/Bloc relais/COM8*%
X134264400Y-43755200D03*
D11*
%TO.P,K5,2*%
%TO.N,Net-(D10-Pad1)*%
X140314400Y-41805200D03*
D10*
%TO.P,K5,3*%
%TO.N,/logique/Bloc relais/NO8*%
X140314400Y-29605200D03*
%TO.P,K5,4*%
%TO.N,/logique/Bloc relais/NF8*%
X128264400Y-29555200D03*
D11*
%TO.P,K5,5*%
%TO.N,+12V*%
X128314400Y-41805200D03*
%TD*%
D10*
%TO.P,K3,1*%
%TO.N,/logique/Bloc relais/COM3*%
X85953600Y-43958400D03*
D11*
%TO.P,K3,2*%
%TO.N,Net-(D8-Pad1)*%
X92003600Y-42008400D03*
D10*
%TO.P,K3,3*%
%TO.N,/logique/Bloc relais/NO3*%
X92003600Y-29808400D03*
%TO.P,K3,4*%
%TO.N,/logique/Bloc relais/NF3*%
X79953600Y-29758400D03*
D11*
%TO.P,K3,5*%
%TO.N,+12V*%
X80003600Y-42008400D03*
%TD*%
D14*
%TO.P,J2,1,Pin_1*%
%TO.N,VCC*%
X15700400Y-51663600D03*
D11*
%TO.P,J2,2,Pin_2*%
%TO.N,GND*%
X15700400Y-56663600D03*
%TD*%
D17*
%TO.P,BZ1,1,-*%
%TO.N,+12V*%
X151790400Y-54310400D03*
D15*
%TO.P,BZ1,2,+*%
%TO.N,Net-(BZ1-Pad2)*%
X151790400Y-60810400D03*
%TD*%
D14*
%TO.P,J51,1,Pin_1*%
%TO.N,/logique/Entr\u00E9es analogiques - Extension/Extention analogique simple5/COL_AIN_EXT*%
X254000000Y-142160000D03*
D11*
%TO.P,J51,2,Pin_2*%
%TO.N,/logique/Entr\u00E9es analogiques - Extension/Extention analogique simple5/A_IN_EXT*%
X254000000Y-137160000D03*
%TD*%
D14*
%TO.P,J16,1,Pin_1*%
%TO.N,/logique/Entr\u00E9es digitales/IN5*%
X43434000Y-76327000D03*
D11*
%TO.P,J16,2,Pin_2*%
%TO.N,GND*%
X43434000Y-81327000D03*
%TD*%
D14*
%TO.P,J23,1,Pin_1*%
%TO.N,/logique/Entr\u00E9es analogiques/ANALOG1*%
X52521000Y-172618400D03*
D11*
%TO.P,J23,2,Pin_2*%
%TO.N,/logique/Entr\u00E9es analogiques/ANALOG2*%
X57521000Y-172618400D03*
%TO.P,J23,3,Pin_3*%
%TO.N,/logique/Entr\u00E9es analogiques/ANALOG3*%
X62521000Y-172618400D03*
%TO.P,J23,4,Pin_4*%
%TO.N,/logique/Entr\u00E9es analogiques/ANALOG4*%
X67521000Y-172618400D03*
%TO.P,J23,5,Pin_5*%
%TO.N,GND*%
X72521000Y-172618400D03*
%TD*%
D16*
%TO.P,P12,1,Pin_1*%
%TO.N,A8*%
X124978000Y-119126000D03*
%TO.P,P12,2,Pin_2*%
%TO.N,A9*%
X122438000Y-119126000D03*
%TO.P,P12,3,Pin_3*%
%TO.N,A10*%
X119898000Y-119126000D03*
%TO.P,P12,4,Pin_4*%
%TO.N,A11*%
X117358000Y-119126000D03*
%TO.P,P12,5,Pin_5*%
%TO.N,A12*%
X114818000Y-119126000D03*
%TO.P,P12,6,Pin_6*%
%TO.N,A13*%
X112278000Y-119126000D03*
%TO.P,P12,7,Pin_7*%
%TO.N,A14*%
X109738000Y-119126000D03*
%TO.P,P12,8,Pin_8*%
%TO.N,A15*%
X107198000Y-119126000D03*
%TD*%
D12*
%TO.P,JP12,1,A*%
%TO.N,Net-(JP12-Pad1)*%
X231475000Y-109270800D03*
D13*
%TO.P,JP12,2,C*%
%TO.N,/logique/Collecteurs ouverts/OC12-PWM*%
X234015000Y-109270800D03*
%TO.P,JP12,3,B*%
%TO.N,Net-(JP12-Pad3)*%
X236555000Y-109270800D03*
%TD*%
D14*
%TO.P,J32,1,Pin_1*%
%TO.N,/logique/Bloc relais/NO8*%
X139039600Y-15849600D03*
D11*
%TO.P,J32,2,Pin_2*%
%TO.N,/logique/Bloc relais/COM8*%
X134039600Y-15849600D03*
%TO.P,J32,3,Pin_3*%
%TO.N,/logique/Bloc relais/NF8*%
X129039600Y-15849600D03*
%TD*%
D12*
%TO.P,JP3,1,A*%
%TO.N,Net-(JP3-Pad1)*%
X213171800Y-85293200D03*
D13*
%TO.P,JP3,2,C*%
%TO.N,/logique/Collecteurs ouverts/OC3*%
X215711800Y-85293200D03*
%TO.P,JP3,3,B*%
%TO.N,Net-(JP3-Pad3)*%
X218251800Y-85293200D03*
%TD*%
D10*
%TO.P,K1,1*%
%TO.N,/logique/Bloc relais/COM1*%
X39116000Y-43552000D03*
D11*
%TO.P,K1,2*%
%TO.N,Net-(D6-Pad1)*%
X45166000Y-41602000D03*
D10*
%TO.P,K1,3*%
%TO.N,/logique/Bloc relais/NO1*%
X45166000Y-29402000D03*
%TO.P,K1,4*%
%TO.N,/logique/Bloc relais/NF1*%
X33116000Y-29352000D03*
D11*
%TO.P,K1,5*%
%TO.N,+12V*%
X33166000Y-41602000D03*
%TD*%
D14*
%TO.P,J20,1,Pin_1*%
%TO.N,AREF*%
X15700400Y-129082800D03*
D11*
%TO.P,J20,2,Pin_2*%
%TO.N,GND*%
X15700400Y-134082800D03*
%TD*%
D14*
%TO.P,J28,1,Pin_1*%
%TO.N,/logique/Bloc relais/NO4*%
X114093000Y-15691400D03*
D11*
%TO.P,J28,2,Pin_2*%
%TO.N,/logique/Bloc relais/COM4*%
X109093000Y-15691400D03*
%TO.P,J28,3,Pin_3*%
%TO.N,/logique/Bloc relais/NF4*%
X104093000Y-15691400D03*
%TD*%
D16*
%TO.P,P11,1,Pin_1*%
%TO.N,14(Tx3)*%
X130058000Y-70866000D03*
%TO.P,P11,2,Pin_2*%
%TO.N,15(Rx3)*%
X127518000Y-70866000D03*
%TO.P,P11,3,Pin_3*%
%TO.N,16(Tx2)*%
X124978000Y-70866000D03*
%TO.P,P11,4,Pin_4*%
%TO.N,17(Rx2)*%
X122438000Y-70866000D03*
%TO.P,P11,5,Pin_5*%
%TO.N,18(Tx1)*%
X119898000Y-70866000D03*
%TO.P,P11,6,Pin_6*%
%TO.N,19(Rx1)*%
X117358000Y-70866000D03*
%TO.P,P11,7,Pin_7*%
%TO.N,20(SDA)*%
X114818000Y-70866000D03*
%TO.P,P11,8,Pin_8*%
%TO.N,21(SCL)*%
X112278000Y-70866000D03*
%TD*%
D14*
%TO.P,J37,1,Pin_1*%
%TO.N,Net-(J37-Pad1)*%
X187350400Y-172466000D03*
D11*
%TO.P,J37,2,Pin_2*%
%TO.N,Net-(J37-Pad2)*%
X192350400Y-172466000D03*
%TO.P,J37,3,Pin_3*%
%TO.N,Net-(J37-Pad3)*%
X197350400Y-172466000D03*
%TO.P,J37,4,Pin_4*%
%TO.N,Net-(J37-Pad4)*%
X202350400Y-172466000D03*
%TD*%
D14*
%TO.P,J19,1,Pin_1*%
%TO.N,50(MISO)*%
X233920800Y-172412000D03*
D11*
%TO.P,J19,2,Pin_2*%
%TO.N,51(MOSI)*%
X238920800Y-172412000D03*
%TO.P,J19,3,Pin_3*%
%TO.N,52(SCK)*%
X243920800Y-172412000D03*
%TO.P,J19,4,Pin_4*%
%TO.N,53(SS)*%
X248920800Y-172412000D03*
%TD*%
D14*
%TO.P,J4,1,Pin_1*%
%TO.N,/logique/Entr\u00E9es digitales/IN2*%
X15903600Y-77622400D03*
D11*
%TO.P,J4,2,Pin_2*%
%TO.N,GND*%
X15903600Y-82622400D03*
%TD*%
D14*
%TO.P,J33,1,Pin_1*%
%TO.N,/logique/Bloc relais/NO9*%
X238299000Y-15802000D03*
D11*
%TO.P,J33,2,Pin_2*%
%TO.N,/logique/Bloc relais/COM9*%
X233299000Y-15802000D03*
%TO.P,J33,3,Pin_3*%
%TO.N,/logique/Bloc relais/NF9*%
X228299000Y-15802000D03*
%TD*%
D14*
%TO.P,J11,1,Pin_1*%
%TO.N,/logique/Entr\u00E9es digitales/IN10*%
X15903600Y-116078000D03*
D11*
%TO.P,J11,2,Pin_2*%
%TO.N,GND*%
X15903600Y-121078000D03*
%TD*%
D16*
%TO.P,P9,1,Pin_1*%
%TO.N,7(\u002A\u002A)*%
X152918000Y-70866000D03*
%TO.P,P9,2,Pin_2*%
%TO.N,6(\u002A\u002A)*%
X150378000Y-70866000D03*
%TO.P,P9,3,Pin_3*%
%TO.N,5(\u002A\u002A)*%
X147838000Y-70866000D03*
%TO.P,P9,4,Pin_4*%
%TO.N,4(\u002A\u002A)*%
X145298000Y-70866000D03*
%TO.P,P9,5,Pin_5*%
%TO.N,3(\u002A\u002A)*%
X142758000Y-70866000D03*
%TO.P,P9,6,Pin_6*%
%TO.N,2(\u002A\u002A)*%
X140218000Y-70866000D03*
%TO.P,P9,7,Pin_7*%
%TO.N,1(Tx0)*%
X137678000Y-70866000D03*
%TO.P,P9,8,Pin_8*%
%TO.N,0(Rx0)*%
X135138000Y-70866000D03*
%TD*%
%TO.P,P8,1,Pin_1*%
%TO.N,unconnected-(P8-Pad1)*%
X170698000Y-119126000D03*
%TO.P,P8,2,Pin_2*%
%TO.N,/logique/IOREF*%
X168158000Y-119126000D03*
%TO.P,P8,3,Pin_3*%
%TO.N,Reset*%
X165618000Y-119126000D03*
%TO.P,P8,4,Pin_4*%
%TO.N,+3V3*%
X163078000Y-119126000D03*
%TO.P,P8,5,Pin_5*%
%TO.N,VCC*%
X160538000Y-119126000D03*
%TO.P,P8,6,Pin_6*%
%TO.N,GND*%
X157998000Y-119126000D03*
%TO.P,P8,7,Pin_7*%
X155458000Y-119126000D03*
%TO.P,P8,8,Pin_8*%
%TO.N,/logique/Vin*%
X152918000Y-119126000D03*
%TD*%
D14*
%TO.P,J52,1,Pin_1*%
%TO.N,/logique/Entr\u00E9es analogiques - Extension/Extention analogique simple6/COL_AIN_EXT*%
X283257600Y-157327600D03*
D11*
%TO.P,J52,2,Pin_2*%
%TO.N,/logique/Entr\u00E9es analogiques - Extension/Extention analogique simple6/A_IN_EXT*%
X283257600Y-152327600D03*
%TD*%
D18*
%TO.P,R200,1*%
%TO.N,+12V*%
X241808000Y-108204000D03*
%TO.P,R200,2*%
%TO.N,Net-(JP12-Pad3)*%
X241808000Y-110204000D03*
%TD*%
D19*
%TO.P,D51,1,A1*%
%TO.N,/logique/Entr\u00E9es analogiques/ANALOG6*%
X30073600Y-164037600D03*
D20*
%TO.P,D51,2,A2*%
%TO.N,GND*%
X30073600Y-158237600D03*
%TD*%
D21*
%TO.P,R80,1*%
%TO.N,+12V*%
X224367600Y-85090000D03*
%TO.P,R80,2*%
%TO.N,Net-(JP3-Pad3)*%
X222367600Y-85090000D03*
%TD*%
D19*
%TO.P,D49,1,A1*%
%TO.N,/logique/Entr\u00E9es analogiques - Extension/Extention analogique simple7/A_IN_EXT*%
X215747600Y-135534400D03*
D20*
%TO.P,D49,2,A2*%
%TO.N,GND*%
X215747600Y-129734400D03*
%TD*%
D21*
%TO.P,R24,1*%
%TO.N,Net-(Q4-Pad1)*%
X112810000Y-59641500D03*
%TO.P,R24,2*%
%TO.N,GND*%
X110810000Y-59641500D03*
%TD*%
D22*
%TO.P,Q15,1,G*%
%TO.N,Net-(Q15-Pad1)*%
X273166800Y-54180500D03*
%TO.P,Q15,2,S*%
%TO.N,GND*%
X275066800Y-54180500D03*
%TO.P,Q15,3,D*%
%TO.N,/logique/Extensions/Simple extension/COL_EXT*%
X274116800Y-56055500D03*
%TD*%
D23*
%TO.P,D19,1,A1*%
%TO.N,/logique/Entr\u00E9es digitales/IN5*%
X59084800Y-77012800D03*
D24*
%TO.P,D19,2,A2*%
%TO.N,GND*%
X53284800Y-77012800D03*
%TD*%
D25*
%TO.P,C9,1*%
%TO.N,Net-(C9-Pad1)*%
X40872500Y-84785200D03*
%TO.P,C9,2*%
%TO.N,GND*%
X42947500Y-84785200D03*
%TD*%
D21*
%TO.P,R184,1*%
%TO.N,+12V*%
X243316000Y-78079600D03*
%TO.P,R184,2*%
%TO.N,Net-(JP8-Pad3)*%
X241316000Y-78079600D03*
%TD*%
D26*
%TO.P,Q37,1,B*%
%TO.N,Net-(Q37-Pad1)*%
X237424000Y-57055500D03*
%TO.P,Q37,2,E*%
%TO.N,GND*%
X235524000Y-57055500D03*
%TO.P,Q37,3,C*%
%TO.N,Net-(D56-Pad1)*%
X236474000Y-55180500D03*
%TD*%
D19*
%TO.P,D24,1,A1*%
%TO.N,/logique/Entr\u00E9es analogiques/ANALOG3*%
X61468000Y-164393200D03*
D20*
%TO.P,D24,2,A2*%
%TO.N,GND*%
X61468000Y-158593200D03*
%TD*%
D27*
%TO.P,D56,1,K*%
%TO.N,Net-(D56-Pad1)*%
X236867000Y-51190400D03*
%TO.P,D56,2,A*%
%TO.N,+12V*%
X233367000Y-51190400D03*
%TD*%
D28*
%TO.P,R7,1*%
%TO.N,23*%
X52070000Y-55975000D03*
%TO.P,R7,2*%
%TO.N,Net-(Q1-Pad1)*%
X52070000Y-53975000D03*
%TD*%
D23*
%TO.P,D27,1,A1*%
%TO.N,/logique/Extensions/Simple extension/EI*%
X59084800Y-129844800D03*
D24*
%TO.P,D27,2,A2*%
%TO.N,GND*%
X53284800Y-129844800D03*
%TD*%
D21*
%TO.P,R188,1*%
%TO.N,+12V*%
X243417600Y-85547200D03*
%TO.P,R188,2*%
%TO.N,Net-(JP9-Pad3)*%
X241417600Y-85547200D03*
%TD*%
D29*
%TO.P,R44,1*%
%TO.N,Net-(C10-Pad1)*%
X33340800Y-96062800D03*
%TO.P,R44,2*%
%TO.N,28*%
X35340800Y-96062800D03*
%TD*%
D28*
%TO.P,R19,1*%
%TO.N,25*%
X73091000Y-56434500D03*
%TO.P,R19,2*%
%TO.N,Net-(Q2-Pad1)*%
X73091000Y-54434500D03*
%TD*%
D29*
%TO.P,R42,1*%
%TO.N,/logique/Entr\u00E9es digitales/IN4*%
X27549600Y-96012000D03*
%TO.P,R42,2*%
%TO.N,Net-(C10-Pad1)*%
X29549600Y-96012000D03*
%TD*%
%TO.P,R41,1*%
%TO.N,Net-(C9-Pad1)*%
X34915600Y-84734400D03*
%TO.P,R41,2*%
%TO.N,26*%
X36915600Y-84734400D03*
%TD*%
D21*
%TO.P,R84,1*%
%TO.N,+12V*%
X224164400Y-92811600D03*
%TO.P,R84,2*%
%TO.N,Net-(JP4-Pad3)*%
X222164400Y-92811600D03*
%TD*%
D24*
%TO.P,D54,1,A1*%
%TO.N,/logique/Entr\u00E9es digitales/IN10*%
X25852800Y-116586000D03*
D23*
%TO.P,D54,2,A2*%
%TO.N,GND*%
X31652800Y-116586000D03*
%TD*%
D26*
%TO.P,Q8,1,B*%
%TO.N,Net-(Q8-Pad1)*%
X212720000Y-56642000D03*
%TO.P,Q8,2,E*%
%TO.N,GND*%
X210820000Y-56642000D03*
%TO.P,Q8,3,C*%
%TO.N,Net-(D13-Pad1)*%
X211770000Y-54767000D03*
%TD*%
%TO.P,Q2,1,B*%
%TO.N,Net-(Q2-Pad1)*%
X68707000Y-54610000D03*
%TO.P,Q2,2,E*%
%TO.N,GND*%
X66807000Y-54610000D03*
%TO.P,Q2,3,C*%
%TO.N,Net-(D7-Pad1)*%
X67757000Y-52735000D03*
%TD*%
%TO.P,Q6,1,B*%
%TO.N,Net-(Q6-Pad1)*%
X163449000Y-56642000D03*
%TO.P,Q6,2,E*%
%TO.N,GND*%
X161549000Y-56642000D03*
%TO.P,Q6,3,C*%
%TO.N,Net-(D11-Pad1)*%
X162499000Y-54767000D03*
%TD*%
D28*
%TO.P,R29,1*%
%TO.N,33*%
X190979500Y-58007000D03*
%TO.P,R29,2*%
%TO.N,Net-(Q7-Pad1)*%
X190979500Y-56007000D03*
%TD*%
D19*
%TO.P,D37,1,A1*%
%TO.N,/logique/Extensions/Simple extension7/EI*%
X114655600Y-136402400D03*
D20*
%TO.P,D37,2,A2*%
%TO.N,GND*%
X114655600Y-130602400D03*
%TD*%
D21*
%TO.P,R28,1*%
%TO.N,Net-(Q6-Pad1)*%
X163499000Y-60784500D03*
%TO.P,R28,2*%
%TO.N,GND*%
X161499000Y-60784500D03*
%TD*%
%TO.P,R26,1*%
%TO.N,Net-(Q5-Pad1)*%
X137226000Y-61371000D03*
%TO.P,R26,2*%
%TO.N,GND*%
X135226000Y-61371000D03*
%TD*%
D19*
%TO.P,D25,1,A1*%
%TO.N,/logique/Entr\u00E9es analogiques/ANALOG4*%
X67868800Y-164596400D03*
D20*
%TO.P,D25,2,A2*%
%TO.N,GND*%
X67868800Y-158796400D03*
%TD*%
D27*
%TO.P,D57,1,K*%
%TO.N,Net-(D57-Pad1)*%
X259945400Y-51109400D03*
%TO.P,D57,2,A*%
%TO.N,+12V*%
X256445400Y-51109400D03*
%TD*%
D21*
%TO.P,R180,1*%
%TO.N,+12V*%
X243214400Y-71323200D03*
%TO.P,R180,2*%
%TO.N,Net-(JP7-Pad3)*%
X241214400Y-71323200D03*
%TD*%
D19*
%TO.P,D31,1,A1*%
%TO.N,/logique/Extensions/Simple extension2/EI*%
X69545200Y-136758000D03*
D20*
%TO.P,D31,2,A2*%
%TO.N,GND*%
X69545200Y-130958000D03*
%TD*%
D24*
%TO.P,D55,1,A1*%
%TO.N,/logique/Entr\u00E9es digitales/IN9*%
X26767200Y-144221200D03*
D23*
%TO.P,D55,2,A2*%
%TO.N,GND*%
X32567200Y-144221200D03*
%TD*%
%TO.P,D18,1,A1*%
%TO.N,/logique/Entr\u00E9es digitales/IN8*%
X59440400Y-115062000D03*
D24*
%TO.P,D18,2,A2*%
%TO.N,GND*%
X53640400Y-115062000D03*
%TD*%
D26*
%TO.P,Q1,1,B*%
%TO.N,Net-(Q1-Pad1)*%
X47620000Y-53721000D03*
%TO.P,Q1,2,E*%
%TO.N,GND*%
X45720000Y-53721000D03*
%TO.P,Q1,3,C*%
%TO.N,Net-(D6-Pad1)*%
X46670000Y-51846000D03*
%TD*%
D27*
%TO.P,D6,1,K*%
%TO.N,Net-(D6-Pad1)*%
X46730200Y-47601900D03*
%TO.P,D6,2,A*%
%TO.N,+12V*%
X43230200Y-47601900D03*
%TD*%
D24*
%TO.P,D16,1,A1*%
%TO.N,/logique/Entr\u00E9es digitales/IN3*%
X26106800Y-89814400D03*
D23*
%TO.P,D16,2,A2*%
%TO.N,GND*%
X31906800Y-89814400D03*
%TD*%
D21*
%TO.P,R210,1*%
%TO.N,Net-(Q38-Pad1)*%
X260908000Y-63403000D03*
%TO.P,R210,2*%
%TO.N,GND*%
X258908000Y-63403000D03*
%TD*%
D24*
%TO.P,D44,1,A1*%
%TO.N,/logique/Entr\u00E9es analogiques - Extension/Extention analogique simple2/A_IN_EXT*%
X266543200Y-107035600D03*
D23*
%TO.P,D44,2,A2*%
%TO.N,GND*%
X272343200Y-107035600D03*
%TD*%
D21*
%TO.P,R196,1*%
%TO.N,+12V*%
X243163600Y-101803200D03*
%TO.P,R196,2*%
%TO.N,Net-(JP11-Pad3)*%
X241163600Y-101803200D03*
%TD*%
%TO.P,R43,1*%
%TO.N,VCC*%
X37525200Y-92506800D03*
%TO.P,R43,2*%
%TO.N,Net-(C10-Pad1)*%
X35525200Y-92506800D03*
%TD*%
D19*
%TO.P,D35,1,A1*%
%TO.N,/logique/Extensions/Simple extension6/EI*%
X99822000Y-136605600D03*
D20*
%TO.P,D35,2,A2*%
%TO.N,GND*%
X99822000Y-130805600D03*
%TD*%
D24*
%TO.P,D47,1,A1*%
%TO.N,/logique/Entr\u00E9es analogiques - Extension/Extention analogique simple6/A_IN_EXT*%
X266441600Y-152552400D03*
D23*
%TO.P,D47,2,A2*%
%TO.N,GND*%
X272241600Y-152552400D03*
%TD*%
D24*
%TO.P,D46,1,A1*%
%TO.N,/logique/Entr\u00E9es analogiques - Extension/Extention analogique simple5/A_IN_EXT*%
X266441600Y-137617200D03*
D23*
%TO.P,D46,2,A2*%
%TO.N,GND*%
X272241600Y-137617200D03*
%TD*%
D27*
%TO.P,D8,1,K*%
%TO.N,Net-(D8-Pad1)*%
X88623000Y-49022000D03*
%TO.P,D8,2,A*%
%TO.N,+12V*%
X85123000Y-49022000D03*
%TD*%
D21*
%TO.P,R34,1*%
%TO.N,VCC*%
X49869600Y-63703200D03*
%TO.P,R34,2*%
%TO.N,Net-(C7-Pad1)*%
X47869600Y-63703200D03*
%TD*%
D29*
%TO.P,R36,1*%
%TO.N,/logique/Entr\u00E9es digitales/IN2*%
X28006800Y-74371200D03*
%TO.P,R36,2*%
%TO.N,Net-(C8-Pad1)*%
X30006800Y-74371200D03*
%TD*%
D21*
%TO.P,R92,1*%
%TO.N,+12V*%
X224316800Y-108915200D03*
%TO.P,R92,2*%
%TO.N,Net-(JP6-Pad3)*%
X222316800Y-108915200D03*
%TD*%
%TO.P,R76,1*%
%TO.N,+12V*%
X224215200Y-77825600D03*
%TO.P,R76,2*%
%TO.N,Net-(JP2-Pad3)*%
X222215200Y-77825600D03*
%TD*%
D29*
%TO.P,R38,1*%
%TO.N,Net-(C8-Pad1)*%
X36084000Y-74015600D03*
%TO.P,R38,2*%
%TO.N,24*%
X38084000Y-74015600D03*
%TD*%
D23*
%TO.P,D29,1,A1*%
%TO.N,/logique/Extensions/Simple extension1/EI*%
X32364000Y-134569200D03*
D24*
%TO.P,D29,2,A2*%
%TO.N,GND*%
X26564000Y-134569200D03*
%TD*%
D21*
%TO.P,R94,1*%
%TO.N,VCC*%
X275878800Y-40436800D03*
%TO.P,R94,2*%
%TO.N,Net-(C15-Pad1)*%
X273878800Y-40436800D03*
%TD*%
%TO.P,R30,1*%
%TO.N,Net-(Q7-Pad1)*%
X186391500Y-59547000D03*
%TO.P,R30,2*%
%TO.N,GND*%
X184391500Y-59547000D03*
%TD*%
D23*
%TO.P,D21,1,A1*%
%TO.N,/logique/Entr\u00E9es digitales/IN7*%
X59186400Y-101904800D03*
D24*
%TO.P,D21,2,A2*%
%TO.N,GND*%
X53386400Y-101904800D03*
%TD*%
D21*
%TO.P,R72,1*%
%TO.N,+12V*%
X224520000Y-71069200D03*
%TO.P,R72,2*%
%TO.N,Net-(JP1-Pad3)*%
X222520000Y-71069200D03*
%TD*%
D27*
%TO.P,D10,1,K*%
%TO.N,Net-(D10-Pad1)*%
X136422600Y-49941000D03*
%TO.P,D10,2,A*%
%TO.N,+12V*%
X132922600Y-49941000D03*
%TD*%
D19*
%TO.P,D48,1,A1*%
%TO.N,/logique/Entr\u00E9es analogiques - Extension/Extention analogique simple4/A_IN_EXT*%
X228803200Y-135686800D03*
D20*
%TO.P,D48,2,A2*%
%TO.N,GND*%
X228803200Y-129886800D03*
%TD*%
D26*
%TO.P,Q3,1,B*%
%TO.N,Net-(Q3-Pad1)*%
X90043000Y-55880000D03*
%TO.P,Q3,2,E*%
%TO.N,GND*%
X88143000Y-55880000D03*
%TO.P,Q3,3,C*%
%TO.N,Net-(D8-Pad1)*%
X89093000Y-54005000D03*
%TD*%
D27*
%TO.P,D13,1,K*%
%TO.N,Net-(D13-Pad1)*%
X211858200Y-49773700D03*
%TO.P,D13,2,A*%
%TO.N,+12V*%
X208358200Y-49773700D03*
%TD*%
D21*
%TO.P,R8,1*%
%TO.N,Net-(Q1-Pad1)*%
X47035000Y-57863500D03*
%TO.P,R8,2*%
%TO.N,GND*%
X45035000Y-57863500D03*
%TD*%
D28*
%TO.P,R31,1*%
%TO.N,31*%
X217866000Y-58174500D03*
%TO.P,R31,2*%
%TO.N,Net-(Q8-Pad1)*%
X217866000Y-56174500D03*
%TD*%
D24*
%TO.P,D15,1,A1*%
%TO.N,/logique/Entr\u00E9es digitales/IN2*%
X25954400Y-78587600D03*
D23*
%TO.P,D15,2,A2*%
%TO.N,GND*%
X31754400Y-78587600D03*
%TD*%
D21*
%TO.P,R37,1*%
%TO.N,VCC*%
X38033200Y-71170800D03*
%TO.P,R37,2*%
%TO.N,Net-(C8-Pad1)*%
X36033200Y-71170800D03*
%TD*%
D28*
%TO.P,R27,1*%
%TO.N,35*%
X169611000Y-58736500D03*
%TO.P,R27,2*%
%TO.N,Net-(Q6-Pad1)*%
X169611000Y-56736500D03*
%TD*%
D26*
%TO.P,Q38,1,B*%
%TO.N,Net-(Q38-Pad1)*%
X260858000Y-57658000D03*
%TO.P,Q38,2,E*%
%TO.N,GND*%
X258958000Y-57658000D03*
%TO.P,Q38,3,C*%
%TO.N,Net-(D57-Pad1)*%
X259908000Y-55783000D03*
%TD*%
D19*
%TO.P,D41,1,A1*%
%TO.N,/logique/Extensions/Simple extension4/EI*%
X143560800Y-136859600D03*
D20*
%TO.P,D41,2,A2*%
%TO.N,GND*%
X143560800Y-131059600D03*
%TD*%
D29*
%TO.P,R35,1*%
%TO.N,Net-(C7-Pad1)*%
X42773600Y-66954400D03*
%TO.P,R35,2*%
%TO.N,22*%
X44773600Y-66954400D03*
%TD*%
D28*
%TO.P,R25,1*%
%TO.N,37*%
X141798000Y-59069000D03*
%TO.P,R25,2*%
%TO.N,Net-(Q5-Pad1)*%
X141798000Y-57069000D03*
%TD*%
%TO.P,R23,1*%
%TO.N,29*%
X118938000Y-57593500D03*
%TO.P,R23,2*%
%TO.N,Net-(Q4-Pad1)*%
X118938000Y-55593500D03*
%TD*%
D21*
%TO.P,R192,1*%
%TO.N,+12V*%
X243265200Y-93167200D03*
%TO.P,R192,2*%
%TO.N,Net-(JP10-Pad3)*%
X241265200Y-93167200D03*
%TD*%
D30*
%TO.P,C10,1*%
%TO.N,Net-(C10-Pad1)*%
X36982400Y-101324500D03*
%TO.P,C10,2*%
%TO.N,GND*%
X36982400Y-103399500D03*
%TD*%
D29*
%TO.P,R33,1*%
%TO.N,/logique/Entr\u00E9es digitales/IN1*%
X35998400Y-67056000D03*
%TO.P,R33,2*%
%TO.N,Net-(C7-Pad1)*%
X37998400Y-67056000D03*
%TD*%
D21*
%TO.P,R40,1*%
%TO.N,VCC*%
X37779200Y-81076800D03*
%TO.P,R40,2*%
%TO.N,Net-(C9-Pad1)*%
X35779200Y-81076800D03*
%TD*%
D28*
%TO.P,R21,1*%
%TO.N,27*%
X95189000Y-57466500D03*
%TO.P,R21,2*%
%TO.N,Net-(Q3-Pad1)*%
X95189000Y-55466500D03*
%TD*%
D19*
%TO.P,D33,1,A1*%
%TO.N,/logique/Extensions/Simple extension3/EI*%
X84988400Y-136351600D03*
D20*
%TO.P,D33,2,A2*%
%TO.N,GND*%
X84988400Y-130551600D03*
%TD*%
D19*
%TO.P,D52,1,A1*%
%TO.N,/logique/Entr\u00E9es analogiques/ANALOG7*%
X36322000Y-164190000D03*
D20*
%TO.P,D52,2,A2*%
%TO.N,GND*%
X36322000Y-158390000D03*
%TD*%
D21*
%TO.P,R208,1*%
%TO.N,Net-(Q37-Pad1)*%
X237474000Y-61502800D03*
%TO.P,R208,2*%
%TO.N,GND*%
X235474000Y-61502800D03*
%TD*%
D19*
%TO.P,D50,1,A1*%
%TO.N,/logique/Entr\u00E9es analogiques/ANALOG5*%
X23672800Y-164037600D03*
D20*
%TO.P,D50,2,A2*%
%TO.N,GND*%
X23672800Y-158237600D03*
%TD*%
D28*
%TO.P,R209,1*%
%TO.N,13(\u002A\u002A)*%
X267020000Y-59831000D03*
%TO.P,R209,2*%
%TO.N,Net-(Q38-Pad1)*%
X267020000Y-57831000D03*
%TD*%
D29*
%TO.P,R39,1*%
%TO.N,/logique/Entr\u00E9es digitales/IN3*%
X27498800Y-84785200D03*
%TO.P,R39,2*%
%TO.N,Net-(C9-Pad1)*%
X29498800Y-84785200D03*
%TD*%
D24*
%TO.P,D17,1,A1*%
%TO.N,/logique/Entr\u00E9es digitales/IN4*%
X26005200Y-101396800D03*
D23*
%TO.P,D17,2,A2*%
%TO.N,GND*%
X31805200Y-101396800D03*
%TD*%
D21*
%TO.P,R32,1*%
%TO.N,Net-(Q8-Pad1)*%
X212786000Y-60746500D03*
%TO.P,R32,2*%
%TO.N,GND*%
X210786000Y-60746500D03*
%TD*%
D25*
%TO.P,C8,1*%
%TO.N,Net-(C8-Pad1)*%
X42701300Y-71120000D03*
%TO.P,C8,2*%
%TO.N,GND*%
X44776300Y-71120000D03*
%TD*%
%TO.P,C15,1*%
%TO.N,Net-(C15-Pad1)*%
X273769000Y-44856400D03*
%TO.P,C15,2*%
%TO.N,GND*%
X275844000Y-44856400D03*
%TD*%
D26*
%TO.P,Q4,1,B*%
%TO.N,Net-(Q4-Pad1)*%
X113284000Y-55499000D03*
%TO.P,Q4,2,E*%
%TO.N,GND*%
X111384000Y-55499000D03*
%TO.P,Q4,3,C*%
%TO.N,Net-(D9-Pad1)*%
X112334000Y-53624000D03*
%TD*%
D24*
%TO.P,D14,1,A1*%
%TO.N,/logique/Entr\u00E9es digitales/IN1*%
X25903600Y-68478400D03*
D23*
%TO.P,D14,2,A2*%
%TO.N,GND*%
X31703600Y-68478400D03*
%TD*%
D27*
%TO.P,D12,1,K*%
%TO.N,Net-(D12-Pad1)*%
X185400900Y-49641000D03*
%TO.P,D12,2,A*%
%TO.N,+12V*%
X181900900Y-49641000D03*
%TD*%
%TO.P,D11,1,K*%
%TO.N,Net-(D11-Pad1)*%
X162356000Y-50624500D03*
%TO.P,D11,2,A*%
%TO.N,+12V*%
X158856000Y-50624500D03*
%TD*%
D24*
%TO.P,D42,1,A1*%
%TO.N,/logique/Entr\u00E9es analogiques - Extension/Extention analogique simple/A_IN_EXT*%
X266543200Y-77317600D03*
D23*
%TO.P,D42,2,A2*%
%TO.N,GND*%
X272343200Y-77317600D03*
%TD*%
D24*
%TO.P,D45,1,A1*%
%TO.N,/logique/Entr\u00E9es analogiques - Extension/Extention analogique simple3/A_IN_EXT*%
X266238400Y-122123200D03*
D23*
%TO.P,D45,2,A2*%
%TO.N,GND*%
X272038400Y-122123200D03*
%TD*%
D26*
%TO.P,Q5,1,B*%
%TO.N,Net-(Q5-Pad1)*%
X137160000Y-57150000D03*
%TO.P,Q5,2,E*%
%TO.N,GND*%
X135260000Y-57150000D03*
%TO.P,Q5,3,C*%
%TO.N,Net-(D10-Pad1)*%
X136210000Y-55275000D03*
%TD*%
D19*
%TO.P,D22,1,A1*%
%TO.N,/logique/Entr\u00E9es analogiques/ANALOG1*%
X48920400Y-164342400D03*
D20*
%TO.P,D22,2,A2*%
%TO.N,GND*%
X48920400Y-158542400D03*
%TD*%
D19*
%TO.P,D39,1,A1*%
%TO.N,/logique/Extensions/Simple extension5/EI*%
X129082800Y-136554800D03*
D20*
%TO.P,D39,2,A2*%
%TO.N,GND*%
X129082800Y-130754800D03*
%TD*%
D21*
%TO.P,R22,1*%
%TO.N,Net-(Q3-Pad1)*%
X90093000Y-60022500D03*
%TO.P,R22,2*%
%TO.N,GND*%
X88093000Y-60022500D03*
%TD*%
%TO.P,R88,1*%
%TO.N,+12V*%
X224215200Y-101752400D03*
%TO.P,R88,2*%
%TO.N,Net-(JP5-Pad3)*%
X222215200Y-101752400D03*
%TD*%
D26*
%TO.P,Q7,1,B*%
%TO.N,Net-(Q7-Pad1)*%
X186341500Y-55912500D03*
%TO.P,Q7,2,E*%
%TO.N,GND*%
X184441500Y-55912500D03*
%TO.P,Q7,3,C*%
%TO.N,Net-(D12-Pad1)*%
X185391500Y-54037500D03*
%TD*%
D21*
%TO.P,R20,1*%
%TO.N,Net-(Q2-Pad1)*%
X68757000Y-59387500D03*
%TO.P,R20,2*%
%TO.N,GND*%
X66757000Y-59387500D03*
%TD*%
D28*
%TO.P,R207,1*%
%TO.N,12(\u002A\u002A)*%
X241046000Y-59150000D03*
%TO.P,R207,2*%
%TO.N,Net-(Q37-Pad1)*%
X241046000Y-57150000D03*
%TD*%
D27*
%TO.P,D9,1,K*%
%TO.N,Net-(D9-Pad1)*%
X112168200Y-49075100D03*
%TO.P,D9,2,A*%
%TO.N,+12V*%
X108668200Y-49075100D03*
%TD*%
D29*
%TO.P,R96,1*%
%TO.N,Net-(R95-Pad2)*%
X269560800Y-49733200D03*
%TO.P,R96,2*%
%TO.N,Net-(Q15-Pad1)*%
X271560800Y-49733200D03*
%TD*%
D27*
%TO.P,D7,1,K*%
%TO.N,Net-(D7-Pad1)*%
X67642000Y-48236900D03*
%TO.P,D7,2,A*%
%TO.N,+12V*%
X64142000Y-48236900D03*
%TD*%
D23*
%TO.P,D20,1,A1*%
%TO.N,/logique/Entr\u00E9es digitales/IN6*%
X59084800Y-90119200D03*
D24*
%TO.P,D20,2,A2*%
%TO.N,GND*%
X53284800Y-90119200D03*
%TD*%
D19*
%TO.P,D23,1,A1*%
%TO.N,/logique/Entr\u00E9es analogiques/ANALOG2*%
X55524400Y-164545600D03*
D20*
%TO.P,D23,2,A2*%
%TO.N,GND*%
X55524400Y-158745600D03*
%TD*%
D24*
%TO.P,D43,1,A1*%
%TO.N,/logique/Entr\u00E9es analogiques - Extension/Extention analogique simple1/A_IN_EXT*%
X266594000Y-91643200D03*
D23*
%TO.P,D43,2,A2*%
%TO.N,GND*%
X272394000Y-91643200D03*
%TD*%
D31*
%TO.P,P13,1,Pin_1*%
%TO.N,GND*%
X104700000Y-114056000D03*
D32*
%TO.P,P13,2,Pin_2*%
X102160000Y-114056000D03*
%TO.P,P13,3,Pin_3*%
%TO.N,52(SCK)*%
X104700000Y-111516000D03*
%TO.P,P13,4,Pin_4*%
%TO.N,53(SS)*%
X102160000Y-111516000D03*
%TO.P,P13,5,Pin_5*%
%TO.N,50(MISO)*%
X104700000Y-108976000D03*
%TO.P,P13,6,Pin_6*%
%TO.N,51(MOSI)*%
X102160000Y-108976000D03*
%TO.P,P13,7,Pin_7*%
%TO.N,48*%
X104700000Y-106436000D03*
%TO.P,P13,8,Pin_8*%
%TO.N,49*%
X102160000Y-106436000D03*
%TO.P,P13,9,Pin_9*%
%TO.N,46*%
X104700000Y-103896000D03*
%TO.P,P13,10,Pin_10*%
%TO.N,47*%
X102160000Y-103896000D03*
%TO.P,P13,11,Pin_11*%
%TO.N,44*%
X104700000Y-101356000D03*
%TO.P,P13,12,Pin_12*%
%TO.N,45*%
X102160000Y-101356000D03*
%TO.P,P13,13,Pin_13*%
%TO.N,42*%
X104700000Y-98816000D03*
%TO.P,P13,14,Pin_14*%
%TO.N,43*%
X102160000Y-98816000D03*
%TO.P,P13,15,Pin_15*%
%TO.N,40*%
X104700000Y-96276000D03*
%TO.P,P13,16,Pin_16*%
%TO.N,41*%
X102160000Y-96276000D03*
%TO.P,P13,17,Pin_17*%
%TO.N,38*%
X104700000Y-93736000D03*
%TO.P,P13,18,Pin_18*%
%TO.N,39*%
X102160000Y-93736000D03*
%TO.P,P13,19,Pin_19*%
%TO.N,36*%
X104700000Y-91196000D03*
%TO.P,P13,20,Pin_20*%
%TO.N,37*%
X102160000Y-91196000D03*
%TO.P,P13,21,Pin_21*%
%TO.N,34*%
X104700000Y-88656000D03*
%TO.P,P13,22,Pin_22*%
%TO.N,35*%
X102160000Y-88656000D03*
%TO.P,P13,23,Pin_23*%
%TO.N,32*%
X104700000Y-86116000D03*
%TO.P,P13,24,Pin_24*%
%TO.N,33*%
X102160000Y-86116000D03*
%TO.P,P13,25,Pin_25*%
%TO.N,30*%
X104700000Y-83576000D03*
%TO.P,P13,26,Pin_26*%
%TO.N,31*%
X102160000Y-83576000D03*
%TO.P,P13,27,Pin_27*%
%TO.N,28*%
X104700000Y-81036000D03*
%TO.P,P13,28,Pin_28*%
%TO.N,29*%
X102160000Y-81036000D03*
%TO.P,P13,29,Pin_29*%
%TO.N,26*%
X104700000Y-78496000D03*
%TO.P,P13,30,Pin_30*%
%TO.N,27*%
X102160000Y-78496000D03*
%TO.P,P13,31,Pin_31*%
%TO.N,24*%
X104700000Y-75956000D03*
%TO.P,P13,32,Pin_32*%
%TO.N,25*%
X102160000Y-75956000D03*
%TO.P,P13,33,Pin_33*%
%TO.N,22*%
X104700000Y-73416000D03*
%TO.P,P13,34,Pin_34*%
%TO.N,23*%
X102160000Y-73416000D03*
%TO.P,P13,35,Pin_35*%
%TO.N,VCC*%
X104700000Y-70876000D03*
%TO.P,P13,36,Pin_36*%
X102160000Y-70876000D03*
%TD*%
D19*
%TO.P,D53,1,A1*%
%TO.N,/logique/Entr\u00E9es analogiques/ANALOG8*%
X42824400Y-164342400D03*
D20*
%TO.P,D53,2,A2*%
%TO.N,GND*%
X42824400Y-158542400D03*
%TD*%
D33*
%TO.P,C7,1*%
%TO.N,Net-(C7-Pad1)*%
X44805600Y-63724700D03*
%TO.P,C7,2*%
%TO.N,GND*%
X44805600Y-61649700D03*
%TD*%
D34*
%TO.N,GND*%
X82429600Y-74542400D03*
X111384000Y-57456500D03*
X122113800Y-98739200D03*
X71400000Y-109800000D03*
X232000000Y-130000000D03*
X50200000Y-115200000D03*
X186199400Y-106951400D03*
X184441500Y-57436000D03*
X54400000Y-119600000D03*
X112000000Y-130000000D03*
X79400000Y-131800000D03*
X277750000Y-49750000D03*
X96600000Y-132000000D03*
X272415000Y-110236000D03*
X115570000Y-123317000D03*
X23672800Y-154990800D03*
X57531000Y-159639000D03*
X23317200Y-134569200D03*
X165542000Y-100523000D03*
X109728000Y-160782000D03*
X32512000Y-141224000D03*
X276682200Y-137617200D03*
X34163000Y-158369000D03*
X33512000Y-151654000D03*
X189010800Y-101057200D03*
X65786000Y-158877000D03*
X212344000Y-65786000D03*
X23500000Y-133500000D03*
X121834400Y-91525600D03*
D35*
X49911000Y-58166000D03*
D34*
X122418600Y-105546400D03*
X177038000Y-78740000D03*
X128133600Y-131454400D03*
X58166000Y-154051000D03*
X111064800Y-106105200D03*
X93000000Y-116500000D03*
X95000000Y-132000000D03*
X65400000Y-85800000D03*
X96000000Y-132800000D03*
X40513000Y-158496000D03*
X277368000Y-44831000D03*
X135260000Y-58551000D03*
X49600000Y-102000000D03*
X76750000Y-55500000D03*
X31877000Y-86614000D03*
X209042000Y-60706000D03*
X122520200Y-83854800D03*
X71475600Y-154330400D03*
X46415200Y-152212800D03*
X110642400Y-91287600D03*
X46863000Y-158496000D03*
X56800000Y-134000000D03*
X33250000Y-64500000D03*
X27940000Y-158242000D03*
X62530400Y-72069600D03*
X201864000Y-73726000D03*
X79250000Y-63750000D03*
X135382000Y-132715000D03*
X148209000Y-131064000D03*
X161499000Y-58605500D03*
X215750000Y-126750000D03*
X165796000Y-111064000D03*
X31877000Y-76200000D03*
X92456000Y-141478000D03*
X50000000Y-77000000D03*
X153553200Y-85587800D03*
X205689200Y-60883800D03*
X176616400Y-90464600D03*
X128397000Y-124968000D03*
X110937800Y-84007200D03*
X82677000Y-158877000D03*
X165440400Y-90337600D03*
X45720000Y-55650500D03*
X274828000Y-152527000D03*
X42799000Y-61595000D03*
X274955000Y-122174000D03*
X65800000Y-98200000D03*
X54200000Y-60600000D03*
X115027200Y-127923800D03*
X258958000Y-60583000D03*
X65151000Y-54610000D03*
X137668000Y-54483000D03*
X85000000Y-127400000D03*
X71755000Y-160909000D03*
X129082800Y-127812800D03*
D35*
X85000000Y-83800000D03*
D34*
X48000000Y-71200000D03*
X49400000Y-130000000D03*
X76600000Y-94200000D03*
X30276800Y-149047200D03*
X82000000Y-118500000D03*
X18491200Y-153593800D03*
X235524000Y-59140000D03*
X110861600Y-98688400D03*
X153553200Y-102732800D03*
X176616400Y-84622600D03*
X178495200Y-115763800D03*
X94200000Y-132800000D03*
X52800000Y-70000000D03*
X69600000Y-127400000D03*
X276352000Y-54102000D03*
X50000000Y-90200000D03*
X99800000Y-126800000D03*
X272250000Y-73250000D03*
X64643000Y-154178000D03*
X59338800Y-158593200D03*
%TO.N,+12V*%
X242824000Y-99822000D03*
X224282000Y-99822000D03*
X242824000Y-76200000D03*
X242316000Y-69723000D03*
X200914000Y-125857000D03*
X224316800Y-112995200D03*
X242570000Y-83312000D03*
X224282000Y-125603000D03*
D36*
X73660000Y-51562000D03*
D34*
X241808000Y-106426000D03*
X224282000Y-90932000D03*
X224282000Y-76200000D03*
X224409000Y-82931000D03*
X224520000Y-67730000D03*
X242316000Y-90678000D03*
D36*
%TO.N,Net-(C4-Pad2)*%
X69342000Y-64008000D03*
D35*
X72390000Y-68961000D03*
X81026000Y-63627000D03*
D36*
X69342000Y-66040000D03*
D34*
%TO.N,Net-(C15-Pad1)*%
X270510000Y-44831000D03*
%TO.N,Net-(C20-Pad1)*%
X98552000Y-141605000D03*
X105410000Y-135763000D03*
X102743000Y-130810000D03*
X94742000Y-141478000D03*
X105029000Y-131445000D03*
%TO.N,Net-(C22-Pad1)*%
X157734000Y-122555000D03*
X274066000Y-118745000D03*
X157607000Y-126492000D03*
X141732000Y-124460000D03*
%TO.N,VCC*%
X87376000Y-159004000D03*
X97815400Y-139598400D03*
X37719000Y-79121000D03*
X170053000Y-147066000D03*
X206375000Y-69342000D03*
X39370000Y-71120000D03*
X173101000Y-158623000D03*
X66000000Y-124250000D03*
X133604000Y-64516000D03*
D35*
X84750000Y-89000000D03*
D34*
X38481000Y-139192000D03*
D37*
X23114000Y-51562000D03*
D34*
X28702000Y-129413000D03*
X262636000Y-160401000D03*
X88392000Y-140208000D03*
X28702000Y-125984000D03*
X206857600Y-75539600D03*
X104648000Y-65024000D03*
X82747600Y-101752400D03*
X71750000Y-123000000D03*
X206502000Y-82930989D03*
X71866000Y-82693000D03*
X90000000Y-94000000D03*
X82250000Y-123500000D03*
X37465000Y-90551000D03*
X209296000Y-160909000D03*
X205822800Y-90722200D03*
X123901200Y-125171200D03*
X279598000Y-64152000D03*
X205867000Y-99822000D03*
X49530000Y-65405000D03*
X205867000Y-106934000D03*
X224958400Y-75650600D03*
%TO.N,/logique/Entr\u00E9es digitales/IN8*%
X62484000Y-113919000D03*
%TO.N,/logique/Entr\u00E9es digitales/IN5*%
X62103000Y-77343000D03*
%TO.N,/logique/Entr\u00E9es digitales/IN6*%
X61722000Y-90170000D03*
%TO.N,/logique/Entr\u00E9es digitales/IN7*%
X62865000Y-100584000D03*
%TO.N,/logique/Extensions/Simple extension/EI*%
X128143000Y-117729000D03*
X135509000Y-64770000D03*
X265811000Y-63881000D03*
X106172000Y-127254000D03*
X98425000Y-126746000D03*
%TO.N,/logique/Extensions/Simple extension1/EI*%
X51054000Y-140335000D03*
%TO.N,/logique/Extensions/Simple extension2/EI*%
X67437000Y-140335000D03*
%TO.N,/logique/Extensions/Simple extension3/EI*%
X86106000Y-132334000D03*
%TO.N,/logique/Extensions/Simple extension7/EI*%
X112522000Y-137033000D03*
%TO.N,/logique/Extensions/Simple extension5/EI*%
X126731000Y-140731000D03*
%TO.N,/logique/Entr\u00E9es analogiques - Extension/Extention analogique simple1/A_IN_EXT*%
X264464800Y-89230200D03*
%TO.N,/logique/Entr\u00E9es analogiques - Extension/Extention analogique simple2/A_IN_EXT*%
X266000000Y-104250000D03*
%TO.N,/logique/Entr\u00E9es analogiques - Extension/Extention analogique simple3/A_IN_EXT*%
X260250000Y-122000000D03*
%TO.N,/logique/Entr\u00E9es analogiques - Extension/Extention analogique simple5/A_IN_EXT*%
X266065000Y-134112000D03*
%TO.N,/logique/Entr\u00E9es analogiques - Extension/Extention analogique simple6/A_IN_EXT*%
X265430000Y-155448000D03*
%TO.N,/logique/Entr\u00E9es analogiques - Extension/Extention analogique simple4/A_IN_EXT*%
X224250000Y-136500000D03*
%TO.N,/logique/Entr\u00E9es analogiques - Extension/Extention analogique simple7/A_IN_EXT*%
X211250000Y-135500000D03*
%TO.N,/logique/Entr\u00E9es digitales/IN10*%
X25273000Y-113792000D03*
%TO.N,20(SDA)*%
X139827000Y-77851000D03*
X143002000Y-115189000D03*
X275082000Y-115189000D03*
%TO.N,21(SCL)*%
X138557000Y-78359000D03*
X245872000Y-117348000D03*
X277114000Y-117475000D03*
X115697000Y-78486000D03*
X140335000Y-111887000D03*
X244602000Y-113411000D03*
%TO.N,SDA*%
X178689000Y-160528000D03*
X267335000Y-161925000D03*
%TO.N,SCL*%
X180721000Y-154940000D03*
X272161000Y-159131000D03*
%TO.N,17(Rx2)*%
X186563000Y-80016420D03*
X249428000Y-93599000D03*
X186563000Y-82931000D03*
X122555000Y-80010000D03*
X249809000Y-86614000D03*
X280035000Y-94615000D03*
%TO.N,16(Tx2)*%
X130556000Y-96012000D03*
%TO.N,19(Rx1)*%
X117475000Y-74930000D03*
%TO.N,0(Rx0)*%
X279146000Y-60325000D03*
X135509000Y-65796500D03*
%TO.N,1(Tx0)*%
X140970000Y-66929000D03*
X280797000Y-62230000D03*
X279770500Y-38227000D03*
%TO.N,15(Rx3)*%
X149098000Y-75057000D03*
X149098000Y-66246020D03*
%TO.N,14(Tx3)*%
X145161000Y-63500000D03*
X263398000Y-61214000D03*
X247904000Y-63627000D03*
%TO.N,52(SCK)*%
X243967000Y-153797000D03*
X154051000Y-113284000D03*
X155956000Y-125476000D03*
X203327000Y-129413000D03*
X203454000Y-153924000D03*
%TO.N,51(MOSI)*%
X123825000Y-109474000D03*
X124587000Y-114887469D03*
X238760000Y-156703100D03*
X162687000Y-114543500D03*
X171069000Y-139319000D03*
X208153000Y-138557000D03*
X209550000Y-156337000D03*
%TO.N,50(MISO)*%
X228727000Y-112014000D03*
%TO.N,53(SS)*%
X155067000Y-110998000D03*
X111000000Y-113500000D03*
X206248000Y-137033000D03*
X111000000Y-111516000D03*
X206121000Y-155575000D03*
X249047000Y-155702000D03*
X163449000Y-137414000D03*
%TO.N,AREF*%
X192659000Y-116713000D03*
X174625000Y-74930000D03*
X31369000Y-131318000D03*
X192532000Y-76708000D03*
X104775000Y-125984000D03*
X104648000Y-116586000D03*
%TO.N,/logique/Collecteurs ouverts/OC5-PWM*%
X190246000Y-93345000D03*
X157226000Y-141605000D03*
X200025000Y-97282000D03*
X216027000Y-97282000D03*
X199390000Y-141478000D03*
X81407000Y-169418000D03*
X147574000Y-162560000D03*
%TO.N,/logique/Collecteurs ouverts/OC6-PWM*%
X181483000Y-135255000D03*
X86487000Y-166116000D03*
X154940000Y-135636000D03*
X216154000Y-104706480D03*
X190119000Y-101346000D03*
X186588400Y-101117400D03*
X147320000Y-159893000D03*
%TO.N,/logique/Collecteurs ouverts/OC7-PWM*%
X91186000Y-168402000D03*
X175514000Y-110109000D03*
X180006991Y-110188009D03*
X180975000Y-132588000D03*
X196342000Y-77099500D03*
X195326000Y-110998000D03*
X147320000Y-164338000D03*
X159131000Y-132969000D03*
X234061000Y-73914000D03*
%TO.N,/logique/Collecteurs ouverts/OC8-PWM*%
X147447000Y-167640000D03*
X207010000Y-123063000D03*
X204343000Y-75438000D03*
X164465000Y-83058000D03*
X176657000Y-144018000D03*
X164846000Y-151892000D03*
X203708000Y-83947000D03*
X176657000Y-123317000D03*
X96266000Y-169545000D03*
%TO.N,/logique/Collecteurs ouverts/OC9-PWM*%
X164592000Y-95250000D03*
X181483000Y-133985000D03*
X186182000Y-108585000D03*
X156083000Y-134366000D03*
X195008500Y-96710500D03*
X195072000Y-108712000D03*
X239395000Y-97790000D03*
X147447000Y-161417000D03*
X101981000Y-165735000D03*
%TO.N,/logique/Collecteurs ouverts/OC10-PWM*%
X106426000Y-169026500D03*
X203073000Y-106807000D03*
X160909000Y-142748000D03*
X172847000Y-142875000D03*
X167005000Y-107061000D03*
X203073000Y-95377000D03*
X147320000Y-165862000D03*
%TO.N,/logique/Collecteurs ouverts/OC11-PWM*%
X142240000Y-123571000D03*
X147510500Y-158686500D03*
X234061000Y-97282000D03*
X154178000Y-141478000D03*
X149098000Y-141478000D03*
X154940000Y-81661000D03*
X154940000Y-89535000D03*
X221742000Y-97282000D03*
X139573000Y-89789000D03*
X221615000Y-81534000D03*
X149225000Y-124460000D03*
X111506000Y-158877000D03*
%TO.N,/logique/Collecteurs ouverts/OC12-PWM*%
X158496000Y-150876000D03*
X183515000Y-113030000D03*
X171958000Y-102235000D03*
X171958000Y-112903000D03*
X154432000Y-93980000D03*
X158369000Y-129159000D03*
X143256000Y-153924000D03*
X171704000Y-93980000D03*
X183642000Y-129159000D03*
%TO.N,/logique/Collecteurs ouverts/OC2*%
X154432000Y-162052000D03*
X181864000Y-161925000D03*
%TO.N,/logique/Collecteurs ouverts/OC3*%
X215392000Y-82931000D03*
X210439000Y-82930989D03*
X164719000Y-154559000D03*
X210439000Y-78348500D03*
X179451000Y-154432000D03*
X177101500Y-76644500D03*
X182372000Y-77724000D03*
%TO.N,/logique/Collecteurs ouverts/OC4*%
X167513000Y-153543000D03*
X173355000Y-90043000D03*
X196977000Y-89789000D03*
X198501000Y-155575000D03*
%TO.N,/logique/Extensions/Simple extension2/COL_EXT*%
X78740000Y-139319000D03*
%TO.N,/logique/Extensions/Simple extension/COL_EXT*%
X274447000Y-58293000D03*
X247015000Y-116332000D03*
X259334000Y-66294000D03*
X102108000Y-120142000D03*
X271907000Y-66040000D03*
X49911000Y-119888000D03*
X101854000Y-116205000D03*
%TO.N,/logique/Entr\u00E9es analogiques - Extension/Extention analogique simple/COL_AIN_EXT*%
X114554000Y-85725000D03*
X202946000Y-84709000D03*
X202946000Y-89281000D03*
X202946000Y-89281000D03*
X251460000Y-89408000D03*
%TO.N,/logique/Entr\u00E9es analogiques - Extension/Extention analogique simple1/COL_AIN_EXT*%
X116713000Y-93091000D03*
%TO.N,/logique/Entr\u00E9es analogiques - Extension/Extention analogique simple2/COL_AIN_EXT*%
X116205000Y-96012000D03*
X155321000Y-95377000D03*
X155448000Y-102616000D03*
%TO.N,/logique/Entr\u00E9es analogiques - Extension/Extention analogique simple3/COL_AIN_EXT*%
X196469000Y-120142000D03*
X196342000Y-101854000D03*
X115951000Y-103759000D03*
X170942000Y-96636500D03*
X117665500Y-103822500D03*
X171196000Y-100076000D03*
X118618000Y-99543389D03*
%TO.N,/logique/Entr\u00E9es analogiques - Extension/Extention analogique simple5/COL_AIN_EXT*%
X277495000Y-85217000D03*
X277495000Y-111125000D03*
X262255000Y-111125000D03*
X129057400Y-82905600D03*
%TO.N,/logique/Entr\u00E9es analogiques - Extension/Extention analogique simple6/COL_AIN_EXT*%
X127635000Y-91059000D03*
X194310000Y-156972000D03*
X194310000Y-90932000D03*
%TO.N,/logique/Entr\u00E9es analogiques - Extension/Extention analogique simple4/COL_AIN_EXT*%
X193548000Y-97917000D03*
X126873000Y-99543389D03*
X193040000Y-140081000D03*
%TO.N,/logique/Entr\u00E9es analogiques - Extension/Extention analogique simple7/COL_AIN_EXT*%
X125730000Y-108331000D03*
X211963000Y-112014000D03*
%TO.N,13(\u002A\u002A)*%
X247523000Y-61595000D03*
X264174000Y-59831000D03*
X172593000Y-62865000D03*
%TO.N,12(\u002A\u002A)*%
X244602000Y-67945000D03*
X244475000Y-58928000D03*
%TO.N,9(\u002A\u002A)*%
X159512000Y-74295000D03*
X156083000Y-74422000D03*
%TO.N,11(\u002A\u002A)*%
X164465000Y-78105000D03*
X147828000Y-78105000D03*
%TO.N,10(\u002A\u002A)*%
X161925000Y-76835000D03*
X149098000Y-77597000D03*
%TO.N,7(\u002A\u002A)*%
X157988000Y-73725989D03*
X153035000Y-73787000D03*
%TO.N,6(\u002A\u002A)*%
X165989000Y-75565000D03*
X150495000Y-75184000D03*
%TO.N,5(\u002A\u002A)*%
X174879000Y-103759000D03*
X147701000Y-76200000D03*
X180467000Y-78359000D03*
X178689000Y-103632000D03*
%TO.N,4(\u002A\u002A)*%
X181864000Y-74295000D03*
X145161000Y-74041000D03*
%TO.N,3(\u002A\u002A)*%
X41148000Y-144272000D03*
X142621000Y-84709000D03*
X62992000Y-144018000D03*
X68199000Y-124714000D03*
X80772000Y-124587000D03*
X107061000Y-84963000D03*
%TO.N,2(\u002A\u002A)*%
X89154000Y-110744000D03*
X35991800Y-111455200D03*
X97536000Y-66421000D03*
%TO.N,A0*%
X147701000Y-154940000D03*
X51562000Y-154305000D03*
%TO.N,A1*%
X59817000Y-153797000D03*
X137985500Y-152336500D03*
X141478000Y-141224000D03*
X137881411Y-141264589D03*
%TO.N,A2*%
X147701000Y-156210000D03*
X142875000Y-122936000D03*
X152019000Y-124587000D03*
X66802000Y-155956000D03*
%TO.N,A3*%
X153416000Y-123571000D03*
X147447000Y-157099000D03*
X139700000Y-121666000D03*
X69503800Y-157445200D03*
%TO.N,A4*%
X21209000Y-154178000D03*
X136525000Y-149860000D03*
X136906000Y-129286000D03*
%TO.N,A5*%
X32623000Y-153654000D03*
X135636000Y-151003000D03*
X132842000Y-128016000D03*
%TO.N,A6*%
X131953000Y-144399000D03*
X38481000Y-153924000D03*
X130810000Y-152146000D03*
%TO.N,A7*%
X125095000Y-152273000D03*
X46228000Y-154178000D03*
X125222000Y-144526000D03*
%TO.N,A8*%
X115199500Y-82006400D03*
X118237000Y-93853000D03*
X179832000Y-93345000D03*
X118237000Y-81915000D03*
X179705000Y-87376000D03*
X239141000Y-87376000D03*
X132334000Y-93980000D03*
%TO.N,A9*%
X122428000Y-113157000D03*
X268859000Y-86106000D03*
X268859000Y-86106000D03*
X137033000Y-112776000D03*
X116840000Y-88900000D03*
X137033000Y-87630000D03*
%TO.N,A10*%
X136017000Y-99314000D03*
X130302000Y-115062000D03*
X115443000Y-101219000D03*
X269621000Y-99949000D03*
X119888000Y-115336989D03*
X136144000Y-101219000D03*
%TO.N,A11*%
X235331000Y-114046000D03*
X118999000Y-114173000D03*
%TO.N,A12*%
X167894000Y-110871000D03*
X126746000Y-111633000D03*
X226949000Y-117602000D03*
X182245000Y-110871000D03*
X273050000Y-129667000D03*
X182245000Y-117602000D03*
X115189000Y-111506000D03*
X167703500Y-104584500D03*
X232156000Y-126365000D03*
X128397000Y-104521000D03*
%TO.N,A13*%
X129794000Y-107696000D03*
X150241000Y-117602000D03*
X114173000Y-110363000D03*
X135128000Y-89281000D03*
X127508000Y-89281000D03*
X146304000Y-107696000D03*
X242824000Y-124714000D03*
X129794000Y-110363000D03*
%TO.N,A14*%
X151130000Y-107442000D03*
X112395000Y-108966000D03*
X116967000Y-108701500D03*
X151130000Y-117210500D03*
X132207000Y-106934000D03*
X173609000Y-117221000D03*
X127508000Y-103632000D03*
X174371000Y-121793000D03*
X220853000Y-121793000D03*
X134620000Y-103759000D03*
%TO.N,A15*%
X201295000Y-107950000D03*
X109982000Y-108077000D03*
X118618000Y-108204000D03*
%TO.N,48*%
X137922000Y-122301000D03*
X123698000Y-121793000D03*
X138938000Y-126238000D03*
%TO.N,49*%
X104150500Y-119634000D03*
X101258250Y-116741750D03*
X104775000Y-129159000D03*
X103886000Y-126619000D03*
%TO.N,46*%
X108331000Y-124968000D03*
X103251000Y-123063000D03*
%TO.N,47*%
X108077000Y-107569000D03*
%TO.N,44*%
X170053000Y-100838000D03*
%TO.N,42*%
X168478489Y-99898489D03*
%TO.N,43*%
X105537000Y-117729000D03*
X81280000Y-138684000D03*
X105664000Y-128143000D03*
X105664000Y-124714000D03*
X81280000Y-133223000D03*
%TO.N,40*%
X179070000Y-75311000D03*
X192278000Y-75311000D03*
X179197000Y-94488000D03*
%TO.N,41*%
X95123000Y-114935000D03*
X63881000Y-117094000D03*
%TO.N,38*%
X137160000Y-62611000D03*
X115697000Y-86995000D03*
X144145000Y-62346500D03*
X110871000Y-62357000D03*
X194945000Y-61468000D03*
%TO.N,39*%
X94100000Y-88700000D03*
X94100000Y-79700000D03*
X108204000Y-78867000D03*
X108331000Y-65786000D03*
X145059400Y-49885600D03*
%TO.N,36*%
X93345000Y-114427000D03*
X76225400Y-115163600D03*
%TO.N,37*%
X106436489Y-89402511D03*
X110109000Y-64135000D03*
X110109000Y-80010000D03*
%TO.N,34*%
X74533000Y-99965000D03*
X92710000Y-99822000D03*
%TO.N,35*%
X169545000Y-61087000D03*
X169291000Y-67564000D03*
X141605000Y-79375000D03*
X117475000Y-79375000D03*
X141569880Y-68996120D03*
%TO.N,32*%
X99500000Y-87600000D03*
X74422000Y-90170000D03*
X97917000Y-90170000D03*
%TO.N,33*%
X190881000Y-85725000D03*
X190881000Y-61214000D03*
%TO.N,30*%
X89154000Y-80899000D03*
%TO.N,31*%
X220853000Y-58293000D03*
X110617000Y-80772000D03*
X220853000Y-80518000D03*
%TO.N,28*%
X95382000Y-87757000D03*
%TO.N,29*%
X109093000Y-79502000D03*
X109093000Y-61722000D03*
%TO.N,26*%
X94869000Y-85725000D03*
%TO.N,27*%
X107315000Y-76300000D03*
X107315000Y-57658000D03*
%TO.N,24*%
X98987000Y-78613000D03*
%TO.N,25*%
X98200000Y-75600000D03*
X78359000Y-52324000D03*
%TO.N,Net-(Q15-Pad1)*%
X272034000Y-51435000D03*
%TO.N,Net-(Q17-Pad1)*%
X71501000Y-140589000D03*
X76073000Y-137795000D03*
%TO.N,Net-(Q18-Pad1)*%
X97409000Y-131064000D03*
X98298000Y-128270000D03*
%TO.N,Net-(R1-Pad2)*%
X59436000Y-66929000D03*
X75438000Y-66929000D03*
%TO.N,Net-(R95-Pad2)*%
X269250000Y-51500000D03*
X272500000Y-48500000D03*
%TO.N,Net-(R137-Pad2)*%
X137557000Y-128000000D03*
X143510000Y-127635000D03*
%TD*%
D38*
%TO.N,GND*%
X135260000Y-57150000D02*
X135260000Y-58551000D01*
X235524000Y-57055500D02*
X235524000Y-59140000D01*
D39*
X32567200Y-141279200D02*
X32512000Y-141224000D01*
X272241600Y-137617200D02*
X276682200Y-137617200D01*
X44805600Y-61649700D02*
X42853700Y-61649700D01*
X272241600Y-152552400D02*
X274802600Y-152552400D01*
X148204600Y-131059600D02*
X148209000Y-131064000D01*
X69981400Y-160909000D02*
X71755000Y-160909000D01*
X27944400Y-158237600D02*
X27940000Y-158242000D01*
X31805200Y-101396800D02*
X34208400Y-103800000D01*
X36851600Y-119655600D02*
X43383200Y-119655600D01*
X276273500Y-54180500D02*
X276352000Y-54102000D01*
X49555200Y-129844800D02*
X53284800Y-129844800D01*
X88143000Y-59972500D02*
X88093000Y-60022500D01*
X272343200Y-73343200D02*
X272250000Y-73250000D01*
X34184000Y-158390000D02*
X34163000Y-158369000D01*
X23672800Y-158237600D02*
X23672800Y-154990800D01*
X272415000Y-109982000D02*
X272415000Y-110236000D01*
X274802600Y-152552400D02*
X274828000Y-152527000D01*
X69545200Y-127454800D02*
X69545200Y-130958000D01*
X42853700Y-61649700D02*
X42799000Y-61595000D01*
X66807000Y-54610000D02*
X65151000Y-54610000D01*
X184441500Y-57436000D02*
X184441500Y-59497000D01*
D38*
X258958000Y-63353000D02*
X258908000Y-63403000D01*
D39*
X99822000Y-130805600D02*
X98627600Y-132000000D01*
X114655600Y-130602400D02*
X112602400Y-130602400D01*
X161499000Y-56692000D02*
X161499000Y-58605500D01*
X36322000Y-158390000D02*
X34184000Y-158390000D01*
X44776300Y-71120000D02*
X47920000Y-71120000D01*
X31652800Y-116586000D02*
X33782000Y-116586000D01*
X31754400Y-78587600D02*
X31754400Y-76322600D01*
X272343200Y-121818400D02*
X272038400Y-122123200D01*
X56417800Y-159639000D02*
X57531000Y-159639000D01*
X48920400Y-158542400D02*
X46909400Y-158542400D01*
X26564000Y-134569200D02*
X23317200Y-134569200D01*
X210786000Y-60746500D02*
X209082500Y-60746500D01*
X42947500Y-84785200D02*
X43434000Y-84298700D01*
X61468000Y-158593200D02*
X59338800Y-158593200D01*
X275066800Y-54180500D02*
X276273500Y-54180500D01*
X50338000Y-115062000D02*
X53640400Y-115062000D01*
D38*
X235524000Y-59140000D02*
X235524000Y-61452800D01*
D39*
X111384000Y-57456500D02*
X111384000Y-59067500D01*
D38*
X235524000Y-61452800D02*
X235474000Y-61502800D01*
X258958000Y-57658000D02*
X258958000Y-60583000D01*
D39*
X272343200Y-107035600D02*
X272343200Y-109910200D01*
X231886800Y-129886800D02*
X232000000Y-130000000D01*
D38*
X258958000Y-60583000D02*
X258958000Y-63353000D01*
D39*
X49400000Y-130000000D02*
X49555200Y-129844800D01*
X272343200Y-77317600D02*
X272343200Y-73343200D01*
X84988400Y-127411600D02*
X84988400Y-130551600D01*
X277342600Y-44856400D02*
X277368000Y-44831000D01*
X228803200Y-129886800D02*
X231886800Y-129886800D01*
X85000000Y-127400000D02*
X84988400Y-127411600D01*
X43434000Y-84298700D02*
X43434000Y-81327000D01*
X33250000Y-64500000D02*
X33250000Y-66932000D01*
X45720000Y-57178500D02*
X45035000Y-57863500D01*
X88143000Y-55880000D02*
X88143000Y-59972500D01*
X30073600Y-158237600D02*
X27944400Y-158237600D01*
X184441500Y-59497000D02*
X184391500Y-59547000D01*
X111384000Y-59067500D02*
X110810000Y-59641500D01*
X36581900Y-103800000D02*
X36982400Y-103399500D01*
X49600000Y-102000000D02*
X49695200Y-101904800D01*
X50000000Y-90200000D02*
X50080800Y-90119200D01*
X69600000Y-127400000D02*
X69545200Y-127454800D01*
X99822000Y-126822000D02*
X99822000Y-130805600D01*
X137668000Y-55225572D02*
X135743572Y-57150000D01*
X184441500Y-55912500D02*
X184441500Y-57436000D01*
X33250000Y-66932000D02*
X31703600Y-68478400D01*
X112602400Y-130602400D02*
X112000000Y-130000000D01*
X143560800Y-131059600D02*
X148204600Y-131059600D01*
X23622000Y-154940000D02*
X23672800Y-154990800D01*
X129032000Y-127762000D02*
X129082800Y-127812800D01*
X111384000Y-55499000D02*
X111384000Y-57456500D01*
D38*
X135260000Y-58551000D02*
X135260000Y-61337000D01*
D39*
X31906800Y-86643800D02*
X31877000Y-86614000D01*
X31754400Y-76322600D02*
X31877000Y-76200000D01*
X47920000Y-71120000D02*
X48000000Y-71200000D01*
X33782000Y-116586000D02*
X36851600Y-119655600D01*
X66757000Y-59387500D02*
X66781000Y-59411500D01*
X45720000Y-55650500D02*
X45720000Y-57178500D01*
X32567200Y-144221200D02*
X32567200Y-141279200D01*
X59309000Y-158623000D02*
X59338800Y-158593200D01*
D38*
X135260000Y-61337000D02*
X135226000Y-61371000D01*
D39*
X42824400Y-158542400D02*
X40559400Y-158542400D01*
X274904200Y-122123200D02*
X274955000Y-122174000D01*
X209082500Y-60746500D02*
X209042000Y-60706000D01*
X275844000Y-44856400D02*
X277342600Y-44856400D01*
X98627600Y-132000000D02*
X96600000Y-132000000D01*
X137668000Y-54483000D02*
X137668000Y-55225572D01*
X34208400Y-103800000D02*
X36581900Y-103800000D01*
X99800000Y-126800000D02*
X99822000Y-126822000D01*
X49695200Y-101904800D02*
X53386400Y-101904800D01*
X280856800Y-91643200D02*
X283156000Y-93942400D01*
X55524400Y-158745600D02*
X56417800Y-159639000D01*
X50012800Y-77012800D02*
X53284800Y-77012800D01*
X215747600Y-126752400D02*
X215750000Y-126750000D01*
X276733000Y-137668000D02*
X276682200Y-137617200D01*
X46909400Y-158542400D02*
X46863000Y-158496000D01*
X272038400Y-122123200D02*
X274904200Y-122123200D01*
X96600000Y-132000000D02*
X95000000Y-132000000D01*
X50000000Y-77000000D02*
X50012800Y-77012800D01*
X272394000Y-91643200D02*
X280856800Y-91643200D01*
X45720000Y-53721000D02*
X45720000Y-55650500D01*
X31906800Y-89814400D02*
X31906800Y-86643800D01*
X40055900Y-106473000D02*
X43386400Y-106473000D01*
X50080800Y-90119200D02*
X53284800Y-90119200D01*
X161499000Y-58605500D02*
X161499000Y-60784500D01*
X67868800Y-158796400D02*
X65866600Y-158796400D01*
X161549000Y-56642000D02*
X161499000Y-56692000D01*
X135743572Y-57150000D02*
X135260000Y-57150000D01*
X215747600Y-129734400D02*
X215747600Y-126752400D01*
X50200000Y-115200000D02*
X50338000Y-115062000D01*
X129082800Y-130754800D02*
X129082800Y-127812800D01*
X210820000Y-60712500D02*
X210786000Y-60746500D01*
X67868800Y-158796400D02*
X69981400Y-160909000D01*
X66807000Y-54610000D02*
X66807000Y-59337500D01*
X66807000Y-59337500D02*
X66757000Y-59387500D01*
X79250000Y-63750000D02*
X82977500Y-60022500D01*
X82977500Y-60022500D02*
X88093000Y-60022500D01*
X36982400Y-103399500D02*
X40055900Y-106473000D01*
X210820000Y-56642000D02*
X210820000Y-60712500D01*
X272343200Y-109910200D02*
X272415000Y-109982000D01*
X65866600Y-158796400D02*
X65786000Y-158877000D01*
X40559400Y-158542400D02*
X40513000Y-158496000D01*
%TO.N,+12V*%
X243214400Y-70621400D02*
X242316000Y-69723000D01*
X224215200Y-84937600D02*
X224367600Y-85090000D01*
X128314400Y-41805200D02*
X128314400Y-46907400D01*
X59412900Y-48236900D02*
X57245200Y-46069200D01*
X243265200Y-93167200D02*
X243265200Y-91627200D01*
X224282000Y-77758800D02*
X224282000Y-76200000D01*
X196168800Y-146961200D02*
X191168800Y-146961200D01*
X224367600Y-82972400D02*
X224409000Y-82931000D01*
X153308000Y-42008400D02*
X153308000Y-48025000D01*
X104286000Y-41754400D02*
X104286000Y-47263000D01*
X155956000Y-50673000D02*
X156004500Y-50624500D01*
X243316000Y-76692000D02*
X242824000Y-76200000D01*
X224282000Y-92694000D02*
X224282000Y-90932000D01*
X151790400Y-54310400D02*
X151790400Y-43526000D01*
X151790400Y-43526000D02*
X153308000Y-42008400D01*
X106098100Y-49075100D02*
X108668200Y-49075100D01*
X224215200Y-77825600D02*
X224282000Y-77758800D01*
X178504800Y-46244900D02*
X181900900Y-49641000D01*
X201168800Y-146961200D02*
X196168800Y-146961200D01*
X156004500Y-50624500D02*
X158856000Y-50624500D01*
X224367600Y-85090000D02*
X224367600Y-82972400D01*
X243214400Y-71323200D02*
X243214400Y-70621400D01*
X37060900Y-47601900D02*
X33166000Y-43707000D01*
X227984000Y-42237000D02*
X227984000Y-45807400D01*
X224520000Y-77520800D02*
X224215200Y-77825600D01*
X85123000Y-49022000D02*
X82169000Y-49022000D01*
X224367600Y-92608400D02*
X224164400Y-92811600D01*
X243163600Y-100161600D02*
X242824000Y-99822000D01*
X224215200Y-99888800D02*
X224282000Y-99822000D01*
X243417600Y-93014800D02*
X243265200Y-93167200D01*
X224316800Y-112995200D02*
X224316800Y-108915200D01*
X153308000Y-48025000D02*
X155956000Y-50673000D01*
X224028000Y-125857000D02*
X224282000Y-125603000D01*
X227984000Y-45807400D02*
X233367000Y-51190400D01*
X252164800Y-46828800D02*
X256445400Y-51109400D01*
X243316000Y-78079600D02*
X243316000Y-76692000D01*
X80003600Y-46856600D02*
X80003600Y-42008400D01*
X203447600Y-42211600D02*
X203447600Y-44863100D01*
X57245200Y-46069200D02*
X57245200Y-42008400D01*
X241808000Y-108204000D02*
X241808000Y-106426000D01*
X252164800Y-41602000D02*
X252164800Y-46828800D01*
X224164400Y-92811600D02*
X224282000Y-92694000D01*
X203447600Y-44863100D02*
X208358200Y-49773700D01*
X242951000Y-85080600D02*
X242951000Y-83693000D01*
X242951000Y-83693000D02*
X242570000Y-83312000D01*
X104286000Y-47263000D02*
X106098100Y-49075100D01*
X243214400Y-77978000D02*
X243316000Y-78079600D01*
X224215200Y-101752400D02*
X224215200Y-99888800D01*
X243265200Y-91627200D02*
X242316000Y-90678000D01*
X178504800Y-42414800D02*
X178504800Y-46244900D01*
X33166000Y-43707000D02*
X33166000Y-41602000D01*
X43230200Y-47601900D02*
X37060900Y-47601900D01*
X186168800Y-146961200D02*
X191168800Y-146961200D01*
X224520000Y-67730000D02*
X224520000Y-71069200D01*
X243417600Y-85547200D02*
X242951000Y-85080600D01*
X200914000Y-125857000D02*
X224028000Y-125857000D01*
X82169000Y-49022000D02*
X80003600Y-46856600D01*
X233367000Y-51190400D02*
X232851400Y-51190400D01*
X131348000Y-49941000D02*
X132922600Y-49941000D01*
X64142000Y-48236900D02*
X59412900Y-48236900D01*
X243163600Y-101803200D02*
X243163600Y-100161600D01*
X128314400Y-46907400D02*
X131348000Y-49941000D01*
D40*
%TO.N,Net-(C4-Pad2)*%
X72390000Y-68961000D02*
X75692000Y-68961000D01*
X75692000Y-68961000D02*
X81026000Y-63627000D01*
D41*
X69342000Y-66040000D02*
X69342000Y-64008000D01*
D39*
%TO.N,Net-(C7-Pad1)*%
X47848100Y-63724700D02*
X47869600Y-63703200D01*
X42672000Y-67056000D02*
X42773600Y-66954400D01*
X42545000Y-64389000D02*
X42545000Y-66725800D01*
X37998400Y-67056000D02*
X42672000Y-67056000D01*
X44805600Y-63724700D02*
X43209300Y-63724700D01*
X44805600Y-63724700D02*
X47848100Y-63724700D01*
X43209300Y-63724700D02*
X42545000Y-64389000D01*
X42545000Y-66725800D02*
X42773600Y-66954400D01*
D38*
%TO.N,Net-(C8-Pad1)*%
X40640000Y-69850000D02*
X41910000Y-71120000D01*
D39*
X30006800Y-74371200D02*
X35728400Y-74371200D01*
D38*
X41910000Y-71120000D02*
X42701300Y-71120000D01*
X36033200Y-71170800D02*
X36033200Y-73964800D01*
X36033200Y-71170800D02*
X37354000Y-69850000D01*
X36033200Y-73964800D02*
X36084000Y-74015600D01*
X37354000Y-69850000D02*
X40640000Y-69850000D01*
D39*
X35728400Y-74371200D02*
X36084000Y-74015600D01*
%TO.N,Net-(C9-Pad1)*%
X35779200Y-81076800D02*
X35779200Y-82896200D01*
X35779200Y-82896200D02*
X35779200Y-83870800D01*
X35779200Y-83870800D02*
X34915600Y-84734400D01*
X29498800Y-84785200D02*
X34864800Y-84785200D01*
X35779200Y-82896200D02*
X38983500Y-82896200D01*
X34864800Y-84785200D02*
X34915600Y-84734400D01*
X38983500Y-82896200D02*
X40872500Y-84785200D01*
%TO.N,Net-(C10-Pad1)*%
X33340800Y-94691200D02*
X33340800Y-96062800D01*
X33290000Y-96012000D02*
X33340800Y-96062800D01*
X35525200Y-92506800D02*
X33340800Y-94691200D01*
X29549600Y-96012000D02*
X33290000Y-96012000D01*
X33340800Y-96062800D02*
X33340800Y-97682900D01*
X33340800Y-97682900D02*
X36982400Y-101324500D01*
%TO.N,Net-(C15-Pad1)*%
X273878800Y-44746600D02*
X273769000Y-44856400D01*
X273878800Y-40436800D02*
X273878800Y-44746600D01*
X270510000Y-44831000D02*
X273743600Y-44831000D01*
X273743600Y-44831000D02*
X273769000Y-44856400D01*
%TO.N,Net-(C20-Pad1)*%
X104394000Y-130810000D02*
X102743000Y-130810000D01*
X105410000Y-131826000D02*
X105029000Y-131445000D01*
X105029000Y-131445000D02*
X104394000Y-130810000D01*
X98552000Y-141605000D02*
X94869000Y-141605000D01*
X105410000Y-135763000D02*
X105410000Y-131826000D01*
X94869000Y-141605000D02*
X94742000Y-141478000D01*
%TO.N,Net-(C22-Pad1)*%
X157607000Y-126492000D02*
X143764000Y-126492000D01*
X274066000Y-118745000D02*
X173609000Y-118745000D01*
X169799000Y-122555000D02*
X157734000Y-122555000D01*
X173609000Y-118745000D02*
X169799000Y-122555000D01*
X143764000Y-126492000D02*
X141732000Y-124460000D01*
%TO.N,VCC*%
X206857600Y-75539600D02*
X206893489Y-75575489D01*
X206893489Y-75575489D02*
X224883289Y-75575489D01*
X37525200Y-92506800D02*
X37525200Y-90611200D01*
X173101000Y-158623000D02*
X173355000Y-158877000D01*
D38*
X49869600Y-65065400D02*
X49530000Y-65405000D01*
D39*
X133096000Y-65024000D02*
X133604000Y-64516000D01*
X173355000Y-158877000D02*
X182505525Y-158877000D01*
X104648000Y-65024000D02*
X133096000Y-65024000D01*
X37525200Y-90611200D02*
X37465000Y-90551000D01*
X279575600Y-40174400D02*
X283105200Y-40174400D01*
X276141200Y-40174400D02*
X279575600Y-40174400D01*
X275878800Y-40436800D02*
X276141200Y-40174400D01*
X184029525Y-160401000D02*
X262636000Y-160401000D01*
D38*
X49869600Y-63703200D02*
X49869600Y-65065400D01*
D39*
X182505525Y-158877000D02*
X184029525Y-160401000D01*
D38*
X38033200Y-71170800D02*
X39319200Y-71170800D01*
D39*
X224883289Y-75575489D02*
X224958400Y-75650600D01*
X37779200Y-81076800D02*
X37779200Y-79181200D01*
D38*
X39319200Y-71170800D02*
X39370000Y-71120000D01*
D39*
X37779200Y-79181200D02*
X37719000Y-79121000D01*
%TO.N,Net-(D6-Pad1)*%
X46730200Y-47601900D02*
X46730200Y-51785800D01*
X46730200Y-51785800D02*
X46670000Y-51846000D01*
X45166000Y-46037700D02*
X46730200Y-47601900D01*
X45166000Y-41602000D02*
X45166000Y-46037700D01*
%TO.N,Net-(D7-Pad1)*%
X69245200Y-42008400D02*
X69245200Y-46633700D01*
X67642000Y-48236900D02*
X67642000Y-52620000D01*
X69245200Y-46633700D02*
X67642000Y-48236900D01*
X67642000Y-52620000D02*
X67757000Y-52735000D01*
%TO.N,Net-(D8-Pad1)*%
X92003600Y-45641400D02*
X88623000Y-49022000D01*
X92003600Y-42008400D02*
X92003600Y-45641400D01*
X88724000Y-53636000D02*
X89093000Y-54005000D01*
X88724000Y-49913300D02*
X88724000Y-53636000D01*
%TO.N,Net-(D9-Pad1)*%
X112168200Y-53458200D02*
X112334000Y-53624000D01*
X112168200Y-49075100D02*
X112168200Y-53458200D01*
X116286000Y-47671000D02*
X114881900Y-49075100D01*
X114881900Y-49075100D02*
X112168200Y-49075100D01*
X116286000Y-41754400D02*
X116286000Y-47671000D01*
%TO.N,Net-(D10-Pad1)*%
X140314400Y-41805200D02*
X140314400Y-46049200D01*
X135559000Y-50804600D02*
X136422600Y-49941000D01*
X134421200Y-50804600D02*
X135559000Y-50804600D01*
D38*
X136422600Y-55062400D02*
X136210000Y-55275000D01*
D39*
X140314400Y-46049200D02*
X136422600Y-49941000D01*
D38*
X136422600Y-49941000D02*
X136422600Y-55062400D01*
D39*
%TO.N,Net-(D11-Pad1)*%
X165308000Y-42008400D02*
X165308000Y-47672500D01*
X165308000Y-47672500D02*
X162356000Y-50624500D01*
X162356000Y-54624000D02*
X162499000Y-54767000D01*
X162356000Y-50624500D02*
X162356000Y-54624000D01*
%TO.N,Net-(D12-Pad1)*%
X190504800Y-42414800D02*
X190504800Y-44537100D01*
X190504800Y-44537100D02*
X185400900Y-49641000D01*
X185400900Y-54028100D02*
X185391500Y-54037500D01*
X185400900Y-49641000D02*
X185400900Y-54028100D01*
%TO.N,Net-(D13-Pad1)*%
X215447600Y-46184300D02*
X211858200Y-49773700D01*
X211858200Y-54678800D02*
X211770000Y-54767000D01*
X211858200Y-49773700D02*
X211858200Y-54678800D01*
X215447600Y-42211600D02*
X215447600Y-46184300D01*
D38*
%TO.N,/logique/Entr\u00E9es digitales/IN1*%
X25700400Y-68681600D02*
X25903600Y-68478400D01*
X35998400Y-68141600D02*
X35998400Y-67056000D01*
X18516600Y-64871600D02*
X22326600Y-68681600D01*
X27910200Y-70485000D02*
X33655000Y-70485000D01*
X22326600Y-68681600D02*
X25700400Y-68681600D01*
X25903600Y-68478400D02*
X27910200Y-70485000D01*
X33655000Y-70485000D02*
X35998400Y-68141600D01*
X15802000Y-64871600D02*
X18516600Y-64871600D01*
D39*
%TO.N,/logique/Entr\u00E9es digitales/IN2*%
X28006800Y-76535200D02*
X25954400Y-78587600D01*
X15903600Y-77622400D02*
X19964400Y-77622400D01*
X20955000Y-78613000D02*
X20980400Y-78587600D01*
X19964400Y-77622400D02*
X20955000Y-78613000D01*
X28006800Y-74371200D02*
X28006800Y-76535200D01*
X20980400Y-78587600D02*
X25954400Y-78587600D01*
D38*
%TO.N,/logique/Entr\u00E9es digitales/IN3*%
X15903600Y-90525600D02*
X25395600Y-90525600D01*
X27498800Y-88422400D02*
X26106800Y-89814400D01*
X27498800Y-84785200D02*
X27498800Y-88422400D01*
X25395600Y-90525600D02*
X26106800Y-89814400D01*
D39*
%TO.N,/logique/Entr\u00E9es digitales/IN4*%
X27549600Y-99852400D02*
X26005200Y-101396800D01*
D38*
X24176400Y-103225600D02*
X26005200Y-101396800D01*
X15903600Y-103225600D02*
X24176400Y-103225600D01*
D39*
X27549600Y-96012000D02*
X27549600Y-99852400D01*
%TO.N,/logique/Entr\u00E9es digitales/IN8*%
X61341000Y-115062000D02*
X62484000Y-113919000D01*
X59440400Y-115062000D02*
X61341000Y-115062000D01*
%TO.N,/logique/Entr\u00E9es digitales/IN5*%
X43434000Y-76327000D02*
X46609000Y-79502000D01*
X56595600Y-79502000D02*
X59084800Y-77012800D01*
X61772800Y-77012800D02*
X62103000Y-77343000D01*
X46609000Y-79502000D02*
X56595600Y-79502000D01*
X59084800Y-77012800D02*
X61772800Y-77012800D01*
%TO.N,/logique/Entr\u00E9es digitales/IN6*%
X61671200Y-90119200D02*
X61722000Y-90170000D01*
X59084800Y-90119200D02*
X61671200Y-90119200D01*
X47244000Y-87884000D02*
X56769000Y-87884000D01*
X56976600Y-88011000D02*
X59084800Y-90119200D01*
X46228000Y-88900000D02*
X47244000Y-87884000D01*
X56896000Y-88011000D02*
X56976600Y-88011000D01*
X56769000Y-87884000D02*
X56896000Y-88011000D01*
X43332400Y-88900000D02*
X46228000Y-88900000D01*
%TO.N,/logique/Entr\u00E9es digitales/IN7*%
X61544200Y-101904800D02*
X62865000Y-100584000D01*
X59186400Y-101904800D02*
X61544200Y-101904800D01*
%TO.N,/logique/Entr\u00E9es analogiques/ANALOG1*%
X52521000Y-168091000D02*
X52521000Y-172618400D01*
X52070000Y-167492000D02*
X52070000Y-167640000D01*
X52070000Y-167640000D02*
X52521000Y-168091000D01*
X48920400Y-164342400D02*
X52070000Y-167492000D01*
%TO.N,/logique/Entr\u00E9es analogiques/ANALOG2*%
X57531000Y-169545000D02*
X57521000Y-169555000D01*
X57521000Y-169555000D02*
X57521000Y-172618400D01*
X55524400Y-164545600D02*
X55524400Y-167411400D01*
X57531000Y-169418000D02*
X57531000Y-169545000D01*
X55524400Y-167411400D02*
X57531000Y-169418000D01*
%TO.N,/logique/Entr\u00E9es analogiques/ANALOG3*%
X62521000Y-169963000D02*
X62521000Y-172618400D01*
X61468000Y-164393200D02*
X61468000Y-168910000D01*
X61468000Y-168910000D02*
X62521000Y-169963000D01*
%TO.N,/logique/Entr\u00E9es analogiques/ANALOG4*%
X67868800Y-164596400D02*
X67868800Y-172270600D01*
X67868800Y-172270600D02*
X67521000Y-172618400D01*
%TO.N,/logique/Extensions/Simple extension/EI*%
X67437000Y-127000000D02*
X67661511Y-126775489D01*
X47625000Y-127508000D02*
X56748000Y-127508000D01*
X67310000Y-127000000D02*
X67437000Y-127000000D01*
X264922000Y-64770000D02*
X265811000Y-63881000D01*
X124587000Y-123571000D02*
X128143000Y-120015000D01*
X45593000Y-129540000D02*
X47625000Y-127508000D01*
X93188511Y-126775489D02*
X93218000Y-126746000D01*
X93218000Y-126746000D02*
X98425000Y-126746000D01*
X59084800Y-129844800D02*
X64465200Y-129844800D01*
X106172000Y-127254000D02*
X123444000Y-127254000D01*
X135509000Y-64770000D02*
X264922000Y-64770000D01*
X124587000Y-126111000D02*
X124587000Y-123571000D01*
X43335600Y-129540000D02*
X45593000Y-129540000D01*
X67661511Y-126775489D02*
X93188511Y-126775489D01*
X123444000Y-127254000D02*
X124587000Y-126111000D01*
X128143000Y-120015000D02*
X128143000Y-117729000D01*
X56748000Y-127508000D02*
X59084800Y-129844800D01*
X64465200Y-129844800D02*
X67310000Y-127000000D01*
%TO.N,/logique/Extensions/Simple extension1/EI*%
X37160200Y-134569200D02*
X42926000Y-140335000D01*
X50927000Y-140335000D02*
X51054000Y-140335000D01*
X42926000Y-140335000D02*
X50927000Y-140335000D01*
X32364000Y-134569200D02*
X37160200Y-134569200D01*
%TO.N,/logique/Extensions/Simple extension2/EI*%
X67437000Y-138866200D02*
X67437000Y-140335000D01*
X69545200Y-136758000D02*
X67437000Y-138866200D01*
%TO.N,/logique/Extensions/Simple extension3/EI*%
X84988400Y-133451600D02*
X84988400Y-136351600D01*
X86106000Y-132334000D02*
X84988400Y-133451600D01*
X84988400Y-147040400D02*
X84966000Y-147062800D01*
X84988400Y-136351600D02*
X84988400Y-147040400D01*
%TO.N,/logique/Extensions/Simple extension6/EI*%
X99822000Y-136605600D02*
X99822000Y-147062800D01*
%TO.N,/logique/Extensions/Simple extension7/EI*%
X114025000Y-137033000D02*
X114655600Y-136402400D01*
X112522000Y-137033000D02*
X114025000Y-137033000D01*
%TO.N,/logique/Extensions/Simple extension5/EI*%
X129082800Y-138379200D02*
X126731000Y-140731000D01*
X129082800Y-136554800D02*
X129082800Y-138379200D01*
%TO.N,/logique/Extensions/Simple extension4/EI*%
X143560800Y-146507000D02*
X143005000Y-147062800D01*
X143560800Y-136859600D02*
X143560800Y-146507000D01*
%TO.N,/logique/Entr\u00E9es analogiques - Extension/Extention analogique simple/A_IN_EXT*%
X253259600Y-77317600D02*
X253238000Y-77296000D01*
X266543200Y-77317600D02*
X253259600Y-77317600D01*
%TO.N,/logique/Entr\u00E9es analogiques - Extension/Extention analogique simple1/A_IN_EXT*%
X264464800Y-89230200D02*
X264464800Y-89514000D01*
X264464800Y-89514000D02*
X266594000Y-91643200D01*
%TO.N,/logique/Entr\u00E9es analogiques - Extension/Extention analogique simple2/A_IN_EXT*%
X266250000Y-104500000D02*
X266000000Y-104250000D01*
X266543200Y-107035600D02*
X266543200Y-104793200D01*
X266543200Y-104793200D02*
X266250000Y-104500000D01*
%TO.N,/logique/Entr\u00E9es analogiques - Extension/Extention analogique simple3/A_IN_EXT*%
X260373200Y-122123200D02*
X266238400Y-122123200D01*
X260250000Y-122000000D02*
X260373200Y-122123200D01*
%TO.N,/logique/Entr\u00E9es analogiques - Extension/Extention analogique simple5/A_IN_EXT*%
X265984400Y-137160000D02*
X266441600Y-137617200D01*
X266065000Y-134112000D02*
X266441600Y-134488600D01*
X254000000Y-137160000D02*
X265984400Y-137160000D01*
X266441600Y-134488600D02*
X266441600Y-137617200D01*
%TO.N,/logique/Entr\u00E9es analogiques - Extension/Extention analogique simple6/A_IN_EXT*%
X266441600Y-154436400D02*
X265430000Y-155448000D01*
X266441600Y-152552400D02*
X266441600Y-154436400D01*
%TO.N,/logique/Entr\u00E9es analogiques - Extension/Extention analogique simple4/A_IN_EXT*%
X224250000Y-136500000D02*
X225063200Y-135686800D01*
X225063200Y-135686800D02*
X228803200Y-135686800D01*
X228803200Y-146881200D02*
X228672400Y-147012000D01*
X228803200Y-135686800D02*
X228803200Y-146881200D01*
%TO.N,/logique/Entr\u00E9es analogiques - Extension/Extention analogique simple7/A_IN_EXT*%
X211284400Y-135534400D02*
X215747600Y-135534400D01*
X215747600Y-146939600D02*
X215870800Y-147062800D01*
X211250000Y-135500000D02*
X211284400Y-135534400D01*
X215747600Y-135534400D02*
X215747600Y-146939600D01*
%TO.N,/logique/Entr\u00E9es analogiques/ANALOG5*%
X23672800Y-171253000D02*
X25038200Y-172618400D01*
X23672800Y-164037600D02*
X23672800Y-171253000D01*
%TO.N,/logique/Entr\u00E9es analogiques/ANALOG6*%
X30073600Y-172583000D02*
X30038200Y-172618400D01*
X30073600Y-164037600D02*
X30073600Y-172583000D01*
%TO.N,/logique/Entr\u00E9es analogiques/ANALOG7*%
X35038200Y-165473800D02*
X36322000Y-164190000D01*
X35038200Y-172618400D02*
X35038200Y-165473800D01*
%TO.N,/logique/Entr\u00E9es analogiques/ANALOG8*%
X40005000Y-167161800D02*
X40005000Y-167894000D01*
X40038200Y-167927200D02*
X40038200Y-172618400D01*
X40005000Y-167894000D02*
X40038200Y-167927200D01*
X42824400Y-164342400D02*
X40005000Y-167161800D01*
%TO.N,/logique/Entr\u00E9es digitales/IN10*%
X25344800Y-116078000D02*
X25852800Y-116586000D01*
X25273000Y-113792000D02*
X25852800Y-114371800D01*
X25852800Y-114371800D02*
X25852800Y-116586000D01*
X15903600Y-116078000D02*
X25344800Y-116078000D01*
%TO.N,/logique/Entr\u00E9es digitales/IN9*%
X15954400Y-142595600D02*
X20294600Y-142595600D01*
X20294600Y-142595600D02*
X21920200Y-144221200D01*
X21920200Y-144221200D02*
X26767200Y-144221200D01*
%TO.N,Net-(D56-Pad1)*%
X239984000Y-42237000D02*
X239984000Y-48073400D01*
D38*
X236867000Y-54787500D02*
X236474000Y-55180500D01*
X236867000Y-51190400D02*
X236867000Y-54787500D01*
D39*
X239984000Y-48073400D02*
X236867000Y-51190400D01*
%TO.N,Net-(D57-Pad1)*%
X264164800Y-41602000D02*
X264164800Y-45207200D01*
D38*
X259945400Y-55745600D02*
X259908000Y-55783000D01*
X259945400Y-51109400D02*
X259945400Y-55745600D01*
D39*
X259945400Y-49426600D02*
X259945400Y-51109400D01*
X264164800Y-45207200D02*
X259945400Y-49426600D01*
%TO.N,20(SDA)*%
X176784000Y-115189000D02*
X177419000Y-114554000D01*
X177419000Y-114554000D02*
X192152436Y-114554000D01*
X192152436Y-114554000D02*
X192787436Y-115189000D01*
X114818000Y-70866000D02*
X114818000Y-74940000D01*
X192787436Y-115189000D02*
X275082000Y-115189000D01*
X143002000Y-115189000D02*
X176784000Y-115189000D01*
X114818000Y-74940000D02*
X117612489Y-77734489D01*
X117612489Y-77734489D02*
X139710489Y-77734489D01*
X139710489Y-77734489D02*
X139827000Y-77851000D01*
%TO.N,21(SCL)*%
X245999000Y-117475000D02*
X277114000Y-117475000D01*
X245872000Y-117348000D02*
X245999000Y-117475000D01*
X115697000Y-78486000D02*
X138430000Y-78486000D01*
X208661000Y-111887000D02*
X210393711Y-113619711D01*
X138430000Y-78486000D02*
X138557000Y-78359000D01*
X224784193Y-113411000D02*
X244602000Y-113411000D01*
X140335000Y-111887000D02*
X208661000Y-111887000D01*
X224575482Y-113619711D02*
X224784193Y-113411000D01*
X210393711Y-113619711D02*
X224575482Y-113619711D01*
%TO.N,SDA*%
X183647807Y-160655000D02*
X184917807Y-161925000D01*
X178816000Y-160655000D02*
X183647807Y-160655000D01*
X184917807Y-161925000D02*
X267335000Y-161925000D01*
X178689000Y-160528000D02*
X178816000Y-160655000D01*
%TO.N,SCL*%
X180721000Y-154940000D02*
X180721000Y-155067000D01*
X184785000Y-159131000D02*
X272161000Y-159131000D01*
X180721000Y-155067000D02*
X184785000Y-159131000D01*
%TO.N,17(Rx2)*%
X239019807Y-86614000D02*
X249809000Y-86614000D01*
X122555000Y-80010000D02*
X122682000Y-80137000D01*
X279019000Y-93599000D02*
X280035000Y-94615000D01*
X152654000Y-80137000D02*
X153162000Y-79629000D01*
X223443080Y-85833560D02*
X224536000Y-86926480D01*
X224536000Y-86926480D02*
X238707327Y-86926480D01*
X249428000Y-93599000D02*
X279019000Y-93599000D01*
X176403000Y-79629000D02*
X176657000Y-79883000D01*
X176911000Y-80137000D02*
X185928000Y-80137000D01*
X205181200Y-82931000D02*
X205932711Y-83682511D01*
X153162000Y-79629000D02*
X176403000Y-79629000D01*
X223443080Y-84552987D02*
X223443080Y-85833560D01*
X186563000Y-82931000D02*
X205181200Y-82931000D01*
X238707327Y-86926480D02*
X239019807Y-86614000D01*
X122682000Y-80137000D02*
X152654000Y-80137000D01*
X185928000Y-80137000D02*
X186442420Y-80137000D01*
X222572604Y-83682511D02*
X223443080Y-84552987D01*
X176657000Y-79883000D02*
X176911000Y-80137000D01*
X186442420Y-80137000D02*
X186563000Y-80016420D01*
X205932711Y-83682511D02*
X222572604Y-83682511D01*
%TO.N,16(Tx2)*%
X272669000Y-98552000D02*
X195072000Y-98552000D01*
X195072000Y-98552000D02*
X192532000Y-96012000D01*
X283257600Y-102158000D02*
X276275000Y-102158000D01*
X130429000Y-96012000D02*
X130556000Y-96012000D01*
X276275000Y-102158000D02*
X272669000Y-98552000D01*
X192532000Y-96012000D02*
X130556000Y-96012000D01*
%TO.N,19(Rx1)*%
X117475000Y-74930000D02*
X119507000Y-76962000D01*
X141853193Y-78740000D02*
X176154807Y-78740000D01*
X140075193Y-76962000D02*
X141853193Y-78740000D01*
X176806727Y-79391920D02*
X259909720Y-79391920D01*
X176154807Y-78740000D02*
X176806727Y-79391920D01*
X119507000Y-76962000D02*
X140075193Y-76962000D01*
X264460200Y-83942400D02*
X283156000Y-83942400D01*
X259909720Y-79391920D02*
X264460200Y-83942400D01*
%TO.N,18(Tx1)*%
X283156000Y-78942400D02*
X246449593Y-78942400D01*
X120904000Y-68326000D02*
X119898000Y-69332000D01*
X119898000Y-69332000D02*
X119898000Y-70866000D01*
X132461000Y-72009000D02*
X132461000Y-69215000D01*
X240608682Y-73101489D02*
X133553489Y-73101489D01*
X133553489Y-73101489D02*
X132461000Y-72009000D01*
X246449593Y-78942400D02*
X240608682Y-73101489D01*
X132461000Y-69215000D02*
X131572000Y-68326000D01*
X131572000Y-68326000D02*
X120904000Y-68326000D01*
%TO.N,0(Rx0)*%
X255709480Y-65219520D02*
X270568480Y-65219520D01*
X213100193Y-65913000D02*
X255016000Y-65913000D01*
X212602682Y-66410511D02*
X213100193Y-65913000D01*
X135509000Y-65796500D02*
X135773500Y-65532000D01*
X135773500Y-65532000D02*
X211206807Y-65532000D01*
X212085318Y-66410511D02*
X212602682Y-66410511D01*
X275463000Y-60325000D02*
X279146000Y-60325000D01*
X211206807Y-65532000D02*
X212085318Y-66410511D01*
X270568480Y-65219520D02*
X275463000Y-60325000D01*
X255016000Y-65913000D02*
X255709480Y-65219520D01*
%TO.N,1(Tx0)*%
X280745400Y-30174400D02*
X283105200Y-30174400D01*
X279781000Y-31115000D02*
X280670000Y-30226000D01*
X280797000Y-64868978D02*
X280797000Y-62230000D01*
X224261318Y-67105489D02*
X278560489Y-67105489D01*
X223675807Y-67691000D02*
X224261318Y-67105489D01*
X140970000Y-66929000D02*
X141732000Y-67691000D01*
X279781000Y-38216500D02*
X279781000Y-31115000D01*
X142483511Y-66939489D02*
X169549682Y-66939489D01*
X141732000Y-67691000D02*
X142483511Y-66939489D01*
X278560489Y-67105489D02*
X280797000Y-64868978D01*
X170301193Y-67691000D02*
X223675807Y-67691000D01*
X279770500Y-38227000D02*
X279781000Y-38216500D01*
X280670000Y-30226000D02*
X280797000Y-30226000D01*
X169549682Y-66939489D02*
X170301193Y-67691000D01*
%TO.N,15(Rx3)*%
X213487000Y-66675000D02*
X212979000Y-67183000D01*
X171021020Y-66246020D02*
X169116020Y-66246020D01*
X149098000Y-75057000D02*
X128524000Y-75057000D01*
X128524000Y-75057000D02*
X127518000Y-74051000D01*
X270579238Y-65844480D02*
X269875000Y-65844480D01*
X212979000Y-67183000D02*
X171958000Y-67183000D01*
X280763800Y-61595000D02*
X279273000Y-61595000D01*
X257291960Y-65669040D02*
X256794000Y-66167000D01*
X260096000Y-65669040D02*
X257291960Y-65669040D01*
X171958000Y-67183000D02*
X171021020Y-66246020D01*
X269699560Y-65669040D02*
X260096000Y-65669040D01*
X256794000Y-66167000D02*
X256481520Y-66479480D01*
X269875000Y-65844480D02*
X269699560Y-65669040D01*
X274828718Y-61595000D02*
X270579238Y-65844480D01*
X213682520Y-66479480D02*
X213487000Y-66675000D01*
X256481520Y-66479480D02*
X214190520Y-66479480D01*
X283206800Y-59152000D02*
X280763800Y-61595000D01*
X214190520Y-66479480D02*
X213682520Y-66479480D01*
X127518000Y-74051000D02*
X127518000Y-70866000D01*
X169116020Y-66246020D02*
X149225000Y-66246020D01*
X279273000Y-61595000D02*
X274828718Y-61595000D01*
X149225000Y-66246020D02*
X149098000Y-66246020D01*
%TO.N,14(Tx3)*%
X145288000Y-63627000D02*
X247904000Y-63627000D01*
X273558000Y-61214000D02*
X263398000Y-61214000D01*
X283206800Y-54152000D02*
X280620000Y-54152000D01*
X280620000Y-54152000D02*
X273558000Y-61214000D01*
X145161000Y-63500000D02*
X145288000Y-63627000D01*
%TO.N,52(SCK)*%
X139710489Y-112151489D02*
X136774318Y-112151489D01*
X243840000Y-153924000D02*
X243967000Y-153797000D01*
X105518403Y-112334403D02*
X104700000Y-111516000D01*
X155956000Y-125476000D02*
X199390000Y-125476000D01*
X199390000Y-125476000D02*
X203327000Y-129413000D01*
X154051000Y-113284000D02*
X140843000Y-113284000D01*
X140843000Y-113284000D02*
X139710489Y-112151489D01*
X136774318Y-112151489D02*
X136591404Y-112334403D01*
X203454000Y-153924000D02*
X243840000Y-153924000D01*
X136591404Y-112334403D02*
X105518403Y-112334403D01*
%TO.N,51(MOSI)*%
X125036980Y-114437489D02*
X124587000Y-114887469D01*
X239014000Y-156591000D02*
X238901900Y-156703100D01*
X162580989Y-114437489D02*
X125036980Y-114437489D01*
X123825000Y-109474000D02*
X123698000Y-109601000D01*
X103164111Y-110164111D02*
X102160000Y-109160000D01*
X238901900Y-156703100D02*
X238760000Y-156703100D01*
X123698000Y-109601000D02*
X106400600Y-109601000D01*
X171069000Y-139319000D02*
X207391000Y-139319000D01*
X207391000Y-139319000D02*
X208153000Y-138557000D01*
X105786689Y-110164111D02*
X103164111Y-110164111D01*
X162687000Y-114543500D02*
X162580989Y-114437489D01*
X106400600Y-109601000D02*
X106375200Y-109575600D01*
X209550000Y-156337000D02*
X238760000Y-156337000D01*
X238760000Y-156337000D02*
X239014000Y-156591000D01*
X102160000Y-109160000D02*
X102160000Y-108976000D01*
X106375200Y-109575600D02*
X105786689Y-110164111D01*
%TO.N,50(MISO)*%
X217062289Y-107842289D02*
X215079969Y-105859969D01*
X106162000Y-108976000D02*
X106553000Y-108585000D01*
X225806000Y-108791907D02*
X224856382Y-107842289D01*
X224856382Y-107842289D02*
X217062289Y-107842289D01*
X125349000Y-107061000D02*
X109728000Y-107061000D01*
X108204000Y-108585000D02*
X106553000Y-108585000D01*
X104700000Y-108976000D02*
X106162000Y-108976000D01*
X109728000Y-107061000D02*
X108204000Y-108585000D01*
X225806000Y-109093000D02*
X225806000Y-108791907D01*
X126550031Y-105859969D02*
X125349000Y-107061000D01*
X228727000Y-112014000D02*
X225806000Y-109093000D01*
X215079969Y-105859969D02*
X126550031Y-105859969D01*
%TO.N,53(SS)*%
X140589000Y-110236000D02*
X154305000Y-110236000D01*
X139573000Y-111252000D02*
X140589000Y-110236000D01*
X114295807Y-111516000D02*
X114930318Y-110881489D01*
X154305000Y-110236000D02*
X155067000Y-110998000D01*
X111000000Y-113500000D02*
X110367889Y-112867889D01*
X163449000Y-137414000D02*
X205867000Y-137414000D01*
X129794000Y-111252000D02*
X139573000Y-111252000D01*
X248920000Y-155575000D02*
X249047000Y-155702000D01*
X206121000Y-155575000D02*
X248920000Y-155575000D01*
X114930318Y-110881489D02*
X129423489Y-110881489D01*
X129423489Y-110881489D02*
X129794000Y-111252000D01*
X111000000Y-111516000D02*
X114295807Y-111516000D01*
X205867000Y-137414000D02*
X206248000Y-137033000D01*
X103511889Y-112867889D02*
X102160000Y-111516000D01*
X110367889Y-112867889D02*
X103511889Y-112867889D01*
%TO.N,AREF*%
X192913000Y-116586000D02*
X193040000Y-116713000D01*
X36703000Y-125984000D02*
X104775000Y-125984000D01*
X31369000Y-131318000D02*
X36703000Y-125984000D01*
X176530000Y-74930000D02*
X174625000Y-74930000D01*
X104648000Y-116586000D02*
X192913000Y-116586000D01*
X178308000Y-76708000D02*
X176530000Y-74930000D01*
X193040000Y-116713000D02*
X192659000Y-116713000D01*
X192532000Y-76708000D02*
X178308000Y-76708000D01*
%TO.N,/logique/Collecteurs ouverts/OC5-PWM*%
X192902500Y-93345000D02*
X190246000Y-93345000D01*
X200025000Y-97282000D02*
X196839500Y-97282000D01*
X81407000Y-167767000D02*
X81407000Y-169418000D01*
X199390000Y-141478000D02*
X157353000Y-141478000D01*
X147574000Y-162560000D02*
X147447000Y-162687000D01*
X81788000Y-167386000D02*
X81407000Y-167767000D01*
X147447000Y-162687000D02*
X112014718Y-162687000D01*
X196839500Y-97282000D02*
X192902500Y-93345000D01*
X157353000Y-141478000D02*
X157226000Y-141605000D01*
X107315718Y-167386000D02*
X81788000Y-167386000D01*
X112014718Y-162687000D02*
X107315718Y-167386000D01*
X216027000Y-97282000D02*
X200025000Y-97282000D01*
%TO.N,/logique/Collecteurs ouverts/OC6-PWM*%
X190119000Y-101346000D02*
X192912282Y-101346000D01*
X147320000Y-159893000D02*
X112395000Y-159893000D01*
X112395000Y-159893000D02*
X107950000Y-164338000D01*
X192912282Y-101346000D02*
X196272762Y-104706480D01*
X181483000Y-135255000D02*
X155321000Y-135255000D01*
X187198000Y-101727000D02*
X189224193Y-101727000D01*
X88265000Y-164338000D02*
X86487000Y-166116000D01*
X107950000Y-164338000D02*
X88265000Y-164338000D01*
X189605193Y-101346000D02*
X190119000Y-101346000D01*
X196272762Y-104706480D02*
X216154000Y-104706480D01*
X189224193Y-101727000D02*
X189605193Y-101346000D01*
X186588400Y-101117400D02*
X187198000Y-101727000D01*
X155321000Y-135255000D02*
X154940000Y-135636000D01*
%TO.N,/logique/Collecteurs ouverts/OC7-PWM*%
X112014000Y-164338000D02*
X107950000Y-168402000D01*
X180975000Y-132588000D02*
X159512000Y-132588000D01*
X147320000Y-164338000D02*
X112014000Y-164338000D01*
X194516009Y-110188009D02*
X195326000Y-110998000D01*
X180006991Y-110188009D02*
X194516009Y-110188009D01*
X159512000Y-132588000D02*
X159131000Y-132969000D01*
X107950000Y-168402000D02*
X91186000Y-168402000D01*
X234061000Y-73914000D02*
X204983807Y-73914000D01*
X201623327Y-77274480D02*
X196342000Y-77274480D01*
X204983807Y-73914000D02*
X201623327Y-77274480D01*
X175974009Y-110188009D02*
X180006991Y-110188009D01*
X175514000Y-110109000D02*
X175895000Y-110109000D01*
X175895000Y-110109000D02*
X175974009Y-110188009D01*
X196342000Y-77274480D02*
X196342000Y-77099500D01*
%TO.N,/logique/Collecteurs ouverts/OC8-PWM*%
X164973000Y-145034000D02*
X164973000Y-151765000D01*
X234015000Y-75392000D02*
X234015000Y-78130400D01*
X176911000Y-123063000D02*
X176657000Y-123317000D01*
X184404000Y-83058000D02*
X185674000Y-84328000D01*
X204967511Y-74813489D02*
X233436489Y-74813489D01*
X189738000Y-84328000D02*
X190119000Y-83947000D01*
X111653989Y-169651011D02*
X96372011Y-169651011D01*
X165989000Y-144018000D02*
X164973000Y-145034000D01*
X113665000Y-167640000D02*
X111653989Y-169651011D01*
X147447000Y-167640000D02*
X113665000Y-167640000D01*
X190119000Y-83947000D02*
X203708000Y-83947000D01*
X185674000Y-84328000D02*
X189738000Y-84328000D01*
X164465000Y-83058000D02*
X184404000Y-83058000D01*
X207010000Y-123063000D02*
X176911000Y-123063000D01*
X164973000Y-151765000D02*
X164846000Y-151892000D01*
X96372011Y-169651011D02*
X96266000Y-169545000D01*
X233436489Y-74813489D02*
X234015000Y-75392000D01*
X204343000Y-75438000D02*
X204967511Y-74813489D01*
X176657000Y-144018000D02*
X165989000Y-144018000D01*
%TO.N,/logique/Collecteurs ouverts/OC9-PWM*%
X112019020Y-162237480D02*
X111828520Y-162237480D01*
X108331000Y-165735000D02*
X101981000Y-165735000D01*
X111828520Y-162237480D02*
X108331000Y-165735000D01*
X186309000Y-108712000D02*
X186182000Y-108585000D01*
X164592000Y-95250000D02*
X179318193Y-95250000D01*
X179318193Y-95250000D02*
X179572193Y-94996000D01*
X156464000Y-133985000D02*
X156083000Y-134366000D01*
X181483000Y-133985000D02*
X156464000Y-133985000D01*
X147447000Y-161417000D02*
X112839500Y-161417000D01*
X112839500Y-161417000D02*
X112019020Y-162237480D01*
X195008500Y-96710500D02*
X196204511Y-97906511D01*
X196204511Y-97906511D02*
X239278489Y-97906511D01*
X179572193Y-94996000D02*
X193294000Y-94996000D01*
X195072000Y-108712000D02*
X186309000Y-108712000D01*
X239278489Y-97906511D02*
X239395000Y-97790000D01*
X193294000Y-94996000D02*
X195008500Y-96710500D01*
%TO.N,/logique/Collecteurs ouverts/OC10-PWM*%
X234015000Y-94788000D02*
X234015000Y-93268800D01*
X202592889Y-106326889D02*
X203073000Y-106807000D01*
X110363000Y-168910000D02*
X106426000Y-168910000D01*
X161036000Y-142748000D02*
X160909000Y-142748000D01*
X167005000Y-107061000D02*
X167739111Y-106326889D01*
X167739111Y-106326889D02*
X202592889Y-106326889D01*
X172847000Y-142875000D02*
X161163000Y-142875000D01*
X106426000Y-168910000D02*
X106426000Y-169026500D01*
X147320000Y-165862000D02*
X113411000Y-165862000D01*
X233426000Y-95377000D02*
X234015000Y-94788000D01*
X161163000Y-142875000D02*
X161036000Y-142748000D01*
X203073000Y-95377000D02*
X233426000Y-95377000D01*
X113411000Y-165862000D02*
X110363000Y-168910000D01*
%TO.N,/logique/Collecteurs ouverts/OC11-PWM*%
X111696500Y-158686500D02*
X111506000Y-158877000D01*
X154940000Y-81661000D02*
X221488000Y-81661000D01*
X139689511Y-89905511D02*
X154569489Y-89905511D01*
X154569489Y-89905511D02*
X154940000Y-89535000D01*
X148336000Y-123571000D02*
X149225000Y-124460000D01*
X139573000Y-89789000D02*
X139689511Y-89905511D01*
X147510500Y-158686500D02*
X111696500Y-158686500D01*
X149098000Y-141478000D02*
X154178000Y-141478000D01*
X142240000Y-123571000D02*
X148336000Y-123571000D01*
X221488000Y-81661000D02*
X221615000Y-81534000D01*
X154305000Y-141351000D02*
X154178000Y-141478000D01*
X221742000Y-97282000D02*
X234061000Y-97282000D01*
%TO.N,/logique/Collecteurs ouverts/OC12-PWM*%
X216408718Y-106553000D02*
X231297200Y-106553000D01*
X231297200Y-106553000D02*
X234015000Y-109270800D01*
X146304000Y-150876000D02*
X143256000Y-153924000D01*
X171958000Y-112903000D02*
X183388000Y-112903000D01*
X171958000Y-102235000D02*
X192913000Y-102235000D01*
X196088449Y-105410449D02*
X215266167Y-105410449D01*
X183388000Y-112903000D02*
X183515000Y-113030000D01*
X215266167Y-105410449D02*
X216408718Y-106553000D01*
X192913000Y-102235000D02*
X196088449Y-105410449D01*
X154432000Y-93980000D02*
X171704000Y-93980000D01*
X158496000Y-150876000D02*
X146304000Y-150876000D01*
X183642000Y-129159000D02*
X158369000Y-129159000D01*
%TO.N,/logique/Collecteurs ouverts/OC2*%
X181737000Y-162052000D02*
X181864000Y-161925000D01*
X154432000Y-162052000D02*
X181737000Y-162052000D01*
%TO.N,/logique/Collecteurs ouverts/OC3*%
X164719000Y-154559000D02*
X164846000Y-154432000D01*
X178181000Y-77724000D02*
X182372000Y-77724000D01*
X210439000Y-82930989D02*
X215391989Y-82930989D01*
X210312000Y-77724000D02*
X210439000Y-77851000D01*
X182372000Y-77724000D02*
X210312000Y-77724000D01*
X210439000Y-77851000D02*
X210439000Y-78348500D01*
X177101500Y-76644500D02*
X178181000Y-77724000D01*
X164846000Y-154432000D02*
X179451000Y-154432000D01*
X215391989Y-82930989D02*
X215392000Y-82931000D01*
%TO.N,/logique/Collecteurs ouverts/OC4*%
X167513000Y-153543000D02*
X168148000Y-152908000D01*
X202879496Y-90097689D02*
X215319689Y-90097689D01*
X215950800Y-90728800D02*
X215950800Y-92913200D01*
X202570807Y-89789000D02*
X202879496Y-90097689D01*
X196977000Y-89789000D02*
X202570807Y-89789000D01*
X188722000Y-152908000D02*
X191389000Y-155575000D01*
X174879000Y-90043000D02*
X175133000Y-89789000D01*
X215319689Y-90097689D02*
X215950800Y-90728800D01*
X175133000Y-89789000D02*
X196977000Y-89789000D01*
X173355000Y-90043000D02*
X174879000Y-90043000D01*
X191389000Y-155575000D02*
X198501000Y-155575000D01*
X168148000Y-152908000D02*
X188722000Y-152908000D01*
%TO.N,/logique/Extensions/Simple extension2/COL_EXT*%
X77041400Y-147113600D02*
X74342000Y-147113600D01*
X78740000Y-139319000D02*
X78740000Y-145415000D01*
X78740000Y-145415000D02*
X77041400Y-147113600D01*
%TO.N,/logique/Extensions/Simple extension/COL_EXT*%
X271653000Y-66294000D02*
X271907000Y-66040000D01*
X274447000Y-58293000D02*
X274447000Y-56385700D01*
X192102007Y-115139289D02*
X178236518Y-115139289D01*
X259334000Y-66294000D02*
X271653000Y-66294000D01*
X49911000Y-119888000D02*
X50247511Y-120224511D01*
X178236518Y-115139289D02*
X177414318Y-115961489D01*
X177414318Y-115961489D02*
X102097511Y-115961489D01*
X50247511Y-120224511D02*
X102025489Y-120224511D01*
X247015000Y-116332000D02*
X193294718Y-116332000D01*
X102097511Y-115961489D02*
X101854000Y-116205000D01*
X274447000Y-56385700D02*
X274116800Y-56055500D01*
X193294718Y-116332000D02*
X192102007Y-115139289D01*
X102025489Y-120224511D02*
X102108000Y-120142000D01*
%TO.N,/logique/Entr\u00E9es analogiques - Extension/Extention analogique simple/COL_AIN_EXT*%
X174117000Y-85598000D02*
X189865000Y-85598000D01*
X147193000Y-85725000D02*
X148919911Y-83998089D01*
X251333000Y-89281000D02*
X251460000Y-89408000D01*
X202946000Y-89281000D02*
X251333000Y-89281000D01*
X114554000Y-85725000D02*
X147193000Y-85725000D01*
X148919911Y-83998089D02*
X172517089Y-83998089D01*
X190754000Y-84709000D02*
X202946000Y-84709000D01*
X189865000Y-85598000D02*
X190754000Y-84709000D01*
X172517089Y-83998089D02*
X174117000Y-85598000D01*
%TO.N,/logique/Entr\u00E9es analogiques - Extension/Extention analogique simple1/COL_AIN_EXT*%
X181534889Y-92150111D02*
X117653889Y-92150111D01*
X192659000Y-91948000D02*
X196977000Y-96266000D01*
X181737000Y-91948000D02*
X192659000Y-91948000D01*
X196977000Y-96266000D02*
X253565000Y-96266000D01*
X117653889Y-92150111D02*
X116713000Y-93091000D01*
X181737000Y-91948000D02*
X181534889Y-92150111D01*
%TO.N,/logique/Entr\u00E9es analogiques - Extension/Extention analogique simple2/COL_AIN_EXT*%
X155448000Y-102743000D02*
X155448000Y-102616000D01*
X226831323Y-105029000D02*
X225815323Y-104013000D01*
X225815323Y-104013000D02*
X204343000Y-104013000D01*
X116332000Y-96139000D02*
X116205000Y-96012000D01*
X196215000Y-104013000D02*
X192786000Y-100584000D01*
X170307000Y-102743000D02*
X155448000Y-102743000D01*
X192634689Y-100432689D02*
X172617311Y-100432689D01*
X170688000Y-102362000D02*
X170307000Y-102743000D01*
X155321000Y-95377000D02*
X117094000Y-95377000D01*
X117094000Y-95377000D02*
X116332000Y-96139000D01*
X192786000Y-100584000D02*
X192634689Y-100432689D01*
X172617311Y-100432689D02*
X170688000Y-102362000D01*
X204343000Y-104013000D02*
X196215000Y-104013000D01*
X254000000Y-111760000D02*
X251206000Y-111760000D01*
X251206000Y-111760000D02*
X244475000Y-105029000D01*
X244475000Y-105029000D02*
X226831323Y-105029000D01*
%TO.N,/logique/Entr\u00E9es analogiques - Extension/Extention analogique simple3/COL_AIN_EXT*%
X249682000Y-127000000D02*
X242824000Y-120142000D01*
X125706631Y-99718369D02*
X118618000Y-99718369D01*
X242824000Y-120142000D02*
X196469000Y-120142000D01*
X194471169Y-99983169D02*
X171288831Y-99983169D01*
X118618000Y-99718369D02*
X118618000Y-99543389D01*
X171288831Y-99983169D02*
X171196000Y-100076000D01*
X170804500Y-96774000D02*
X128651000Y-96774000D01*
X170942000Y-96636500D02*
X170804500Y-96774000D01*
X116014500Y-103822500D02*
X115951000Y-103759000D01*
X128651000Y-96774000D02*
X125706631Y-99718369D01*
X254000000Y-127000000D02*
X249682000Y-127000000D01*
X196342000Y-101854000D02*
X194471169Y-99983169D01*
X117665500Y-103822500D02*
X116014500Y-103822500D01*
%TO.N,/logique/Entr\u00E9es analogiques - Extension/Extention analogique simple5/COL_AIN_EXT*%
X129656511Y-82306489D02*
X129057400Y-82905600D01*
X277495000Y-85217000D02*
X247523000Y-85217000D01*
X244612489Y-82306489D02*
X129656511Y-82306489D01*
X277495000Y-111125000D02*
X262255000Y-111125000D01*
X247523000Y-85217000D02*
X244612489Y-82306489D01*
%TO.N,/logique/Entr\u00E9es analogiques - Extension/Extention analogique simple6/COL_AIN_EXT*%
X194056000Y-157099000D02*
X194183000Y-156972000D01*
X194310000Y-90932000D02*
X194152889Y-91089111D01*
X283257600Y-157327600D02*
X194284600Y-157327600D01*
X194152889Y-91089111D02*
X127665111Y-91089111D01*
X194183000Y-156972000D02*
X194310000Y-156972000D01*
X127665111Y-91089111D02*
X127635000Y-91059000D01*
X194284600Y-157327600D02*
X194056000Y-157099000D01*
%TO.N,/logique/Entr\u00E9es analogiques - Extension/Extention analogique simple4/COL_AIN_EXT*%
X133501611Y-99543389D02*
X134620000Y-98425000D01*
X134620000Y-98425000D02*
X135128000Y-97917000D01*
X213614000Y-140843000D02*
X213614000Y-147032696D01*
X135128000Y-97917000D02*
X193421000Y-97917000D01*
X222047089Y-148637311D02*
X223672400Y-147012000D01*
X215218615Y-148637311D02*
X222047089Y-148637311D01*
X193040000Y-140081000D02*
X212852000Y-140081000D01*
X212852000Y-140081000D02*
X213614000Y-140843000D01*
X193421000Y-97917000D02*
X193548000Y-97917000D01*
X126873000Y-99543389D02*
X133501611Y-99543389D01*
X213614000Y-147032696D02*
X215218615Y-148637311D01*
%TO.N,/logique/Entr\u00E9es analogiques - Extension/Extention analogique simple7/COL_AIN_EXT*%
X211963000Y-111887000D02*
X209423000Y-109347000D01*
X209423000Y-109347000D02*
X126746000Y-109347000D01*
X126746000Y-109347000D02*
X125730000Y-108331000D01*
X211963000Y-112014000D02*
X211963000Y-111887000D01*
%TO.N,Net-(JP1-Pad3)*%
X222469200Y-71120000D02*
X218455000Y-71120000D01*
X222520000Y-71069200D02*
X222469200Y-71120000D01*
%TO.N,Net-(JP2-Pad3)*%
X222215200Y-77825600D02*
X222113600Y-77724000D01*
X222113600Y-77724000D02*
X218287600Y-77724000D01*
%TO.N,Net-(JP3-Pad3)*%
X222164400Y-85293200D02*
X218251800Y-85293200D01*
X222367600Y-85090000D02*
X222164400Y-85293200D01*
%TO.N,Net-(JP4-Pad3)*%
X222062800Y-92913200D02*
X222164400Y-92811600D01*
X218490800Y-92913200D02*
X222062800Y-92913200D01*
%TO.N,Net-(JP5-Pad3)*%
X218592400Y-102006400D02*
X221961200Y-102006400D01*
X221961200Y-102006400D02*
X222215200Y-101752400D01*
%TO.N,Net-(JP6-Pad3)*%
X222215200Y-109016800D02*
X222316800Y-108915200D01*
X218643200Y-109016800D02*
X222215200Y-109016800D01*
%TO.N,Net-(JP7-Pad3)*%
X236540000Y-71500000D02*
X241037600Y-71500000D01*
X241037600Y-71500000D02*
X241214400Y-71323200D01*
%TO.N,Net-(JP8-Pad3)*%
X241265200Y-78130400D02*
X236555000Y-78130400D01*
X241316000Y-78079600D02*
X241265200Y-78130400D01*
%TO.N,Net-(JP9-Pad3)*%
X241366800Y-85598000D02*
X236555000Y-85598000D01*
X241417600Y-85547200D02*
X241366800Y-85598000D01*
%TO.N,Net-(JP10-Pad3)*%
X241163600Y-93268800D02*
X236555000Y-93268800D01*
X241265200Y-93167200D02*
X241163600Y-93268800D01*
%TO.N,Net-(JP11-Pad3)*%
X240960400Y-101600000D02*
X236555000Y-101600000D01*
X241163600Y-101803200D02*
X240960400Y-101600000D01*
%TO.N,Net-(JP12-Pad3)*%
X238520800Y-109270800D02*
X239454000Y-110204000D01*
X236555000Y-109270800D02*
X238520800Y-109270800D01*
X239454000Y-110204000D02*
X241808000Y-110204000D01*
%TO.N,13(\u002A\u002A)*%
X172930680Y-62527320D02*
X238061973Y-62527320D01*
X239178693Y-61595000D02*
X247523000Y-61595000D01*
X264160000Y-59817000D02*
X264174000Y-59831000D01*
X238061973Y-62527320D02*
X238398520Y-62190773D01*
X238398520Y-60814827D02*
X239178693Y-61595000D01*
X267020000Y-59831000D02*
X264174000Y-59831000D01*
X172593000Y-62865000D02*
X172930680Y-62527320D01*
X238398520Y-62190773D02*
X238398520Y-60814827D01*
%TO.N,12(\u002A\u002A)*%
X244253000Y-59150000D02*
X244475000Y-58928000D01*
X223444520Y-71606213D02*
X223444520Y-70381227D01*
X225107973Y-72093720D02*
X223932027Y-72093720D01*
X221770293Y-68707000D02*
X169311000Y-68707000D01*
X169311000Y-68707000D02*
X167152000Y-70866000D01*
X244602000Y-67945000D02*
X229256693Y-67945000D01*
X241046000Y-59150000D02*
X244253000Y-59150000D01*
X223444520Y-70381227D02*
X221770293Y-68707000D01*
X223932027Y-72093720D02*
X223444520Y-71606213D01*
X229256693Y-67945000D02*
X225107973Y-72093720D01*
%TO.N,9(\u002A\u002A)*%
X156083000Y-74422000D02*
X159385000Y-74422000D01*
X159385000Y-74422000D02*
X159512000Y-74295000D01*
%TO.N,11(\u002A\u002A)*%
X164348489Y-78221511D02*
X164465000Y-78105000D01*
X147944511Y-78221511D02*
X164348489Y-78221511D01*
X147828000Y-78105000D02*
X147944511Y-78221511D01*
%TO.N,10(\u002A\u002A)*%
X149098000Y-77597000D02*
X161163000Y-77597000D01*
X161163000Y-77597000D02*
X161925000Y-76835000D01*
%TO.N,7(\u002A\u002A)*%
X153096011Y-73725989D02*
X153035000Y-73787000D01*
X157988000Y-73725989D02*
X153096011Y-73725989D01*
%TO.N,6(\u002A\u002A)*%
X150876000Y-75565000D02*
X165989000Y-75565000D01*
X150495000Y-75184000D02*
X150876000Y-75565000D01*
%TO.N,5(\u002A\u002A)*%
X163703000Y-76200000D02*
X147701000Y-76200000D01*
X178689000Y-103632000D02*
X175006000Y-103632000D01*
X175006000Y-103632000D02*
X174879000Y-103759000D01*
X177540193Y-78359000D02*
X176778193Y-77597000D01*
X176778193Y-77597000D02*
X165100000Y-77597000D01*
X180467000Y-78359000D02*
X177540193Y-78359000D01*
X165100000Y-77597000D02*
X163703000Y-76200000D01*
%TO.N,4(\u002A\u002A)*%
X151130000Y-73914000D02*
X145288000Y-73914000D01*
X160020000Y-75115480D02*
X152331480Y-75115480D01*
X152331480Y-75115480D02*
X151130000Y-73914000D01*
X160840480Y-74295000D02*
X160020000Y-75115480D01*
X181864000Y-74295000D02*
X160840480Y-74295000D01*
X145288000Y-73914000D02*
X145161000Y-74041000D01*
%TO.N,3(\u002A\u002A)*%
X142748000Y-84836000D02*
X142621000Y-84709000D01*
X142621000Y-84963000D02*
X142748000Y-84836000D01*
X80772000Y-124587000D02*
X80645000Y-124714000D01*
X41148000Y-144272000D02*
X62738000Y-144272000D01*
X62738000Y-144272000D02*
X62992000Y-144018000D01*
X107061000Y-84963000D02*
X142621000Y-84963000D01*
X80645000Y-124714000D02*
X68199000Y-124714000D01*
%TO.N,2(\u002A\u002A)*%
X88442800Y-111455200D02*
X35991800Y-111455200D01*
X89154000Y-110744000D02*
X88442800Y-111455200D01*
X140218000Y-67701000D02*
X140218000Y-70866000D01*
X97536000Y-66421000D02*
X138938000Y-66421000D01*
X138938000Y-66421000D02*
X140218000Y-67701000D01*
%TO.N,A0*%
X52211911Y-154954911D02*
X147588911Y-154954911D01*
X51562000Y-154305000D02*
X52211911Y-154954911D01*
X147701000Y-155067000D02*
X147701000Y-154940000D01*
X147588911Y-154954911D02*
X147701000Y-155067000D01*
%TO.N,A1*%
X59817000Y-153797000D02*
X60060511Y-153553489D01*
X137881411Y-141264589D02*
X141437411Y-141264589D01*
X138049000Y-152273000D02*
X137985500Y-152336500D01*
X60060511Y-153553489D02*
X136768511Y-153553489D01*
X136768511Y-153553489D02*
X137985500Y-152336500D01*
X141437411Y-141264589D02*
X141478000Y-141224000D01*
%TO.N,A2*%
X66802000Y-155956000D02*
X147701000Y-155956000D01*
X147701000Y-155956000D02*
X147828000Y-156083000D01*
X152019000Y-124587000D02*
X150368000Y-122936000D01*
X147828000Y-156083000D02*
X147701000Y-156210000D01*
X150368000Y-122936000D02*
X142875000Y-122936000D01*
%TO.N,A3*%
X139954000Y-121793000D02*
X139827000Y-121793000D01*
X139827000Y-121793000D02*
X139700000Y-121666000D01*
X73787000Y-159258000D02*
X70612000Y-159258000D01*
X151638000Y-121793000D02*
X139954000Y-121793000D01*
X70612000Y-159258000D02*
X69503800Y-158149800D01*
X69503800Y-158149800D02*
X69503800Y-157445200D01*
X76073000Y-156972000D02*
X73787000Y-159258000D01*
X147320000Y-156972000D02*
X76073000Y-156972000D01*
X153416000Y-123571000D02*
X151638000Y-121793000D01*
X147447000Y-157099000D02*
X147320000Y-156972000D01*
%TO.N,A4*%
X21209000Y-152273000D02*
X23495000Y-149987000D01*
X23495000Y-149987000D02*
X136398000Y-149987000D01*
X136906000Y-129286000D02*
X136906000Y-121666000D01*
X136906000Y-121666000D02*
X137678000Y-120894000D01*
X21209000Y-154178000D02*
X21209000Y-152273000D01*
X137678000Y-120894000D02*
X137678000Y-119126000D01*
X136398000Y-149987000D02*
X136525000Y-149860000D01*
%TO.N,A5*%
X135138000Y-125720000D02*
X135138000Y-119126000D01*
X35433000Y-151003000D02*
X135636000Y-151003000D01*
X32782000Y-153654000D02*
X35433000Y-151003000D01*
X132842000Y-128016000D02*
X135138000Y-125720000D01*
X32623000Y-153654000D02*
X32782000Y-153654000D01*
%TO.N,A6*%
X131953000Y-144399000D02*
X131953000Y-119771000D01*
X38481000Y-153924000D02*
X40513000Y-151892000D01*
X129989520Y-151452520D02*
X130048000Y-151452520D01*
X129989520Y-151452520D02*
X130683000Y-152146000D01*
X44831000Y-151892000D02*
X45270480Y-151452520D01*
X130683000Y-152146000D02*
X130810000Y-152146000D01*
X45270480Y-151452520D02*
X129989520Y-151452520D01*
X131953000Y-119771000D02*
X132598000Y-119126000D01*
X40513000Y-151892000D02*
X44831000Y-151892000D01*
%TO.N,A7*%
X124841000Y-152019000D02*
X125095000Y-152273000D01*
X125222000Y-144526000D02*
X125222000Y-123962000D01*
X125222000Y-123962000D02*
X130058000Y-119126000D01*
X46228000Y-154178000D02*
X48387000Y-152019000D01*
X48387000Y-152019000D02*
X124841000Y-152019000D01*
%TO.N,A8*%
X115199500Y-82006400D02*
X118145600Y-82006400D01*
X132207000Y-93853000D02*
X132334000Y-93980000D01*
X118145600Y-82006400D02*
X118237000Y-81915000D01*
X118237000Y-93853000D02*
X132207000Y-93853000D01*
X179705000Y-87376000D02*
X239141000Y-87376000D01*
X179832000Y-93345000D02*
X132969000Y-93345000D01*
X132969000Y-93345000D02*
X132334000Y-93980000D01*
%TO.N,A9*%
X136652000Y-113157000D02*
X137033000Y-112776000D01*
X268859000Y-86106000D02*
X266964489Y-88000511D01*
X137403511Y-88000511D02*
X137033000Y-87630000D01*
X137033000Y-87630000D02*
X118110000Y-87630000D01*
X266964489Y-88000511D02*
X137403511Y-88000511D01*
X122428000Y-113157000D02*
X136652000Y-113157000D01*
X118110000Y-87630000D02*
X116840000Y-88900000D01*
%TO.N,A10*%
X129852031Y-115511969D02*
X119888000Y-115511969D01*
X269621000Y-99949000D02*
X268869489Y-99197489D01*
X268869489Y-99197489D02*
X136133511Y-99197489D01*
X119888000Y-115511969D02*
X119888000Y-115336989D01*
X136133511Y-99197489D02*
X136017000Y-99314000D01*
X130302000Y-115062000D02*
X129852031Y-115511969D01*
X115443000Y-101219000D02*
X136144000Y-101219000D01*
%TO.N,A11*%
X210207514Y-114069231D02*
X235307769Y-114069231D01*
X210057282Y-113919000D02*
X210207514Y-114069231D01*
X235307769Y-114069231D02*
X235331000Y-114046000D01*
X118999000Y-114173000D02*
X119253000Y-113919000D01*
X119253000Y-113919000D02*
X210057282Y-113919000D01*
%TO.N,A12*%
X272758489Y-129375489D02*
X235293489Y-129375489D01*
X167640000Y-104521000D02*
X128397000Y-104521000D01*
X273050000Y-129667000D02*
X272758489Y-129375489D01*
X232283000Y-126365000D02*
X232156000Y-126365000D01*
X126619000Y-111506000D02*
X126746000Y-111633000D01*
X182245000Y-110871000D02*
X167894000Y-110871000D01*
X226949000Y-117602000D02*
X182245000Y-117602000D01*
X235293489Y-129375489D02*
X232283000Y-126365000D01*
X115189000Y-111506000D02*
X126619000Y-111506000D01*
X167703500Y-104584500D02*
X167640000Y-104521000D01*
%TO.N,A13*%
X150241000Y-120396000D02*
X150241000Y-117602000D01*
X114173000Y-110363000D02*
X129794000Y-110363000D01*
X146304000Y-107696000D02*
X129794000Y-107696000D01*
X157226000Y-124714000D02*
X153670000Y-121158000D01*
X135128000Y-89281000D02*
X127508000Y-89281000D01*
X153670000Y-121158000D02*
X151003000Y-121158000D01*
X151003000Y-121158000D02*
X150241000Y-120396000D01*
X242824000Y-124714000D02*
X157226000Y-124714000D01*
%TO.N,A14*%
X112395000Y-108966000D02*
X116967000Y-108966000D01*
X220853000Y-121793000D02*
X174371000Y-121793000D01*
X132344489Y-107071489D02*
X150759489Y-107071489D01*
X173609000Y-117221000D02*
X151257000Y-117221000D01*
X151130000Y-117094000D02*
X151130000Y-117210500D01*
X127635000Y-103759000D02*
X127508000Y-103632000D01*
X132207000Y-106934000D02*
X132344489Y-107071489D01*
X116967000Y-108966000D02*
X116967000Y-108701500D01*
X134620000Y-103759000D02*
X127635000Y-103759000D01*
X150759489Y-107071489D02*
X151130000Y-107442000D01*
X151257000Y-117221000D02*
X151130000Y-117094000D01*
%TO.N,A15*%
X153426489Y-106309489D02*
X126736229Y-106309489D01*
X155067000Y-107950000D02*
X153426489Y-106309489D01*
X201295000Y-107950000D02*
X155067000Y-107950000D01*
X125095718Y-107950000D02*
X118872000Y-107950000D01*
X118618000Y-108204000D02*
X118491000Y-108077000D01*
X118872000Y-107950000D02*
X118618000Y-108204000D01*
X118491000Y-108077000D02*
X109982000Y-108077000D01*
X126736229Y-106309489D02*
X125095718Y-107950000D01*
%TO.N,48*%
X99300000Y-109081600D02*
X100593711Y-107787889D01*
X100593711Y-107787889D02*
X103812111Y-107787889D01*
X104700000Y-106900000D02*
X104700000Y-106436000D01*
X123698000Y-121793000D02*
X105156000Y-121793000D01*
X105156000Y-121793000D02*
X99300000Y-115937000D01*
X137922000Y-122301000D02*
X138938000Y-123317000D01*
X103812111Y-107787889D02*
X104700000Y-106900000D01*
X138938000Y-123317000D02*
X138938000Y-126238000D01*
X99300000Y-115937000D02*
X99300000Y-109081600D01*
%TO.N,49*%
X101258250Y-116741750D02*
X104150500Y-119634000D01*
X103886000Y-126619000D02*
X104775000Y-127508000D01*
X104775000Y-127508000D02*
X104775000Y-129159000D01*
X101229489Y-116712989D02*
X101258250Y-116741750D01*
%TO.N,46*%
X108331000Y-124968000D02*
X106553000Y-124968000D01*
X106553000Y-124968000D02*
X106426000Y-124841000D01*
X106172000Y-123063000D02*
X103251000Y-123063000D01*
X106426000Y-124841000D02*
X106426000Y-123317000D01*
X106426000Y-123317000D02*
X106172000Y-123063000D01*
%TO.N,47*%
X108077000Y-106877000D02*
X106400000Y-105200000D01*
X103464000Y-105200000D02*
X102160000Y-103896000D01*
X108077000Y-107569000D02*
X108077000Y-106877000D01*
X106400000Y-105200000D02*
X103464000Y-105200000D01*
%TO.N,44*%
X154183807Y-101219000D02*
X152858696Y-102544111D01*
X152858696Y-102544111D02*
X105888111Y-102544111D01*
X169672000Y-101219000D02*
X154183807Y-101219000D01*
X105888111Y-102544111D02*
X104700000Y-101356000D01*
X170053000Y-100838000D02*
X169672000Y-101219000D01*
%TO.N,42*%
X106100000Y-100200000D02*
X106132111Y-100167889D01*
X168783000Y-99949000D02*
X168529000Y-99949000D01*
X168529000Y-99949000D02*
X168478489Y-99898489D01*
X165283318Y-99898489D02*
X168478489Y-99898489D01*
X106132111Y-100167889D02*
X106051889Y-100167889D01*
X106051889Y-100167889D02*
X104700000Y-98816000D01*
X106132111Y-100167889D02*
X165013918Y-100167889D01*
X165013918Y-100167889D02*
X165283318Y-99898489D01*
%TO.N,43*%
X105547489Y-124830511D02*
X105547489Y-128026489D01*
X105547489Y-117739489D02*
X105537000Y-117729000D01*
X81280000Y-138684000D02*
X81280000Y-133223000D01*
X105547489Y-128026489D02*
X105664000Y-128143000D01*
X105664000Y-124714000D02*
X105547489Y-124830511D01*
%TO.N,40*%
X179080489Y-94604511D02*
X108568489Y-94604511D01*
X106897000Y-96276000D02*
X104700000Y-96276000D01*
X179197000Y-94488000D02*
X179080489Y-94604511D01*
X108568489Y-94604511D02*
X106897000Y-96276000D01*
X192278000Y-75311000D02*
X179070000Y-75311000D01*
%TO.N,41*%
X94488000Y-115570000D02*
X77343000Y-115570000D01*
X77343000Y-115570000D02*
X75819000Y-117094000D01*
X75819000Y-117094000D02*
X63881000Y-117094000D01*
X95123000Y-114935000D02*
X94488000Y-115570000D01*
%TO.N,38*%
X169661511Y-62875489D02*
X170688000Y-61849000D01*
X114046000Y-93599000D02*
X104837000Y-93599000D01*
X192278000Y-61849000D02*
X192659000Y-61468000D01*
X144643228Y-62875489D02*
X169661511Y-62875489D01*
X144145000Y-62346500D02*
X144145000Y-62377261D01*
X115697000Y-86995000D02*
X115697000Y-91948000D01*
X110871000Y-62611000D02*
X110871000Y-62357000D01*
X120523000Y-62611000D02*
X110871000Y-62611000D01*
X137160000Y-62611000D02*
X120523000Y-62611000D01*
X170688000Y-61849000D02*
X192278000Y-61849000D01*
X192659000Y-61468000D02*
X194945000Y-61468000D01*
X104837000Y-93599000D02*
X104700000Y-93736000D01*
X144145000Y-62377261D02*
X144643228Y-62875489D01*
X115697000Y-91948000D02*
X114046000Y-93599000D01*
%TO.N,39*%
X94156000Y-79756000D02*
X94100000Y-79700000D01*
X106045000Y-79756000D02*
X94156000Y-79756000D01*
X108204000Y-78867000D02*
X106934000Y-78867000D01*
X94100000Y-88700000D02*
X98600000Y-88700000D01*
X135641807Y-63754000D02*
X133609807Y-65786000D01*
X98600000Y-88700000D02*
X99800000Y-89900000D01*
X133609807Y-65786000D02*
X108331000Y-65786000D01*
X143129000Y-51816000D02*
X143129000Y-63754000D01*
X99800000Y-91376000D02*
X102160000Y-93736000D01*
X99800000Y-89900000D02*
X99800000Y-91376000D01*
X145059400Y-49885600D02*
X143129000Y-51816000D01*
X106934000Y-78867000D02*
X106045000Y-79756000D01*
X143129000Y-63754000D02*
X135641807Y-63754000D01*
%TO.N,36*%
X93345000Y-114427000D02*
X76962000Y-114427000D01*
X76962000Y-114427000D02*
X76225400Y-115163600D01*
%TO.N,37*%
X110109000Y-80010000D02*
X106436489Y-83682511D01*
X110617000Y-63246000D02*
X141478000Y-63246000D01*
X110109000Y-64135000D02*
X110109000Y-63754000D01*
X141478000Y-63246000D02*
X141859000Y-62865000D01*
X141859000Y-62865000D02*
X141859000Y-59130000D01*
X141859000Y-59130000D02*
X141798000Y-59069000D01*
X110109000Y-63754000D02*
X110617000Y-63246000D01*
X106436489Y-83682511D02*
X106436489Y-89402511D01*
%TO.N,34*%
X92710000Y-99822000D02*
X92567000Y-99965000D01*
X92567000Y-99965000D02*
X74533000Y-99965000D01*
%TO.N,35*%
X143002000Y-67564000D02*
X141859000Y-68707000D01*
X169611000Y-61021000D02*
X169545000Y-61087000D01*
X141605000Y-79375000D02*
X117475000Y-79375000D01*
X141859000Y-68707000D02*
X141569880Y-68996120D01*
X169291000Y-67564000D02*
X143002000Y-67564000D01*
X169611000Y-58736500D02*
X169611000Y-61021000D01*
%TO.N,32*%
X103348111Y-87467889D02*
X104700000Y-86116000D01*
X99632111Y-87467889D02*
X103348111Y-87467889D01*
X74422000Y-90170000D02*
X97917000Y-90170000D01*
X99500000Y-87600000D02*
X99632111Y-87467889D01*
%TO.N,33*%
X115955682Y-86370489D02*
X115438318Y-86370489D01*
X105192111Y-90100000D02*
X104992111Y-89900000D01*
X98500000Y-88250480D02*
X98300000Y-88050480D01*
X116199193Y-86614000D02*
X115955682Y-86370489D01*
X104992111Y-89900000D02*
X101000000Y-89900000D01*
X98300000Y-88050480D02*
X98300000Y-86400000D01*
X98300000Y-86400000D02*
X99000000Y-85700000D01*
X190881000Y-61214000D02*
X190881000Y-58105500D01*
X101000000Y-89900000D02*
X99350480Y-88250480D01*
X99350480Y-88250480D02*
X98500000Y-88250480D01*
X101744000Y-85700000D02*
X102160000Y-86116000D01*
X190881000Y-58105500D02*
X190979500Y-58007000D01*
X115438318Y-86370489D02*
X115194807Y-86614000D01*
X106900000Y-90100000D02*
X105192111Y-90100000D01*
X189992000Y-86614000D02*
X116199193Y-86614000D01*
X107200000Y-87600000D02*
X107200000Y-89800000D01*
X190881000Y-85725000D02*
X189992000Y-86614000D01*
X108186000Y-86614000D02*
X107200000Y-87600000D01*
X115194807Y-86614000D02*
X108186000Y-86614000D01*
X107200000Y-89800000D02*
X106900000Y-90100000D01*
X99000000Y-85700000D02*
X101744000Y-85700000D01*
%TO.N,30*%
X90805000Y-80899000D02*
X93482000Y-83576000D01*
X104600000Y-84800000D02*
X104800000Y-84600000D01*
X89154000Y-80899000D02*
X90805000Y-80899000D01*
X93482000Y-83576000D02*
X99424000Y-83576000D01*
X99424000Y-83576000D02*
X100648000Y-84800000D01*
X100648000Y-84800000D02*
X104600000Y-84800000D01*
X104800000Y-84600000D02*
X104800000Y-83676000D01*
X104800000Y-83676000D02*
X104700000Y-83576000D01*
%TO.N,31*%
X110617000Y-80772000D02*
X220218000Y-80772000D01*
X220734500Y-58174500D02*
X220853000Y-58293000D01*
X220853000Y-80137000D02*
X220853000Y-80518000D01*
X220218000Y-80772000D02*
X220853000Y-80137000D01*
X217866000Y-58174500D02*
X220734500Y-58174500D01*
%TO.N,28*%
X63119000Y-90043000D02*
X65405000Y-87757000D01*
X65405000Y-87757000D02*
X95382000Y-87757000D01*
X35340800Y-96062800D02*
X59004200Y-96062800D01*
X63119000Y-91948000D02*
X63119000Y-90043000D01*
X59004200Y-96062800D02*
X63119000Y-91948000D01*
%TO.N,29*%
X118491000Y-61722000D02*
X118872000Y-61341000D01*
X105192133Y-82224111D02*
X103348111Y-82224111D01*
X109093000Y-79502000D02*
X107492800Y-81102200D01*
X109093000Y-61722000D02*
X118491000Y-61722000D01*
X118872000Y-57659500D02*
X118938000Y-57593500D01*
X107492800Y-81102200D02*
X106314044Y-81102200D01*
X106314044Y-81102200D02*
X105192133Y-82224111D01*
X118872000Y-61341000D02*
X118872000Y-57659500D01*
X103348111Y-82224111D02*
X102160000Y-81036000D01*
%TO.N,26*%
X36915600Y-84734400D02*
X37236400Y-84734400D01*
X47943511Y-86424511D02*
X94169489Y-86424511D01*
X94169489Y-86424511D02*
X94869000Y-85725000D01*
X47879000Y-86360000D02*
X47943511Y-86424511D01*
X37236400Y-84734400D02*
X38862000Y-86360000D01*
X38862000Y-86360000D02*
X47879000Y-86360000D01*
%TO.N,27*%
X107315000Y-57658000D02*
X95380500Y-57658000D01*
X102992111Y-77307889D02*
X102160000Y-78140000D01*
X107315000Y-76300000D02*
X107315000Y-76785000D01*
X107315000Y-76785000D02*
X106792111Y-77307889D01*
X95380500Y-57658000D02*
X95189000Y-57466500D01*
X102160000Y-78140000D02*
X102160000Y-78496000D01*
X106792111Y-77307889D02*
X102992111Y-77307889D01*
%TO.N,24*%
X38312600Y-73787000D02*
X65532000Y-73787000D01*
X38084000Y-74015600D02*
X38312600Y-73787000D01*
X70358000Y-78613000D02*
X98987000Y-78613000D01*
X98987000Y-78613000D02*
X99087000Y-78613000D01*
X65532000Y-73787000D02*
X70358000Y-78613000D01*
%TO.N,25*%
X73091000Y-56434500D02*
X74248500Y-56434500D01*
X98556000Y-75956000D02*
X102160000Y-75956000D01*
X98200000Y-75600000D02*
X98556000Y-75956000D01*
X74248500Y-56434500D02*
X78359000Y-52324000D01*
%TO.N,22*%
X71892000Y-73416000D02*
X100086000Y-73416000D01*
X103400000Y-74600000D02*
X103516000Y-74600000D01*
X101300000Y-74600000D02*
X101400000Y-74600000D01*
X100086000Y-73416000D02*
X100101400Y-73431400D01*
X49479200Y-70408800D02*
X50515489Y-71445089D01*
X44773600Y-66954400D02*
X44773600Y-68497200D01*
X50515489Y-71445089D02*
X69921089Y-71445089D01*
X46685200Y-70408800D02*
X49479200Y-70408800D01*
X103395889Y-74604111D02*
X103400000Y-74600000D01*
X100101400Y-73431400D02*
X100131400Y-73431400D01*
X103516000Y-74600000D02*
X104700000Y-73416000D01*
X101400000Y-74600000D02*
X101404111Y-74604111D01*
X100131400Y-73431400D02*
X101300000Y-74600000D01*
X69921089Y-71445089D02*
X71892000Y-73416000D01*
X44773600Y-68497200D02*
X46685200Y-70408800D01*
X101404111Y-74604111D02*
X103395889Y-74604111D01*
%TO.N,23*%
X52070000Y-55975000D02*
X52070000Y-68199000D01*
X69342000Y-69088000D02*
X72517000Y-72263000D01*
X72517000Y-72263000D02*
X73533000Y-72263000D01*
X52070000Y-68199000D02*
X52959000Y-69088000D01*
X73568111Y-72227889D02*
X100971889Y-72227889D01*
X73533000Y-72263000D02*
X73568111Y-72227889D01*
X52959000Y-69088000D02*
X69342000Y-69088000D01*
X100971889Y-72227889D02*
X102160000Y-73416000D01*
%TO.N,Net-(Q1-Pad1)*%
X51816000Y-53721000D02*
X52070000Y-53975000D01*
X47620000Y-53721000D02*
X51816000Y-53721000D01*
X51402500Y-54150500D02*
X51435000Y-54118000D01*
X47620000Y-57278500D02*
X47035000Y-57863500D01*
X47620000Y-53721000D02*
X47620000Y-57278500D01*
%TO.N,Net-(Q2-Pad1)*%
X68707000Y-54610000D02*
X68707000Y-59337500D01*
X68707000Y-59337500D02*
X68757000Y-59387500D01*
X72915500Y-54610000D02*
X73091000Y-54434500D01*
X68707000Y-54610000D02*
X72915500Y-54610000D01*
%TO.N,Net-(Q3-Pad1)*%
X94775500Y-55880000D02*
X95189000Y-55466500D01*
X90043000Y-59972500D02*
X90093000Y-60022500D01*
X90043000Y-55880000D02*
X90043000Y-59972500D01*
X90043000Y-55880000D02*
X94775500Y-55880000D01*
%TO.N,Net-(Q4-Pad1)*%
X113284000Y-55499000D02*
X118843500Y-55499000D01*
X113284000Y-59167500D02*
X112810000Y-59641500D01*
X113284000Y-55499000D02*
X113284000Y-59167500D01*
X118843500Y-55499000D02*
X118938000Y-55593500D01*
D38*
%TO.N,Net-(Q5-Pad1)*%
X137160000Y-57150000D02*
X141717000Y-57150000D01*
X141717000Y-57150000D02*
X141798000Y-57069000D01*
X137160000Y-57150000D02*
X137226000Y-57216000D01*
X137226000Y-57216000D02*
X137226000Y-61371000D01*
D39*
%TO.N,Net-(Q6-Pad1)*%
X163449000Y-56642000D02*
X163449000Y-60734500D01*
X163449000Y-56642000D02*
X169516500Y-56642000D01*
X163449000Y-60734500D02*
X163499000Y-60784500D01*
X169516500Y-56642000D02*
X169611000Y-56736500D01*
%TO.N,Net-(Q7-Pad1)*%
X186391500Y-59547000D02*
X186391500Y-55962500D01*
X186436000Y-56007000D02*
X186341500Y-55912500D01*
X190979500Y-56007000D02*
X186436000Y-56007000D01*
X186391500Y-55962500D02*
X186341500Y-55912500D01*
%TO.N,Net-(Q8-Pad1)*%
X217728000Y-56036500D02*
X217866000Y-56174500D01*
X212720000Y-60680500D02*
X212786000Y-60746500D01*
X212720000Y-56642000D02*
X214931500Y-56642000D01*
X212720000Y-56642000D02*
X212720000Y-60680500D01*
X215537000Y-56036500D02*
X217728000Y-56036500D01*
X214931500Y-56642000D02*
X215537000Y-56036500D01*
%TO.N,Net-(Q15-Pad1)*%
X271560800Y-49733200D02*
X271560800Y-50961800D01*
X273166800Y-52567800D02*
X273166800Y-54180500D01*
X271560800Y-50961800D02*
X272034000Y-51435000D01*
X271560800Y-49733200D02*
X271449800Y-49733200D01*
X272034000Y-51435000D02*
X273166800Y-52567800D01*
%TO.N,Net-(Q17-Pad1)*%
X75184000Y-138684000D02*
X76073000Y-137795000D01*
X72263000Y-140589000D02*
X74041000Y-138811000D01*
X74168000Y-138684000D02*
X75184000Y-138684000D01*
X74041000Y-138811000D02*
X74168000Y-138684000D01*
X71501000Y-140589000D02*
X72263000Y-140589000D01*
%TO.N,Net-(Q18-Pad1)*%
X97409000Y-131064000D02*
X98298000Y-130175000D01*
X98298000Y-130175000D02*
X98298000Y-128270000D01*
D38*
%TO.N,Net-(Q37-Pad1)*%
X237424000Y-61452800D02*
X237474000Y-61502800D01*
X241046000Y-57150000D02*
X237518500Y-57150000D01*
X237518500Y-57150000D02*
X237424000Y-57055500D01*
X237424000Y-57055500D02*
X237424000Y-61452800D01*
%TO.N,Net-(Q38-Pad1)*%
X260858000Y-57658000D02*
X260858000Y-63353000D01*
X260858000Y-63353000D02*
X260908000Y-63403000D01*
X260858000Y-57658000D02*
X266847000Y-57658000D01*
X266847000Y-57658000D02*
X267020000Y-57831000D01*
D39*
%TO.N,Net-(R1-Pad2)*%
X75438000Y-66929000D02*
X59436000Y-66929000D01*
%TO.N,Net-(R95-Pad2)*%
X269560800Y-49733200D02*
X269560800Y-51189200D01*
X269560800Y-49733200D02*
X269560800Y-48939200D01*
X269560800Y-48939200D02*
X270000000Y-48500000D01*
X269560800Y-51189200D02*
X269250000Y-51500000D01*
X270000000Y-48500000D02*
X272500000Y-48500000D01*
%TO.N,Net-(R137-Pad2)*%
X137922000Y-127635000D02*
X143510000Y-127635000D01*
X137557000Y-128000000D02*
X137922000Y-127635000D01*
%TD*%
M02*
