%TF.GenerationSoftware,KiCad,Pcbnew,(6.0.0)*%
%TF.CreationDate,2022-03-05T09:13:46+01:00*%
%TF.ProjectId,arduiboard1,61726475-6962-46f6-9172-64312e6b6963,rev?*%
%TF.SameCoordinates,Original*%
%TF.FileFunction,Copper,L1,Top*%
%TF.FilePolarity,Positive*%
%FSLAX46Y46*%
G04 Gerber Fmt 4.6, Leading zero omitted, Abs format (unit mm)*
G04 Created by KiCad (PCBNEW (6.0.0)) date 2022-03-05 09:13:46*
%MOMM*%
%LPD*%
G01*
G04 APERTURE LIST*
G04 Aperture macros list*
%AMRoundRect*
0 Rectangle with rounded corners*
0 $1 Rounding radius*
0 $2 $3 $4 $5 $6 $7 $8 $9 X,Y pos of 4 corners*
0 Add a 4 corners polygon primitive as box body*
4,1,4,$2,$3,$4,$5,$6,$7,$8,$9,$2,$3,0*
0 Add four circle primitives for the rounded corners*
1,1,$1+$1,$2,$3*
1,1,$1+$1,$4,$5*
1,1,$1+$1,$6,$7*
1,1,$1+$1,$8,$9*
0 Add four rect primitives between the rounded corners*
20,1,$1+$1,$2,$3,$4,$5,0*
20,1,$1+$1,$4,$5,$6,$7,0*
20,1,$1+$1,$6,$7,$8,$9,0*
20,1,$1+$1,$8,$9,$2,$3,0*%
%AMOutline4P*
0 Free polygon, 4 corners , with rotation*
0 The origin of the aperture is its center*
0 number of corners: always 4*
0 $1 to $8 corner X, Y*
0 $9 Rotation angle, in degrees counterclockwise*
0 create outline with 4 corners*
4,1,4,$1,$2,$3,$4,$5,$6,$7,$8,$1,$2,$9*%
G04 Aperture macros list end*
%TA.AperFunction,SMDPad,CuDef*%
%ADD10RoundRect,0.250000X-0.450000X0.350000X-0.450000X-0.350000X0.450000X-0.350000X0.450000X0.350000X0*%
%TD*%
%TA.AperFunction,SMDPad,CuDef*%
%ADD11RoundRect,0.250000X-0.350000X-0.450000X0.350000X-0.450000X0.350000X0.450000X-0.350000X0.450000X0*%
%TD*%
%TA.AperFunction,ComponentPad*%
%ADD12C,3.000000*%
%TD*%
%TA.AperFunction,ComponentPad*%
%ADD13C,2.500000*%
%TD*%
%TA.AperFunction,ComponentPad*%
%ADD14R,1.700000X1.700000*%
%TD*%
%TA.AperFunction,ComponentPad*%
%ADD15O,1.700000X1.700000*%
%TD*%
%TA.AperFunction,ComponentPad*%
%ADD16R,2.500000X2.500000*%
%TD*%
%TA.AperFunction,SMDPad,CuDef*%
%ADD17RoundRect,0.250000X0.450000X-0.350000X0.450000X0.350000X-0.450000X0.350000X-0.450000X-0.350000X0*%
%TD*%
%TA.AperFunction,SMDPad,CuDef*%
%ADD18RoundRect,0.150000X0.587500X0.150000X-0.587500X0.150000X-0.587500X-0.150000X0.587500X-0.150000X0*%
%TD*%
%TA.AperFunction,SMDPad,CuDef*%
%ADD19RoundRect,0.250000X0.350000X0.450000X-0.350000X0.450000X-0.350000X-0.450000X0.350000X-0.450000X0*%
%TD*%
%TA.AperFunction,SMDPad,CuDef*%
%ADD20Outline4P,-1.800000X-1.150000X1.800000X-0.550000X1.800000X0.550000X-1.800000X1.150000X0.000000*%
%TD*%
%TA.AperFunction,SMDPad,CuDef*%
%ADD21Outline4P,-1.800000X-1.150000X1.800000X-0.550000X1.800000X0.550000X-1.800000X1.150000X180.000000*%
%TD*%
%TA.AperFunction,SMDPad,CuDef*%
%ADD22RoundRect,0.150000X-0.587500X-0.150000X0.587500X-0.150000X0.587500X0.150000X-0.587500X0.150000X0*%
%TD*%
%TA.AperFunction,SMDPad,CuDef*%
%ADD23RoundRect,0.250000X0.475000X-0.337500X0.475000X0.337500X-0.475000X0.337500X-0.475000X-0.337500X0*%
%TD*%
%TA.AperFunction,ComponentPad*%
%ADD24C,2.000000*%
%TD*%
%TA.AperFunction,SMDPad,CuDef*%
%ADD25RoundRect,0.250000X-0.325000X-0.450000X0.325000X-0.450000X0.325000X0.450000X-0.325000X0.450000X0*%
%TD*%
%TA.AperFunction,SMDPad,CuDef*%
%ADD26RoundRect,0.250000X0.337500X0.475000X-0.337500X0.475000X-0.337500X-0.475000X0.337500X-0.475000X0*%
%TD*%
%TA.AperFunction,SMDPad,CuDef*%
%ADD27Outline4P,-1.800000X-1.150000X1.800000X-0.550000X1.800000X0.550000X-1.800000X1.150000X270.000000*%
%TD*%
%TA.AperFunction,SMDPad,CuDef*%
%ADD28Outline4P,-1.800000X-1.150000X1.800000X-0.550000X1.800000X0.550000X-1.800000X1.150000X90.000000*%
%TD*%
%TA.AperFunction,SMDPad,CuDef*%
%ADD29RoundRect,0.150000X0.150000X-0.587500X0.150000X0.587500X-0.150000X0.587500X-0.150000X-0.587500X0*%
%TD*%
%TA.AperFunction,SMDPad,CuDef*%
%ADD30RoundRect,0.150000X-0.150000X0.587500X-0.150000X-0.587500X0.150000X-0.587500X0.150000X0.587500X0*%
%TD*%
%TA.AperFunction,SMDPad,CuDef*%
%ADD31RoundRect,0.250000X-0.475000X0.337500X-0.475000X-0.337500X0.475000X-0.337500X0.475000X0.337500X0*%
%TD*%
%TA.AperFunction,SMDPad,CuDef*%
%ADD32R,1.700000X1.300000*%
%TD*%
%TA.AperFunction,SMDPad,CuDef*%
%ADD33RoundRect,1.000000X-1.000000X-2.000000X1.000000X-2.000000X1.000000X2.000000X-1.000000X2.000000X0*%
%TD*%
%TA.AperFunction,ComponentPad*%
%ADD34O,1.727200X2.032000*%
%TD*%
%TA.AperFunction,SMDPad,CuDef*%
%ADD35RoundRect,0.250000X-0.337500X-0.475000X0.337500X-0.475000X0.337500X0.475000X-0.337500X0.475000X0*%
%TD*%
%TA.AperFunction,SMDPad,CuDef*%
%ADD36R,1.800000X3.500000*%
%TD*%
%TA.AperFunction,SMDPad,CuDef*%
%ADD37R,1.300000X1.700000*%
%TD*%
%TA.AperFunction,SMDPad,CuDef*%
%ADD38RoundRect,0.249600X1.712900X0.550400X-1.712900X0.550400X-1.712900X-0.550400X1.712900X-0.550400X0*%
%TD*%
%TA.AperFunction,SMDPad,CuDef*%
%ADD39RoundRect,0.150000X-0.825000X-0.150000X0.825000X-0.150000X0.825000X0.150000X-0.825000X0.150000X0*%
%TD*%
%TA.AperFunction,ComponentPad*%
%ADD40R,2.000000X2.000000*%
%TD*%
%TA.AperFunction,SMDPad,CuDef*%
%ADD41RoundRect,0.249600X0.550400X-1.712900X0.550400X1.712900X-0.550400X1.712900X-0.550400X-1.712900X0*%
%TD*%
%TA.AperFunction,ComponentPad*%
%ADD42C,1.727200*%
%TD*%
%TA.AperFunction,ComponentPad*%
%ADD43O,1.727200X1.727200*%
%TD*%
%TA.AperFunction,ViaPad*%
%ADD44C,0.600000*%
%TD*%
%TA.AperFunction,ViaPad*%
%ADD45C,1.500000*%
%TD*%
%TA.AperFunction,ViaPad*%
%ADD46C,1.000000*%
%TD*%
%TA.AperFunction,ViaPad*%
%ADD47C,1.200000*%
%TD*%
%TA.AperFunction,Conductor*%
%ADD48C,0.250000*%
%TD*%
%TA.AperFunction,Conductor*%
%ADD49C,1.000000*%
%TD*%
%TA.AperFunction,Conductor*%
%ADD50C,0.800000*%
%TD*%
G04 APERTURE END LIST*
D10*
%TO.P,R127,1*%
%TO.N,Net-(R125-Pad2)*%
X108712000Y-131486400D03*
%TO.P,R127,2*%
%TO.N,Net-(D36-Pad1)*%
X108712000Y-133486400D03*
%TD*%
D11*
%TO.P,R50,1*%
%TO.N,Net-(C12-Pad1)*%
X69866000Y-76301600D03*
%TO.P,R50,2*%
%TO.N,30*%
X71866000Y-76301600D03*
%TD*%
D12*
%TO.P,K10,1*%
%TO.N,/logique/Bloc relais/COM10*%
X258114800Y-43552000D03*
D13*
%TO.P,K10,2*%
%TO.N,Net-(D57-Pad1)*%
X264164800Y-41602000D03*
D12*
%TO.P,K10,3*%
%TO.N,/logique/Bloc relais/NO10*%
X264164800Y-29402000D03*
%TO.P,K10,4*%
%TO.N,/logique/Bloc relais/NF10*%
X252114800Y-29352000D03*
D13*
%TO.P,K10,5*%
%TO.N,+12V*%
X252164800Y-41602000D03*
%TD*%
D14*
%TO.P,JP10,1,A*%
%TO.N,Net-(JP10-Pad1)*%
X231475000Y-93268800D03*
D15*
%TO.P,JP10,2,C*%
%TO.N,/logique/Collecteurs ouverts/OC10-PWM*%
X234015000Y-93268800D03*
%TO.P,JP10,3,B*%
%TO.N,Net-(JP10-Pad3)*%
X236555000Y-93268800D03*
%TD*%
D11*
%TO.P,R119,1*%
%TO.N,Net-(C19-Pad1)*%
X91049600Y-163322000D03*
%TO.P,R119,2*%
%TO.N,Net-(R119-Pad2)*%
X93049600Y-163322000D03*
%TD*%
D16*
%TO.P,J14,1,Pin_1*%
%TO.N,/logique/Entr\u00E9es digitales/IN7*%
X43386400Y-101473000D03*
D13*
%TO.P,J14,2,Pin_2*%
%TO.N,GND*%
X43386400Y-106473000D03*
%TD*%
D10*
%TO.P,R159,1*%
%TO.N,Net-(R159-Pad1)*%
X222453200Y-133006000D03*
%TO.P,R159,2*%
%TO.N,/logique/Entr\u00E9es analogiques - Extension/Extention analogique simple4/A_IN_EXT*%
X222453200Y-135006000D03*
%TD*%
%TO.P,R138,1*%
%TO.N,Net-(R137-Pad2)*%
X138988800Y-127778000D03*
%TO.P,R138,2*%
%TO.N,Net-(Q22-Pad1)*%
X138988800Y-129778000D03*
%TD*%
D17*
%TO.P,R165,1*%
%TO.N,/logique/Entr\u00E9es analogiques/ANALOG5*%
X23469600Y-160461200D03*
%TO.P,R165,2*%
%TO.N,Net-(R165-Pad2)*%
X23469600Y-158461200D03*
%TD*%
D16*
%TO.P,J41,1,Pin_1*%
%TO.N,/logique/Extensions/Simple extension1/EI*%
X54867000Y-147062800D03*
D13*
%TO.P,J41,2,Pin_2*%
%TO.N,/logique/Extensions/Simple extension1/COL_EXT*%
X59867000Y-147062800D03*
%TD*%
D11*
%TO.P,R54,1*%
%TO.N,/logique/Entr\u00E9es digitales/IN7*%
X64852800Y-102057200D03*
%TO.P,R54,2*%
%TO.N,Net-(C14-Pad1)*%
X66852800Y-102057200D03*
%TD*%
D17*
%TO.P,R66,1*%
%TO.N,/logique/Entr\u00E9es analogiques/ANALOG4*%
X67818000Y-163560000D03*
%TO.P,R66,2*%
%TO.N,Net-(R66-Pad2)*%
X67818000Y-161560000D03*
%TD*%
D11*
%TO.P,R69,1*%
%TO.N,38*%
X199964800Y-64262000D03*
%TO.P,R69,2*%
%TO.N,Net-(Q9-Pad1)*%
X201964800Y-64262000D03*
%TD*%
D17*
%TO.P,R160,1*%
%TO.N,Net-(R159-Pad1)*%
X222418400Y-129519600D03*
%TO.P,R160,2*%
%TO.N,A14*%
X222418400Y-127519600D03*
%TD*%
D16*
%TO.P,J34,1,Pin_1*%
%TO.N,/logique/Bloc relais/NO10*%
X262479800Y-16056000D03*
D13*
%TO.P,J34,2,Pin_2*%
%TO.N,/logique/Bloc relais/COM10*%
X257479800Y-16056000D03*
%TO.P,J34,3,Pin_3*%
%TO.N,/logique/Bloc relais/NF10*%
X252479800Y-16056000D03*
%TD*%
D18*
%TO.P,Q18,1,G*%
%TO.N,Net-(Q18-Pad1)*%
X93444300Y-135976400D03*
%TO.P,Q18,2,S*%
%TO.N,GND*%
X93444300Y-134076400D03*
%TO.P,Q18,3,D*%
%TO.N,/logique/Extensions/Simple extension3/COL_EXT*%
X91569300Y-135026400D03*
%TD*%
D16*
%TO.P,J9,1,Pin_1*%
%TO.N,GND*%
X283257600Y-117158000D03*
D13*
%TO.P,J9,2,Pin_2*%
%TO.N,VCC*%
X283257600Y-112158000D03*
%TO.P,J9,3,Pin_3*%
%TO.N,17(Rx2)*%
X283257600Y-107158000D03*
%TO.P,J9,4,Pin_4*%
%TO.N,16(Tx2)*%
X283257600Y-102158000D03*
%TD*%
D19*
%TO.P,R106,1*%
%TO.N,VCC*%
X86445600Y-140208000D03*
%TO.P,R106,2*%
%TO.N,Net-(C17-Pad1)*%
X84445600Y-140208000D03*
%TD*%
D17*
%TO.P,R63,1*%
%TO.N,/logique/Entr\u00E9es analogiques/ANALOG3*%
X61264800Y-163610800D03*
%TO.P,R63,2*%
%TO.N,Net-(R63-Pad2)*%
X61264800Y-161610800D03*
%TD*%
D20*
%TO.P,D1,1,K*%
%TO.N,Net-(D1-Pad1)*%
X28138800Y-50342800D03*
D21*
%TO.P,D1,2,A*%
%TO.N,+12V*%
X33938800Y-50342800D03*
%TD*%
D11*
%TO.P,R190,1*%
%TO.N,Net-(Q34-Pad1)*%
X163795200Y-113690400D03*
%TO.P,R190,2*%
%TO.N,GND*%
X165795200Y-113690400D03*
%TD*%
D17*
%TO.P,R58,1*%
%TO.N,Net-(R57-Pad2)*%
X48971200Y-158870400D03*
%TO.P,R58,2*%
%TO.N,A0*%
X48971200Y-156870400D03*
%TD*%
D22*
%TO.P,Q24,1,G*%
%TO.N,A9*%
X112498900Y-89321600D03*
%TO.P,Q24,2,S*%
%TO.N,GND*%
X112498900Y-91221600D03*
%TO.P,Q24,3,D*%
%TO.N,/logique/Entr\u00E9es analogiques - Extension/Extention analogique simple1/COL_AIN_EXT*%
X114373900Y-90271600D03*
%TD*%
D17*
%TO.P,R112,1*%
%TO.N,VCC*%
X85496400Y-123580400D03*
%TO.P,R112,2*%
%TO.N,Net-(C18-Pad1)*%
X85496400Y-121580400D03*
%TD*%
D10*
%TO.P,R13,1*%
%TO.N,VCC*%
X219202000Y-162271200D03*
%TO.P,R13,2*%
%TO.N,Net-(J35-Pad3)*%
X219202000Y-164271200D03*
%TD*%
D23*
%TO.P,C2,1*%
%TO.N,+12V*%
X54152800Y-65147100D03*
%TO.P,C2,2*%
%TO.N,GND*%
X54152800Y-63072100D03*
%TD*%
D24*
%TO.P,SW1,1,1*%
%TO.N,GND*%
X160872800Y-131162400D03*
%TO.P,SW1,2,2*%
%TO.N,Reset*%
X165872800Y-131162400D03*
%TD*%
D25*
%TO.P,D5,1,K*%
%TO.N,Net-(D5-Pad1)*%
X85233400Y-94030800D03*
%TO.P,D5,2,A*%
%TO.N,VCC*%
X87283400Y-94030800D03*
%TD*%
D11*
%TO.P,R83,1*%
%TO.N,VCC*%
X205822800Y-92964000D03*
%TO.P,R83,2*%
%TO.N,Net-(JP4-Pad1)*%
X207822800Y-92964000D03*
%TD*%
D22*
%TO.P,Q26,1,G*%
%TO.N,A11*%
X112522000Y-103936800D03*
%TO.P,Q26,2,S*%
%TO.N,GND*%
X112522000Y-105836800D03*
%TO.P,Q26,3,D*%
%TO.N,/logique/Entr\u00E9es analogiques - Extension/Extention analogique simple3/COL_AIN_EXT*%
X114397000Y-104886800D03*
%TD*%
D26*
%TO.P,C21,1*%
%TO.N,Net-(C21-Pad1)*%
X117674300Y-125171200D03*
%TO.P,C21,2*%
%TO.N,GND*%
X115599300Y-125171200D03*
%TD*%
D17*
%TO.P,R171,1*%
%TO.N,/logique/Entr\u00E9es analogiques/ANALOG7*%
X36220400Y-162950400D03*
%TO.P,R171,2*%
%TO.N,Net-(R171-Pad2)*%
X36220400Y-160950400D03*
%TD*%
D11*
%TO.P,R198,1*%
%TO.N,Net-(Q36-Pad1)*%
X151755600Y-105257600D03*
%TO.P,R198,2*%
%TO.N,GND*%
X153755600Y-105257600D03*
%TD*%
D19*
%TO.P,R99,1*%
%TO.N,41*%
X63855600Y-121107200D03*
%TO.P,R99,2*%
%TO.N,Net-(C16-Pad1)*%
X61855600Y-121107200D03*
%TD*%
D27*
%TO.P,D2,1,A1*%
%TO.N,+12V*%
X36677600Y-57907600D03*
D28*
%TO.P,D2,2,A2*%
%TO.N,GND*%
X36677600Y-63707600D03*
%TD*%
D11*
%TO.P,R75,1*%
%TO.N,VCC*%
X206695800Y-77698600D03*
%TO.P,R75,2*%
%TO.N,Net-(JP2-Pad1)*%
X208695800Y-77698600D03*
%TD*%
D16*
%TO.P,J36,1,Pin_1*%
%TO.N,VCC*%
X162699200Y-147012000D03*
D13*
%TO.P,J36,2,Pin_2*%
X167699200Y-147012000D03*
%TO.P,J36,3,Pin_3*%
X172699200Y-147012000D03*
%TO.P,J36,4,Pin_4*%
X177699200Y-147012000D03*
%TD*%
D11*
%TO.P,R156,1*%
%TO.N,Net-(R156-Pad1)*%
X257724400Y-152603200D03*
%TO.P,R156,2*%
%TO.N,/logique/Entr\u00E9es analogiques - Extension/Extention analogique simple6/A_IN_EXT*%
X259724400Y-152603200D03*
%TD*%
D19*
%TO.P,R49,1*%
%TO.N,VCC*%
X71866000Y-79705200D03*
%TO.P,R49,2*%
%TO.N,Net-(C12-Pad1)*%
X69866000Y-79705200D03*
%TD*%
%TO.P,R104,1*%
%TO.N,Net-(Q16-Pad1)*%
X60791600Y-133858000D03*
%TO.P,R104,2*%
%TO.N,GND*%
X58791600Y-133858000D03*
%TD*%
D29*
%TO.P,Q19,1,G*%
%TO.N,Net-(Q19-Pad1)*%
X105069600Y-157147500D03*
%TO.P,Q19,2,S*%
%TO.N,GND*%
X106969600Y-157147500D03*
%TO.P,Q19,3,D*%
%TO.N,/logique/Extensions/Simple extension6/COL_EXT*%
X106019600Y-155272500D03*
%TD*%
D11*
%TO.P,R150,1*%
%TO.N,Net-(R150-Pad1)*%
X242535200Y-121767600D03*
%TO.P,R150,2*%
%TO.N,/logique/Entr\u00E9es analogiques - Extension/Extention analogique simple3/A_IN_EXT*%
X244535200Y-121767600D03*
%TD*%
D17*
%TO.P,R70,1*%
%TO.N,Net-(Q9-Pad1)*%
X205689200Y-64195200D03*
%TO.P,R70,2*%
%TO.N,GND*%
X205689200Y-62195200D03*
%TD*%
D16*
%TO.P,J17,1,Pin_1*%
%TO.N,GND*%
X283105200Y-45174400D03*
D13*
%TO.P,J17,2,Pin_2*%
%TO.N,VCC*%
X283105200Y-40174400D03*
%TO.P,J17,3,Pin_3*%
%TO.N,0(Rx0)*%
X283105200Y-35174400D03*
%TO.P,J17,4,Pin_4*%
%TO.N,1(Tx0)*%
X283105200Y-30174400D03*
%TD*%
D10*
%TO.P,R17,1*%
%TO.N,+12V*%
X195478400Y-162423600D03*
%TO.P,R17,2*%
%TO.N,Net-(J37-Pad3)*%
X195478400Y-164423600D03*
%TD*%
D16*
%TO.P,J39,1,Pin_1*%
%TO.N,/logique/Extensions/Simple extension2/EI*%
X69342000Y-147113600D03*
D13*
%TO.P,J39,2,Pin_2*%
%TO.N,/logique/Extensions/Simple extension2/COL_EXT*%
X74342000Y-147113600D03*
%TD*%
D16*
%TO.P,J12,1,Pin_1*%
%TO.N,/logique/Entr\u00E9es digitales/IN9*%
X15954400Y-142595600D03*
D13*
%TO.P,J12,2,Pin_2*%
%TO.N,GND*%
X15954400Y-147595600D03*
%TD*%
D30*
%TO.P,Q21,1,G*%
%TO.N,Net-(Q21-Pad1)*%
X130083600Y-132971300D03*
%TO.P,Q21,2,S*%
%TO.N,GND*%
X128183600Y-132971300D03*
%TO.P,Q21,3,D*%
%TO.N,/logique/Extensions/Simple extension5/COL_EXT*%
X129133600Y-134846300D03*
%TD*%
D11*
%TO.P,R93,1*%
%TO.N,39*%
X264277600Y-49885600D03*
%TO.P,R93,2*%
%TO.N,Net-(C15-Pad1)*%
X266277600Y-49885600D03*
%TD*%
D14*
%TO.P,JP6,1,A*%
%TO.N,Net-(JP6-Pad1)*%
X213563200Y-109016800D03*
D15*
%TO.P,JP6,2,C*%
%TO.N,/logique/Collecteurs ouverts/OC6-PWM*%
X216103200Y-109016800D03*
%TO.P,JP6,3,B*%
%TO.N,Net-(JP6-Pad3)*%
X218643200Y-109016800D03*
%TD*%
D11*
%TO.P,R86,1*%
%TO.N,Net-(Q13-Pad1)*%
X187010800Y-98094800D03*
%TO.P,R86,2*%
%TO.N,GND*%
X189010800Y-98094800D03*
%TD*%
D10*
%TO.P,R97,1*%
%TO.N,Net-(R95-Pad2)*%
X269341600Y-54270400D03*
%TO.P,R97,2*%
%TO.N,Net-(D26-Pad1)*%
X269341600Y-56270400D03*
%TD*%
%TO.P,R117,1*%
%TO.N,47*%
X91795600Y-155702000D03*
%TO.P,R117,2*%
%TO.N,Net-(C19-Pad1)*%
X91795600Y-157702000D03*
%TD*%
%TO.P,R14,1*%
%TO.N,VCC*%
X224180400Y-162372800D03*
%TO.P,R14,2*%
%TO.N,Net-(J35-Pad4)*%
X224180400Y-164372800D03*
%TD*%
D11*
%TO.P,R77,1*%
%TO.N,42*%
X168773600Y-82804000D03*
%TO.P,R77,2*%
%TO.N,Net-(Q11-Pad1)*%
X170773600Y-82804000D03*
%TD*%
D31*
%TO.P,C24,1*%
%TO.N,Net-(C24-Pad1)*%
X31902400Y-144330600D03*
%TO.P,C24,2*%
%TO.N,GND*%
X31902400Y-146405600D03*
%TD*%
D26*
%TO.P,C6,1*%
%TO.N,Net-(C5-Pad1)*%
X89378700Y-83870800D03*
%TO.P,C6,2*%
%TO.N,GND*%
X87303700Y-83870800D03*
%TD*%
D11*
%TO.P,R186,1*%
%TO.N,Net-(Q33-Pad1)*%
X163592000Y-102819200D03*
%TO.P,R186,2*%
%TO.N,GND*%
X165592000Y-102819200D03*
%TD*%
D10*
%TO.P,R89,1*%
%TO.N,5(\u002A\u002A)*%
X178663600Y-105680000D03*
%TO.P,R89,2*%
%TO.N,Net-(Q14-Pad1)*%
X178663600Y-107680000D03*
%TD*%
D11*
%TO.P,R79,1*%
%TO.N,VCC*%
X206467200Y-85191600D03*
%TO.P,R79,2*%
%TO.N,Net-(JP3-Pad1)*%
X208467200Y-85191600D03*
%TD*%
D32*
%TO.P,D34,1,K*%
%TO.N,Net-(D34-Pad1)*%
X99720400Y-158569600D03*
%TO.P,D34,2,A*%
%TO.N,/logique/Extensions/Simple extension6/EI*%
X99720400Y-155069600D03*
%TD*%
D16*
%TO.P,J31,1,Pin_1*%
%TO.N,/logique/Bloc relais/NO7*%
X163648400Y-15802000D03*
D13*
%TO.P,J31,2,Pin_2*%
%TO.N,/logique/Bloc relais/COM7*%
X158648400Y-15802000D03*
%TO.P,J31,3,Pin_3*%
%TO.N,/logique/Bloc relais/NF7*%
X153648400Y-15802000D03*
%TD*%
D16*
%TO.P,J8,1,Pin_1*%
%TO.N,GND*%
X257644400Y-172412000D03*
D13*
%TO.P,J8,2,Pin_2*%
%TO.N,VCC*%
X262644400Y-172412000D03*
%TO.P,J8,3,Pin_3*%
%TO.N,SDA*%
X267644400Y-172412000D03*
%TO.P,J8,4,Pin_4*%
%TO.N,SCL*%
X272644400Y-172412000D03*
%TD*%
D10*
%TO.P,R105,1*%
%TO.N,43*%
X80137000Y-140208000D03*
%TO.P,R105,2*%
%TO.N,Net-(C17-Pad1)*%
X80137000Y-142208000D03*
%TD*%
D16*
%TO.P,J3,1,Pin_1*%
%TO.N,/logique/Entr\u00E9es digitales/IN1*%
X15802000Y-64871600D03*
D13*
%TO.P,J3,2,Pin_2*%
%TO.N,GND*%
X15802000Y-69871600D03*
%TD*%
D10*
%TO.P,R149,1*%
%TO.N,A10*%
X108966000Y-96688400D03*
%TO.P,R149,2*%
%TO.N,GND*%
X108966000Y-98688400D03*
%TD*%
D32*
%TO.P,D30,1,K*%
%TO.N,Net-(D30-Pad1)*%
X65633600Y-136781600D03*
%TO.P,D30,2,A*%
%TO.N,/logique/Extensions/Simple extension2/EI*%
X65633600Y-140281600D03*
%TD*%
D12*
%TO.P,K6,1*%
%TO.N,/logique/Bloc relais/COM7*%
X159258000Y-43958400D03*
D13*
%TO.P,K6,2*%
%TO.N,Net-(D11-Pad1)*%
X165308000Y-42008400D03*
D12*
%TO.P,K6,3*%
%TO.N,/logique/Bloc relais/NO7*%
X165308000Y-29808400D03*
%TO.P,K6,4*%
%TO.N,/logique/Bloc relais/NF7*%
X153258000Y-29758400D03*
D13*
%TO.P,K6,5*%
%TO.N,+12V*%
X153308000Y-42008400D03*
%TD*%
D10*
%TO.P,R101,1*%
%TO.N,Net-(C16-Pad1)*%
X58775600Y-124069600D03*
%TO.P,R101,2*%
%TO.N,Net-(R101-Pad2)*%
X58775600Y-126069600D03*
%TD*%
D16*
%TO.P,J44,1,Pin_1*%
%TO.N,/logique/Extensions/Simple extension6/EI*%
X99822000Y-147062800D03*
D13*
%TO.P,J44,2,Pin_2*%
%TO.N,/logique/Extensions/Simple extension6/COL_EXT*%
X104822000Y-147062800D03*
%TD*%
D29*
%TO.P,Q31,1,B*%
%TO.N,Net-(Q31-Pad1)*%
X174614800Y-113510300D03*
%TO.P,Q31,2,E*%
%TO.N,GND*%
X176514800Y-113510300D03*
%TO.P,Q31,3,C*%
%TO.N,/logique/Collecteurs ouverts/OC7-PWM*%
X175564800Y-111635300D03*
%TD*%
D11*
%TO.P,R91,1*%
%TO.N,VCC*%
X205806800Y-108864400D03*
%TO.P,R91,2*%
%TO.N,Net-(JP6-Pad1)*%
X207806800Y-108864400D03*
%TD*%
%TO.P,R194,1*%
%TO.N,Net-(Q35-Pad1)*%
X151806400Y-87782400D03*
%TO.P,R194,2*%
%TO.N,GND*%
X153806400Y-87782400D03*
%TD*%
D12*
%TO.P,K8,1*%
%TO.N,/logique/Bloc relais/COM5*%
X209397600Y-44161600D03*
D13*
%TO.P,K8,2*%
%TO.N,Net-(D13-Pad1)*%
X215447600Y-42211600D03*
D12*
%TO.P,K8,3*%
%TO.N,/logique/Bloc relais/NO5*%
X215447600Y-30011600D03*
%TO.P,K8,4*%
%TO.N,/logique/Bloc relais/NF5*%
X203397600Y-29961600D03*
D13*
%TO.P,K8,5*%
%TO.N,+12V*%
X203447600Y-42211600D03*
%TD*%
D22*
%TO.P,Q30,1,G*%
%TO.N,A15*%
X124206000Y-103479600D03*
%TO.P,Q30,2,S*%
%TO.N,GND*%
X124206000Y-105379600D03*
%TO.P,Q30,3,D*%
%TO.N,/logique/Entr\u00E9es analogiques - Extension/Extention analogique simple7/COL_AIN_EXT*%
X126081000Y-104429600D03*
%TD*%
D11*
%TO.P,R3,1*%
%TO.N,Net-(C5-Pad1)*%
X77359000Y-69342000D03*
%TO.P,R3,2*%
%TO.N,Net-(R3-Pad2)*%
X79359000Y-69342000D03*
%TD*%
D33*
%TO.P,L1,1*%
%TO.N,Net-(C4-Pad2)*%
X84305600Y-62430800D03*
%TO.P,L1,2*%
%TO.N,Net-(C5-Pad1)*%
X94365600Y-62430800D03*
%TD*%
D10*
%TO.P,R146,1*%
%TO.N,A10*%
X108712000Y-89170000D03*
%TO.P,R146,2*%
%TO.N,GND*%
X108712000Y-91170000D03*
%TD*%
D16*
%TO.P,J40,1,Pin_1*%
%TO.N,/logique/Extensions/Simple extension/EI*%
X43335600Y-129540000D03*
D13*
%TO.P,J40,2,Pin_2*%
%TO.N,/logique/Extensions/Simple extension/COL_EXT*%
X43335600Y-134540000D03*
%TD*%
D34*
%TO.P,P10,1,Pin_1*%
%TO.N,A0*%
X147838000Y-119126000D03*
%TO.P,P10,2,Pin_2*%
%TO.N,A1*%
X145298000Y-119126000D03*
%TO.P,P10,3,Pin_3*%
%TO.N,A2*%
X142758000Y-119126000D03*
%TO.P,P10,4,Pin_4*%
%TO.N,A3*%
X140218000Y-119126000D03*
%TO.P,P10,5,Pin_5*%
%TO.N,A4*%
X137678000Y-119126000D03*
%TO.P,P10,6,Pin_6*%
%TO.N,A5*%
X135138000Y-119126000D03*
%TO.P,P10,7,Pin_7*%
%TO.N,A6*%
X132598000Y-119126000D03*
%TO.P,P10,8,Pin_8*%
%TO.N,A7*%
X130058000Y-119126000D03*
%TD*%
D11*
%TO.P,R141,1*%
%TO.N,Net-(R141-Pad1)*%
X245329200Y-78943200D03*
%TO.P,R141,2*%
%TO.N,/logique/Entr\u00E9es analogiques - Extension/Extention analogique simple/A_IN_EXT*%
X247329200Y-78943200D03*
%TD*%
D10*
%TO.P,R137,1*%
%TO.N,Net-(C22-Pad1)*%
X135026400Y-126000000D03*
%TO.P,R137,2*%
%TO.N,Net-(R137-Pad2)*%
X135026400Y-128000000D03*
%TD*%
D23*
%TO.P,C18,1*%
%TO.N,Net-(C18-Pad1)*%
X92913200Y-120976300D03*
%TO.P,C18,2*%
%TO.N,GND*%
X92913200Y-118901300D03*
%TD*%
D14*
%TO.P,JP4,1,A*%
%TO.N,Net-(JP4-Pad1)*%
X213410800Y-92913200D03*
D15*
%TO.P,JP4,2,C*%
%TO.N,/logique/Collecteurs ouverts/OC4*%
X215950800Y-92913200D03*
%TO.P,JP4,3,B*%
%TO.N,Net-(JP4-Pad3)*%
X218490800Y-92913200D03*
%TD*%
D14*
%TO.P,JP5,1,A*%
%TO.N,Net-(JP5-Pad1)*%
X213512400Y-102006400D03*
D15*
%TO.P,JP5,2,C*%
%TO.N,/logique/Collecteurs ouverts/OC5-PWM*%
X216052400Y-102006400D03*
%TO.P,JP5,3,B*%
%TO.N,Net-(JP5-Pad3)*%
X218592400Y-102006400D03*
%TD*%
D19*
%TO.P,R108,1*%
%TO.N,Net-(R107-Pad2)*%
X71307200Y-138734800D03*
%TO.P,R108,2*%
%TO.N,Net-(Q17-Pad1)*%
X69307200Y-138734800D03*
%TD*%
D11*
%TO.P,R201,1*%
%TO.N,/logique/Entr\u00E9es digitales/IN10*%
X25619200Y-111506000D03*
%TO.P,R201,2*%
%TO.N,Net-(C23-Pad1)*%
X27619200Y-111506000D03*
%TD*%
D16*
%TO.P,J43,1,Pin_1*%
%TO.N,/logique/Extensions/Simple extension5/EI*%
X129289000Y-147120000D03*
D13*
%TO.P,J43,2,Pin_2*%
%TO.N,/logique/Extensions/Simple extension5/COL_EXT*%
X134289000Y-147120000D03*
%TD*%
D11*
%TO.P,R47,1*%
%TO.N,Net-(C11-Pad1)*%
X71812400Y-115163600D03*
%TO.P,R47,2*%
%TO.N,36*%
X73812400Y-115163600D03*
%TD*%
%TO.P,R102,1*%
%TO.N,Net-(R101-Pad2)*%
X58842400Y-129844800D03*
%TO.P,R102,2*%
%TO.N,Net-(Q16-Pad1)*%
X60842400Y-129844800D03*
%TD*%
D19*
%TO.P,R157,1*%
%TO.N,Net-(R156-Pad1)*%
X253222000Y-152654000D03*
%TO.P,R157,2*%
%TO.N,A13*%
X251222000Y-152654000D03*
%TD*%
D10*
%TO.P,R52,1*%
%TO.N,VCC*%
X71069200Y-84293200D03*
%TO.P,R52,2*%
%TO.N,Net-(C13-Pad1)*%
X71069200Y-86293200D03*
%TD*%
D19*
%TO.P,R5,1*%
%TO.N,Net-(C5-Pad1)*%
X89290400Y-88900000D03*
%TO.P,R5,2*%
%TO.N,VCC*%
X87290400Y-88900000D03*
%TD*%
D17*
%TO.P,R60,1*%
%TO.N,/logique/Entr\u00E9es analogiques/ANALOG2*%
X55473600Y-163306000D03*
%TO.P,R60,2*%
%TO.N,Net-(R60-Pad2)*%
X55473600Y-161306000D03*
%TD*%
D16*
%TO.P,J50,1,Pin_1*%
%TO.N,/logique/Entr\u00E9es analogiques - Extension/Extention analogique simple3/COL_AIN_EXT*%
X254000000Y-127000000D03*
D13*
%TO.P,J50,2,Pin_2*%
%TO.N,/logique/Entr\u00E9es analogiques - Extension/Extention analogique simple3/A_IN_EXT*%
X254000000Y-122000000D03*
%TD*%
D17*
%TO.P,R169,1*%
%TO.N,Net-(R168-Pad2)*%
X30276800Y-158226000D03*
%TO.P,R169,2*%
%TO.N,A5*%
X30276800Y-156226000D03*
%TD*%
D16*
%TO.P,J27,1,Pin_1*%
%TO.N,/logique/Bloc relais/NO3*%
X90191600Y-15827400D03*
D13*
%TO.P,J27,2,Pin_2*%
%TO.N,/logique/Bloc relais/COM3*%
X85191600Y-15827400D03*
%TO.P,J27,3,Pin_3*%
%TO.N,/logique/Bloc relais/NF3*%
X80191600Y-15827400D03*
%TD*%
D12*
%TO.P,K7,1*%
%TO.N,/logique/Bloc relais/COM6*%
X184454800Y-44364800D03*
D13*
%TO.P,K7,2*%
%TO.N,Net-(D12-Pad1)*%
X190504800Y-42414800D03*
D12*
%TO.P,K7,3*%
%TO.N,/logique/Bloc relais/NO6*%
X190504800Y-30214800D03*
%TO.P,K7,4*%
%TO.N,/logique/Bloc relais/NF6*%
X178454800Y-30164800D03*
D13*
%TO.P,K7,5*%
%TO.N,+12V*%
X178504800Y-42414800D03*
%TD*%
D16*
%TO.P,J13,1,Pin_1*%
%TO.N,/logique/Entr\u00E9es digitales/IN8*%
X43383200Y-114655600D03*
D13*
%TO.P,J13,2,Pin_2*%
%TO.N,GND*%
X43383200Y-119655600D03*
%TD*%
D10*
%TO.P,R143,1*%
%TO.N,A8*%
X109270800Y-82007200D03*
%TO.P,R143,2*%
%TO.N,GND*%
X109270800Y-84007200D03*
%TD*%
D14*
%TO.P,JP11,1,A*%
%TO.N,Net-(JP11-Pad1)*%
X231475000Y-101600000D03*
D15*
%TO.P,JP11,2,C*%
%TO.N,/logique/Collecteurs ouverts/OC11-PWM*%
X234015000Y-101600000D03*
%TO.P,JP11,3,B*%
%TO.N,Net-(JP11-Pad3)*%
X236555000Y-101600000D03*
%TD*%
D11*
%TO.P,R81,1*%
%TO.N,44*%
X169992800Y-92303600D03*
%TO.P,R81,2*%
%TO.N,Net-(Q12-Pad1)*%
X171992800Y-92303600D03*
%TD*%
D30*
%TO.P,Q22,1,G*%
%TO.N,Net-(Q22-Pad1)*%
X138887200Y-136144000D03*
%TO.P,Q22,2,S*%
%TO.N,GND*%
X136987200Y-136144000D03*
%TO.P,Q22,3,D*%
%TO.N,/logique/Extensions/Simple extension4/COL_EXT*%
X137937200Y-138019000D03*
%TD*%
D19*
%TO.P,R211,1*%
%TO.N,/logique/Collecteurs ouverts/OC1*%
X139430000Y-60325000D03*
%TO.P,R211,2*%
%TO.N,Net-(Q39-Pad1)*%
X137430000Y-60325000D03*
%TD*%
D32*
%TO.P,D28,1,K*%
%TO.N,Net-(D28-Pad1)*%
X53848000Y-136578400D03*
%TO.P,D28,2,A*%
%TO.N,/logique/Extensions/Simple extension1/EI*%
X53848000Y-140078400D03*
%TD*%
D11*
%TO.P,R132,1*%
%TO.N,Net-(R131-Pad2)*%
X122596400Y-129540000D03*
%TO.P,R132,2*%
%TO.N,Net-(Q21-Pad1)*%
X124596400Y-129540000D03*
%TD*%
D29*
%TO.P,Q10,1,B*%
%TO.N,Net-(Q10-Pad1)*%
X199964000Y-71803500D03*
%TO.P,Q10,2,E*%
%TO.N,GND*%
X201864000Y-71803500D03*
%TO.P,Q10,3,C*%
%TO.N,/logique/Collecteurs ouverts/OC2*%
X200914000Y-69928500D03*
%TD*%
D11*
%TO.P,R203,1*%
%TO.N,Net-(C23-Pad1)*%
X31359600Y-111455200D03*
%TO.P,R203,2*%
%TO.N,2(\u002A\u002A)*%
X33359600Y-111455200D03*
%TD*%
D10*
%TO.P,R158,1*%
%TO.N,A13*%
X120040400Y-89525600D03*
%TO.P,R158,2*%
%TO.N,GND*%
X120040400Y-91525600D03*
%TD*%
D11*
%TO.P,R90,1*%
%TO.N,Net-(Q14-Pad1)*%
X182235600Y-108915200D03*
%TO.P,R90,2*%
%TO.N,GND*%
X184235600Y-108915200D03*
%TD*%
D10*
%TO.P,R173,1*%
%TO.N,GND*%
X36372800Y-152009600D03*
%TO.P,R173,2*%
%TO.N,A6*%
X36372800Y-154009600D03*
%TD*%
D17*
%TO.P,R46,1*%
%TO.N,VCC*%
X71729600Y-120634000D03*
%TO.P,R46,2*%
%TO.N,Net-(C11-Pad1)*%
X71729600Y-118634000D03*
%TD*%
D19*
%TO.P,R140,1*%
%TO.N,Net-(Q22-Pad1)*%
X139125200Y-132791200D03*
%TO.P,R140,2*%
%TO.N,GND*%
X137125200Y-132791200D03*
%TD*%
%TO.P,R135,1*%
%TO.N,48*%
X139836400Y-124714000D03*
%TO.P,R135,2*%
%TO.N,Net-(C22-Pad1)*%
X137836400Y-124714000D03*
%TD*%
D23*
%TO.P,C3,1*%
%TO.N,Net-(C3-Pad1)*%
X76758800Y-59203500D03*
%TO.P,C3,2*%
%TO.N,GND*%
X76758800Y-57128500D03*
%TD*%
D10*
%TO.P,R11,1*%
%TO.N,VCC*%
X209245200Y-162220400D03*
%TO.P,R11,2*%
%TO.N,Net-(J35-Pad1)*%
X209245200Y-164220400D03*
%TD*%
D19*
%TO.P,R10,1*%
%TO.N,AREF*%
X27974800Y-134264400D03*
%TO.P,R10,2*%
%TO.N,GND*%
X25974800Y-134264400D03*
%TD*%
D11*
%TO.P,R179,1*%
%TO.N,VCC*%
X224958400Y-71069200D03*
%TO.P,R179,2*%
%TO.N,Net-(JP7-Pad1)*%
X226958400Y-71069200D03*
%TD*%
D16*
%TO.P,J48,1,Pin_1*%
%TO.N,/logique/Entr\u00E9es analogiques - Extension/Extention analogique simple1/COL_AIN_EXT*%
X253565000Y-96266000D03*
D13*
%TO.P,J48,2,Pin_2*%
%TO.N,/logique/Entr\u00E9es analogiques - Extension/Extention analogique simple1/A_IN_EXT*%
X253565000Y-91266000D03*
%TD*%
D12*
%TO.P,K9,1*%
%TO.N,/logique/Bloc relais/COM9*%
X233934000Y-44187000D03*
D13*
%TO.P,K9,2*%
%TO.N,Net-(D56-Pad1)*%
X239984000Y-42237000D03*
D12*
%TO.P,K9,3*%
%TO.N,/logique/Bloc relais/NO9*%
X239984000Y-30037000D03*
%TO.P,K9,4*%
%TO.N,/logique/Bloc relais/NF9*%
X227934000Y-29987000D03*
D13*
%TO.P,K9,5*%
%TO.N,+12V*%
X227984000Y-42237000D03*
%TD*%
D11*
%TO.P,R181,1*%
%TO.N,7(\u002A\u002A)*%
X158105600Y-92608400D03*
%TO.P,R181,2*%
%TO.N,Net-(Q32-Pad1)*%
X160105600Y-92608400D03*
%TD*%
%TO.P,R178,1*%
%TO.N,Net-(Q31-Pad1)*%
X176495200Y-118821200D03*
%TO.P,R178,2*%
%TO.N,GND*%
X178495200Y-118821200D03*
%TD*%
D20*
%TO.P,D3,1,K*%
%TO.N,GND*%
X62530400Y-68935600D03*
D21*
%TO.P,D3,2,A*%
%TO.N,Net-(C4-Pad2)*%
X68330400Y-68935600D03*
%TD*%
D10*
%TO.P,R155,1*%
%TO.N,A12*%
X120091200Y-81854800D03*
%TO.P,R155,2*%
%TO.N,GND*%
X120091200Y-83854800D03*
%TD*%
D16*
%TO.P,J25,1,Pin_1*%
%TO.N,/logique/Bloc relais/NO1*%
X43608000Y-15675000D03*
D13*
%TO.P,J25,2,Pin_2*%
%TO.N,/logique/Bloc relais/COM1*%
X38608000Y-15675000D03*
%TO.P,J25,3,Pin_3*%
%TO.N,/logique/Bloc relais/NF1*%
X33608000Y-15675000D03*
%TD*%
D29*
%TO.P,Q33,1,B*%
%TO.N,Net-(Q33-Pad1)*%
X163642000Y-98067100D03*
%TO.P,Q33,2,E*%
%TO.N,GND*%
X165542000Y-98067100D03*
%TO.P,Q33,3,C*%
%TO.N,/logique/Collecteurs ouverts/OC9-PWM*%
X164592000Y-96192100D03*
%TD*%
D14*
%TO.P,JP1,1,A*%
%TO.N,Net-(JP1-Pad1)*%
X213375000Y-71120000D03*
D15*
%TO.P,JP1,2,C*%
%TO.N,/logique/Collecteurs ouverts/OC1*%
X215915000Y-71120000D03*
%TO.P,JP1,3,B*%
%TO.N,Net-(JP1-Pad3)*%
X218455000Y-71120000D03*
%TD*%
D23*
%TO.P,C16,1*%
%TO.N,Net-(C16-Pad1)*%
X54400000Y-124000000D03*
%TO.P,C16,2*%
%TO.N,GND*%
X54400000Y-121925000D03*
%TD*%
D19*
%TO.P,R142,1*%
%TO.N,Net-(R141-Pad1)*%
X242554000Y-78867000D03*
%TO.P,R142,2*%
%TO.N,A8*%
X240554000Y-78867000D03*
%TD*%
D10*
%TO.P,R62,1*%
%TO.N,GND*%
X58115200Y-155616400D03*
%TO.P,R62,2*%
%TO.N,A1*%
X58115200Y-157616400D03*
%TD*%
D16*
%TO.P,J35,1,Pin_1*%
%TO.N,Net-(J35-Pad1)*%
X210298800Y-172462800D03*
D13*
%TO.P,J35,2,Pin_2*%
%TO.N,Net-(J35-Pad2)*%
X215298800Y-172462800D03*
%TO.P,J35,3,Pin_3*%
%TO.N,Net-(J35-Pad3)*%
X220298800Y-172462800D03*
%TO.P,J35,4,Pin_4*%
%TO.N,Net-(J35-Pad4)*%
X225298800Y-172462800D03*
%TD*%
D32*
%TO.P,D26,1,K*%
%TO.N,Net-(D26-Pad1)*%
X269392400Y-59108400D03*
%TO.P,D26,2,A*%
%TO.N,/logique/Extensions/Simple extension/EI*%
X269392400Y-62608400D03*
%TD*%
D10*
%TO.P,R118,1*%
%TO.N,VCC*%
X87426800Y-161340800D03*
%TO.P,R118,2*%
%TO.N,Net-(C19-Pad1)*%
X87426800Y-163340800D03*
%TD*%
D11*
%TO.P,R126,1*%
%TO.N,Net-(R125-Pad2)*%
X108490000Y-127863600D03*
%TO.P,R126,2*%
%TO.N,Net-(Q20-Pad1)*%
X110490000Y-127863600D03*
%TD*%
D16*
%TO.P,J30,1,Pin_1*%
%TO.N,/logique/Bloc relais/NO6*%
X189200800Y-15852800D03*
D13*
%TO.P,J30,2,Pin_2*%
%TO.N,/logique/Bloc relais/COM6*%
X184200800Y-15852800D03*
%TO.P,J30,3,Pin_3*%
%TO.N,/logique/Bloc relais/NF6*%
X179200800Y-15852800D03*
%TD*%
D11*
%TO.P,R193,1*%
%TO.N,10(\u002A\u002A)*%
X146116800Y-88188800D03*
%TO.P,R193,2*%
%TO.N,Net-(Q35-Pad1)*%
X148116800Y-88188800D03*
%TD*%
D18*
%TO.P,Q17,1,G*%
%TO.N,Net-(Q17-Pad1)*%
X75969100Y-135789200D03*
%TO.P,Q17,2,S*%
%TO.N,GND*%
X75969100Y-133889200D03*
%TO.P,Q17,3,D*%
%TO.N,/logique/Extensions/Simple extension2/COL_EXT*%
X74094100Y-134839200D03*
%TD*%
D11*
%TO.P,R114,1*%
%TO.N,Net-(R113-Pad2)*%
X94504000Y-128371600D03*
%TO.P,R114,2*%
%TO.N,Net-(Q18-Pad1)*%
X96504000Y-128371600D03*
%TD*%
D10*
%TO.P,R161,1*%
%TO.N,A14*%
X120040400Y-96739200D03*
%TO.P,R161,2*%
%TO.N,GND*%
X120040400Y-98739200D03*
%TD*%
%TO.P,R16,1*%
%TO.N,+12V*%
X190093600Y-162322000D03*
%TO.P,R16,2*%
%TO.N,Net-(J37-Pad2)*%
X190093600Y-164322000D03*
%TD*%
%TO.P,R4,1*%
%TO.N,Net-(R3-Pad2)*%
X79451200Y-72542400D03*
%TO.P,R4,2*%
%TO.N,GND*%
X79451200Y-74542400D03*
%TD*%
D19*
%TO.P,R134,1*%
%TO.N,Net-(Q21-Pad1)*%
X130133600Y-129844800D03*
%TO.P,R134,2*%
%TO.N,GND*%
X128133600Y-129844800D03*
%TD*%
D14*
%TO.P,JP8,1,A*%
%TO.N,Net-(JP8-Pad1)*%
X231475000Y-78130400D03*
D15*
%TO.P,JP8,2,C*%
%TO.N,/logique/Collecteurs ouverts/OC8-PWM*%
X234015000Y-78130400D03*
%TO.P,JP8,3,B*%
%TO.N,Net-(JP8-Pad3)*%
X236555000Y-78130400D03*
%TD*%
D14*
%TO.P,JP7,1,A*%
%TO.N,Net-(JP7-Pad1)*%
X231460000Y-71500000D03*
D15*
%TO.P,JP7,2,C*%
%TO.N,/logique/Collecteurs ouverts/OC7-PWM*%
X234000000Y-71500000D03*
%TO.P,JP7,3,B*%
%TO.N,Net-(JP7-Pad3)*%
X236540000Y-71500000D03*
%TD*%
D11*
%TO.P,R45,1*%
%TO.N,/logique/Entr\u00E9es digitales/IN8*%
X65090800Y-115163600D03*
%TO.P,R45,2*%
%TO.N,Net-(C11-Pad1)*%
X67090800Y-115163600D03*
%TD*%
%TO.P,R187,1*%
%TO.N,VCC*%
X224755200Y-85598000D03*
%TO.P,R187,2*%
%TO.N,Net-(JP9-Pad1)*%
X226755200Y-85598000D03*
%TD*%
D12*
%TO.P,K2,1*%
%TO.N,/logique/Bloc relais/COM2*%
X63195200Y-43958400D03*
D13*
%TO.P,K2,2*%
%TO.N,Net-(D7-Pad1)*%
X69245200Y-42008400D03*
D12*
%TO.P,K2,3*%
%TO.N,/logique/Bloc relais/NO2*%
X69245200Y-29808400D03*
%TO.P,K2,4*%
%TO.N,/logique/Bloc relais/NF2*%
X57195200Y-29758400D03*
D13*
%TO.P,K2,5*%
%TO.N,+12V*%
X57245200Y-42008400D03*
%TD*%
D11*
%TO.P,R1,1*%
%TO.N,+12V*%
X55184800Y-67614800D03*
%TO.P,R1,2*%
%TO.N,Net-(R1-Pad2)*%
X57184800Y-67614800D03*
%TD*%
D16*
%TO.P,J53,1,Pin_1*%
%TO.N,/logique/Entr\u00E9es analogiques - Extension/Extention analogique simple4/COL_AIN_EXT*%
X223672400Y-147012000D03*
D13*
%TO.P,J53,2,Pin_2*%
%TO.N,/logique/Entr\u00E9es analogiques - Extension/Extention analogique simple4/A_IN_EXT*%
X228672400Y-147012000D03*
%TD*%
D11*
%TO.P,R195,1*%
%TO.N,VCC*%
X225263200Y-102463600D03*
%TO.P,R195,2*%
%TO.N,Net-(JP11-Pad1)*%
X227263200Y-102463600D03*
%TD*%
D35*
%TO.P,C11,1*%
%TO.N,Net-(C11-Pad1)*%
X77397700Y-118668800D03*
%TO.P,C11,2*%
%TO.N,GND*%
X79472700Y-118668800D03*
%TD*%
D11*
%TO.P,R206,1*%
%TO.N,Net-(C24-Pad1)*%
X35931600Y-144322800D03*
%TO.P,R206,2*%
%TO.N,3(\u002A\u002A)*%
X37931600Y-144322800D03*
%TD*%
D19*
%TO.P,R109,1*%
%TO.N,Net-(R107-Pad2)*%
X70392800Y-132486400D03*
%TO.P,R109,2*%
%TO.N,Net-(D30-Pad1)*%
X68392800Y-132486400D03*
%TD*%
D36*
%TO.P,D4,1,K*%
%TO.N,Net-(C5-Pad1)*%
X66751200Y-63663200D03*
%TO.P,D4,2,A*%
%TO.N,Net-(C4-Pad1)*%
X66751200Y-58663200D03*
%TD*%
D16*
%TO.P,J15,1,Pin_1*%
%TO.N,/logique/Entr\u00E9es digitales/IN6*%
X43332400Y-88900000D03*
D13*
%TO.P,J15,2,Pin_2*%
%TO.N,GND*%
X43332400Y-93900000D03*
%TD*%
D19*
%TO.P,R123,1*%
%TO.N,49*%
X103514400Y-129235200D03*
%TO.P,R123,2*%
%TO.N,Net-(C20-Pad1)*%
X101514400Y-129235200D03*
%TD*%
D17*
%TO.P,R67,1*%
%TO.N,Net-(R66-Pad2)*%
X67767200Y-159445200D03*
%TO.P,R67,2*%
%TO.N,A3*%
X67767200Y-157445200D03*
%TD*%
D11*
%TO.P,R125,1*%
%TO.N,Net-(C20-Pad1)*%
X101565200Y-133705600D03*
%TO.P,R125,2*%
%TO.N,Net-(R125-Pad2)*%
X103565200Y-133705600D03*
%TD*%
D26*
%TO.P,C22,1*%
%TO.N,Net-(C22-Pad1)*%
X132507900Y-124917200D03*
%TO.P,C22,2*%
%TO.N,GND*%
X130432900Y-124917200D03*
%TD*%
D19*
%TO.P,R6,1*%
%TO.N,Net-(D5-Pad1)*%
X81635600Y-93980000D03*
%TO.P,R6,2*%
%TO.N,GND*%
X79635600Y-93980000D03*
%TD*%
D10*
%TO.P,R18,1*%
%TO.N,+12V*%
X200406000Y-162372800D03*
%TO.P,R18,2*%
%TO.N,Net-(J37-Pad4)*%
X200406000Y-164372800D03*
%TD*%
D16*
%TO.P,J21,1,Pin_1*%
%TO.N,/logique/Collecteurs ouverts/OC5-PWM*%
X81261400Y-172469200D03*
D13*
%TO.P,J21,2,Pin_2*%
%TO.N,/logique/Collecteurs ouverts/OC6-PWM*%
X86261400Y-172469200D03*
%TO.P,J21,3,Pin_3*%
%TO.N,/logique/Collecteurs ouverts/OC7-PWM*%
X91261400Y-172469200D03*
%TO.P,J21,4,Pin_4*%
%TO.N,/logique/Collecteurs ouverts/OC8-PWM*%
X96261400Y-172469200D03*
%TO.P,J21,5,Pin_5*%
%TO.N,/logique/Collecteurs ouverts/OC9-PWM*%
X101261400Y-172469200D03*
%TO.P,J21,6,Pin_6*%
%TO.N,/logique/Collecteurs ouverts/OC10-PWM*%
X106261400Y-172469200D03*
%TO.P,J21,7,Pin_7*%
%TO.N,/logique/Collecteurs ouverts/OC11-PWM*%
X111261400Y-172469200D03*
%TO.P,J21,8,Pin_8*%
%TO.N,/logique/Collecteurs ouverts/OC12-PWM*%
X116261400Y-172469200D03*
%TO.P,J21,9,Pin_9*%
%TO.N,GND*%
X121261400Y-172469200D03*
%TO.P,J21,10,Pin_10*%
X126261400Y-172469200D03*
%TO.P,J21,11,Pin_11*%
X131261400Y-172469200D03*
%TO.P,J21,12,Pin_12*%
X136261400Y-172469200D03*
%TD*%
D16*
%TO.P,J7,1,Pin_1*%
%TO.N,GND*%
X283410000Y-140526000D03*
D13*
%TO.P,J7,2,Pin_2*%
%TO.N,VCC*%
X283410000Y-135526000D03*
%TO.P,J7,3,Pin_3*%
%TO.N,20(SDA)*%
X283410000Y-130526000D03*
%TO.P,J7,4,Pin_4*%
%TO.N,21(SCL)*%
X283410000Y-125526000D03*
%TD*%
D19*
%TO.P,R107,1*%
%TO.N,Net-(C17-Pad1)*%
X77098400Y-140157200D03*
%TO.P,R107,2*%
%TO.N,Net-(R107-Pad2)*%
X75098400Y-140157200D03*
%TD*%
D11*
%TO.P,R148,1*%
%TO.N,Net-(R147-Pad1)*%
X270154400Y-101549200D03*
%TO.P,R148,2*%
%TO.N,A10*%
X272154400Y-101549200D03*
%TD*%
D22*
%TO.P,Q9,1,B*%
%TO.N,Net-(Q9-Pad1)*%
X214149700Y-63972400D03*
%TO.P,Q9,2,E*%
%TO.N,GND*%
X214149700Y-65872400D03*
%TO.P,Q9,3,C*%
%TO.N,/logique/Collecteurs ouverts/OC1*%
X216024700Y-64922400D03*
%TD*%
D37*
%TO.P,D36,1,K*%
%TO.N,Net-(D36-Pad1)*%
X107825600Y-137058400D03*
%TO.P,D36,2,A*%
%TO.N,/logique/Extensions/Simple extension7/EI*%
X111325600Y-137058400D03*
%TD*%
D14*
%TO.P,JP9,1,A*%
%TO.N,Net-(JP9-Pad1)*%
X231475000Y-85598000D03*
D15*
%TO.P,JP9,2,C*%
%TO.N,/logique/Collecteurs ouverts/OC9-PWM*%
X234015000Y-85598000D03*
%TO.P,JP9,3,B*%
%TO.N,Net-(JP9-Pad3)*%
X236555000Y-85598000D03*
%TD*%
D34*
%TO.P,P7,1,Pin_1*%
%TO.N,SCL*%
X179852000Y-70866000D03*
%TO.P,P7,2,Pin_2*%
%TO.N,SDA*%
X177312000Y-70866000D03*
%TO.P,P7,3,Pin_3*%
%TO.N,AREF*%
X174772000Y-70866000D03*
%TO.P,P7,4,Pin_4*%
%TO.N,GND*%
X172232000Y-70866000D03*
%TO.P,P7,5,Pin_5*%
%TO.N,13(\u002A\u002A)*%
X169692000Y-70866000D03*
%TO.P,P7,6,Pin_6*%
%TO.N,12(\u002A\u002A)*%
X167152000Y-70866000D03*
%TO.P,P7,7,Pin_7*%
%TO.N,11(\u002A\u002A)*%
X164612000Y-70866000D03*
%TO.P,P7,8,Pin_8*%
%TO.N,10(\u002A\u002A)*%
X162072000Y-70866000D03*
%TO.P,P7,9,Pin_9*%
%TO.N,9(\u002A\u002A)*%
X159532000Y-70866000D03*
%TO.P,P7,10,Pin_10*%
%TO.N,8(\u002A\u002A)*%
X156992000Y-70866000D03*
%TD*%
D31*
%TO.P,C14,1*%
%TO.N,Net-(C14-Pad1)*%
X71374000Y-105867200D03*
%TO.P,C14,2*%
%TO.N,GND*%
X71374000Y-107942200D03*
%TD*%
D17*
%TO.P,R110,1*%
%TO.N,Net-(Q17-Pad1)*%
X79502000Y-135991600D03*
%TO.P,R110,2*%
%TO.N,GND*%
X79502000Y-133991600D03*
%TD*%
D10*
%TO.P,R177,1*%
%TO.N,6(\u002A\u002A)*%
X169621200Y-112284000D03*
%TO.P,R177,2*%
%TO.N,Net-(Q31-Pad1)*%
X169621200Y-114284000D03*
%TD*%
D11*
%TO.P,R189,1*%
%TO.N,9(\u002A\u002A)*%
X157851600Y-113639600D03*
%TO.P,R189,2*%
%TO.N,Net-(Q34-Pad1)*%
X159851600Y-113639600D03*
%TD*%
D16*
%TO.P,J22,1,Pin_1*%
%TO.N,/logique/Entr\u00E9es analogiques/ANALOG5*%
X25038200Y-172618400D03*
D13*
%TO.P,J22,2,Pin_2*%
%TO.N,/logique/Entr\u00E9es analogiques/ANALOG6*%
X30038200Y-172618400D03*
%TO.P,J22,3,Pin_3*%
%TO.N,/logique/Entr\u00E9es analogiques/ANALOG7*%
X35038200Y-172618400D03*
%TO.P,J22,4,Pin_4*%
%TO.N,/logique/Entr\u00E9es analogiques/ANALOG8*%
X40038200Y-172618400D03*
%TO.P,J22,5,Pin_5*%
%TO.N,GND*%
X45038200Y-172618400D03*
%TD*%
D16*
%TO.P,J54,1,Pin_1*%
%TO.N,/logique/Entr\u00E9es analogiques - Extension/Extention analogique simple7/COL_AIN_EXT*%
X210870800Y-147062800D03*
D13*
%TO.P,J54,2,Pin_2*%
%TO.N,/logique/Entr\u00E9es analogiques - Extension/Extention analogique simple7/A_IN_EXT*%
X215870800Y-147062800D03*
%TD*%
D12*
%TO.P,K4,1*%
%TO.N,/logique/Bloc relais/COM4*%
X110236000Y-43704400D03*
D13*
%TO.P,K4,2*%
%TO.N,Net-(D9-Pad1)*%
X116286000Y-41754400D03*
D12*
%TO.P,K4,3*%
%TO.N,/logique/Bloc relais/NO4*%
X116286000Y-29554400D03*
%TO.P,K4,4*%
%TO.N,/logique/Bloc relais/NF4*%
X104236000Y-29504400D03*
D13*
%TO.P,K4,5*%
%TO.N,+12V*%
X104286000Y-41754400D03*
%TD*%
D10*
%TO.P,R152,1*%
%TO.N,A11*%
X108915200Y-104105200D03*
%TO.P,R152,2*%
%TO.N,GND*%
X108915200Y-106105200D03*
%TD*%
D17*
%TO.P,R116,1*%
%TO.N,Net-(Q18-Pad1)*%
X97129600Y-136178800D03*
%TO.P,R116,2*%
%TO.N,GND*%
X97129600Y-134178800D03*
%TD*%
D35*
%TO.P,C23,1*%
%TO.N,Net-(C23-Pad1)*%
X31068100Y-116586000D03*
%TO.P,C23,2*%
%TO.N,GND*%
X33143100Y-116586000D03*
%TD*%
D29*
%TO.P,Q34,1,B*%
%TO.N,Net-(Q34-Pad1)*%
X163896000Y-108836700D03*
%TO.P,Q34,2,E*%
%TO.N,GND*%
X165796000Y-108836700D03*
%TO.P,Q34,3,C*%
%TO.N,/logique/Collecteurs ouverts/OC10-PWM*%
X164846000Y-106961700D03*
%TD*%
D19*
%TO.P,R144,1*%
%TO.N,Net-(R144-Pad1)*%
X266531600Y-87579200D03*
%TO.P,R144,2*%
%TO.N,/logique/Entr\u00E9es analogiques - Extension/Extention analogique simple1/A_IN_EXT*%
X264531600Y-87579200D03*
%TD*%
%TO.P,R130,1*%
%TO.N,VCC*%
X122412000Y-125171200D03*
%TO.P,R130,2*%
%TO.N,Net-(C21-Pad1)*%
X120412000Y-125171200D03*
%TD*%
D16*
%TO.P,J1,1,Pin_1*%
%TO.N,Net-(D1-Pad1)*%
X15802000Y-28434800D03*
D13*
%TO.P,J1,2,Pin_2*%
X15802000Y-33434800D03*
%TO.P,J1,3,Pin_3*%
%TO.N,GND*%
X15802000Y-38434800D03*
%TO.P,J1,4,Pin_4*%
X15802000Y-43434800D03*
%TD*%
D16*
%TO.P,J45,1,Pin_1*%
%TO.N,/logique/Extensions/Simple extension7/EI*%
X114655600Y-147062800D03*
D13*
%TO.P,J45,2,Pin_2*%
%TO.N,/logique/Extensions/Simple extension7/COL_EXT*%
X119655600Y-147062800D03*
%TD*%
D16*
%TO.P,J5,1,Pin_1*%
%TO.N,/logique/Entr\u00E9es digitales/IN3*%
X15903600Y-90525600D03*
D13*
%TO.P,J5,2,Pin_2*%
%TO.N,GND*%
X15903600Y-95525600D03*
%TD*%
D30*
%TO.P,Q16,1,G*%
%TO.N,Net-(Q16-Pad1)*%
X60741600Y-137289300D03*
%TO.P,Q16,2,S*%
%TO.N,GND*%
X58841600Y-137289300D03*
%TO.P,Q16,3,D*%
%TO.N,/logique/Extensions/Simple extension1/COL_EXT*%
X59791600Y-139164300D03*
%TD*%
D16*
%TO.P,J26,1,Pin_1*%
%TO.N,/logique/Bloc relais/NO2*%
X67433200Y-15827400D03*
D13*
%TO.P,J26,2,Pin_2*%
%TO.N,/logique/Bloc relais/COM2*%
X62433200Y-15827400D03*
%TO.P,J26,3,Pin_3*%
%TO.N,/logique/Bloc relais/NF2*%
X57433200Y-15827400D03*
%TD*%
D11*
%TO.P,R183,1*%
%TO.N,VCC*%
X224755200Y-78333600D03*
%TO.P,R183,2*%
%TO.N,Net-(JP8-Pad1)*%
X226755200Y-78333600D03*
%TD*%
D10*
%TO.P,R68,1*%
%TO.N,GND*%
X71475600Y-155651200D03*
%TO.P,R68,2*%
%TO.N,A3*%
X71475600Y-157651200D03*
%TD*%
D29*
%TO.P,Q32,1,B*%
%TO.N,Net-(Q32-Pad1)*%
X163540400Y-88618300D03*
%TO.P,Q32,2,E*%
%TO.N,GND*%
X165440400Y-88618300D03*
%TO.P,Q32,3,C*%
%TO.N,/logique/Collecteurs ouverts/OC8-PWM*%
X164490400Y-86743300D03*
%TD*%
D11*
%TO.P,R197,1*%
%TO.N,11(\u002A\u002A)*%
X146320000Y-105460800D03*
%TO.P,R197,2*%
%TO.N,Net-(Q36-Pad1)*%
X148320000Y-105460800D03*
%TD*%
%TO.P,R48,1*%
%TO.N,/logique/Entr\u00E9es digitales/IN5*%
X63414400Y-77470000D03*
%TO.P,R48,2*%
%TO.N,Net-(C12-Pad1)*%
X65414400Y-77470000D03*
%TD*%
D16*
%TO.P,J38,1,Pin_1*%
%TO.N,+12V*%
X186168800Y-146961200D03*
D13*
%TO.P,J38,2,Pin_2*%
X191168800Y-146961200D03*
%TO.P,J38,3,Pin_3*%
X196168800Y-146961200D03*
%TO.P,J38,4,Pin_4*%
X201168800Y-146961200D03*
%TD*%
D32*
%TO.P,D40,1,K*%
%TO.N,Net-(D40-Pad1)*%
X143713200Y-133733600D03*
%TO.P,D40,2,A*%
%TO.N,/logique/Extensions/Simple extension4/EI*%
X143713200Y-137233600D03*
%TD*%
D16*
%TO.P,J49,1,Pin_1*%
%TO.N,/logique/Entr\u00E9es analogiques - Extension/Extention analogique simple2/COL_AIN_EXT*%
X254000000Y-111760000D03*
D13*
%TO.P,J49,2,Pin_2*%
%TO.N,/logique/Entr\u00E9es analogiques - Extension/Extention analogique simple2/A_IN_EXT*%
X254000000Y-106760000D03*
%TD*%
D16*
%TO.P,J47,1,Pin_1*%
%TO.N,/logique/Entr\u00E9es analogiques - Extension/Extention analogique simple/COL_AIN_EXT*%
X253238000Y-82296000D03*
D13*
%TO.P,J47,2,Pin_2*%
%TO.N,/logique/Entr\u00E9es analogiques - Extension/Extention analogique simple/A_IN_EXT*%
X253238000Y-77296000D03*
%TD*%
D31*
%TO.P,C13,1*%
%TO.N,Net-(C13-Pad1)*%
X65786000Y-94415700D03*
%TO.P,C13,2*%
%TO.N,GND*%
X65786000Y-96490700D03*
%TD*%
D17*
%TO.P,R168,1*%
%TO.N,/logique/Entr\u00E9es analogiques/ANALOG6*%
X30210000Y-162798000D03*
%TO.P,R168,2*%
%TO.N,Net-(R168-Pad2)*%
X30210000Y-160798000D03*
%TD*%
D29*
%TO.P,Q11,1,B*%
%TO.N,Net-(Q11-Pad1)*%
X173903600Y-78712300D03*
%TO.P,Q11,2,E*%
%TO.N,GND*%
X175803600Y-78712300D03*
%TO.P,Q11,3,C*%
%TO.N,/logique/Collecteurs ouverts/OC3*%
X174853600Y-76837300D03*
%TD*%
D10*
%TO.P,R15,1*%
%TO.N,+12V*%
X185318400Y-162372800D03*
%TO.P,R15,2*%
%TO.N,Net-(J37-Pad1)*%
X185318400Y-164372800D03*
%TD*%
D11*
%TO.P,R185,1*%
%TO.N,8(\u002A\u002A)*%
X158816800Y-102819200D03*
%TO.P,R185,2*%
%TO.N,Net-(Q33-Pad1)*%
X160816800Y-102819200D03*
%TD*%
D16*
%TO.P,J24,1,Pin_1*%
%TO.N,/logique/Collecteurs ouverts/OC1*%
X144216400Y-172412000D03*
D13*
%TO.P,J24,2,Pin_2*%
%TO.N,/logique/Collecteurs ouverts/OC2*%
X149216400Y-172412000D03*
%TO.P,J24,3,Pin_3*%
%TO.N,/logique/Collecteurs ouverts/OC3*%
X154216400Y-172412000D03*
%TO.P,J24,4,Pin_4*%
%TO.N,/logique/Collecteurs ouverts/OC4*%
X159216400Y-172412000D03*
%TO.P,J24,5,Pin_5*%
%TO.N,GND*%
X164216400Y-172412000D03*
%TO.P,J24,6,Pin_6*%
X169216400Y-172412000D03*
%TO.P,J24,7,Pin_7*%
X174216400Y-172412000D03*
%TO.P,J24,8,Pin_8*%
X179216400Y-172412000D03*
%TD*%
D16*
%TO.P,J6,1,Pin_1*%
%TO.N,/logique/Entr\u00E9es digitales/IN4*%
X15903600Y-103225600D03*
D13*
%TO.P,J6,2,Pin_2*%
%TO.N,GND*%
X15903600Y-108225600D03*
%TD*%
D11*
%TO.P,R182,1*%
%TO.N,Net-(Q32-Pad1)*%
X163541200Y-92557600D03*
%TO.P,R182,2*%
%TO.N,GND*%
X165541200Y-92557600D03*
%TD*%
D16*
%TO.P,J46,1,Pin_1*%
%TO.N,/logique/Extensions/Simple extension4/EI*%
X143005000Y-147062800D03*
D13*
%TO.P,J46,2,Pin_2*%
%TO.N,/logique/Extensions/Simple extension4/COL_EXT*%
X148005000Y-147062800D03*
%TD*%
D22*
%TO.P,Q39,1,B*%
%TO.N,Net-(Q39-Pad1)*%
X139397500Y-52517000D03*
%TO.P,Q39,2,E*%
%TO.N,GND*%
X139397500Y-54417000D03*
%TO.P,Q39,3,C*%
%TO.N,Net-(BZ1-Pad2)*%
X141272500Y-53467000D03*
%TD*%
D19*
%TO.P,R212,1*%
%TO.N,Net-(Q39-Pad1)*%
X135747000Y-52705000D03*
%TO.P,R212,2*%
%TO.N,VCC*%
X133747000Y-52705000D03*
%TD*%
D37*
%TO.P,D38,1,K*%
%TO.N,Net-(D38-Pad1)*%
X123167200Y-137820400D03*
%TO.P,D38,2,A*%
%TO.N,/logique/Extensions/Simple extension5/EI*%
X126667200Y-137820400D03*
%TD*%
D10*
%TO.P,R167,1*%
%TO.N,GND*%
X18491200Y-155194000D03*
%TO.P,R167,2*%
%TO.N,A4*%
X18491200Y-157194000D03*
%TD*%
D16*
%TO.P,J42,1,Pin_1*%
%TO.N,/logique/Extensions/Simple extension3/EI*%
X84966000Y-147062800D03*
D13*
%TO.P,J42,2,Pin_2*%
%TO.N,/logique/Extensions/Simple extension3/COL_EXT*%
X89966000Y-147062800D03*
%TD*%
D16*
%TO.P,J18,1,Pin_1*%
%TO.N,GND*%
X283206800Y-69152000D03*
D13*
%TO.P,J18,2,Pin_2*%
%TO.N,VCC*%
X283206800Y-64152000D03*
%TO.P,J18,3,Pin_3*%
%TO.N,15(Rx3)*%
X283206800Y-59152000D03*
%TO.P,J18,4,Pin_4*%
%TO.N,14(Tx3)*%
X283206800Y-54152000D03*
%TD*%
D16*
%TO.P,J29,1,Pin_1*%
%TO.N,/logique/Bloc relais/NO5*%
X213330800Y-15852800D03*
D13*
%TO.P,J29,2,Pin_2*%
%TO.N,/logique/Bloc relais/COM5*%
X208330800Y-15852800D03*
%TO.P,J29,3,Pin_3*%
%TO.N,/logique/Bloc relais/NF5*%
X203330800Y-15852800D03*
%TD*%
D10*
%TO.P,R133,1*%
%TO.N,Net-(R131-Pad2)*%
X123240800Y-132908800D03*
%TO.P,R133,2*%
%TO.N,Net-(D38-Pad1)*%
X123240800Y-134908800D03*
%TD*%
D38*
%TO.P,C5,1*%
%TO.N,Net-(C5-Pad1)*%
X91287200Y-76454000D03*
%TO.P,C5,2*%
%TO.N,GND*%
X84887200Y-76454000D03*
%TD*%
D17*
%TO.P,R121,1*%
%TO.N,Net-(R119-Pad2)*%
X95961200Y-160715200D03*
%TO.P,R121,2*%
%TO.N,Net-(D34-Pad1)*%
X95961200Y-158715200D03*
%TD*%
D29*
%TO.P,Q12,1,B*%
%TO.N,Net-(Q12-Pad1)*%
X174716400Y-88567500D03*
%TO.P,Q12,2,E*%
%TO.N,GND*%
X176616400Y-88567500D03*
%TO.P,Q12,3,C*%
%TO.N,/logique/Collecteurs ouverts/OC4*%
X175666400Y-86692500D03*
%TD*%
D16*
%TO.P,J10,1,Pin_1*%
%TO.N,GND*%
X283156000Y-93942400D03*
D13*
%TO.P,J10,2,Pin_2*%
%TO.N,VCC*%
X283156000Y-88942400D03*
%TO.P,J10,3,Pin_3*%
%TO.N,19(Rx1)*%
X283156000Y-83942400D03*
%TO.P,J10,4,Pin_4*%
%TO.N,18(Tx1)*%
X283156000Y-78942400D03*
%TD*%
D31*
%TO.P,C12,1*%
%TO.N,Net-(C12-Pad1)*%
X65430400Y-81491000D03*
%TO.P,C12,2*%
%TO.N,GND*%
X65430400Y-83566000D03*
%TD*%
D39*
%TO.P,U1,1,BOOST*%
%TO.N,Net-(C4-Pad1)*%
X71591400Y-61239400D03*
%TO.P,U1,2,VIN*%
%TO.N,+12V*%
X71591400Y-62509400D03*
%TO.P,U1,3,VSW*%
%TO.N,Net-(C4-Pad2)*%
X71591400Y-63779400D03*
%TO.P,U1,4,BIAS*%
%TO.N,Net-(C5-Pad1)*%
X71591400Y-65049400D03*
%TO.P,U1,5,\u002ASHDN*%
%TO.N,Net-(R1-Pad2)*%
X76541400Y-65049400D03*
%TO.P,U1,6,GND*%
%TO.N,GND*%
X76541400Y-63779400D03*
%TO.P,U1,7,FB/SENSE*%
%TO.N,Net-(R3-Pad2)*%
X76541400Y-62509400D03*
%TO.P,U1,8,VC*%
%TO.N,Net-(C3-Pad1)*%
X76541400Y-61239400D03*
%TD*%
D11*
%TO.P,R191,1*%
%TO.N,VCC*%
X224891600Y-93472000D03*
%TO.P,R191,2*%
%TO.N,Net-(JP10-Pad1)*%
X226891600Y-93472000D03*
%TD*%
D37*
%TO.P,D32,1,K*%
%TO.N,Net-(D32-Pad1)*%
X88465600Y-130759200D03*
%TO.P,D32,2,A*%
%TO.N,/logique/Extensions/Simple extension3/EI*%
X84965600Y-130759200D03*
%TD*%
D17*
%TO.P,R64,1*%
%TO.N,Net-(R63-Pad2)*%
X61366400Y-159242000D03*
%TO.P,R64,2*%
%TO.N,A2*%
X61366400Y-157242000D03*
%TD*%
D10*
%TO.P,R170,1*%
%TO.N,GND*%
X30276800Y-151654000D03*
%TO.P,R170,2*%
%TO.N,A5*%
X30276800Y-153654000D03*
%TD*%
D29*
%TO.P,Q35,1,B*%
%TO.N,Net-(Q35-Pad1)*%
X151653200Y-83639900D03*
%TO.P,Q35,2,E*%
%TO.N,GND*%
X153553200Y-83639900D03*
%TO.P,Q35,3,C*%
%TO.N,/logique/Collecteurs ouverts/OC11-PWM*%
X152603200Y-81764900D03*
%TD*%
D11*
%TO.P,R53,1*%
%TO.N,Net-(C13-Pad1)*%
X70221600Y-90220800D03*
%TO.P,R53,2*%
%TO.N,32*%
X72221600Y-90220800D03*
%TD*%
D22*
%TO.P,Q28,1,G*%
%TO.N,A13*%
X124030500Y-89372400D03*
%TO.P,Q28,2,S*%
%TO.N,GND*%
X124030500Y-91272400D03*
%TO.P,Q28,3,D*%
%TO.N,/logique/Entr\u00E9es analogiques - Extension/Extention analogique simple6/COL_AIN_EXT*%
X125905500Y-90322400D03*
%TD*%
D19*
%TO.P,R151,1*%
%TO.N,Net-(R150-Pad1)*%
X237728000Y-121818400D03*
%TO.P,R151,2*%
%TO.N,A11*%
X235728000Y-121818400D03*
%TD*%
D10*
%TO.P,R65,1*%
%TO.N,GND*%
X64668400Y-155718000D03*
%TO.P,R65,2*%
%TO.N,A2*%
X64668400Y-157718000D03*
%TD*%
D19*
%TO.P,R115,1*%
%TO.N,Net-(R113-Pad2)*%
X90611200Y-126034800D03*
%TO.P,R115,2*%
%TO.N,Net-(D32-Pad1)*%
X88611200Y-126034800D03*
%TD*%
D10*
%TO.P,R12,1*%
%TO.N,VCC*%
X214223600Y-162220400D03*
%TO.P,R12,2*%
%TO.N,Net-(J35-Pad2)*%
X214223600Y-164220400D03*
%TD*%
D23*
%TO.P,C17,1*%
%TO.N,Net-(C17-Pad1)*%
X83566000Y-137638700D03*
%TO.P,C17,2*%
%TO.N,GND*%
X83566000Y-135563700D03*
%TD*%
D19*
%TO.P,R128,1*%
%TO.N,Net-(Q20-Pad1)*%
X117027200Y-129641600D03*
%TO.P,R128,2*%
%TO.N,GND*%
X115027200Y-129641600D03*
%TD*%
D11*
%TO.P,R78,1*%
%TO.N,Net-(Q11-Pad1)*%
X174209200Y-82702400D03*
%TO.P,R78,2*%
%TO.N,GND*%
X176209200Y-82702400D03*
%TD*%
%TO.P,R199,1*%
%TO.N,VCC*%
X224856800Y-109270800D03*
%TO.P,R199,2*%
%TO.N,Net-(JP12-Pad1)*%
X226856800Y-109270800D03*
%TD*%
D17*
%TO.P,R166,1*%
%TO.N,Net-(R165-Pad2)*%
X18440400Y-161934400D03*
%TO.P,R166,2*%
%TO.N,A4*%
X18440400Y-159934400D03*
%TD*%
D11*
%TO.P,R145,1*%
%TO.N,Net-(R144-Pad1)*%
X269967200Y-87630000D03*
%TO.P,R145,2*%
%TO.N,A9*%
X271967200Y-87630000D03*
%TD*%
%TO.P,R87,1*%
%TO.N,VCC*%
X205756000Y-102006400D03*
%TO.P,R87,2*%
%TO.N,Net-(JP5-Pad1)*%
X207756000Y-102006400D03*
%TD*%
D14*
%TO.P,JP2,1,A*%
%TO.N,Net-(JP2-Pad1)*%
X213207600Y-77724000D03*
D15*
%TO.P,JP2,2,C*%
%TO.N,/logique/Collecteurs ouverts/OC2*%
X215747600Y-77724000D03*
%TO.P,JP2,3,B*%
%TO.N,Net-(JP2-Pad3)*%
X218287600Y-77724000D03*
%TD*%
D12*
%TO.P,K5,1*%
%TO.N,/logique/Bloc relais/COM8*%
X134264400Y-43755200D03*
D13*
%TO.P,K5,2*%
%TO.N,Net-(D10-Pad1)*%
X140314400Y-41805200D03*
D12*
%TO.P,K5,3*%
%TO.N,/logique/Bloc relais/NO8*%
X140314400Y-29605200D03*
%TO.P,K5,4*%
%TO.N,/logique/Bloc relais/NF8*%
X128264400Y-29555200D03*
D13*
%TO.P,K5,5*%
%TO.N,+12V*%
X128314400Y-41805200D03*
%TD*%
D11*
%TO.P,R51,1*%
%TO.N,/logique/Entr\u00E9es digitales/IN6*%
X63871600Y-90220800D03*
%TO.P,R51,2*%
%TO.N,Net-(C13-Pad1)*%
X65871600Y-90220800D03*
%TD*%
D12*
%TO.P,K3,1*%
%TO.N,/logique/Bloc relais/COM3*%
X85953600Y-43958400D03*
D13*
%TO.P,K3,2*%
%TO.N,Net-(D8-Pad1)*%
X92003600Y-42008400D03*
D12*
%TO.P,K3,3*%
%TO.N,/logique/Bloc relais/NO3*%
X92003600Y-29808400D03*
%TO.P,K3,4*%
%TO.N,/logique/Bloc relais/NF3*%
X79953600Y-29758400D03*
D13*
%TO.P,K3,5*%
%TO.N,+12V*%
X80003600Y-42008400D03*
%TD*%
D22*
%TO.P,Q23,1,G*%
%TO.N,A8*%
X112600500Y-82006400D03*
%TO.P,Q23,2,S*%
%TO.N,GND*%
X112600500Y-83906400D03*
%TO.P,Q23,3,D*%
%TO.N,/logique/Entr\u00E9es analogiques - Extension/Extention analogique simple/COL_AIN_EXT*%
X114475500Y-82956400D03*
%TD*%
D19*
%TO.P,R136,1*%
%TO.N,VCC*%
X276234400Y-64211200D03*
%TO.P,R136,2*%
%TO.N,Net-(C22-Pad1)*%
X274234400Y-64211200D03*
%TD*%
D16*
%TO.P,J2,1,Pin_1*%
%TO.N,VCC*%
X15700400Y-51663600D03*
D13*
%TO.P,J2,2,Pin_2*%
%TO.N,GND*%
X15700400Y-56663600D03*
%TD*%
D11*
%TO.P,R129,1*%
%TO.N,46*%
X108474000Y-123190000D03*
%TO.P,R129,2*%
%TO.N,Net-(C21-Pad1)*%
X110474000Y-123190000D03*
%TD*%
D40*
%TO.P,BZ1,1,-*%
%TO.N,+12V*%
X151790400Y-54310400D03*
D24*
%TO.P,BZ1,2,+*%
%TO.N,Net-(BZ1-Pad2)*%
X151790400Y-60810400D03*
%TD*%
D11*
%TO.P,R73,1*%
%TO.N,40*%
X194275200Y-75387200D03*
%TO.P,R73,2*%
%TO.N,Net-(Q10-Pad1)*%
X196275200Y-75387200D03*
%TD*%
D16*
%TO.P,J51,1,Pin_1*%
%TO.N,/logique/Entr\u00E9es analogiques - Extension/Extention analogique simple5/COL_AIN_EXT*%
X254000000Y-142160000D03*
D13*
%TO.P,J51,2,Pin_2*%
%TO.N,/logique/Entr\u00E9es analogiques - Extension/Extention analogique simple5/A_IN_EXT*%
X254000000Y-137160000D03*
%TD*%
D11*
%TO.P,R120,1*%
%TO.N,Net-(R119-Pad2)*%
X99177600Y-162610800D03*
%TO.P,R120,2*%
%TO.N,Net-(Q19-Pad1)*%
X101177600Y-162610800D03*
%TD*%
D10*
%TO.P,R59,1*%
%TO.N,GND*%
X49022000Y-152263600D03*
%TO.P,R59,2*%
%TO.N,A0*%
X49022000Y-154263600D03*
%TD*%
D16*
%TO.P,J16,1,Pin_1*%
%TO.N,/logique/Entr\u00E9es digitales/IN5*%
X43434000Y-76327000D03*
D13*
%TO.P,J16,2,Pin_2*%
%TO.N,GND*%
X43434000Y-81327000D03*
%TD*%
D11*
%TO.P,R204,1*%
%TO.N,/logique/Entr\u00E9es digitales/IN9*%
X26432000Y-144322800D03*
%TO.P,R204,2*%
%TO.N,Net-(C24-Pad1)*%
X28432000Y-144322800D03*
%TD*%
%TO.P,R85,1*%
%TO.N,4(\u002A\u002A)*%
X180762400Y-98247200D03*
%TO.P,R85,2*%
%TO.N,Net-(Q13-Pad1)*%
X182762400Y-98247200D03*
%TD*%
D16*
%TO.P,J23,1,Pin_1*%
%TO.N,/logique/Entr\u00E9es analogiques/ANALOG1*%
X52521000Y-172618400D03*
D13*
%TO.P,J23,2,Pin_2*%
%TO.N,/logique/Entr\u00E9es analogiques/ANALOG2*%
X57521000Y-172618400D03*
%TO.P,J23,3,Pin_3*%
%TO.N,/logique/Entr\u00E9es analogiques/ANALOG3*%
X62521000Y-172618400D03*
%TO.P,J23,4,Pin_4*%
%TO.N,/logique/Entr\u00E9es analogiques/ANALOG4*%
X67521000Y-172618400D03*
%TO.P,J23,5,Pin_5*%
%TO.N,GND*%
X72521000Y-172618400D03*
%TD*%
D19*
%TO.P,R55,1*%
%TO.N,VCC*%
X80400400Y-101752400D03*
%TO.P,R55,2*%
%TO.N,Net-(C14-Pad1)*%
X78400400Y-101752400D03*
%TD*%
D11*
%TO.P,R124,1*%
%TO.N,VCC*%
X99346000Y-139598400D03*
%TO.P,R124,2*%
%TO.N,Net-(C20-Pad1)*%
X101346000Y-139598400D03*
%TD*%
D17*
%TO.P,R56,1*%
%TO.N,Net-(C14-Pad1)*%
X71755000Y-101965000D03*
%TO.P,R56,2*%
%TO.N,34*%
X71755000Y-99965000D03*
%TD*%
D10*
%TO.P,R176,1*%
%TO.N,GND*%
X42926000Y-152212800D03*
%TO.P,R176,2*%
%TO.N,A7*%
X42926000Y-154212800D03*
%TD*%
D19*
%TO.P,R147,1*%
%TO.N,Net-(R147-Pad1)*%
X266684000Y-101447600D03*
%TO.P,R147,2*%
%TO.N,/logique/Entr\u00E9es analogiques - Extension/Extention analogique simple2/A_IN_EXT*%
X264684000Y-101447600D03*
%TD*%
D11*
%TO.P,R82,1*%
%TO.N,Net-(Q12-Pad1)*%
X174818800Y-92151200D03*
%TO.P,R82,2*%
%TO.N,GND*%
X176818800Y-92151200D03*
%TD*%
D26*
%TO.P,C20,1*%
%TO.N,Net-(C20-Pad1)*%
X94509500Y-139598400D03*
%TO.P,C20,2*%
%TO.N,GND*%
X92434500Y-139598400D03*
%TD*%
D19*
%TO.P,R100,1*%
%TO.N,VCC*%
X63855600Y-124155200D03*
%TO.P,R100,2*%
%TO.N,Net-(C16-Pad1)*%
X61855600Y-124155200D03*
%TD*%
D17*
%TO.P,R61,1*%
%TO.N,Net-(R60-Pad2)*%
X55524400Y-159089600D03*
%TO.P,R61,2*%
%TO.N,A1*%
X55524400Y-157089600D03*
%TD*%
D10*
%TO.P,R164,1*%
%TO.N,A15*%
X119938800Y-103546400D03*
%TO.P,R164,2*%
%TO.N,GND*%
X119938800Y-105546400D03*
%TD*%
%TO.P,R131,1*%
%TO.N,Net-(C21-Pad1)*%
X119227600Y-132248400D03*
%TO.P,R131,2*%
%TO.N,Net-(R131-Pad2)*%
X119227600Y-134248400D03*
%TD*%
D22*
%TO.P,Q25,1,G*%
%TO.N,A10*%
X112600500Y-96535200D03*
%TO.P,Q25,2,S*%
%TO.N,GND*%
X112600500Y-98435200D03*
%TO.P,Q25,3,D*%
%TO.N,/logique/Entr\u00E9es analogiques - Extension/Extention analogique simple2/COL_AIN_EXT*%
X114475500Y-97485200D03*
%TD*%
D23*
%TO.P,C19,1*%
%TO.N,Net-(C19-Pad1)*%
X82702400Y-163140300D03*
%TO.P,C19,2*%
%TO.N,GND*%
X82702400Y-161065300D03*
%TD*%
D11*
%TO.P,R95,1*%
%TO.N,Net-(C15-Pad1)*%
X272405600Y-46939200D03*
%TO.P,R95,2*%
%TO.N,Net-(R95-Pad2)*%
X274405600Y-46939200D03*
%TD*%
D17*
%TO.P,R163,1*%
%TO.N,Net-(R162-Pad1)*%
X208026000Y-129976800D03*
%TO.P,R163,2*%
%TO.N,A15*%
X208026000Y-127976800D03*
%TD*%
D34*
%TO.P,P12,1,Pin_1*%
%TO.N,A8*%
X124978000Y-119126000D03*
%TO.P,P12,2,Pin_2*%
%TO.N,A9*%
X122438000Y-119126000D03*
%TO.P,P12,3,Pin_3*%
%TO.N,A10*%
X119898000Y-119126000D03*
%TO.P,P12,4,Pin_4*%
%TO.N,A11*%
X117358000Y-119126000D03*
%TO.P,P12,5,Pin_5*%
%TO.N,A12*%
X114818000Y-119126000D03*
%TO.P,P12,6,Pin_6*%
%TO.N,A13*%
X112278000Y-119126000D03*
%TO.P,P12,7,Pin_7*%
%TO.N,A14*%
X109738000Y-119126000D03*
%TO.P,P12,8,Pin_8*%
%TO.N,A15*%
X107198000Y-119126000D03*
%TD*%
D11*
%TO.P,R98,1*%
%TO.N,Net-(Q15-Pad1)*%
X273878800Y-49682400D03*
%TO.P,R98,2*%
%TO.N,GND*%
X275878800Y-49682400D03*
%TD*%
D22*
%TO.P,Q27,1,G*%
%TO.N,A12*%
X124335300Y-81955600D03*
%TO.P,Q27,2,S*%
%TO.N,GND*%
X124335300Y-83855600D03*
%TO.P,Q27,3,D*%
%TO.N,/logique/Entr\u00E9es analogiques - Extension/Extention analogique simple5/COL_AIN_EXT*%
X126210300Y-82905600D03*
%TD*%
D14*
%TO.P,JP12,1,A*%
%TO.N,Net-(JP12-Pad1)*%
X231475000Y-109270800D03*
D15*
%TO.P,JP12,2,C*%
%TO.N,/logique/Collecteurs ouverts/OC12-PWM*%
X234015000Y-109270800D03*
%TO.P,JP12,3,B*%
%TO.N,Net-(JP12-Pad3)*%
X236555000Y-109270800D03*
%TD*%
D16*
%TO.P,J32,1,Pin_1*%
%TO.N,/logique/Bloc relais/NO8*%
X139039600Y-15849600D03*
D13*
%TO.P,J32,2,Pin_2*%
%TO.N,/logique/Bloc relais/COM8*%
X134039600Y-15849600D03*
%TO.P,J32,3,Pin_3*%
%TO.N,/logique/Bloc relais/NF8*%
X129039600Y-15849600D03*
%TD*%
D14*
%TO.P,JP3,1,A*%
%TO.N,Net-(JP3-Pad1)*%
X213171800Y-85293200D03*
D15*
%TO.P,JP3,2,C*%
%TO.N,/logique/Collecteurs ouverts/OC3*%
X215711800Y-85293200D03*
%TO.P,JP3,3,B*%
%TO.N,Net-(JP3-Pad3)*%
X218251800Y-85293200D03*
%TD*%
D11*
%TO.P,R139,1*%
%TO.N,Net-(R137-Pad2)*%
X143526000Y-130454400D03*
%TO.P,R139,2*%
%TO.N,Net-(D40-Pad1)*%
X145526000Y-130454400D03*
%TD*%
D22*
%TO.P,Q29,1,G*%
%TO.N,A14*%
X123776500Y-96433600D03*
%TO.P,Q29,2,S*%
%TO.N,GND*%
X123776500Y-98333600D03*
%TO.P,Q29,3,D*%
%TO.N,/logique/Entr\u00E9es analogiques - Extension/Extention analogique simple4/COL_AIN_EXT*%
X125651500Y-97383600D03*
%TD*%
D17*
%TO.P,R202,1*%
%TO.N,VCC*%
X31089600Y-125815600D03*
%TO.P,R202,2*%
%TO.N,Net-(C23-Pad1)*%
X31089600Y-123815600D03*
%TD*%
D12*
%TO.P,K1,1*%
%TO.N,/logique/Bloc relais/COM1*%
X39116000Y-43552000D03*
D13*
%TO.P,K1,2*%
%TO.N,Net-(D6-Pad1)*%
X45166000Y-41602000D03*
D12*
%TO.P,K1,3*%
%TO.N,/logique/Bloc relais/NO1*%
X45166000Y-29402000D03*
%TO.P,K1,4*%
%TO.N,/logique/Bloc relais/NF1*%
X33116000Y-29352000D03*
D13*
%TO.P,K1,5*%
%TO.N,+12V*%
X33166000Y-41602000D03*
%TD*%
D31*
%TO.P,C4,1*%
%TO.N,Net-(C4-Pad1)*%
X61417200Y-60989300D03*
%TO.P,C4,2*%
%TO.N,Net-(C4-Pad2)*%
X61417200Y-63064300D03*
%TD*%
D17*
%TO.P,R175,1*%
%TO.N,Net-(R174-Pad2)*%
X42926000Y-158734000D03*
%TO.P,R175,2*%
%TO.N,A7*%
X42926000Y-156734000D03*
%TD*%
D29*
%TO.P,Q36,1,B*%
%TO.N,Net-(Q36-Pad1)*%
X151653200Y-99845100D03*
%TO.P,Q36,2,E*%
%TO.N,GND*%
X153553200Y-99845100D03*
%TO.P,Q36,3,C*%
%TO.N,/logique/Collecteurs ouverts/OC12-PWM*%
X152603200Y-97970100D03*
%TD*%
D30*
%TO.P,Q20,1,G*%
%TO.N,Net-(Q20-Pad1)*%
X115950000Y-133377700D03*
%TO.P,Q20,2,S*%
%TO.N,GND*%
X114050000Y-133377700D03*
%TO.P,Q20,3,D*%
%TO.N,/logique/Extensions/Simple extension7/COL_EXT*%
X115000000Y-135252700D03*
%TD*%
D19*
%TO.P,R9,1*%
%TO.N,VCC*%
X26552400Y-129336800D03*
%TO.P,R9,2*%
%TO.N,AREF*%
X24552400Y-129336800D03*
%TD*%
D29*
%TO.P,Q14,1,B*%
%TO.N,Net-(Q14-Pad1)*%
X185638400Y-104721900D03*
%TO.P,Q14,2,E*%
%TO.N,GND*%
X187538400Y-104721900D03*
%TO.P,Q14,3,C*%
%TO.N,/logique/Collecteurs ouverts/OC6-PWM*%
X186588400Y-102846900D03*
%TD*%
D17*
%TO.P,R172,1*%
%TO.N,Net-(R171-Pad2)*%
X36322000Y-158530800D03*
%TO.P,R172,2*%
%TO.N,A6*%
X36322000Y-156530800D03*
%TD*%
D16*
%TO.P,J20,1,Pin_1*%
%TO.N,AREF*%
X15700400Y-129082800D03*
D13*
%TO.P,J20,2,Pin_2*%
%TO.N,GND*%
X15700400Y-134082800D03*
%TD*%
D11*
%TO.P,R122,1*%
%TO.N,Net-(Q19-Pad1)*%
X105086400Y-160934400D03*
%TO.P,R122,2*%
%TO.N,GND*%
X107086400Y-160934400D03*
%TD*%
D16*
%TO.P,J28,1,Pin_1*%
%TO.N,/logique/Bloc relais/NO4*%
X114093000Y-15691400D03*
D13*
%TO.P,J28,2,Pin_2*%
%TO.N,/logique/Bloc relais/COM4*%
X109093000Y-15691400D03*
%TO.P,J28,3,Pin_3*%
%TO.N,/logique/Bloc relais/NF4*%
X104093000Y-15691400D03*
%TD*%
D11*
%TO.P,R74,1*%
%TO.N,Net-(Q10-Pad1)*%
X200117200Y-75234800D03*
%TO.P,R74,2*%
%TO.N,GND*%
X202117200Y-75234800D03*
%TD*%
D29*
%TO.P,Q13,1,B*%
%TO.N,Net-(Q13-Pad1)*%
X186908400Y-94663500D03*
%TO.P,Q13,2,E*%
%TO.N,GND*%
X188808400Y-94663500D03*
%TO.P,Q13,3,C*%
%TO.N,/logique/Collecteurs ouverts/OC5-PWM*%
X187858400Y-92788500D03*
%TD*%
D11*
%TO.P,R71,1*%
%TO.N,VCC*%
X206314800Y-71018400D03*
%TO.P,R71,2*%
%TO.N,Net-(JP1-Pad1)*%
X208314800Y-71018400D03*
%TD*%
D19*
%TO.P,R2,1*%
%TO.N,Net-(R1-Pad2)*%
X57184800Y-70154800D03*
%TO.P,R2,2*%
%TO.N,GND*%
X55184800Y-70154800D03*
%TD*%
D34*
%TO.P,P11,1,Pin_1*%
%TO.N,14(Tx3)*%
X130058000Y-70866000D03*
%TO.P,P11,2,Pin_2*%
%TO.N,15(Rx3)*%
X127518000Y-70866000D03*
%TO.P,P11,3,Pin_3*%
%TO.N,16(Tx2)*%
X124978000Y-70866000D03*
%TO.P,P11,4,Pin_4*%
%TO.N,17(Rx2)*%
X122438000Y-70866000D03*
%TO.P,P11,5,Pin_5*%
%TO.N,18(Tx1)*%
X119898000Y-70866000D03*
%TO.P,P11,6,Pin_6*%
%TO.N,19(Rx1)*%
X117358000Y-70866000D03*
%TO.P,P11,7,Pin_7*%
%TO.N,20(SDA)*%
X114818000Y-70866000D03*
%TO.P,P11,8,Pin_8*%
%TO.N,21(SCL)*%
X112278000Y-70866000D03*
%TD*%
D41*
%TO.P,C1,1*%
%TO.N,+12V*%
X46888400Y-67462000D03*
%TO.P,C1,2*%
%TO.N,GND*%
X46888400Y-61062000D03*
%TD*%
D16*
%TO.P,J37,1,Pin_1*%
%TO.N,Net-(J37-Pad1)*%
X187350400Y-172466000D03*
D13*
%TO.P,J37,2,Pin_2*%
%TO.N,Net-(J37-Pad2)*%
X192350400Y-172466000D03*
%TO.P,J37,3,Pin_3*%
%TO.N,Net-(J37-Pad3)*%
X197350400Y-172466000D03*
%TO.P,J37,4,Pin_4*%
%TO.N,Net-(J37-Pad4)*%
X202350400Y-172466000D03*
%TD*%
D19*
%TO.P,R113,1*%
%TO.N,Net-(C18-Pad1)*%
X96402400Y-124358400D03*
%TO.P,R113,2*%
%TO.N,Net-(R113-Pad2)*%
X94402400Y-124358400D03*
%TD*%
D16*
%TO.P,J19,1,Pin_1*%
%TO.N,50(MISO)*%
X233920800Y-172412000D03*
D13*
%TO.P,J19,2,Pin_2*%
%TO.N,51(MOSI)*%
X238920800Y-172412000D03*
%TO.P,J19,3,Pin_3*%
%TO.N,52(SCK)*%
X243920800Y-172412000D03*
%TO.P,J19,4,Pin_4*%
%TO.N,53(SS)*%
X248920800Y-172412000D03*
%TD*%
D19*
%TO.P,R111,1*%
%TO.N,45*%
X102041200Y-125272800D03*
%TO.P,R111,2*%
%TO.N,Net-(C18-Pad1)*%
X100041200Y-125272800D03*
%TD*%
D10*
%TO.P,R103,1*%
%TO.N,Net-(R101-Pad2)*%
X53848000Y-131791200D03*
%TO.P,R103,2*%
%TO.N,Net-(D28-Pad1)*%
X53848000Y-133791200D03*
%TD*%
D16*
%TO.P,J4,1,Pin_1*%
%TO.N,/logique/Entr\u00E9es digitales/IN2*%
X15903600Y-77622400D03*
D13*
%TO.P,J4,2,Pin_2*%
%TO.N,GND*%
X15903600Y-82622400D03*
%TD*%
D16*
%TO.P,J33,1,Pin_1*%
%TO.N,/logique/Bloc relais/NO9*%
X238299000Y-15802000D03*
D13*
%TO.P,J33,2,Pin_2*%
%TO.N,/logique/Bloc relais/COM9*%
X233299000Y-15802000D03*
%TO.P,J33,3,Pin_3*%
%TO.N,/logique/Bloc relais/NF9*%
X228299000Y-15802000D03*
%TD*%
D16*
%TO.P,J11,1,Pin_1*%
%TO.N,/logique/Entr\u00E9es digitales/IN10*%
X15903600Y-116078000D03*
D13*
%TO.P,J11,2,Pin_2*%
%TO.N,GND*%
X15903600Y-121078000D03*
%TD*%
D10*
%TO.P,R205,1*%
%TO.N,VCC*%
X35966400Y-139208000D03*
%TO.P,R205,2*%
%TO.N,Net-(C24-Pad1)*%
X35966400Y-141208000D03*
%TD*%
D17*
%TO.P,R57,1*%
%TO.N,/logique/Entr\u00E9es analogiques/ANALOG1*%
X48920400Y-163102800D03*
%TO.P,R57,2*%
%TO.N,Net-(R57-Pad2)*%
X48920400Y-161102800D03*
%TD*%
D34*
%TO.P,P9,1,Pin_1*%
%TO.N,7(\u002A\u002A)*%
X152918000Y-70866000D03*
%TO.P,P9,2,Pin_2*%
%TO.N,6(\u002A\u002A)*%
X150378000Y-70866000D03*
%TO.P,P9,3,Pin_3*%
%TO.N,5(\u002A\u002A)*%
X147838000Y-70866000D03*
%TO.P,P9,4,Pin_4*%
%TO.N,4(\u002A\u002A)*%
X145298000Y-70866000D03*
%TO.P,P9,5,Pin_5*%
%TO.N,3(\u002A\u002A)*%
X142758000Y-70866000D03*
%TO.P,P9,6,Pin_6*%
%TO.N,2(\u002A\u002A)*%
X140218000Y-70866000D03*
%TO.P,P9,7,Pin_7*%
%TO.N,1(Tx0)*%
X137678000Y-70866000D03*
%TO.P,P9,8,Pin_8*%
%TO.N,0(Rx0)*%
X135138000Y-70866000D03*
%TD*%
D10*
%TO.P,R162,1*%
%TO.N,Net-(R162-Pad1)*%
X208076800Y-133158400D03*
%TO.P,R162,2*%
%TO.N,/logique/Entr\u00E9es analogiques - Extension/Extention analogique simple7/A_IN_EXT*%
X208076800Y-135158400D03*
%TD*%
D17*
%TO.P,R174,1*%
%TO.N,/logique/Entr\u00E9es analogiques/ANALOG8*%
X42875200Y-162950400D03*
%TO.P,R174,2*%
%TO.N,Net-(R174-Pad2)*%
X42875200Y-160950400D03*
%TD*%
D19*
%TO.P,R153,1*%
%TO.N,Net-(R153-Pad1)*%
X267970000Y-132080000D03*
%TO.P,R153,2*%
%TO.N,/logique/Entr\u00E9es analogiques - Extension/Extention analogique simple5/A_IN_EXT*%
X265970000Y-132080000D03*
%TD*%
D34*
%TO.P,P8,1,Pin_1*%
%TO.N,unconnected-(P8-Pad1)*%
X170698000Y-119126000D03*
%TO.P,P8,2,Pin_2*%
%TO.N,/logique/IOREF*%
X168158000Y-119126000D03*
%TO.P,P8,3,Pin_3*%
%TO.N,Reset*%
X165618000Y-119126000D03*
%TO.P,P8,4,Pin_4*%
%TO.N,+3V3*%
X163078000Y-119126000D03*
%TO.P,P8,5,Pin_5*%
%TO.N,VCC*%
X160538000Y-119126000D03*
%TO.P,P8,6,Pin_6*%
%TO.N,GND*%
X157998000Y-119126000D03*
%TO.P,P8,7,Pin_7*%
X155458000Y-119126000D03*
%TO.P,P8,8,Pin_8*%
%TO.N,/logique/Vin*%
X152918000Y-119126000D03*
%TD*%
D16*
%TO.P,J52,1,Pin_1*%
%TO.N,/logique/Entr\u00E9es analogiques - Extension/Extention analogique simple6/COL_AIN_EXT*%
X283257600Y-157327600D03*
D13*
%TO.P,J52,2,Pin_2*%
%TO.N,/logique/Entr\u00E9es analogiques - Extension/Extention analogique simple6/A_IN_EXT*%
X283257600Y-152327600D03*
%TD*%
D11*
%TO.P,R154,1*%
%TO.N,Net-(R153-Pad1)*%
X271034000Y-132181600D03*
%TO.P,R154,2*%
%TO.N,A12*%
X273034000Y-132181600D03*
%TD*%
D42*
%TO.P,P13,1,Pin_1*%
%TO.N,GND*%
X104700000Y-114056000D03*
D43*
%TO.P,P13,2,Pin_2*%
X102160000Y-114056000D03*
%TO.P,P13,3,Pin_3*%
%TO.N,52(SCK)*%
X104700000Y-111516000D03*
%TO.P,P13,4,Pin_4*%
%TO.N,53(SS)*%
X102160000Y-111516000D03*
%TO.P,P13,5,Pin_5*%
%TO.N,50(MISO)*%
X104700000Y-108976000D03*
%TO.P,P13,6,Pin_6*%
%TO.N,51(MOSI)*%
X102160000Y-108976000D03*
%TO.P,P13,7,Pin_7*%
%TO.N,48*%
X104700000Y-106436000D03*
%TO.P,P13,8,Pin_8*%
%TO.N,49*%
X102160000Y-106436000D03*
%TO.P,P13,9,Pin_9*%
%TO.N,46*%
X104700000Y-103896000D03*
%TO.P,P13,10,Pin_10*%
%TO.N,47*%
X102160000Y-103896000D03*
%TO.P,P13,11,Pin_11*%
%TO.N,44*%
X104700000Y-101356000D03*
%TO.P,P13,12,Pin_12*%
%TO.N,45*%
X102160000Y-101356000D03*
%TO.P,P13,13,Pin_13*%
%TO.N,42*%
X104700000Y-98816000D03*
%TO.P,P13,14,Pin_14*%
%TO.N,43*%
X102160000Y-98816000D03*
%TO.P,P13,15,Pin_15*%
%TO.N,40*%
X104700000Y-96276000D03*
%TO.P,P13,16,Pin_16*%
%TO.N,41*%
X102160000Y-96276000D03*
%TO.P,P13,17,Pin_17*%
%TO.N,38*%
X104700000Y-93736000D03*
%TO.P,P13,18,Pin_18*%
%TO.N,39*%
X102160000Y-93736000D03*
%TO.P,P13,19,Pin_19*%
%TO.N,36*%
X104700000Y-91196000D03*
%TO.P,P13,20,Pin_20*%
%TO.N,37*%
X102160000Y-91196000D03*
%TO.P,P13,21,Pin_21*%
%TO.N,34*%
X104700000Y-88656000D03*
%TO.P,P13,22,Pin_22*%
%TO.N,35*%
X102160000Y-88656000D03*
%TO.P,P13,23,Pin_23*%
%TO.N,32*%
X104700000Y-86116000D03*
%TO.P,P13,24,Pin_24*%
%TO.N,33*%
X102160000Y-86116000D03*
%TO.P,P13,25,Pin_25*%
%TO.N,30*%
X104700000Y-83576000D03*
%TO.P,P13,26,Pin_26*%
%TO.N,31*%
X102160000Y-83576000D03*
%TO.P,P13,27,Pin_27*%
%TO.N,28*%
X104700000Y-81036000D03*
%TO.P,P13,28,Pin_28*%
%TO.N,29*%
X102160000Y-81036000D03*
%TO.P,P13,29,Pin_29*%
%TO.N,26*%
X104700000Y-78496000D03*
%TO.P,P13,30,Pin_30*%
%TO.N,27*%
X102160000Y-78496000D03*
%TO.P,P13,31,Pin_31*%
%TO.N,24*%
X104700000Y-75956000D03*
%TO.P,P13,32,Pin_32*%
%TO.N,25*%
X102160000Y-75956000D03*
%TO.P,P13,33,Pin_33*%
%TO.N,22*%
X104700000Y-73416000D03*
%TO.P,P13,34,Pin_34*%
%TO.N,23*%
X102160000Y-73416000D03*
%TO.P,P13,35,Pin_35*%
%TO.N,VCC*%
X104700000Y-70876000D03*
%TO.P,P13,36,Pin_36*%
X102160000Y-70876000D03*
%TD*%
D44*
%TO.N,GND*%
X82429600Y-74542400D03*
X111384000Y-57456500D03*
X122113800Y-98739200D03*
X71400000Y-109800000D03*
X232000000Y-130000000D03*
X50200000Y-115200000D03*
X186199400Y-106951400D03*
X184441500Y-57436000D03*
X54400000Y-119600000D03*
X112000000Y-130000000D03*
X79400000Y-131800000D03*
X277750000Y-49750000D03*
X96600000Y-132000000D03*
X272415000Y-110236000D03*
X115570000Y-123317000D03*
X23672800Y-154990800D03*
X57531000Y-159639000D03*
X23317200Y-134569200D03*
X165542000Y-100523000D03*
X109728000Y-160782000D03*
X32512000Y-141224000D03*
X276682200Y-137617200D03*
X34163000Y-158369000D03*
X33512000Y-151654000D03*
X189010800Y-101057200D03*
X65786000Y-158877000D03*
X212344000Y-65786000D03*
X23500000Y-133500000D03*
X121834400Y-91525600D03*
D45*
X49911000Y-58166000D03*
D44*
X122418600Y-105546400D03*
X177038000Y-78740000D03*
X128133600Y-131454400D03*
X58166000Y-154051000D03*
X111064800Y-106105200D03*
X93000000Y-116500000D03*
X95000000Y-132000000D03*
X65400000Y-85800000D03*
X96000000Y-132800000D03*
X40513000Y-158496000D03*
X277368000Y-44831000D03*
X135260000Y-58551000D03*
X49600000Y-102000000D03*
X76750000Y-55500000D03*
X31877000Y-86614000D03*
X209042000Y-60706000D03*
X122520200Y-83854800D03*
X71475600Y-154330400D03*
X46415200Y-152212800D03*
X110642400Y-91287600D03*
X46863000Y-158496000D03*
X56800000Y-134000000D03*
X33250000Y-64500000D03*
X27940000Y-158242000D03*
X62530400Y-72069600D03*
X201864000Y-73726000D03*
X79250000Y-63750000D03*
X135382000Y-132715000D03*
X148209000Y-131064000D03*
X161499000Y-58605500D03*
X215750000Y-126750000D03*
X165796000Y-111064000D03*
X31877000Y-76200000D03*
X92456000Y-141478000D03*
X50000000Y-77000000D03*
X153553200Y-85587800D03*
X205689200Y-60883800D03*
X176616400Y-90464600D03*
X128397000Y-124968000D03*
X110937800Y-84007200D03*
X82677000Y-158877000D03*
X165440400Y-90337600D03*
X45720000Y-55650500D03*
X274828000Y-152527000D03*
X42799000Y-61595000D03*
X274955000Y-122174000D03*
X65800000Y-98200000D03*
X54200000Y-60600000D03*
X115027200Y-127923800D03*
X258958000Y-60583000D03*
X65151000Y-54610000D03*
X137668000Y-54483000D03*
X85000000Y-127400000D03*
X71755000Y-160909000D03*
X129082800Y-127812800D03*
D45*
X85000000Y-83800000D03*
D44*
X48000000Y-71200000D03*
X49400000Y-130000000D03*
X76600000Y-94200000D03*
X30276800Y-149047200D03*
X82000000Y-118500000D03*
X18491200Y-153593800D03*
X235524000Y-59140000D03*
X110861600Y-98688400D03*
X153553200Y-102732800D03*
X176616400Y-84622600D03*
X178495200Y-115763800D03*
X94200000Y-132800000D03*
X52800000Y-70000000D03*
X69600000Y-127400000D03*
X276352000Y-54102000D03*
X50000000Y-90200000D03*
X99800000Y-126800000D03*
X272250000Y-73250000D03*
X64643000Y-154178000D03*
X59338800Y-158593200D03*
%TO.N,+12V*%
X242824000Y-99822000D03*
X224282000Y-99822000D03*
X242824000Y-76200000D03*
X242316000Y-69723000D03*
X200914000Y-125857000D03*
X224316800Y-112995200D03*
X242570000Y-83312000D03*
X224282000Y-125603000D03*
D46*
X73660000Y-51562000D03*
D44*
X241808000Y-106426000D03*
X224282000Y-90932000D03*
X224282000Y-76200000D03*
X224409000Y-82931000D03*
X224520000Y-67730000D03*
X242316000Y-90678000D03*
D46*
%TO.N,Net-(C4-Pad2)*%
X69342000Y-64008000D03*
D45*
X72390000Y-68961000D03*
X81026000Y-63627000D03*
D46*
X69342000Y-66040000D03*
D44*
%TO.N,Net-(C15-Pad1)*%
X270510000Y-44831000D03*
%TO.N,Net-(C20-Pad1)*%
X98552000Y-141605000D03*
X105410000Y-135763000D03*
X102743000Y-130810000D03*
X94742000Y-141478000D03*
X105029000Y-131445000D03*
%TO.N,Net-(C22-Pad1)*%
X157734000Y-122555000D03*
X274066000Y-118745000D03*
X157607000Y-126492000D03*
X141732000Y-124460000D03*
%TO.N,VCC*%
X87376000Y-159004000D03*
X97815400Y-139598400D03*
X37719000Y-79121000D03*
X170053000Y-147066000D03*
X206375000Y-69342000D03*
X39370000Y-71120000D03*
X173101000Y-158623000D03*
X66000000Y-124250000D03*
X133604000Y-64516000D03*
D45*
X84750000Y-89000000D03*
D44*
X38481000Y-139192000D03*
D47*
X23114000Y-51562000D03*
D44*
X28702000Y-129413000D03*
X262636000Y-160401000D03*
X88392000Y-140208000D03*
X28702000Y-125984000D03*
X206857600Y-75539600D03*
X104648000Y-65024000D03*
X82747600Y-101752400D03*
X71750000Y-123000000D03*
X206502000Y-82930989D03*
X71866000Y-82693000D03*
X90000000Y-94000000D03*
X82250000Y-123500000D03*
X37465000Y-90551000D03*
X209296000Y-160909000D03*
X205822800Y-90722200D03*
X123901200Y-125171200D03*
X279598000Y-64152000D03*
X205867000Y-99822000D03*
X49530000Y-65405000D03*
X205867000Y-106934000D03*
X224958400Y-75650600D03*
%TO.N,/logique/Entr\u00E9es digitales/IN8*%
X62484000Y-113919000D03*
%TO.N,/logique/Entr\u00E9es digitales/IN5*%
X62103000Y-77343000D03*
%TO.N,/logique/Entr\u00E9es digitales/IN6*%
X61722000Y-90170000D03*
%TO.N,/logique/Entr\u00E9es digitales/IN7*%
X62865000Y-100584000D03*
%TO.N,/logique/Extensions/Simple extension/EI*%
X128143000Y-117729000D03*
X135509000Y-64770000D03*
X265811000Y-63881000D03*
X106172000Y-127254000D03*
X98425000Y-126746000D03*
%TO.N,/logique/Extensions/Simple extension1/EI*%
X51054000Y-140335000D03*
%TO.N,/logique/Extensions/Simple extension2/EI*%
X67437000Y-140335000D03*
%TO.N,/logique/Extensions/Simple extension3/EI*%
X86106000Y-132334000D03*
%TO.N,/logique/Extensions/Simple extension7/EI*%
X112522000Y-137033000D03*
%TO.N,/logique/Extensions/Simple extension5/EI*%
X126731000Y-140731000D03*
%TO.N,/logique/Entr\u00E9es analogiques - Extension/Extention analogique simple1/A_IN_EXT*%
X264464800Y-89230200D03*
%TO.N,/logique/Entr\u00E9es analogiques - Extension/Extention analogique simple2/A_IN_EXT*%
X266000000Y-104250000D03*
%TO.N,/logique/Entr\u00E9es analogiques - Extension/Extention analogique simple3/A_IN_EXT*%
X260250000Y-122000000D03*
%TO.N,/logique/Entr\u00E9es analogiques - Extension/Extention analogique simple5/A_IN_EXT*%
X266065000Y-134112000D03*
%TO.N,/logique/Entr\u00E9es analogiques - Extension/Extention analogique simple6/A_IN_EXT*%
X265430000Y-155448000D03*
%TO.N,/logique/Entr\u00E9es analogiques - Extension/Extention analogique simple4/A_IN_EXT*%
X224250000Y-136500000D03*
%TO.N,/logique/Entr\u00E9es analogiques - Extension/Extention analogique simple7/A_IN_EXT*%
X211250000Y-135500000D03*
%TO.N,/logique/Entr\u00E9es digitales/IN10*%
X25273000Y-113792000D03*
%TO.N,20(SDA)*%
X139827000Y-77851000D03*
X143002000Y-115189000D03*
X275082000Y-115189000D03*
%TO.N,21(SCL)*%
X138557000Y-78359000D03*
X245872000Y-117348000D03*
X277114000Y-117475000D03*
X115697000Y-78486000D03*
X140335000Y-111887000D03*
X244602000Y-113411000D03*
%TO.N,SDA*%
X178689000Y-160528000D03*
X267335000Y-161925000D03*
%TO.N,SCL*%
X180721000Y-154940000D03*
X272161000Y-159131000D03*
%TO.N,17(Rx2)*%
X186563000Y-80016420D03*
X249428000Y-93599000D03*
X186563000Y-82931000D03*
X122555000Y-80010000D03*
X249809000Y-86614000D03*
X280035000Y-94615000D03*
%TO.N,16(Tx2)*%
X130556000Y-96012000D03*
%TO.N,19(Rx1)*%
X117475000Y-74930000D03*
%TO.N,0(Rx0)*%
X279146000Y-60325000D03*
X135509000Y-65796500D03*
%TO.N,1(Tx0)*%
X140970000Y-66929000D03*
X280797000Y-62230000D03*
X279770500Y-38227000D03*
%TO.N,15(Rx3)*%
X149098000Y-75057000D03*
X149098000Y-66246020D03*
%TO.N,14(Tx3)*%
X145161000Y-63500000D03*
X263398000Y-61214000D03*
X247904000Y-63627000D03*
%TO.N,52(SCK)*%
X243967000Y-153797000D03*
X154051000Y-113284000D03*
X155956000Y-125476000D03*
X203327000Y-129413000D03*
X203454000Y-153924000D03*
%TO.N,51(MOSI)*%
X123825000Y-109474000D03*
X124587000Y-114887469D03*
X238760000Y-156703100D03*
X162687000Y-114543500D03*
X171069000Y-139319000D03*
X208153000Y-138557000D03*
X209550000Y-156337000D03*
%TO.N,50(MISO)*%
X228727000Y-112014000D03*
%TO.N,53(SS)*%
X155067000Y-110998000D03*
X111000000Y-113500000D03*
X206248000Y-137033000D03*
X111000000Y-111516000D03*
X206121000Y-155575000D03*
X249047000Y-155702000D03*
X163449000Y-137414000D03*
%TO.N,AREF*%
X192659000Y-116713000D03*
X174625000Y-74930000D03*
X31369000Y-131318000D03*
X192532000Y-76708000D03*
X104775000Y-125984000D03*
X104648000Y-116586000D03*
%TO.N,/logique/Collecteurs ouverts/OC5-PWM*%
X190246000Y-93345000D03*
X157226000Y-141605000D03*
X200025000Y-97282000D03*
X216027000Y-97282000D03*
X199390000Y-141478000D03*
X81407000Y-169418000D03*
X147574000Y-162560000D03*
%TO.N,/logique/Collecteurs ouverts/OC6-PWM*%
X181483000Y-135255000D03*
X86487000Y-166116000D03*
X154940000Y-135636000D03*
X216154000Y-104706480D03*
X190119000Y-101346000D03*
X186588400Y-101117400D03*
X147320000Y-159893000D03*
%TO.N,/logique/Collecteurs ouverts/OC7-PWM*%
X91186000Y-168402000D03*
X175514000Y-110109000D03*
X180006991Y-110188009D03*
X180975000Y-132588000D03*
X196342000Y-77099500D03*
X195326000Y-110998000D03*
X147320000Y-164338000D03*
X159131000Y-132969000D03*
X234061000Y-73914000D03*
%TO.N,/logique/Collecteurs ouverts/OC8-PWM*%
X147447000Y-167640000D03*
X207010000Y-123063000D03*
X204343000Y-75438000D03*
X164465000Y-83058000D03*
X176657000Y-144018000D03*
X164846000Y-151892000D03*
X203708000Y-83947000D03*
X176657000Y-123317000D03*
X96266000Y-169545000D03*
%TO.N,/logique/Collecteurs ouverts/OC9-PWM*%
X164592000Y-95250000D03*
X181483000Y-133985000D03*
X186182000Y-108585000D03*
X156083000Y-134366000D03*
X195008500Y-96710500D03*
X195072000Y-108712000D03*
X239395000Y-97790000D03*
X147447000Y-161417000D03*
X101981000Y-165735000D03*
%TO.N,/logique/Collecteurs ouverts/OC10-PWM*%
X106426000Y-169026500D03*
X203073000Y-106807000D03*
X160909000Y-142748000D03*
X172847000Y-142875000D03*
X167005000Y-107061000D03*
X203073000Y-95377000D03*
X147320000Y-165862000D03*
%TO.N,/logique/Collecteurs ouverts/OC11-PWM*%
X142240000Y-123571000D03*
X147510500Y-158686500D03*
X234061000Y-97282000D03*
X154178000Y-141478000D03*
X149098000Y-141478000D03*
X154940000Y-81661000D03*
X154940000Y-89535000D03*
X221742000Y-97282000D03*
X139573000Y-89789000D03*
X221615000Y-81534000D03*
X149225000Y-124460000D03*
X111506000Y-158877000D03*
%TO.N,/logique/Collecteurs ouverts/OC12-PWM*%
X158496000Y-150876000D03*
X183515000Y-113030000D03*
X171958000Y-102235000D03*
X171958000Y-112903000D03*
X154432000Y-93980000D03*
X158369000Y-129159000D03*
X143256000Y-153924000D03*
X171704000Y-93980000D03*
X183642000Y-129159000D03*
%TO.N,/logique/Collecteurs ouverts/OC2*%
X154432000Y-162052000D03*
X181864000Y-161925000D03*
%TO.N,/logique/Collecteurs ouverts/OC3*%
X215392000Y-82931000D03*
X210439000Y-82930989D03*
X164719000Y-154559000D03*
X210439000Y-78348500D03*
X179451000Y-154432000D03*
X177101500Y-76644500D03*
X182372000Y-77724000D03*
%TO.N,/logique/Collecteurs ouverts/OC4*%
X167513000Y-153543000D03*
X173355000Y-90043000D03*
X196977000Y-89789000D03*
X198501000Y-155575000D03*
%TO.N,/logique/Extensions/Simple extension2/COL_EXT*%
X78740000Y-139319000D03*
%TO.N,/logique/Extensions/Simple extension/COL_EXT*%
X274447000Y-58293000D03*
X247015000Y-116332000D03*
X259334000Y-66294000D03*
X102108000Y-120142000D03*
X271907000Y-66040000D03*
X49911000Y-119888000D03*
X101854000Y-116205000D03*
%TO.N,/logique/Entr\u00E9es analogiques - Extension/Extention analogique simple/COL_AIN_EXT*%
X114554000Y-85725000D03*
X202946000Y-84709000D03*
X202946000Y-89281000D03*
X202946000Y-89281000D03*
X251460000Y-89408000D03*
%TO.N,/logique/Entr\u00E9es analogiques - Extension/Extention analogique simple1/COL_AIN_EXT*%
X116713000Y-93091000D03*
%TO.N,/logique/Entr\u00E9es analogiques - Extension/Extention analogique simple2/COL_AIN_EXT*%
X116205000Y-96012000D03*
X155321000Y-95377000D03*
X155448000Y-102616000D03*
%TO.N,/logique/Entr\u00E9es analogiques - Extension/Extention analogique simple3/COL_AIN_EXT*%
X196469000Y-120142000D03*
X196342000Y-101854000D03*
X115951000Y-103759000D03*
X170942000Y-96636500D03*
X117665500Y-103822500D03*
X171196000Y-100076000D03*
X118618000Y-99543389D03*
%TO.N,/logique/Entr\u00E9es analogiques - Extension/Extention analogique simple5/COL_AIN_EXT*%
X277495000Y-85217000D03*
X277495000Y-111125000D03*
X262255000Y-111125000D03*
X129057400Y-82905600D03*
%TO.N,/logique/Entr\u00E9es analogiques - Extension/Extention analogique simple6/COL_AIN_EXT*%
X127635000Y-91059000D03*
X194310000Y-156972000D03*
X194310000Y-90932000D03*
%TO.N,/logique/Entr\u00E9es analogiques - Extension/Extention analogique simple4/COL_AIN_EXT*%
X193548000Y-97917000D03*
X126873000Y-99543389D03*
X193040000Y-140081000D03*
%TO.N,/logique/Entr\u00E9es analogiques - Extension/Extention analogique simple7/COL_AIN_EXT*%
X125730000Y-108331000D03*
X211963000Y-112014000D03*
%TO.N,13(\u002A\u002A)*%
X247523000Y-61595000D03*
X264174000Y-59831000D03*
X172593000Y-62865000D03*
%TO.N,12(\u002A\u002A)*%
X244602000Y-67945000D03*
X244475000Y-58928000D03*
%TO.N,9(\u002A\u002A)*%
X159512000Y-74295000D03*
X156083000Y-74422000D03*
%TO.N,11(\u002A\u002A)*%
X164465000Y-78105000D03*
X147828000Y-78105000D03*
%TO.N,10(\u002A\u002A)*%
X161925000Y-76835000D03*
X149098000Y-77597000D03*
%TO.N,7(\u002A\u002A)*%
X157988000Y-73725989D03*
X153035000Y-73787000D03*
%TO.N,6(\u002A\u002A)*%
X165989000Y-75565000D03*
X150495000Y-75184000D03*
%TO.N,5(\u002A\u002A)*%
X174879000Y-103759000D03*
X147701000Y-76200000D03*
X180467000Y-78359000D03*
X178689000Y-103632000D03*
%TO.N,4(\u002A\u002A)*%
X181864000Y-74295000D03*
X145161000Y-74041000D03*
%TO.N,3(\u002A\u002A)*%
X41148000Y-144272000D03*
X142621000Y-84709000D03*
X62992000Y-144018000D03*
X68199000Y-124714000D03*
X80772000Y-124587000D03*
X107061000Y-84963000D03*
%TO.N,2(\u002A\u002A)*%
X89154000Y-110744000D03*
X35991800Y-111455200D03*
X97536000Y-66421000D03*
%TO.N,A0*%
X147701000Y-154940000D03*
X51562000Y-154305000D03*
%TO.N,A1*%
X59817000Y-153797000D03*
X137985500Y-152336500D03*
X141478000Y-141224000D03*
X137881411Y-141264589D03*
%TO.N,A2*%
X147701000Y-156210000D03*
X142875000Y-122936000D03*
X152019000Y-124587000D03*
X66802000Y-155956000D03*
%TO.N,A3*%
X153416000Y-123571000D03*
X147447000Y-157099000D03*
X139700000Y-121666000D03*
X69503800Y-157445200D03*
%TO.N,A4*%
X21209000Y-154178000D03*
X136525000Y-149860000D03*
X136906000Y-129286000D03*
%TO.N,A5*%
X32623000Y-153654000D03*
X135636000Y-151003000D03*
X132842000Y-128016000D03*
%TO.N,A6*%
X131953000Y-144399000D03*
X38481000Y-153924000D03*
X130810000Y-152146000D03*
%TO.N,A7*%
X125095000Y-152273000D03*
X46228000Y-154178000D03*
X125222000Y-144526000D03*
%TO.N,A8*%
X115199500Y-82006400D03*
X118237000Y-93853000D03*
X179832000Y-93345000D03*
X118237000Y-81915000D03*
X179705000Y-87376000D03*
X239141000Y-87376000D03*
X132334000Y-93980000D03*
%TO.N,A9*%
X122428000Y-113157000D03*
X268859000Y-86106000D03*
X268859000Y-86106000D03*
X137033000Y-112776000D03*
X116840000Y-88900000D03*
X137033000Y-87630000D03*
%TO.N,A10*%
X136017000Y-99314000D03*
X130302000Y-115062000D03*
X115443000Y-101219000D03*
X269621000Y-99949000D03*
X119888000Y-115336989D03*
X136144000Y-101219000D03*
%TO.N,A11*%
X235331000Y-114046000D03*
X118999000Y-114173000D03*
%TO.N,A12*%
X167894000Y-110871000D03*
X126746000Y-111633000D03*
X226949000Y-117602000D03*
X182245000Y-110871000D03*
X273050000Y-129667000D03*
X182245000Y-117602000D03*
X115189000Y-111506000D03*
X167703500Y-104584500D03*
X232156000Y-126365000D03*
X128397000Y-104521000D03*
%TO.N,A13*%
X129794000Y-107696000D03*
X150241000Y-117602000D03*
X114173000Y-110363000D03*
X135128000Y-89281000D03*
X127508000Y-89281000D03*
X146304000Y-107696000D03*
X242824000Y-124714000D03*
X129794000Y-110363000D03*
%TO.N,A14*%
X151130000Y-107442000D03*
X112395000Y-108966000D03*
X116967000Y-108701500D03*
X151130000Y-117210500D03*
X132207000Y-106934000D03*
X173609000Y-117221000D03*
X127508000Y-103632000D03*
X174371000Y-121793000D03*
X220853000Y-121793000D03*
X134620000Y-103759000D03*
%TO.N,A15*%
X201295000Y-107950000D03*
X109982000Y-108077000D03*
X118618000Y-108204000D03*
%TO.N,48*%
X137922000Y-122301000D03*
X123698000Y-121793000D03*
X138938000Y-126238000D03*
%TO.N,49*%
X104150500Y-119634000D03*
X101258250Y-116741750D03*
X104775000Y-129159000D03*
X103886000Y-126619000D03*
%TO.N,46*%
X108331000Y-124968000D03*
X103251000Y-123063000D03*
%TO.N,47*%
X108077000Y-107569000D03*
%TO.N,44*%
X170053000Y-100838000D03*
%TO.N,42*%
X168478489Y-99898489D03*
%TO.N,43*%
X105537000Y-117729000D03*
X81280000Y-138684000D03*
X105664000Y-128143000D03*
X105664000Y-124714000D03*
X81280000Y-133223000D03*
%TO.N,40*%
X179070000Y-75311000D03*
X192278000Y-75311000D03*
X179197000Y-94488000D03*
%TO.N,41*%
X95123000Y-114935000D03*
X63881000Y-117094000D03*
%TO.N,38*%
X137160000Y-62611000D03*
X115697000Y-86995000D03*
X144145000Y-62346500D03*
X110871000Y-62357000D03*
X194945000Y-61468000D03*
%TO.N,39*%
X94100000Y-88700000D03*
X94100000Y-79700000D03*
X108204000Y-78867000D03*
X108331000Y-65786000D03*
X145059400Y-49885600D03*
%TO.N,36*%
X93345000Y-114427000D03*
X76225400Y-115163600D03*
%TO.N,37*%
X106436489Y-89402511D03*
X110109000Y-64135000D03*
X110109000Y-80010000D03*
%TO.N,34*%
X74533000Y-99965000D03*
X92710000Y-99822000D03*
%TO.N,35*%
X169545000Y-61087000D03*
X169291000Y-67564000D03*
X141605000Y-79375000D03*
X117475000Y-79375000D03*
X141569880Y-68996120D03*
%TO.N,32*%
X99500000Y-87600000D03*
X74422000Y-90170000D03*
X97917000Y-90170000D03*
%TO.N,33*%
X190881000Y-85725000D03*
X190881000Y-61214000D03*
%TO.N,30*%
X89154000Y-80899000D03*
%TO.N,31*%
X220853000Y-58293000D03*
X110617000Y-80772000D03*
X220853000Y-80518000D03*
%TO.N,28*%
X95382000Y-87757000D03*
%TO.N,29*%
X109093000Y-79502000D03*
X109093000Y-61722000D03*
%TO.N,26*%
X94869000Y-85725000D03*
%TO.N,27*%
X107315000Y-76300000D03*
X107315000Y-57658000D03*
%TO.N,24*%
X98987000Y-78613000D03*
%TO.N,25*%
X98200000Y-75600000D03*
X78359000Y-52324000D03*
%TO.N,Net-(Q15-Pad1)*%
X272034000Y-51435000D03*
%TO.N,Net-(Q17-Pad1)*%
X71501000Y-140589000D03*
X76073000Y-137795000D03*
%TO.N,Net-(Q18-Pad1)*%
X97409000Y-131064000D03*
X98298000Y-128270000D03*
%TO.N,Net-(R1-Pad2)*%
X59436000Y-66929000D03*
X75438000Y-66929000D03*
%TO.N,Net-(R95-Pad2)*%
X269250000Y-51500000D03*
X272500000Y-48500000D03*
%TO.N,Net-(R137-Pad2)*%
X137557000Y-128000000D03*
X143510000Y-127635000D03*
%TD*%
D48*
%TO.N,GND*%
X153553200Y-105055200D02*
X153755600Y-105257600D01*
X65430400Y-83566000D02*
X65430400Y-85769600D01*
X82702400Y-158902400D02*
X82677000Y-158877000D01*
X128133600Y-131454400D02*
X128133600Y-132921300D01*
X153553200Y-85587800D02*
X153553200Y-87529200D01*
X201864000Y-71803500D02*
X201864000Y-73726000D01*
X189010800Y-101057200D02*
X189010800Y-103249500D01*
X52954800Y-70154800D02*
X52800000Y-70000000D01*
X65786000Y-96490700D02*
X65786000Y-98186000D01*
X96000000Y-132800000D02*
X95200000Y-132000000D01*
X165440400Y-88618300D02*
X165440400Y-90337600D01*
D49*
X85000000Y-83800000D02*
X87232900Y-83800000D01*
D48*
X108915200Y-106105200D02*
X111064800Y-106105200D01*
X64668400Y-154203400D02*
X64643000Y-154178000D01*
X62530400Y-68935600D02*
X62530400Y-72069600D01*
X54200000Y-60600000D02*
X54200000Y-63024900D01*
X165542000Y-102769200D02*
X165592000Y-102819200D01*
X112499700Y-84007200D02*
X112600500Y-83906400D01*
X106969600Y-157147500D02*
X106969600Y-160817600D01*
X115027200Y-129641600D02*
X115027200Y-127923800D01*
X81993900Y-133991600D02*
X83566000Y-135563700D01*
X139397500Y-54417000D02*
X137734000Y-54417000D01*
X111064800Y-106105200D02*
X112253600Y-106105200D01*
X165796000Y-111064000D02*
X165796000Y-112710000D01*
X71475600Y-155651200D02*
X71475600Y-154330400D01*
X128701800Y-124917200D02*
X128651000Y-124968000D01*
X275878800Y-49682400D02*
X277682400Y-49682400D01*
X76758800Y-57128500D02*
X76758800Y-55508800D01*
X165796000Y-112710000D02*
X165989000Y-112903000D01*
X114050000Y-133377700D02*
X114050000Y-130618800D01*
X124334500Y-83854800D02*
X124335300Y-83855600D01*
X81831200Y-118668800D02*
X82000000Y-118500000D01*
X130432900Y-124917200D02*
X128701800Y-124917200D01*
X109575600Y-160934400D02*
X109728000Y-160782000D01*
X58791600Y-137239300D02*
X58841600Y-137289300D01*
X107086400Y-160934400D02*
X109575600Y-160934400D01*
X92913200Y-116586800D02*
X93000000Y-116500000D01*
X114050000Y-130618800D02*
X115027200Y-129641600D01*
X58649600Y-134000000D02*
X58791600Y-133858000D01*
X121834400Y-91525600D02*
X123777300Y-91525600D01*
X65786000Y-98186000D02*
X65800000Y-98200000D01*
X58115200Y-155616400D02*
X58115200Y-154101800D01*
X49911000Y-58547000D02*
X49911000Y-58166000D01*
X71374000Y-109774000D02*
X71400000Y-109800000D01*
X110861600Y-98688400D02*
X112347300Y-98688400D01*
X42926000Y-152212800D02*
X46415200Y-152212800D01*
X187538400Y-105612400D02*
X186199400Y-106951400D01*
X137125200Y-132791200D02*
X137125200Y-136006000D01*
X176616400Y-83109600D02*
X176616400Y-84622600D01*
X108966000Y-98688400D02*
X110861600Y-98688400D01*
X188808400Y-94663500D02*
X188808400Y-97892400D01*
X153553200Y-87529200D02*
X153806400Y-87782400D01*
X120091200Y-83854800D02*
X122520200Y-83854800D01*
X33512000Y-151654000D02*
X36017200Y-151654000D01*
X165542000Y-100523000D02*
X165542000Y-102769200D01*
X186199400Y-106951400D02*
X184235600Y-108915200D01*
X153553200Y-83639900D02*
X153553200Y-85587800D01*
X165542000Y-98067100D02*
X165542000Y-100523000D01*
X124039200Y-105546400D02*
X124206000Y-105379600D01*
X97129600Y-133929600D02*
X96000000Y-132800000D01*
X76600000Y-94200000D02*
X79415600Y-94200000D01*
X128133600Y-129844800D02*
X128133600Y-131454400D01*
X79451200Y-74542400D02*
X82429600Y-74542400D01*
X189010800Y-103249500D02*
X187538400Y-104721900D01*
X214149700Y-65872400D02*
X212430400Y-65872400D01*
X112432900Y-91287600D02*
X112498900Y-91221600D01*
X165440400Y-90337600D02*
X165440400Y-92456800D01*
X187538400Y-104721900D02*
X187538400Y-105612400D01*
X65430400Y-85769600D02*
X65400000Y-85800000D01*
X71374000Y-107942200D02*
X71374000Y-109774000D01*
X87232900Y-83800000D02*
X87303700Y-83870800D01*
X79399600Y-133889200D02*
X79502000Y-133991600D01*
X82975600Y-74542400D02*
X84887200Y-76454000D01*
X54400000Y-119600000D02*
X54400000Y-121925000D01*
X79400000Y-131800000D02*
X79400000Y-133889600D01*
X79472700Y-118668800D02*
X81831200Y-118668800D01*
X36017200Y-151654000D02*
X36372800Y-152009600D01*
X30276800Y-148031200D02*
X31902400Y-146405600D01*
X176514800Y-113510300D02*
X178495200Y-115490700D01*
X201864000Y-74981600D02*
X202117200Y-75234800D01*
X93444300Y-133555700D02*
X94200000Y-132800000D01*
X119938800Y-105546400D02*
X122418600Y-105546400D01*
X176616400Y-84622600D02*
X176616400Y-88567500D01*
X64668400Y-155718000D02*
X64668400Y-154203400D01*
X110642400Y-91287600D02*
X112432900Y-91287600D01*
X56800000Y-134000000D02*
X58649600Y-134000000D01*
X25974800Y-134264400D02*
X25210400Y-133500000D01*
X25210400Y-133500000D02*
X23500000Y-133500000D01*
X36677600Y-63707600D02*
X34042400Y-63707600D01*
X75969100Y-133889200D02*
X79399600Y-133889200D01*
X34042400Y-63707600D02*
X33250000Y-64500000D01*
X177010300Y-78712300D02*
X177038000Y-78740000D01*
X128651000Y-124968000D02*
X128397000Y-124968000D01*
X120040400Y-98739200D02*
X122113800Y-98739200D01*
X212430400Y-65872400D02*
X212344000Y-65786000D01*
X46415200Y-152212800D02*
X48971200Y-152212800D01*
X176616400Y-90464600D02*
X176616400Y-91948800D01*
X54200000Y-63024900D02*
X54152800Y-63072100D01*
X176616400Y-88567500D02*
X176616400Y-90464600D01*
X30276800Y-151654000D02*
X30276800Y-149047200D01*
X79220600Y-63779400D02*
X79250000Y-63750000D01*
X48971200Y-152212800D02*
X49022000Y-152263600D01*
X115062000Y-127889000D02*
X115027200Y-127923800D01*
X175803600Y-78712300D02*
X175803600Y-82296800D01*
X175803600Y-78712300D02*
X177010300Y-78712300D01*
X76541400Y-63779400D02*
X79220600Y-63779400D01*
X176209200Y-82702400D02*
X176616400Y-83109600D01*
X30276800Y-151654000D02*
X33512000Y-151654000D01*
X122418600Y-105546400D02*
X124039200Y-105546400D01*
X153553200Y-99845100D02*
X153553200Y-102732800D01*
X36216600Y-119655600D02*
X33147000Y-116586000D01*
X30276800Y-149047200D02*
X30276800Y-148031200D01*
X71501000Y-154305000D02*
X71475600Y-154330400D01*
X165440400Y-92456800D02*
X165541200Y-92557600D01*
X175803600Y-82296800D02*
X176209200Y-82702400D01*
X79400000Y-133889600D02*
X79502000Y-133991600D01*
X137125200Y-136006000D02*
X136987200Y-136144000D01*
X92913200Y-118901300D02*
X92913200Y-116586800D01*
X176616400Y-91948800D02*
X176818800Y-92151200D01*
X79502000Y-133991600D02*
X81993900Y-133991600D01*
X43383200Y-119655600D02*
X36216600Y-119655600D01*
X18542000Y-153543000D02*
X18491200Y-153593800D01*
X115599300Y-125171200D02*
X115599300Y-123346300D01*
X46888400Y-61062000D02*
X47396000Y-61062000D01*
X137734000Y-54417000D02*
X137668000Y-54483000D01*
X128133600Y-132921300D02*
X128183600Y-132971300D01*
X189010800Y-98094800D02*
X189010800Y-101057200D01*
X277682400Y-49682400D02*
X277750000Y-49750000D01*
X109270800Y-84007200D02*
X110937800Y-84007200D01*
X205689200Y-62195200D02*
X205689200Y-60883800D01*
X153553200Y-102732800D02*
X153553200Y-105055200D01*
X110937800Y-84007200D02*
X112499700Y-84007200D01*
X165796000Y-108836700D02*
X165796000Y-111064000D01*
D49*
X47396000Y-61062000D02*
X49911000Y-58547000D01*
D48*
X58115200Y-154101800D02*
X58166000Y-154051000D01*
X112347300Y-98688400D02*
X112600500Y-98435200D01*
X18491200Y-155194000D02*
X18491200Y-153593800D01*
X55184800Y-70154800D02*
X52954800Y-70154800D01*
X95200000Y-132000000D02*
X95000000Y-132000000D01*
X76758800Y-55508800D02*
X76750000Y-55500000D01*
X106969600Y-160817600D02*
X107086400Y-160934400D01*
X82702400Y-161065300D02*
X82702400Y-158902400D01*
X135458200Y-132791200D02*
X135382000Y-132715000D01*
X82429600Y-74542400D02*
X82975600Y-74542400D01*
X122113800Y-98739200D02*
X123370900Y-98739200D01*
X97129600Y-134178800D02*
X97129600Y-133929600D01*
X92434500Y-141456500D02*
X92434500Y-139598400D01*
X178495200Y-115490700D02*
X178495200Y-115763800D01*
X115599300Y-123346300D02*
X115570000Y-123317000D01*
X94200000Y-132800000D02*
X95000000Y-132000000D01*
X123777300Y-91525600D02*
X124030500Y-91272400D01*
X188808400Y-97892400D02*
X189010800Y-98094800D01*
X58791600Y-133858000D02*
X58791600Y-137239300D01*
X137125200Y-132791200D02*
X135458200Y-132791200D01*
X33147000Y-116586000D02*
X33143100Y-116586000D01*
X93444300Y-134076400D02*
X93444300Y-133555700D01*
X112253600Y-106105200D02*
X112522000Y-105836800D01*
X201864000Y-73726000D02*
X201864000Y-74981600D01*
X178495200Y-115763800D02*
X178495200Y-118821200D01*
X122520200Y-83854800D02*
X124334500Y-83854800D01*
X120040400Y-91525600D02*
X121834400Y-91525600D01*
X109118400Y-91287600D02*
X110642400Y-91287600D01*
X79415600Y-94200000D02*
X79635600Y-93980000D01*
X92456000Y-141478000D02*
X92434500Y-141456500D01*
X123370900Y-98739200D02*
X123776500Y-98333600D01*
%TO.N,Net-(BZ1-Pad2)*%
X145034000Y-53467000D02*
X147066000Y-55499000D01*
X147066000Y-55499000D02*
X147066000Y-59055000D01*
X148844000Y-60833000D02*
X148866600Y-60810400D01*
X148866600Y-60810400D02*
X151790400Y-60810400D01*
X141272500Y-53467000D02*
X145034000Y-53467000D01*
X147066000Y-59055000D02*
X148844000Y-60833000D01*
%TO.N,+12V*%
X185318400Y-162372800D02*
X190042800Y-162372800D01*
X33166000Y-41602000D02*
X33166000Y-44666000D01*
X201168800Y-126111800D02*
X200914000Y-125857000D01*
X33166000Y-44666000D02*
X35000000Y-46500000D01*
X35000000Y-46500000D02*
X35000000Y-49281600D01*
X190093600Y-162322000D02*
X200355200Y-162322000D01*
X200355200Y-162322000D02*
X200406000Y-162372800D01*
X55032000Y-67462000D02*
X55184800Y-67614800D01*
D50*
X73660000Y-61595000D02*
X73660000Y-51689000D01*
D48*
X224282000Y-125603000D02*
X224282000Y-113030000D01*
X33909000Y-55626000D02*
X33938800Y-55596200D01*
D49*
X36190600Y-57907600D02*
X36677600Y-57907600D01*
D48*
X73660000Y-51689000D02*
X73660000Y-51562000D01*
X201168800Y-146961200D02*
X201168800Y-126111800D01*
D50*
X72745600Y-62509400D02*
X73660000Y-61595000D01*
D49*
X36677600Y-57907600D02*
X46232000Y-67462000D01*
D48*
X191168800Y-161246800D02*
X190093600Y-162322000D01*
X54152800Y-66582800D02*
X55184800Y-67614800D01*
X71591400Y-62509400D02*
X72745600Y-62509400D01*
D49*
X33909000Y-55626000D02*
X36190600Y-57907600D01*
D48*
X190042800Y-162372800D02*
X190093600Y-162322000D01*
X191168800Y-146961200D02*
X191168800Y-161246800D01*
X224282000Y-113030000D02*
X224316800Y-112995200D01*
X54152800Y-65147100D02*
X54152800Y-66582800D01*
X46232000Y-67462000D02*
X46888400Y-67462000D01*
D49*
X33938800Y-50342800D02*
X33938800Y-55528800D01*
D48*
X46888400Y-67462000D02*
X55032000Y-67462000D01*
X33938800Y-55596200D02*
X33938800Y-55528800D01*
%TO.N,Net-(C3-Pad1)*%
X76758800Y-59203500D02*
X76758800Y-61022000D01*
X76758800Y-61022000D02*
X76541400Y-61239400D01*
%TO.N,Net-(C4-Pad1)*%
X69015200Y-58663200D02*
X71591400Y-61239400D01*
X63743300Y-58663200D02*
X66751200Y-58663200D01*
X66751200Y-58663200D02*
X69015200Y-58663200D01*
X61417200Y-60989300D02*
X63743300Y-58663200D01*
D50*
%TO.N,Net-(C4-Pad2)*%
X69342000Y-64008000D02*
X69570600Y-63779400D01*
D49*
X68330400Y-68935600D02*
X72364600Y-68935600D01*
X81026000Y-63627000D02*
X83109400Y-63627000D01*
D50*
X68330400Y-68935600D02*
X68330400Y-67051600D01*
D48*
X64750000Y-67250000D02*
X66750000Y-67250000D01*
X66750000Y-67250000D02*
X66750000Y-67355200D01*
X71362800Y-64008000D02*
X71591400Y-63779400D01*
X83109400Y-63627000D02*
X84305600Y-62430800D01*
X61417200Y-63917200D02*
X64750000Y-67250000D01*
D50*
X68330400Y-67051600D02*
X69342000Y-66040000D01*
D48*
X72364600Y-68935600D02*
X72390000Y-68961000D01*
X61417200Y-63064300D02*
X61417200Y-63917200D01*
X66750000Y-67355200D02*
X68330400Y-68935600D01*
D50*
X69570600Y-63779400D02*
X71591400Y-63779400D01*
D48*
X69088000Y-68178000D02*
X68330400Y-68935600D01*
%TO.N,Net-(C5-Pad1)*%
X71566000Y-65024000D02*
X71591400Y-65049400D01*
D49*
X91287200Y-76454000D02*
X91287200Y-81962300D01*
X91000000Y-72750000D02*
X91000000Y-76166800D01*
D48*
X78740000Y-78867000D02*
X77359000Y-77486000D01*
D49*
X94365600Y-62430800D02*
X94365600Y-69384400D01*
D48*
X86487000Y-78867000D02*
X78740000Y-78867000D01*
X66751200Y-63663200D02*
X68112000Y-65024000D01*
D49*
X89378700Y-83870800D02*
X89378700Y-88811700D01*
D48*
X91082500Y-72667500D02*
X91000000Y-72750000D01*
D49*
X91287200Y-81962300D02*
X89378700Y-83870800D01*
D48*
X77359000Y-77486000D02*
X77359000Y-69342000D01*
D49*
X94365600Y-69384400D02*
X91082500Y-72667500D01*
D48*
X68112000Y-65024000D02*
X71566000Y-65024000D01*
X91000000Y-76166800D02*
X91287200Y-76454000D01*
X88900000Y-76454000D02*
X86487000Y-78867000D01*
X91287200Y-76454000D02*
X88900000Y-76454000D01*
X71591400Y-65049400D02*
X71591400Y-66384400D01*
X89378700Y-88811700D02*
X89290400Y-88900000D01*
X74549000Y-69342000D02*
X77359000Y-69342000D01*
X71591400Y-66384400D02*
X74549000Y-69342000D01*
%TO.N,Net-(C11-Pad1)*%
X71729600Y-118634000D02*
X77362900Y-118634000D01*
X71812400Y-115163600D02*
X71812400Y-118551200D01*
X77362900Y-118634000D02*
X77397700Y-118668800D01*
X71812400Y-118551200D02*
X71729600Y-118634000D01*
X67090800Y-115163600D02*
X71812400Y-115163600D01*
%TO.N,Net-(C12-Pad1)*%
X69866000Y-76301600D02*
X66582800Y-76301600D01*
X69866000Y-79705200D02*
X69866000Y-76301600D01*
X65414400Y-77470000D02*
X65414400Y-81475000D01*
X66582800Y-76301600D02*
X65414400Y-77470000D01*
X65414400Y-81475000D02*
X65430400Y-81491000D01*
%TO.N,Net-(C13-Pad1)*%
X65871600Y-90220800D02*
X65871600Y-94330100D01*
X65871600Y-94330100D02*
X65786000Y-94415700D01*
X71069200Y-89373200D02*
X70221600Y-90220800D01*
X71069200Y-86293200D02*
X71069200Y-89373200D01*
X70221600Y-90220800D02*
X65871600Y-90220800D01*
%TO.N,Net-(C14-Pad1)*%
X71755000Y-105486200D02*
X71374000Y-105867200D01*
X71755000Y-101965000D02*
X78187800Y-101965000D01*
X71755000Y-101965000D02*
X71755000Y-105486200D01*
X78187800Y-101965000D02*
X78400400Y-101752400D01*
X71755000Y-101965000D02*
X66945000Y-101965000D01*
X66945000Y-101965000D02*
X66852800Y-102057200D01*
%TO.N,Net-(C15-Pad1)*%
X266277600Y-49885600D02*
X269224000Y-46939200D01*
X269224000Y-46117000D02*
X270510000Y-44831000D01*
X269224000Y-46939200D02*
X269224000Y-46117000D01*
X269224000Y-46939200D02*
X272405600Y-46939200D01*
%TO.N,Net-(C16-Pad1)*%
X58775600Y-124069600D02*
X54469600Y-124069600D01*
X61770000Y-124069600D02*
X61855600Y-124155200D01*
X61855600Y-121107200D02*
X61855600Y-124155200D01*
X54469600Y-124069600D02*
X54400000Y-124000000D01*
X58775600Y-124069600D02*
X61770000Y-124069600D01*
%TO.N,Net-(C17-Pad1)*%
X83566000Y-137638700D02*
X83566000Y-139328400D01*
X77149200Y-140208000D02*
X77098400Y-140157200D01*
X77098400Y-140157200D02*
X78086200Y-140157200D01*
X80137000Y-142208000D02*
X82137000Y-140208000D01*
X82137000Y-140208000D02*
X84445600Y-140208000D01*
X78086200Y-140157200D02*
X80137000Y-142208000D01*
X83566000Y-139328400D02*
X84445600Y-140208000D01*
%TO.N,Net-(C18-Pad1)*%
X99126800Y-124358400D02*
X100041200Y-125272800D01*
X92309100Y-121580400D02*
X92913200Y-120976300D01*
X85496400Y-121580400D02*
X92309100Y-121580400D01*
X94976300Y-120976300D02*
X96600000Y-122600000D01*
X92913200Y-120976300D02*
X94976300Y-120976300D01*
X96600000Y-122600000D02*
X96600000Y-124160800D01*
X96402400Y-124358400D02*
X99126800Y-124358400D01*
X96600000Y-124160800D02*
X96402400Y-124358400D01*
%TO.N,Net-(C19-Pad1)*%
X91795600Y-157702000D02*
X91795600Y-162576000D01*
X87426800Y-163340800D02*
X91030800Y-163340800D01*
X82702400Y-163140300D02*
X87226300Y-163140300D01*
X91030800Y-163340800D02*
X91049600Y-163322000D01*
X91795600Y-162576000D02*
X91049600Y-163322000D01*
X87226300Y-163140300D02*
X87426800Y-163340800D01*
%TO.N,Net-(C20-Pad1)*%
X101514400Y-130343400D02*
X101514400Y-129235200D01*
X102108000Y-132461000D02*
X104013000Y-132461000D01*
X99339400Y-141605000D02*
X98552000Y-141605000D01*
X94742000Y-141478000D02*
X94742000Y-139830900D01*
X101574600Y-139598400D02*
X105410000Y-135763000D01*
X101346000Y-139598400D02*
X99339400Y-141605000D01*
X101981000Y-130810000D02*
X101514400Y-130343400D01*
X104013000Y-132461000D02*
X105029000Y-131445000D01*
X94742000Y-139830900D02*
X94509500Y-139598400D01*
X101981000Y-132588000D02*
X102108000Y-132461000D01*
X102743000Y-130810000D02*
X101981000Y-130810000D01*
X101981000Y-133289800D02*
X101981000Y-132588000D01*
X101565200Y-133705600D02*
X101981000Y-133289800D01*
X101346000Y-139598400D02*
X101574600Y-139598400D01*
%TO.N,Net-(C21-Pad1)*%
X120412000Y-125171200D02*
X120412000Y-131064000D01*
X110474000Y-123190000D02*
X112141000Y-123190000D01*
X117674300Y-125171200D02*
X120412000Y-125171200D01*
X120412000Y-131064000D02*
X119227600Y-132248400D01*
X116459000Y-122301000D02*
X117674300Y-123516300D01*
X113030000Y-122301000D02*
X116459000Y-122301000D01*
X112141000Y-123190000D02*
X113030000Y-122301000D01*
X117674300Y-123516300D02*
X117674300Y-125171200D01*
%TO.N,Net-(C22-Pad1)*%
X132507900Y-124917200D02*
X133943600Y-124917200D01*
X157734000Y-126365000D02*
X157607000Y-126492000D01*
X133943600Y-124917200D02*
X135026400Y-126000000D01*
X135026400Y-126000000D02*
X136550400Y-126000000D01*
X138684000Y-123190000D02*
X137836400Y-124037600D01*
X137836400Y-124037600D02*
X137836400Y-124714000D01*
X274234400Y-118576600D02*
X274234400Y-64211200D01*
X157734000Y-122555000D02*
X157734000Y-126365000D01*
X140462000Y-123190000D02*
X138684000Y-123190000D01*
X141732000Y-124460000D02*
X140462000Y-123190000D01*
X274066000Y-118745000D02*
X274234400Y-118576600D01*
X136550400Y-126000000D02*
X137836400Y-124714000D01*
%TO.N,Net-(C23-Pad1)*%
X31068100Y-111746700D02*
X31068100Y-116586000D01*
X31359600Y-111455200D02*
X31068100Y-111746700D01*
X31068100Y-123794100D02*
X31089600Y-123815600D01*
X31308800Y-111506000D02*
X31359600Y-111455200D01*
X27619200Y-111506000D02*
X31308800Y-111506000D01*
X31068100Y-116586000D02*
X31068100Y-123794100D01*
%TO.N,Net-(C24-Pad1)*%
X35966400Y-144288000D02*
X35931600Y-144322800D01*
X35931600Y-144322800D02*
X31910200Y-144322800D01*
X28432000Y-144322800D02*
X31894600Y-144322800D01*
X35966400Y-141208000D02*
X35966400Y-144288000D01*
X31894600Y-144322800D02*
X31902400Y-144330600D01*
X31910200Y-144322800D02*
X31902400Y-144330600D01*
%TO.N,Net-(D1-Pad1)*%
X28194000Y-36195000D02*
X28138800Y-36250200D01*
X15802000Y-28434800D02*
X15802000Y-33434800D01*
D49*
X15802000Y-33434800D02*
X25433800Y-33434800D01*
X25433800Y-33434800D02*
X28194000Y-36195000D01*
X28138800Y-36250200D02*
X28138800Y-50342800D01*
D48*
%TO.N,Net-(D5-Pad1)*%
X81635600Y-93980000D02*
X85182600Y-93980000D01*
X85182600Y-93980000D02*
X85233400Y-94030800D01*
%TO.N,VCC*%
X225033511Y-85319689D02*
X224755200Y-85598000D01*
X205806800Y-106994200D02*
X205867000Y-106934000D01*
X206314800Y-69402200D02*
X206375000Y-69342000D01*
X262644400Y-172412000D02*
X262644400Y-160409400D01*
X224958400Y-78130400D02*
X224755200Y-78333600D01*
X133604000Y-52848000D02*
X133747000Y-52705000D01*
X225033511Y-78611911D02*
X225033511Y-85319689D01*
X99346000Y-139598400D02*
X97815400Y-139598400D01*
X209245200Y-162220400D02*
X209245200Y-160959800D01*
X84850000Y-88900000D02*
X84750000Y-89000000D01*
X224755200Y-85598000D02*
X224906511Y-85749311D01*
X206502000Y-82930989D02*
X206502000Y-85156800D01*
X205756000Y-99933000D02*
X205867000Y-99822000D01*
X123952000Y-125222000D02*
X123901200Y-125171200D01*
D49*
X15700400Y-51663600D02*
X23012400Y-51663600D01*
D48*
X224906511Y-93457089D02*
X224891600Y-93472000D01*
X35966400Y-139208000D02*
X38465000Y-139208000D01*
X206314800Y-71018400D02*
X206314800Y-69402200D01*
X276234400Y-64211200D02*
X276293600Y-64152000D01*
X122412000Y-125171200D02*
X123901200Y-125171200D01*
X205867000Y-90678000D02*
X205822800Y-90722200D01*
X23012400Y-51663600D02*
X23114000Y-51562000D01*
X97790000Y-139573000D02*
X97815400Y-139598400D01*
X169988000Y-147012000D02*
X172699200Y-147012000D01*
X87376000Y-161290000D02*
X87376000Y-159004000D01*
X224180400Y-162372800D02*
X209397600Y-162372800D01*
X85496400Y-123580400D02*
X82330400Y-123580400D01*
X225263200Y-108864400D02*
X224856800Y-109270800D01*
X170042000Y-147066000D02*
X169988000Y-147012000D01*
X224906511Y-85749311D02*
X224906511Y-93457089D01*
X224856800Y-109788200D02*
X224856800Y-109270800D01*
X82750000Y-101750000D02*
X82747600Y-101752400D01*
X82330400Y-123580400D02*
X82250000Y-123500000D01*
X89969200Y-94030800D02*
X90000000Y-94000000D01*
X224958400Y-75650600D02*
X224958400Y-78130400D01*
D49*
X87290400Y-88900000D02*
X84850000Y-88900000D01*
D48*
X71729600Y-122979600D02*
X71750000Y-123000000D01*
X80400400Y-101752400D02*
X82747600Y-101752400D01*
X205806800Y-108864400D02*
X205806800Y-106994200D01*
X225263200Y-102463600D02*
X225263200Y-108864400D01*
X205756000Y-102006400D02*
X205756000Y-99933000D01*
X224891600Y-93472000D02*
X225263200Y-93843600D01*
X71866000Y-83496400D02*
X71069200Y-84293200D01*
X31089600Y-125815600D02*
X28870400Y-125815600D01*
X63855600Y-124155200D02*
X65905200Y-124155200D01*
X279598000Y-64152000D02*
X283206800Y-64152000D01*
X206502000Y-85156800D02*
X206467200Y-85191600D01*
X262644400Y-160409400D02*
X262636000Y-160401000D01*
X87283400Y-94030800D02*
X89969200Y-94030800D01*
X87426800Y-161340800D02*
X87376000Y-161290000D01*
X173101000Y-158623000D02*
X172699200Y-158221200D01*
X206857600Y-77536800D02*
X206695800Y-77698600D01*
X224755200Y-78333600D02*
X225033511Y-78611911D01*
X205806800Y-108864400D02*
X206194307Y-108864400D01*
X205756000Y-102006400D02*
X206143507Y-102006400D01*
X65905200Y-124155200D02*
X66000000Y-124250000D01*
X225263200Y-93843600D02*
X225263200Y-102463600D01*
X172699200Y-147012000D02*
X177699200Y-147012000D01*
X209245200Y-162220400D02*
X214223600Y-162220400D01*
X167699200Y-147012000D02*
X169988000Y-147012000D01*
X206857600Y-75539600D02*
X206857600Y-77536800D01*
X28870400Y-125815600D02*
X28702000Y-125984000D01*
X104643000Y-68864400D02*
X104700000Y-68921400D01*
X162699200Y-147012000D02*
X167699200Y-147012000D01*
X28625800Y-129336800D02*
X28702000Y-129413000D01*
X170053000Y-147066000D02*
X170042000Y-147066000D01*
X26552400Y-129336800D02*
X28625800Y-129336800D01*
X71866000Y-79705200D02*
X71866000Y-82693000D01*
X172699200Y-158221200D02*
X172699200Y-147012000D01*
X224958400Y-71069200D02*
X224958400Y-75650600D01*
X209397600Y-162372800D02*
X209245200Y-162220400D01*
X209245200Y-160959800D02*
X209296000Y-160909000D01*
X38465000Y-139208000D02*
X38481000Y-139192000D01*
X86445600Y-140208000D02*
X88392000Y-140208000D01*
X276293600Y-64152000D02*
X279598000Y-64152000D01*
X104643000Y-68864400D02*
X104643000Y-65029000D01*
X133604000Y-64516000D02*
X133604000Y-52848000D01*
X104643000Y-65029000D02*
X104648000Y-65024000D01*
X205822800Y-92964000D02*
X205822800Y-90722200D01*
X71729600Y-120634000D02*
X71729600Y-122979600D01*
X104700000Y-68921400D02*
X104700000Y-70876000D01*
X71866000Y-82693000D02*
X71866000Y-83496400D01*
%TO.N,/logique/Entr\u00E9es digitales/IN8*%
X63846200Y-113919000D02*
X65090800Y-115163600D01*
X49149000Y-113919000D02*
X63846200Y-113919000D01*
X48412400Y-114655600D02*
X49149000Y-113919000D01*
X43383200Y-114655600D02*
X48412400Y-114655600D01*
%TO.N,/logique/Entr\u00E9es digitales/IN5*%
X62103000Y-77343000D02*
X62230000Y-77470000D01*
X62230000Y-77470000D02*
X63414400Y-77470000D01*
%TO.N,/logique/Entr\u00E9es digitales/IN6*%
X63820800Y-90170000D02*
X63871600Y-90220800D01*
X61722000Y-90170000D02*
X63820800Y-90170000D01*
%TO.N,/logique/Entr\u00E9es digitales/IN7*%
X63379600Y-100584000D02*
X64852800Y-102057200D01*
X43386400Y-101473000D02*
X46863000Y-101473000D01*
X46863000Y-101473000D02*
X47752000Y-100584000D01*
X47752000Y-100584000D02*
X63379600Y-100584000D01*
%TO.N,/logique/Entr\u00E9es analogiques/ANALOG1*%
X52521000Y-166703400D02*
X52521000Y-172618400D01*
X48920400Y-163102800D02*
X52521000Y-166703400D01*
%TO.N,/logique/Entr\u00E9es analogiques/ANALOG2*%
X57521000Y-169281000D02*
X55245000Y-167005000D01*
X55245000Y-167005000D02*
X55245000Y-163534600D01*
X55245000Y-163534600D02*
X55473600Y-163306000D01*
X57521000Y-172618400D02*
X57521000Y-169281000D01*
%TO.N,/logique/Entr\u00E9es analogiques/ANALOG3*%
X61264800Y-163610800D02*
X61264800Y-168833800D01*
X61264800Y-168833800D02*
X62521000Y-170090000D01*
X62521000Y-170090000D02*
X62521000Y-172618400D01*
%TO.N,/logique/Entr\u00E9es analogiques/ANALOG4*%
X67818000Y-163560000D02*
X67521000Y-163857000D01*
X67521000Y-163857000D02*
X67521000Y-172618400D01*
%TO.N,Net-(D26-Pad1)*%
X269392400Y-56321200D02*
X269392400Y-59108400D01*
X269341600Y-56270400D02*
X269392400Y-56321200D01*
%TO.N,/logique/Extensions/Simple extension/EI*%
X128524000Y-117348000D02*
X128524000Y-106680000D01*
X133862682Y-66416318D02*
X135509000Y-64770000D01*
X98425000Y-126746000D02*
X99103511Y-127424511D01*
X105918000Y-127508000D02*
X106172000Y-127254000D01*
X128143000Y-117729000D02*
X128524000Y-117348000D01*
X265811000Y-63881000D02*
X267083600Y-62608400D01*
X133862682Y-101341318D02*
X133862682Y-66416318D01*
X267083600Y-62608400D02*
X269392400Y-62608400D01*
X105834511Y-127424511D02*
X105918000Y-127508000D01*
X99103511Y-127424511D02*
X105834511Y-127424511D01*
X128524000Y-106680000D02*
X133862682Y-101341318D01*
%TO.N,Net-(D28-Pad1)*%
X53848000Y-133791200D02*
X53848000Y-136578400D01*
%TO.N,/logique/Extensions/Simple extension1/EI*%
X51310600Y-140078400D02*
X53848000Y-140078400D01*
X53848000Y-146043800D02*
X54867000Y-147062800D01*
X53848000Y-140078400D02*
X53848000Y-146043800D01*
X51054000Y-140335000D02*
X51310600Y-140078400D01*
%TO.N,Net-(D30-Pad1)*%
X65633600Y-133233600D02*
X65633600Y-136781600D01*
X68392800Y-132486400D02*
X66313600Y-132486400D01*
X65600000Y-133200000D02*
X65633600Y-133233600D01*
X66313600Y-132486400D02*
X65600000Y-133200000D01*
%TO.N,/logique/Extensions/Simple extension2/EI*%
X67383600Y-140281600D02*
X67437000Y-140335000D01*
X65633600Y-140281600D02*
X67383600Y-140281600D01*
X69342000Y-144742000D02*
X69342000Y-147113600D01*
X65633600Y-140281600D02*
X65633600Y-141033600D01*
X65633600Y-141033600D02*
X69342000Y-144742000D01*
%TO.N,Net-(D32-Pad1)*%
X88465600Y-126180400D02*
X88465600Y-130759200D01*
X88611200Y-126034800D02*
X88465600Y-126180400D01*
%TO.N,/logique/Extensions/Simple extension3/EI*%
X84965600Y-130759200D02*
X84965600Y-131193600D01*
X84965600Y-131193600D02*
X86106000Y-132334000D01*
%TO.N,Net-(D34-Pad1)*%
X99720400Y-158569600D02*
X96106800Y-158569600D01*
X96106800Y-158569600D02*
X95961200Y-158715200D01*
%TO.N,/logique/Extensions/Simple extension6/EI*%
X99822000Y-154968000D02*
X99720400Y-155069600D01*
X99822000Y-147062800D02*
X99822000Y-154968000D01*
%TO.N,Net-(D36-Pad1)*%
X108712000Y-133486400D02*
X107825600Y-134372800D01*
X107825600Y-134372800D02*
X107825600Y-137058400D01*
%TO.N,/logique/Extensions/Simple extension7/EI*%
X112496600Y-137058400D02*
X112522000Y-137033000D01*
X111325600Y-137058400D02*
X111325600Y-143732800D01*
X111325600Y-143732800D02*
X114655600Y-147062800D01*
X111325600Y-137058400D02*
X112496600Y-137058400D01*
%TO.N,Net-(D38-Pad1)*%
X123167200Y-134982400D02*
X123167200Y-137820400D01*
X123240800Y-134908800D02*
X123167200Y-134982400D01*
%TO.N,/logique/Extensions/Simple extension5/EI*%
X129289000Y-143289000D02*
X129289000Y-147120000D01*
X126667200Y-137820400D02*
X126667200Y-140667200D01*
X126731000Y-140731000D02*
X129289000Y-143289000D01*
X126667200Y-140667200D02*
X126731000Y-140731000D01*
%TO.N,Net-(D40-Pad1)*%
X143713200Y-132267200D02*
X143713200Y-133733600D01*
X145526000Y-130454400D02*
X143713200Y-132267200D01*
%TO.N,/logique/Extensions/Simple extension4/EI*%
X143713200Y-137233600D02*
X143713200Y-146354600D01*
X143713200Y-146354600D02*
X143005000Y-147062800D01*
%TO.N,/logique/Entr\u00E9es analogiques - Extension/Extention analogique simple/A_IN_EXT*%
X248976400Y-77296000D02*
X253238000Y-77296000D01*
X247329200Y-78943200D02*
X248976400Y-77296000D01*
%TO.N,/logique/Entr\u00E9es analogiques - Extension/Extention analogique simple1/A_IN_EXT*%
X253565000Y-91266000D02*
X257081000Y-87750000D01*
X264531600Y-87579200D02*
X264464800Y-87646000D01*
X264464800Y-87646000D02*
X264464800Y-89230200D01*
X257081000Y-87750000D02*
X264360800Y-87750000D01*
X264360800Y-87750000D02*
X264531600Y-87579200D01*
%TO.N,/logique/Entr\u00E9es analogiques - Extension/Extention analogique simple2/A_IN_EXT*%
X264684000Y-102934000D02*
X264684000Y-101447600D01*
X260858000Y-106760000D02*
X254000000Y-106760000D01*
X264684000Y-102934000D02*
X260858000Y-106760000D01*
X266000000Y-104250000D02*
X264684000Y-102934000D01*
%TO.N,/logique/Entr\u00E9es analogiques - Extension/Extention analogique simple3/A_IN_EXT*%
X254000000Y-122000000D02*
X260250000Y-122000000D01*
X244535200Y-121767600D02*
X244767600Y-122000000D01*
X244767600Y-122000000D02*
X254000000Y-122000000D01*
%TO.N,/logique/Entr\u00E9es analogiques - Extension/Extention analogique simple5/A_IN_EXT*%
X265970000Y-134017000D02*
X266065000Y-134112000D01*
X265970000Y-132080000D02*
X265970000Y-134017000D01*
%TO.N,/logique/Entr\u00E9es analogiques - Extension/Extention analogique simple6/A_IN_EXT*%
X275844000Y-155448000D02*
X278964400Y-152327600D01*
X278964400Y-152327600D02*
X283257600Y-152327600D01*
X259724400Y-152603200D02*
X262569200Y-155448000D01*
X262569200Y-155448000D02*
X275844000Y-155448000D01*
%TO.N,/logique/Entr\u00E9es analogiques - Extension/Extention analogique simple4/A_IN_EXT*%
X222756000Y-135006000D02*
X224250000Y-136500000D01*
X222453200Y-135006000D02*
X222756000Y-135006000D01*
%TO.N,/logique/Entr\u00E9es analogiques - Extension/Extention analogique simple7/A_IN_EXT*%
X210908400Y-135158400D02*
X211000000Y-135250000D01*
X208076800Y-135158400D02*
X210908400Y-135158400D01*
X211000000Y-135250000D02*
X211250000Y-135500000D01*
%TO.N,/logique/Entr\u00E9es analogiques/ANALOG5*%
X25038200Y-162029800D02*
X25038200Y-172618400D01*
X23469600Y-160461200D02*
X25038200Y-162029800D01*
%TO.N,/logique/Entr\u00E9es analogiques/ANALOG6*%
X30353000Y-172303600D02*
X30038200Y-172618400D01*
X30353000Y-171069000D02*
X30353000Y-172303600D01*
X30210000Y-170926000D02*
X30353000Y-171069000D01*
X30210000Y-162798000D02*
X30210000Y-170926000D01*
%TO.N,/logique/Entr\u00E9es analogiques/ANALOG7*%
X36220400Y-162950400D02*
X35038200Y-164132600D01*
X35038200Y-164132600D02*
X35038200Y-172618400D01*
%TO.N,/logique/Entr\u00E9es analogiques/ANALOG8*%
X40038200Y-165787400D02*
X40038200Y-172618400D01*
X42875200Y-162950400D02*
X40038200Y-165787400D01*
%TO.N,/logique/Entr\u00E9es digitales/IN10*%
X25619200Y-111506000D02*
X25619200Y-113445800D01*
X25619200Y-113445800D02*
X25273000Y-113792000D01*
%TO.N,/logique/Entr\u00E9es digitales/IN9*%
X20675600Y-142595600D02*
X15954400Y-142595600D01*
X22402800Y-144322800D02*
X20675600Y-142595600D01*
X26432000Y-144322800D02*
X22402800Y-144322800D01*
%TO.N,20(SDA)*%
X275082000Y-115189000D02*
X275082000Y-118237000D01*
X278227000Y-130526000D02*
X283410000Y-130526000D01*
X276352000Y-119507000D02*
X276352000Y-128651000D01*
X141478000Y-110998000D02*
X140959511Y-110479511D01*
X140959511Y-110479511D02*
X140959511Y-78983511D01*
X275082000Y-118237000D02*
X276352000Y-119507000D01*
X276352000Y-128651000D02*
X278227000Y-130526000D01*
X143002000Y-115189000D02*
X141478000Y-113665000D01*
X140959511Y-78983511D02*
X139827000Y-77851000D01*
X141478000Y-113665000D02*
X141478000Y-110998000D01*
%TO.N,21(SCL)*%
X138557000Y-110109000D02*
X140335000Y-111887000D01*
X277114000Y-123571000D02*
X279146000Y-125603000D01*
X245872000Y-117348000D02*
X244602000Y-116078000D01*
X112278000Y-75067000D02*
X115697000Y-78486000D01*
X277114000Y-117475000D02*
X277114000Y-123571000D01*
X244602000Y-116078000D02*
X244602000Y-113411000D01*
X112278000Y-70866000D02*
X112278000Y-75067000D01*
X279146000Y-125603000D02*
X279223000Y-125526000D01*
X279223000Y-125526000D02*
X283410000Y-125526000D01*
X138557000Y-78359000D02*
X138557000Y-110109000D01*
%TO.N,SDA*%
X175905489Y-109357489D02*
X175905489Y-99684511D01*
X175905489Y-99684511D02*
X181229000Y-94361000D01*
X179419720Y-112871720D02*
X175905489Y-109357489D01*
X178689000Y-148248896D02*
X179419720Y-147518176D01*
X267644400Y-162234400D02*
X267335000Y-161925000D01*
X179419720Y-147518176D02*
X179419720Y-112871720D01*
X267644400Y-172412000D02*
X267644400Y-162234400D01*
X178689000Y-160528000D02*
X178689000Y-148248896D01*
X181229000Y-75184000D02*
X177312000Y-71267000D01*
X177312000Y-71267000D02*
X177312000Y-70866000D01*
X181229000Y-94361000D02*
X181229000Y-75184000D01*
%TO.N,SCL*%
X180721000Y-154940000D02*
X180721000Y-137922000D01*
X180721000Y-137922000D02*
X190881000Y-127762000D01*
X190256489Y-81270489D02*
X179852000Y-70866000D01*
X190881000Y-127762000D02*
X190881000Y-86608193D01*
X272644400Y-172412000D02*
X272644400Y-159614400D01*
X272644400Y-159614400D02*
X272161000Y-159131000D01*
X190256489Y-85983682D02*
X190256489Y-81270489D01*
X190881000Y-86608193D02*
X190256489Y-85983682D01*
%TO.N,17(Rx2)*%
X280035000Y-94615000D02*
X280035000Y-103935400D01*
X249809000Y-86614000D02*
X249809000Y-93218000D01*
X280035000Y-103935400D02*
X283257600Y-107158000D01*
X249809000Y-93218000D02*
X249428000Y-93599000D01*
X186563000Y-80016420D02*
X186563000Y-82931000D01*
X122438000Y-70866000D02*
X122438000Y-79893000D01*
X122438000Y-79893000D02*
X122555000Y-80010000D01*
%TO.N,16(Tx2)*%
X124968000Y-74676000D02*
X124978000Y-74666000D01*
X130556000Y-80264000D02*
X124968000Y-74676000D01*
X124978000Y-74666000D02*
X124978000Y-70866000D01*
X130556000Y-96012000D02*
X130556000Y-80264000D01*
%TO.N,19(Rx1)*%
X117358000Y-74813000D02*
X117358000Y-70866000D01*
X117475000Y-74930000D02*
X117358000Y-74813000D01*
%TO.N,0(Rx0)*%
X135138000Y-70866000D02*
X135138000Y-66284000D01*
X281309600Y-35174400D02*
X283105200Y-35174400D01*
X279146000Y-37338000D02*
X281309600Y-35174400D01*
X279146000Y-60325000D02*
X279146000Y-37338000D01*
X135509000Y-65913000D02*
X135509000Y-65796500D01*
X135138000Y-66284000D02*
X135509000Y-65913000D01*
%TO.N,1(Tx0)*%
X279908000Y-61341000D02*
X279908000Y-38227000D01*
X280797000Y-62230000D02*
X279908000Y-61341000D01*
X137678000Y-70866000D02*
X137678000Y-67701000D01*
X138430000Y-66929000D02*
X140970000Y-66929000D01*
X137668000Y-67691000D02*
X138430000Y-66929000D01*
X137678000Y-67701000D02*
X137668000Y-67691000D01*
X279908000Y-38227000D02*
X279770500Y-38227000D01*
%TO.N,15(Rx3)*%
X149098000Y-66246020D02*
X149098000Y-75057000D01*
%TO.N,14(Tx3)*%
X130058000Y-69078000D02*
X130058000Y-70866000D01*
X135001000Y-64008000D02*
X134493000Y-64516000D01*
X263398000Y-61214000D02*
X255143000Y-61214000D01*
X145161000Y-65278000D02*
X144526000Y-65913000D01*
X138430000Y-65913000D02*
X136525000Y-64008000D01*
X132207000Y-66929000D02*
X130058000Y-69078000D01*
X134493000Y-64516000D02*
X134493000Y-64897000D01*
X132461000Y-66929000D02*
X132207000Y-66929000D01*
X136525000Y-64008000D02*
X135001000Y-64008000D01*
X145161000Y-63500000D02*
X145161000Y-65278000D01*
X255143000Y-61214000D02*
X252730000Y-63627000D01*
X134493000Y-64897000D02*
X132461000Y-66929000D01*
X144526000Y-65913000D02*
X138430000Y-65913000D01*
X252730000Y-63627000D02*
X247904000Y-63627000D01*
%TO.N,52(SCK)*%
X203327000Y-153797000D02*
X203454000Y-153924000D01*
X154106120Y-113339120D02*
X154106120Y-123626120D01*
X154106120Y-123626120D02*
X155956000Y-125476000D01*
X203327000Y-129413000D02*
X203327000Y-153797000D01*
X154051000Y-113284000D02*
X154106120Y-113339120D01*
X243920800Y-153843200D02*
X243920800Y-172412000D01*
X243967000Y-153797000D02*
X243920800Y-153843200D01*
%TO.N,51(MOSI)*%
X124460000Y-114681000D02*
X124460000Y-114760469D01*
X166878000Y-118491000D02*
X166878000Y-118999000D01*
X208153000Y-138557000D02*
X208153000Y-154940000D01*
X171323000Y-133731000D02*
X171323000Y-139065000D01*
X166878000Y-118999000D02*
X166878000Y-129286000D01*
X124460000Y-114760469D02*
X124587000Y-114887469D01*
X238760000Y-156703100D02*
X238920800Y-156863900D01*
X208153000Y-154940000D02*
X209550000Y-156337000D01*
X238920800Y-156863900D02*
X238920800Y-172412000D01*
X166878000Y-129286000D02*
X171323000Y-133731000D01*
X171323000Y-139065000D02*
X171069000Y-139319000D01*
X162687000Y-114543500D02*
X162930500Y-114543500D01*
X123825000Y-109474000D02*
X124460000Y-110109000D01*
X162930500Y-114543500D02*
X166878000Y-118491000D01*
X124460000Y-110109000D02*
X124460000Y-114681000D01*
%TO.N,50(MISO)*%
X233920800Y-118223800D02*
X228727000Y-113030000D01*
X233920800Y-172412000D02*
X233920800Y-118223800D01*
X228727000Y-113030000D02*
X228727000Y-112014000D01*
%TO.N,53(SS)*%
X111000000Y-111516000D02*
X111000000Y-113500000D01*
X248920800Y-155828200D02*
X248920800Y-172412000D01*
X206248000Y-155448000D02*
X206121000Y-155575000D01*
X249047000Y-155702000D02*
X248920800Y-155828200D01*
X156646120Y-119943120D02*
X163449000Y-126746000D01*
X206248000Y-137033000D02*
X206248000Y-155448000D01*
X163449000Y-126746000D02*
X163449000Y-137414000D01*
X155067000Y-110998000D02*
X155067000Y-116205000D01*
X155067000Y-116205000D02*
X156646120Y-117784120D01*
X156646120Y-117784120D02*
X156646120Y-119943120D01*
%TO.N,AREF*%
X192659000Y-77597000D02*
X192405000Y-77343000D01*
X104775000Y-125984000D02*
X104775000Y-116840000D01*
X192405000Y-76835000D02*
X192532000Y-76708000D01*
X104902000Y-116713000D02*
X104775000Y-116586000D01*
X104775000Y-116840000D02*
X104902000Y-116713000D01*
X174772000Y-74783000D02*
X174772000Y-70866000D01*
X104775000Y-116586000D02*
X104648000Y-116586000D01*
X24552400Y-130842000D02*
X27974800Y-134264400D01*
X174625000Y-74930000D02*
X174772000Y-74783000D01*
X28422600Y-134264400D02*
X31369000Y-131318000D01*
X15700400Y-129082800D02*
X24298400Y-129082800D01*
X192659000Y-116713000D02*
X192659000Y-77597000D01*
X24298400Y-129082800D02*
X24552400Y-129336800D01*
X27974800Y-134264400D02*
X28422600Y-134264400D01*
X24552400Y-129336800D02*
X24552400Y-130842000D01*
X192405000Y-77343000D02*
X192405000Y-76835000D01*
%TO.N,/logique/Collecteurs ouverts/OC5-PWM*%
X199594289Y-97712711D02*
X199594289Y-141809289D01*
X147574000Y-162560000D02*
X157226000Y-152908000D01*
X199644000Y-141859000D02*
X199644000Y-141732000D01*
X216052400Y-102006400D02*
X216052400Y-97307400D01*
X199594289Y-141809289D02*
X199644000Y-141859000D01*
X157226000Y-152908000D02*
X157226000Y-141605000D01*
X189689500Y-92788500D02*
X187858400Y-92788500D01*
X190246000Y-93345000D02*
X189689500Y-92788500D01*
X81407000Y-169418000D02*
X81261400Y-169563600D01*
X81261400Y-169563600D02*
X81261400Y-172469200D01*
X200025000Y-97282000D02*
X199594289Y-97712711D01*
X199644000Y-141732000D02*
X199390000Y-141478000D01*
X216052400Y-97307400D02*
X216027000Y-97282000D01*
%TO.N,/logique/Collecteurs ouverts/OC6-PWM*%
X216154000Y-104706480D02*
X216103200Y-104757280D01*
X216103200Y-104757280D02*
X216103200Y-109016800D01*
X154940000Y-152273000D02*
X147320000Y-159893000D01*
X186563000Y-101092000D02*
X186588400Y-101117400D01*
X190119000Y-126746000D02*
X181610000Y-135255000D01*
X86261400Y-166341600D02*
X86261400Y-172469200D01*
X86487000Y-166116000D02*
X86261400Y-166341600D01*
X181610000Y-135255000D02*
X181483000Y-135255000D01*
X190119000Y-101346000D02*
X190119000Y-126746000D01*
X154940000Y-135636000D02*
X154940000Y-152273000D01*
X186588400Y-102846900D02*
X186588400Y-101117400D01*
%TO.N,/logique/Collecteurs ouverts/OC7-PWM*%
X180006991Y-110188009D02*
X180006991Y-111172991D01*
X181102000Y-132461000D02*
X180975000Y-132588000D01*
X196342000Y-77099500D02*
X195717489Y-77724011D01*
X180006991Y-111172991D02*
X181102000Y-112268000D01*
X234000000Y-73472000D02*
X234188000Y-73660000D01*
X234188000Y-73660000D02*
X234188000Y-73787000D01*
X175514000Y-110109000D02*
X175564800Y-110159800D01*
X181102000Y-112268000D02*
X181102000Y-132461000D01*
X234000000Y-71500000D02*
X234000000Y-73472000D01*
X159131000Y-152527000D02*
X147320000Y-164338000D01*
X234188000Y-73787000D02*
X234061000Y-73914000D01*
X195717489Y-77724011D02*
X195717489Y-110606511D01*
X91261400Y-168477400D02*
X91261400Y-172469200D01*
X195717489Y-110606511D02*
X195326000Y-110998000D01*
X175564800Y-110159800D02*
X175564800Y-111635300D01*
X159131000Y-132969000D02*
X159131000Y-152527000D01*
X91186000Y-168402000D02*
X91261400Y-168477400D01*
%TO.N,/logique/Collecteurs ouverts/OC8-PWM*%
X164465000Y-83058000D02*
X164490400Y-83083400D01*
X202184000Y-118237000D02*
X207010000Y-123063000D01*
X96266000Y-169545000D02*
X96261400Y-169549600D01*
X203708000Y-83947000D02*
X203708000Y-91186000D01*
X147447000Y-167132000D02*
X147447000Y-167640000D01*
X96261400Y-169549600D02*
X96261400Y-172469200D01*
X203708000Y-91186000D02*
X202184000Y-92710000D01*
X203708000Y-83947000D02*
X203708000Y-76073000D01*
X155829000Y-160909000D02*
X153670000Y-160909000D01*
X164846000Y-151892000D02*
X155829000Y-160909000D01*
X164490400Y-83083400D02*
X164490400Y-86743300D01*
X203708000Y-76073000D02*
X204343000Y-75438000D01*
X153670000Y-160909000D02*
X147447000Y-167132000D01*
X176657000Y-123317000D02*
X176657000Y-144018000D01*
X202184000Y-92710000D02*
X202184000Y-118237000D01*
%TO.N,/logique/Collecteurs ouverts/OC9-PWM*%
X101261400Y-166454600D02*
X101261400Y-172469200D01*
X234015000Y-88854000D02*
X234015000Y-85598000D01*
X235204000Y-90043000D02*
X234015000Y-88854000D01*
X186182000Y-108585000D02*
X186182000Y-129286000D01*
X164592000Y-96192100D02*
X164592000Y-95250000D01*
X156083000Y-152781000D02*
X147447000Y-161417000D01*
X195008500Y-96710500D02*
X195072000Y-96774000D01*
X195072000Y-96774000D02*
X195072000Y-108712000D01*
X239395000Y-91567000D02*
X237871000Y-90043000D01*
X239395000Y-97790000D02*
X239395000Y-91567000D01*
X156083000Y-134366000D02*
X156083000Y-152781000D01*
X101981000Y-165735000D02*
X101261400Y-166454600D01*
X237871000Y-90043000D02*
X235204000Y-90043000D01*
X186182000Y-129286000D02*
X181483000Y-133985000D01*
%TO.N,/logique/Collecteurs ouverts/OC10-PWM*%
X106426000Y-169026500D02*
X106261400Y-169191100D01*
X203073000Y-106807000D02*
X203073000Y-95377000D01*
X106261400Y-169191100D02*
X106261400Y-172469200D01*
X167005000Y-107061000D02*
X167005000Y-115824000D01*
X166778700Y-106961700D02*
X166878000Y-107061000D01*
X160909000Y-142748000D02*
X160909000Y-152400000D01*
X168402000Y-117221000D02*
X172847000Y-117221000D01*
X172847000Y-117221000D02*
X172847000Y-142875000D01*
X166878000Y-107061000D02*
X167005000Y-107061000D01*
X164846000Y-106961700D02*
X166778700Y-106961700D01*
X147447000Y-165862000D02*
X147320000Y-165862000D01*
X160909000Y-152400000D02*
X147447000Y-165862000D01*
X167005000Y-115824000D02*
X168402000Y-117221000D01*
%TO.N,/logique/Collecteurs ouverts/OC11-PWM*%
X142240000Y-123571000D02*
X142367000Y-123698000D01*
X141569880Y-122900880D02*
X142240000Y-123571000D01*
X141569880Y-115434665D02*
X141569880Y-122900880D01*
X149225000Y-141351000D02*
X149098000Y-141478000D01*
X111506000Y-158877000D02*
X111261400Y-159121600D01*
X139573000Y-89789000D02*
X139573000Y-110241807D01*
X140959511Y-114824296D02*
X141569880Y-115434665D01*
X139573000Y-110241807D02*
X140959511Y-111628318D01*
X154836100Y-81764900D02*
X154940000Y-81661000D01*
X221615000Y-97155000D02*
X221742000Y-97282000D01*
X111261400Y-159121600D02*
X111261400Y-172469200D01*
X154178000Y-141478000D02*
X154178000Y-152019000D01*
X234015000Y-97328000D02*
X234015000Y-101600000D01*
X154178000Y-152019000D02*
X147510500Y-158686500D01*
X152603200Y-81764900D02*
X154836100Y-81764900D01*
X140959511Y-111628318D02*
X140959511Y-114824296D01*
X149225000Y-124460000D02*
X149225000Y-141351000D01*
X147320000Y-158877000D02*
X147510500Y-158686500D01*
X234061000Y-97282000D02*
X234015000Y-97328000D01*
X221615000Y-81534000D02*
X221615000Y-97155000D01*
X154940000Y-81661000D02*
X154940000Y-89535000D01*
%TO.N,/logique/Collecteurs ouverts/OC12-PWM*%
X152603200Y-97970100D02*
X153870900Y-97970100D01*
X143256000Y-153924000D02*
X142113000Y-155067000D01*
X119253000Y-169418000D02*
X119253000Y-169477600D01*
X171958000Y-94234000D02*
X171958000Y-102235000D01*
X139827000Y-169418000D02*
X119253000Y-169418000D01*
X154432000Y-97409000D02*
X154432000Y-93980000D01*
X153870900Y-97970100D02*
X154432000Y-97409000D01*
X142113000Y-167132000D02*
X139827000Y-169418000D01*
X119253000Y-169477600D02*
X116261400Y-172469200D01*
X183515000Y-113030000D02*
X183515000Y-129032000D01*
X171958000Y-102235000D02*
X171958000Y-112903000D01*
X171704000Y-93980000D02*
X171958000Y-94234000D01*
X183515000Y-129032000D02*
X183642000Y-129159000D01*
X158369000Y-129159000D02*
X158369000Y-150749000D01*
X142113000Y-155067000D02*
X142113000Y-167132000D01*
X158369000Y-150749000D02*
X158496000Y-150876000D01*
%TO.N,/logique/Collecteurs ouverts/OC1*%
X208407000Y-62865000D02*
X215138000Y-62865000D01*
X149860000Y-145161000D02*
X149860000Y-150114000D01*
X207391000Y-61341000D02*
X207391000Y-61849000D01*
X139430000Y-60325000D02*
X140827000Y-61722000D01*
X215138000Y-62865000D02*
X216024700Y-63751700D01*
X145923000Y-61722000D02*
X146649880Y-62448880D01*
X140827000Y-61722000D02*
X145923000Y-61722000D01*
X205994000Y-59944000D02*
X207391000Y-61341000D01*
X156718000Y-59944000D02*
X205994000Y-59944000D01*
X143383000Y-86233000D02*
X143383000Y-111760000D01*
X146649880Y-142077880D02*
X146649880Y-142275120D01*
X143383000Y-113411000D02*
X146685000Y-116713000D01*
X207391000Y-61849000D02*
X208407000Y-62865000D01*
X144216400Y-155757600D02*
X144216400Y-172412000D01*
X144399000Y-85217000D02*
X143383000Y-86233000D01*
X146649880Y-82966120D02*
X144399000Y-85217000D01*
X146649880Y-142077880D02*
X149733000Y-145161000D01*
X146649880Y-116748120D02*
X146649880Y-142077880D01*
X146685000Y-116713000D02*
X146649880Y-116748120D01*
X216024700Y-63751700D02*
X216024700Y-64922400D01*
X146649880Y-62448880D02*
X154213120Y-62448880D01*
X149860000Y-150114000D02*
X144216400Y-155757600D01*
X143383000Y-111760000D02*
X143383000Y-113411000D01*
X154213120Y-62448880D02*
X156718000Y-59944000D01*
X215915000Y-65032100D02*
X215915000Y-71120000D01*
X146649880Y-62448880D02*
X146649880Y-82966120D01*
X216024700Y-64922400D02*
X215915000Y-65032100D01*
X149733000Y-145161000D02*
X149860000Y-145161000D01*
%TO.N,/logique/Collecteurs ouverts/OC2*%
X203405500Y-69928500D02*
X204089000Y-70612000D01*
X191516000Y-76840807D02*
X192273318Y-76083489D01*
X193156511Y-76449318D02*
X200666135Y-76449318D01*
X201192680Y-75922773D02*
X201192680Y-71066248D01*
X200666135Y-76449318D02*
X201192680Y-75922773D01*
X192273318Y-76083489D02*
X192790682Y-76083489D01*
X204089000Y-72644000D02*
X204914500Y-73469500D01*
X215773000Y-74041000D02*
X215747600Y-74066400D01*
X181991000Y-138303000D02*
X191516000Y-128778000D01*
X204914500Y-73469500D02*
X204978000Y-73533000D01*
X154051000Y-162052000D02*
X149216400Y-166886600D01*
X149216400Y-166886600D02*
X149216400Y-172412000D01*
X204089000Y-70612000D02*
X204089000Y-72644000D01*
X201517448Y-70741480D02*
X202210552Y-70741480D01*
X204978000Y-73533000D02*
X215265000Y-73533000D01*
X192790682Y-76083489D02*
X193156511Y-76449318D01*
X201192680Y-71066248D02*
X201517448Y-70741480D01*
X200914000Y-69928500D02*
X203405500Y-69928500D01*
X215747600Y-74066400D02*
X215747600Y-77724000D01*
X215265000Y-73533000D02*
X215773000Y-74041000D01*
X154432000Y-162052000D02*
X154051000Y-162052000D01*
X202210552Y-70741480D02*
X204317600Y-72848528D01*
X181864000Y-161925000D02*
X181991000Y-161798000D01*
X191516000Y-128778000D02*
X191516000Y-76840807D01*
X181991000Y-161798000D02*
X181991000Y-138303000D01*
%TO.N,/logique/Collecteurs ouverts/OC3*%
X176908700Y-76837300D02*
X177101500Y-76644500D01*
X174853600Y-76837300D02*
X176908700Y-76837300D01*
X179869240Y-112395000D02*
X179869240Y-147704374D01*
X177165000Y-76581000D02*
X177101500Y-76644500D01*
X164719000Y-154559000D02*
X163957000Y-154559000D01*
X182372000Y-95025107D02*
X176530000Y-100867107D01*
X182372000Y-77724000D02*
X182372000Y-95025107D01*
X154216400Y-164299600D02*
X154216400Y-172412000D01*
X215392000Y-84973400D02*
X215711800Y-85293200D01*
X215392000Y-82931000D02*
X215392000Y-84973400D01*
X163957000Y-154559000D02*
X154216400Y-164299600D01*
X210439000Y-78348500D02*
X210439000Y-82930989D01*
X179451000Y-148122614D02*
X179451000Y-154432000D01*
X176530000Y-100867107D02*
X176530000Y-109093000D01*
X176530000Y-109093000D02*
X179832000Y-112395000D01*
X179869240Y-147704374D02*
X179451000Y-148122614D01*
%TO.N,/logique/Collecteurs ouverts/OC4*%
X167513000Y-153543000D02*
X159216400Y-161839600D01*
X173228000Y-87630000D02*
X173228000Y-89916000D01*
X174165500Y-86692500D02*
X173228000Y-87630000D01*
X197093511Y-144134511D02*
X198501000Y-145542000D01*
X197093511Y-89905511D02*
X197093511Y-144134511D01*
X159216400Y-161839600D02*
X159216400Y-172412000D01*
X196977000Y-89789000D02*
X197093511Y-89905511D01*
X175666400Y-86692500D02*
X174165500Y-86692500D01*
X198501000Y-145542000D02*
X198501000Y-155575000D01*
X173228000Y-89916000D02*
X173355000Y-90043000D01*
D49*
%TO.N,/logique/Bloc relais/NO1*%
X43608000Y-27844000D02*
X45166000Y-29402000D01*
X43608000Y-15675000D02*
X43608000Y-27844000D01*
%TO.N,/logique/Bloc relais/COM1*%
X38608000Y-43044000D02*
X39116000Y-43552000D01*
X38608000Y-15675000D02*
X38608000Y-43044000D01*
%TO.N,/logique/Bloc relais/NF1*%
X33608000Y-28860000D02*
X33116000Y-29352000D01*
X33608000Y-15675000D02*
X33608000Y-28860000D01*
%TO.N,/logique/Bloc relais/NO2*%
X67433200Y-27996400D02*
X69245200Y-29808400D01*
X67433200Y-15827400D02*
X67433200Y-27996400D01*
%TO.N,/logique/Bloc relais/COM2*%
X62433200Y-43196400D02*
X63195200Y-43958400D01*
X62433200Y-15827400D02*
X62433200Y-43196400D01*
%TO.N,/logique/Bloc relais/NF2*%
X57433200Y-29520400D02*
X57195200Y-29758400D01*
X57433200Y-15827400D02*
X57433200Y-29520400D01*
%TO.N,/logique/Bloc relais/NO3*%
X90191600Y-15827400D02*
X90191600Y-27996400D01*
X90191600Y-27996400D02*
X92003600Y-29808400D01*
%TO.N,/logique/Bloc relais/COM3*%
X85191600Y-15827400D02*
X85191600Y-43196400D01*
X85191600Y-43196400D02*
X85953600Y-43958400D01*
%TO.N,/logique/Bloc relais/NF3*%
X80191600Y-15827400D02*
X80191600Y-29520400D01*
X80191600Y-29520400D02*
X79953600Y-29758400D01*
%TO.N,/logique/Bloc relais/NO4*%
X114093000Y-15691400D02*
X114093000Y-27361400D01*
X114093000Y-27361400D02*
X116286000Y-29554400D01*
%TO.N,/logique/Bloc relais/COM4*%
X109093000Y-42561400D02*
X110236000Y-43704400D01*
X109093000Y-15691400D02*
X109093000Y-42561400D01*
%TO.N,/logique/Bloc relais/NF4*%
X104093000Y-15691400D02*
X104093000Y-29361400D01*
X104093000Y-29361400D02*
X104236000Y-29504400D01*
%TO.N,/logique/Bloc relais/NO5*%
X213330800Y-27894800D02*
X215447600Y-30011600D01*
X213330800Y-15852800D02*
X213330800Y-27894800D01*
%TO.N,/logique/Bloc relais/COM5*%
X208330800Y-43094800D02*
X209397600Y-44161600D01*
X208330800Y-15852800D02*
X208330800Y-43094800D01*
%TO.N,/logique/Bloc relais/NF5*%
X203330800Y-15852800D02*
X203330800Y-29894800D01*
X203330800Y-29894800D02*
X203397600Y-29961600D01*
%TO.N,/logique/Bloc relais/NO6*%
X189200800Y-15852800D02*
X189200800Y-28910800D01*
X189200800Y-28910800D02*
X190504800Y-30214800D01*
%TO.N,/logique/Bloc relais/COM6*%
X184200800Y-44110800D02*
X184454800Y-44364800D01*
X184200800Y-15852800D02*
X184200800Y-44110800D01*
%TO.N,/logique/Bloc relais/NF6*%
X179200800Y-15852800D02*
X179200800Y-29418800D01*
X179200800Y-29418800D02*
X178454800Y-30164800D01*
%TO.N,/logique/Bloc relais/NO7*%
X163648400Y-28148800D02*
X165308000Y-29808400D01*
X163648400Y-15802000D02*
X163648400Y-28148800D01*
%TO.N,/logique/Bloc relais/COM7*%
X158648400Y-43348800D02*
X159258000Y-43958400D01*
X158648400Y-15802000D02*
X158648400Y-43348800D01*
%TO.N,/logique/Bloc relais/NF7*%
X153648400Y-15802000D02*
X153648400Y-29368000D01*
X153648400Y-29368000D02*
X153258000Y-29758400D01*
%TO.N,/logique/Bloc relais/NO8*%
X139039600Y-15849600D02*
X139039600Y-28330400D01*
X139039600Y-28330400D02*
X140314400Y-29605200D01*
%TO.N,/logique/Bloc relais/COM8*%
X134264400Y-43755200D02*
X134264400Y-16074400D01*
X134264400Y-16074400D02*
X134039600Y-15849600D01*
%TO.N,/logique/Bloc relais/NF8*%
X129039600Y-15849600D02*
X129039600Y-28780000D01*
X129039600Y-28780000D02*
X128264400Y-29555200D01*
%TO.N,/logique/Bloc relais/NO9*%
X238299000Y-15802000D02*
X238299000Y-28352000D01*
X238299000Y-28352000D02*
X239984000Y-30037000D01*
%TO.N,/logique/Bloc relais/COM9*%
X233299000Y-15802000D02*
X233299000Y-43552000D01*
X233299000Y-43552000D02*
X233934000Y-44187000D01*
%TO.N,/logique/Bloc relais/NF9*%
X228299000Y-29622000D02*
X227934000Y-29987000D01*
X228299000Y-15802000D02*
X228299000Y-29622000D01*
%TO.N,/logique/Bloc relais/NO10*%
X262479800Y-27717000D02*
X264164800Y-29402000D01*
X262479800Y-16056000D02*
X262479800Y-27717000D01*
%TO.N,/logique/Bloc relais/COM10*%
X257479800Y-16056000D02*
X257479800Y-42917000D01*
X257479800Y-42917000D02*
X258114800Y-43552000D01*
%TO.N,/logique/Bloc relais/NF10*%
X252479800Y-16056000D02*
X252479800Y-28987000D01*
X252479800Y-28987000D02*
X252114800Y-29352000D01*
D48*
%TO.N,Net-(J35-Pad3)*%
X219202000Y-164271200D02*
X220298800Y-165368000D01*
X220298800Y-165368000D02*
X220298800Y-172462800D01*
%TO.N,Net-(J35-Pad2)*%
X214223600Y-164220400D02*
X215298800Y-165295600D01*
X215298800Y-165295600D02*
X215298800Y-172462800D01*
%TO.N,Net-(J35-Pad1)*%
X209245200Y-164220400D02*
X210298800Y-165274000D01*
X210298800Y-165274000D02*
X210298800Y-172462800D01*
%TO.N,Net-(J35-Pad4)*%
X225298800Y-165491200D02*
X225298800Y-172462800D01*
X224180400Y-164372800D02*
X225298800Y-165491200D01*
%TO.N,Net-(J37-Pad3)*%
X197350400Y-166295600D02*
X197350400Y-172466000D01*
X195478400Y-164423600D02*
X197350400Y-166295600D01*
%TO.N,Net-(J37-Pad2)*%
X190093600Y-164322000D02*
X192350400Y-166578800D01*
X192350400Y-166578800D02*
X192350400Y-172466000D01*
%TO.N,Net-(J37-Pad1)*%
X185318400Y-164372800D02*
X187350400Y-166404800D01*
X187350400Y-166404800D02*
X187350400Y-172466000D01*
%TO.N,Net-(J37-Pad4)*%
X200406000Y-164372800D02*
X202350400Y-166317200D01*
X202350400Y-166317200D02*
X202350400Y-172466000D01*
%TO.N,/logique/Extensions/Simple extension2/COL_EXT*%
X74094100Y-138102100D02*
X74094100Y-134839200D01*
X78232000Y-138811000D02*
X74803000Y-138811000D01*
X74803000Y-138811000D02*
X74094100Y-138102100D01*
X78740000Y-139319000D02*
X78232000Y-138811000D01*
%TO.N,/logique/Extensions/Simple extension/COL_EXT*%
X50024511Y-130950489D02*
X50024511Y-120001511D01*
X256667000Y-80010000D02*
X259461000Y-77216000D01*
X247015000Y-116332000D02*
X246888000Y-116205000D01*
X249174000Y-80010000D02*
X256667000Y-80010000D01*
X274447000Y-58801000D02*
X274447000Y-58293000D01*
X102108000Y-120142000D02*
X102108000Y-116205000D01*
X259461000Y-66421000D02*
X259334000Y-66294000D01*
X46435000Y-134540000D02*
X46609000Y-134366000D01*
X43335600Y-134540000D02*
X46435000Y-134540000D01*
X46609000Y-134366000D02*
X50024511Y-130950489D01*
X102108000Y-116205000D02*
X101854000Y-116205000D01*
X50024511Y-120001511D02*
X49911000Y-119888000D01*
X259461000Y-77216000D02*
X259461000Y-66421000D01*
X271907000Y-66040000D02*
X271907000Y-61341000D01*
X271907000Y-61341000D02*
X274447000Y-58801000D01*
X246888000Y-116205000D02*
X246888000Y-82296000D01*
X246888000Y-82296000D02*
X249174000Y-80010000D01*
%TO.N,/logique/Extensions/Simple extension1/COL_EXT*%
X59791600Y-139164300D02*
X59867000Y-139239700D01*
X59867000Y-139239700D02*
X59867000Y-147062800D01*
%TO.N,/logique/Extensions/Simple extension3/COL_EXT*%
X89966000Y-136629700D02*
X89966000Y-147062800D01*
X91569300Y-135026400D02*
X89966000Y-136629700D01*
%TO.N,/logique/Extensions/Simple extension5/COL_EXT*%
X129133600Y-134846300D02*
X129133600Y-139883600D01*
X129133600Y-139883600D02*
X134289000Y-145039000D01*
X134289000Y-145039000D02*
X134289000Y-147120000D01*
%TO.N,/logique/Extensions/Simple extension6/COL_EXT*%
X104822000Y-147062800D02*
X104822000Y-154074900D01*
X104822000Y-154074900D02*
X106019600Y-155272500D01*
%TO.N,/logique/Extensions/Simple extension7/COL_EXT*%
X115000000Y-135252700D02*
X115000000Y-138000000D01*
X115000000Y-138000000D02*
X119655600Y-142655600D01*
X119655600Y-142655600D02*
X119655600Y-147062800D01*
%TO.N,/logique/Extensions/Simple extension4/COL_EXT*%
X137937200Y-138019000D02*
X137937200Y-140437200D01*
X137937200Y-140437200D02*
X139250000Y-141750000D01*
X139250000Y-151250000D02*
X140500000Y-152500000D01*
X146000000Y-152500000D02*
X148005000Y-150495000D01*
X148005000Y-150495000D02*
X148005000Y-147062800D01*
X140500000Y-152500000D02*
X146000000Y-152500000D01*
X139250000Y-141750000D02*
X139250000Y-151250000D01*
%TO.N,/logique/Entr\u00E9es analogiques - Extension/Extention analogique simple/COL_AIN_EXT*%
X251460000Y-89408000D02*
X253238000Y-87630000D01*
X114475500Y-85646500D02*
X114554000Y-85725000D01*
X114475500Y-82956400D02*
X114475500Y-85646500D01*
X253238000Y-87630000D02*
X253238000Y-82296000D01*
X202946000Y-84709000D02*
X202946000Y-89281000D01*
%TO.N,/logique/Entr\u00E9es analogiques - Extension/Extention analogique simple1/COL_AIN_EXT*%
X115189000Y-93091000D02*
X114373900Y-92275900D01*
X114373900Y-92275900D02*
X114373900Y-90271600D01*
X116713000Y-93091000D02*
X115189000Y-93091000D01*
%TO.N,/logique/Entr\u00E9es analogiques - Extension/Extention analogique simple2/COL_AIN_EXT*%
X155321000Y-99279328D02*
X155321000Y-95504000D01*
X115948700Y-96012000D02*
X114475500Y-97485200D01*
X116205000Y-96012000D02*
X115948700Y-96012000D01*
X155448000Y-102616000D02*
X155448000Y-99406328D01*
X155448000Y-99406328D02*
X155321000Y-99279328D01*
X155321000Y-95504000D02*
X155321000Y-95377000D01*
%TO.N,/logique/Entr\u00E9es analogiques - Extension/Extention analogique simple3/COL_AIN_EXT*%
X196469000Y-101981000D02*
X196342000Y-101854000D01*
X171196000Y-100076000D02*
X171196000Y-96890500D01*
X115524800Y-103759000D02*
X114397000Y-104886800D01*
X196469000Y-120142000D02*
X196469000Y-101981000D01*
X117665500Y-103822500D02*
X117602000Y-103886000D01*
X118618000Y-99543389D02*
X118618000Y-102870000D01*
X115951000Y-103759000D02*
X115524800Y-103759000D01*
X171196000Y-96890500D02*
X170942000Y-96636500D01*
X118618000Y-102870000D02*
X117665500Y-103822500D01*
%TO.N,/logique/Entr\u00E9es analogiques - Extension/Extention analogique simple5/COL_AIN_EXT*%
X254461000Y-142160000D02*
X254000000Y-142160000D01*
X262255000Y-111125000D02*
X262255000Y-134366000D01*
X262255000Y-134366000D02*
X254461000Y-142160000D01*
X277495000Y-85217000D02*
X277495000Y-111125000D01*
X126210300Y-82905600D02*
X129057400Y-82905600D01*
%TO.N,/logique/Entr\u00E9es analogiques - Extension/Extention analogique simple6/COL_AIN_EXT*%
X126642100Y-91059000D02*
X125905500Y-90322400D01*
X194437000Y-90932000D02*
X194310000Y-90932000D01*
X194310000Y-156972000D02*
X194310000Y-91059000D01*
X127635000Y-91059000D02*
X126642100Y-91059000D01*
X194310000Y-91059000D02*
X194437000Y-90932000D01*
%TO.N,/logique/Entr\u00E9es analogiques - Extension/Extention analogique simple4/COL_AIN_EXT*%
X193040000Y-117215193D02*
X193040000Y-140081000D01*
X193548000Y-97917000D02*
X193548000Y-116707193D01*
X126873000Y-99568000D02*
X126873000Y-99543389D01*
X125651500Y-98346500D02*
X126873000Y-99568000D01*
X193548000Y-116707193D02*
X193040000Y-117215193D01*
X125651500Y-97383600D02*
X125651500Y-98346500D01*
%TO.N,/logique/Entr\u00E9es analogiques - Extension/Extention analogique simple7/COL_AIN_EXT*%
X211874511Y-112102489D02*
X211874511Y-146059089D01*
X126081000Y-107980000D02*
X125730000Y-108331000D01*
X126081000Y-104429600D02*
X126081000Y-107980000D01*
X211963000Y-112014000D02*
X211874511Y-112102489D01*
X211963000Y-112903000D02*
X211836000Y-113030000D01*
X211874511Y-146059089D02*
X210870800Y-147062800D01*
%TO.N,Net-(JP1-Pad1)*%
X208314800Y-71018400D02*
X208416400Y-71120000D01*
X208416400Y-71120000D02*
X213375000Y-71120000D01*
%TO.N,Net-(JP2-Pad1)*%
X208695800Y-77698600D02*
X208721200Y-77724000D01*
X208721200Y-77724000D02*
X213207600Y-77724000D01*
%TO.N,Net-(JP3-Pad1)*%
X208264000Y-85293200D02*
X213171800Y-85293200D01*
X207959200Y-84988400D02*
X208264000Y-85293200D01*
%TO.N,Net-(JP4-Pad1)*%
X207873600Y-92913200D02*
X213410800Y-92913200D01*
X207822800Y-92964000D02*
X207873600Y-92913200D01*
%TO.N,Net-(JP5-Pad1)*%
X207756000Y-102006400D02*
X213512400Y-102006400D01*
%TO.N,Net-(JP6-Pad1)*%
X207806800Y-108864400D02*
X207959200Y-109016800D01*
X207959200Y-109016800D02*
X213563200Y-109016800D01*
%TO.N,Net-(JP7-Pad1)*%
X227389200Y-71500000D02*
X231460000Y-71500000D01*
X226958400Y-71069200D02*
X227389200Y-71500000D01*
%TO.N,Net-(JP8-Pad1)*%
X226958400Y-78130400D02*
X231475000Y-78130400D01*
X226755200Y-78333600D02*
X226958400Y-78130400D01*
%TO.N,Net-(JP9-Pad1)*%
X226755200Y-85598000D02*
X231475000Y-85598000D01*
%TO.N,Net-(JP10-Pad1)*%
X226891600Y-93472000D02*
X227094800Y-93268800D01*
X227094800Y-93268800D02*
X231475000Y-93268800D01*
%TO.N,Net-(JP11-Pad1)*%
X227263200Y-102463600D02*
X228126800Y-101600000D01*
X228126800Y-101600000D02*
X231475000Y-101600000D01*
%TO.N,Net-(JP12-Pad1)*%
X226856800Y-109270800D02*
X231475000Y-109270800D01*
%TO.N,13(\u002A\u002A)*%
X264174000Y-59831000D02*
X249033000Y-59831000D01*
X249033000Y-59831000D02*
X247269000Y-61595000D01*
X170688000Y-68072000D02*
X169692000Y-69068000D01*
X170688000Y-64770000D02*
X170688000Y-68072000D01*
X247269000Y-61595000D02*
X247523000Y-61595000D01*
X169692000Y-69068000D02*
X169692000Y-70866000D01*
X172593000Y-62865000D02*
X170688000Y-64770000D01*
%TO.N,8(\u002A\u002A)*%
X158816800Y-102819200D02*
X158816800Y-96205800D01*
X158816800Y-96205800D02*
X156972000Y-94361000D01*
X156972000Y-94361000D02*
X156992000Y-94341000D01*
X156992000Y-94341000D02*
X156992000Y-70866000D01*
%TO.N,12(\u002A\u002A)*%
X244475000Y-58928000D02*
X244475000Y-67818000D01*
X244475000Y-67818000D02*
X244602000Y-67945000D01*
%TO.N,9(\u002A\u002A)*%
X156210000Y-111998000D02*
X156210000Y-74422000D01*
X159532000Y-70866000D02*
X159532000Y-74275000D01*
X159532000Y-74275000D02*
X159512000Y-74295000D01*
X157851600Y-113639600D02*
X156210000Y-111998000D01*
X156210000Y-74422000D02*
X156083000Y-74422000D01*
%TO.N,11(\u002A\u002A)*%
X146320000Y-105460800D02*
X146320000Y-92091000D01*
X164612000Y-77958000D02*
X164612000Y-70866000D01*
X164465000Y-78105000D02*
X164612000Y-77958000D01*
X146320000Y-92091000D02*
X144399000Y-90170000D01*
X144399000Y-90170000D02*
X144399000Y-86360000D01*
X147828000Y-82931000D02*
X147828000Y-78105000D01*
X144399000Y-86360000D02*
X147828000Y-82931000D01*
%TO.N,10(\u002A\u002A)*%
X148971000Y-85344000D02*
X148971000Y-78359000D01*
X148971000Y-78359000D02*
X148971000Y-77724000D01*
X161925000Y-76835000D02*
X162072000Y-76688000D01*
X162072000Y-76688000D02*
X162072000Y-70866000D01*
X146126200Y-88188800D02*
X148971000Y-85344000D01*
X146116800Y-88188800D02*
X146126200Y-88188800D01*
X148971000Y-77724000D02*
X149098000Y-77597000D01*
%TO.N,Reset*%
X165618000Y-119126000D02*
X165618000Y-130907600D01*
X165618000Y-130907600D02*
X165872800Y-131162400D01*
%TO.N,7(\u002A\u002A)*%
X152918000Y-73670000D02*
X152918000Y-70866000D01*
X158105600Y-92608400D02*
X158105600Y-73777600D01*
X157988000Y-73660000D02*
X157988000Y-73725989D01*
X158105600Y-73777600D02*
X157988000Y-73660000D01*
X153035000Y-73787000D02*
X152918000Y-73670000D01*
%TO.N,6(\u002A\u002A)*%
X169621200Y-103073200D02*
X167132000Y-100584000D01*
X167132000Y-100584000D02*
X167132000Y-76708000D01*
X167132000Y-76708000D02*
X165989000Y-75565000D01*
X150495000Y-75184000D02*
X150378000Y-75067000D01*
X169621200Y-112284000D02*
X169621200Y-103073200D01*
X150378000Y-75067000D02*
X150378000Y-70866000D01*
%TO.N,5(\u002A\u002A)*%
X147701000Y-76200000D02*
X147838000Y-76063000D01*
X178663600Y-105680000D02*
X178663600Y-103657400D01*
X174879000Y-99568000D02*
X176657000Y-97790000D01*
X174879000Y-103759000D02*
X174879000Y-99568000D01*
X178663600Y-103657400D02*
X178689000Y-103632000D01*
X176778193Y-97790000D02*
X180467000Y-94101193D01*
X176657000Y-97790000D02*
X176778193Y-97790000D01*
X147838000Y-76063000D02*
X147838000Y-70866000D01*
X180467000Y-94101193D02*
X180467000Y-78359000D01*
%TO.N,4(\u002A\u002A)*%
X145161000Y-74041000D02*
X145298000Y-73904000D01*
X183642000Y-76073000D02*
X181864000Y-74295000D01*
X145298000Y-73904000D02*
X145298000Y-70866000D01*
X180762400Y-97621600D02*
X183642000Y-94742000D01*
X183642000Y-94742000D02*
X183642000Y-76073000D01*
X180762400Y-98247200D02*
X180762400Y-97621600D01*
%TO.N,3(\u002A\u002A)*%
X142621000Y-84709000D02*
X142758000Y-84572000D01*
X83693000Y-119380000D02*
X83693000Y-114554000D01*
X99730111Y-84927889D02*
X107025889Y-84927889D01*
X41097200Y-144322800D02*
X41148000Y-144272000D01*
X91313000Y-109468193D02*
X91313000Y-97282000D01*
X107025889Y-84927889D02*
X107061000Y-84963000D01*
X62992000Y-144018000D02*
X63881000Y-143129000D01*
X67564000Y-124841000D02*
X68199000Y-124841000D01*
X93218000Y-95377000D02*
X93218000Y-91440000D01*
X63881000Y-128524000D02*
X67564000Y-124841000D01*
X68199000Y-124841000D02*
X68199000Y-124714000D01*
X93218000Y-91440000D02*
X99730111Y-84927889D01*
X91313000Y-97282000D02*
X93218000Y-95377000D01*
X80772000Y-122301000D02*
X83693000Y-119380000D01*
X63881000Y-143129000D02*
X63881000Y-128524000D01*
X142758000Y-84572000D02*
X142758000Y-70866000D01*
X80772000Y-124587000D02*
X80772000Y-122301000D01*
X85598000Y-112649000D02*
X88132193Y-112649000D01*
X37931600Y-144322800D02*
X41097200Y-144322800D01*
X83693000Y-114554000D02*
X85598000Y-112649000D01*
X88132193Y-112649000D02*
X91313000Y-109468193D01*
%TO.N,2(\u002A\u002A)*%
X36068000Y-111379000D02*
X35991800Y-111455200D01*
X97663000Y-66548000D02*
X97536000Y-66421000D01*
X97663000Y-74422000D02*
X97663000Y-66548000D01*
X92583000Y-79502000D02*
X97663000Y-74422000D01*
X90624511Y-96573489D02*
X92583000Y-94615000D01*
X90624511Y-109273489D02*
X90624511Y-96573489D01*
X92583000Y-94615000D02*
X92583000Y-79502000D01*
X33359600Y-111455200D02*
X35991800Y-111455200D01*
X89154000Y-110744000D02*
X90624511Y-109273489D01*
%TO.N,A0*%
X150876000Y-151765000D02*
X150876000Y-123317000D01*
X147701000Y-154940000D02*
X150876000Y-151765000D01*
X150876000Y-123317000D02*
X147838000Y-120279000D01*
X49022000Y-154263600D02*
X49022000Y-156819600D01*
X49022000Y-156819600D02*
X48971200Y-156870400D01*
X51520600Y-154263600D02*
X51562000Y-154305000D01*
X49022000Y-154263600D02*
X51520600Y-154263600D01*
X147838000Y-120279000D02*
X147838000Y-119126000D01*
%TO.N,A1*%
X137922000Y-141224000D02*
X137881411Y-141264589D01*
X141478000Y-141224000D02*
X141478000Y-125603000D01*
X59563000Y-157099000D02*
X59944000Y-156718000D01*
X137922000Y-152273000D02*
X137922000Y-141224000D01*
X137985500Y-152336500D02*
X137922000Y-152273000D01*
X145298000Y-119126000D02*
X145298000Y-121783000D01*
X59045600Y-157616400D02*
X59563000Y-157099000D01*
X145298000Y-121783000D02*
X141478000Y-125603000D01*
X59944000Y-156718000D02*
X59944000Y-153797000D01*
X57588400Y-157089600D02*
X58115200Y-157616400D01*
X59944000Y-153797000D02*
X59817000Y-153797000D01*
X55524400Y-157089600D02*
X57588400Y-157089600D01*
X58115200Y-157616400D02*
X59045600Y-157616400D01*
%TO.N,A2*%
X152019000Y-124460000D02*
X152019000Y-124587000D01*
X142758000Y-119126000D02*
X142758000Y-122819000D01*
X147701000Y-156210000D02*
X152019000Y-151892000D01*
X65040000Y-157718000D02*
X66802000Y-155956000D01*
X61366400Y-157242000D02*
X64192400Y-157242000D01*
X64668400Y-157718000D02*
X65040000Y-157718000D01*
X152019000Y-151892000D02*
X152019000Y-150876000D01*
X152019000Y-150876000D02*
X152019000Y-124587000D01*
X142758000Y-122819000D02*
X142875000Y-122936000D01*
X64192400Y-157242000D02*
X64668400Y-157718000D01*
%TO.N,A3*%
X139700000Y-121666000D02*
X140218000Y-121148000D01*
X147447000Y-157099000D02*
X147828000Y-157099000D01*
X69503800Y-157445200D02*
X71269600Y-157445200D01*
X147828000Y-157099000D02*
X153416000Y-151511000D01*
X153416000Y-151511000D02*
X153416000Y-123571000D01*
X140218000Y-121148000D02*
X140218000Y-119126000D01*
X71269600Y-157445200D02*
X71475600Y-157651200D01*
X67767200Y-157445200D02*
X69503800Y-157445200D01*
%TO.N,A4*%
X18491200Y-157194000D02*
X18491200Y-159883600D01*
X134112000Y-132080000D02*
X134112000Y-139192000D01*
X19844000Y-157194000D02*
X21209000Y-155829000D01*
X136525000Y-141605000D02*
X136525000Y-149860000D01*
X18491200Y-159883600D02*
X18440400Y-159934400D01*
X136906000Y-129286000D02*
X134112000Y-132080000D01*
X21209000Y-155829000D02*
X21209000Y-154178000D01*
X18491200Y-157194000D02*
X19844000Y-157194000D01*
X134112000Y-139192000D02*
X136525000Y-141605000D01*
%TO.N,A5*%
X30276800Y-153654000D02*
X32623000Y-153654000D01*
X135636000Y-151003000D02*
X135863511Y-150775489D01*
X132842000Y-139446000D02*
X132842000Y-128016000D01*
X32639000Y-153670000D02*
X32623000Y-153654000D01*
X135863511Y-142467511D02*
X132842000Y-139446000D01*
X135863511Y-150775489D02*
X135863511Y-142467511D01*
X30276800Y-153654000D02*
X30276800Y-156226000D01*
%TO.N,A6*%
X36372800Y-154009600D02*
X38141400Y-154009600D01*
X130810000Y-152146000D02*
X131953000Y-151003000D01*
X38354000Y-153797000D02*
X38481000Y-153924000D01*
X131953000Y-151003000D02*
X131953000Y-144399000D01*
X36372800Y-156480000D02*
X36322000Y-156530800D01*
X38141400Y-154009600D02*
X38354000Y-153797000D01*
X36372800Y-154009600D02*
X36372800Y-156480000D01*
%TO.N,A7*%
X125095000Y-152273000D02*
X125095000Y-144653000D01*
X125095000Y-144653000D02*
X125222000Y-144526000D01*
X42926000Y-154212800D02*
X46193200Y-154212800D01*
X46193200Y-154212800D02*
X46228000Y-154178000D01*
X42926000Y-154212800D02*
X42926000Y-156734000D01*
%TO.N,A8*%
X132334000Y-93980000D02*
X132334000Y-101727000D01*
X115224600Y-82006400D02*
X115199500Y-82006400D01*
X127762000Y-116342000D02*
X124978000Y-119126000D01*
X132334000Y-101727000D02*
X127762000Y-106299000D01*
X239395000Y-80026000D02*
X240554000Y-78867000D01*
X112599700Y-82007200D02*
X112600500Y-82006400D01*
X127762000Y-106299000D02*
X127762000Y-116342000D01*
X239395000Y-87122000D02*
X239395000Y-80026000D01*
X109270800Y-82007200D02*
X112599700Y-82007200D01*
X179832000Y-93345000D02*
X179705000Y-93218000D01*
X239141000Y-87376000D02*
X239395000Y-87122000D01*
X112600500Y-82006400D02*
X115224600Y-82006400D01*
X179705000Y-93218000D02*
X179705000Y-87376000D01*
X118237000Y-81915000D02*
X118237000Y-93853000D01*
X115224600Y-82006400D02*
X115316000Y-81915000D01*
%TO.N,A9*%
X112920500Y-88900000D02*
X112498900Y-89321600D01*
X122438000Y-119126000D02*
X122438000Y-113167000D01*
X122438000Y-113167000D02*
X122428000Y-113157000D01*
X270443200Y-86106000D02*
X268859000Y-86106000D01*
X112464900Y-89287600D02*
X112498900Y-89321600D01*
X116840000Y-88900000D02*
X112920500Y-88900000D01*
X271967200Y-87630000D02*
X270443200Y-86106000D01*
X137033000Y-112776000D02*
X137033000Y-87630000D01*
%TO.N,A10*%
X136144000Y-109220000D02*
X130302000Y-115062000D01*
X115443000Y-99760720D02*
X115443000Y-101219000D01*
X107442000Y-95164400D02*
X107442000Y-90043000D01*
X136017000Y-99314000D02*
X136017000Y-101092000D01*
X108966000Y-96688400D02*
X107442000Y-95164400D01*
X112447300Y-96688400D02*
X112600500Y-96535200D01*
X108315000Y-89170000D02*
X108668880Y-89170000D01*
X119888000Y-115336989D02*
X119898000Y-115346989D01*
X136017000Y-101092000D02*
X136144000Y-101219000D01*
X112600500Y-97018772D02*
X113691448Y-98109720D01*
X136144000Y-101219000D02*
X136144000Y-109220000D01*
X108966000Y-96688400D02*
X112447300Y-96688400D01*
X269621000Y-99949000D02*
X270554200Y-99949000D01*
X113792000Y-98109720D02*
X115443000Y-99760720D01*
X113691448Y-98109720D02*
X113792000Y-98109720D01*
X112600500Y-96535200D02*
X112600500Y-97018772D01*
X270554200Y-99949000D02*
X272154400Y-101549200D01*
X119898000Y-115346989D02*
X119898000Y-119126000D01*
X107442000Y-90043000D02*
X108315000Y-89170000D01*
%TO.N,A11*%
X117358000Y-119126000D02*
X117358000Y-115814000D01*
X112953800Y-104852172D02*
X114146628Y-106045000D01*
X235728000Y-114443000D02*
X235728000Y-121818400D01*
X116332000Y-118100000D02*
X117358000Y-119126000D01*
X112953800Y-103936800D02*
X112953800Y-104852172D01*
X235331000Y-114046000D02*
X235728000Y-114443000D01*
X108915200Y-104105200D02*
X112353600Y-104105200D01*
X114808000Y-106045000D02*
X116332000Y-107569000D01*
X114146628Y-106045000D02*
X114808000Y-106045000D01*
X112522000Y-103936800D02*
X112953800Y-103936800D01*
X112353600Y-104105200D02*
X112522000Y-103936800D01*
X116332000Y-107569000D02*
X116332000Y-118100000D01*
X117358000Y-115814000D02*
X118999000Y-114173000D01*
%TO.N,A12*%
X182245000Y-110871000D02*
X182245000Y-117602000D01*
X273050000Y-132165600D02*
X273050000Y-129667000D01*
X124335300Y-82439172D02*
X124335300Y-81955600D01*
X167640000Y-104521000D02*
X167703500Y-104584500D01*
X115189000Y-117348000D02*
X115189000Y-111506000D01*
X273034000Y-132181600D02*
X273050000Y-132165600D01*
X167894000Y-104775000D02*
X167703500Y-104584500D01*
X226949000Y-121158000D02*
X226949000Y-117602000D01*
X126746000Y-106172000D02*
X128397000Y-104521000D01*
X120091200Y-81854800D02*
X124234500Y-81854800D01*
X126746000Y-111633000D02*
X126746000Y-106172000D01*
X128397000Y-104521000D02*
X128397000Y-86500872D01*
X167894000Y-110871000D02*
X167894000Y-104775000D01*
X114818000Y-119126000D02*
X114818000Y-117719000D01*
X114818000Y-117719000D02*
X115189000Y-117348000D01*
X232156000Y-126365000D02*
X226949000Y-121158000D01*
X128397000Y-86500872D02*
X124335300Y-82439172D01*
X124234500Y-81854800D02*
X124335300Y-81955600D01*
%TO.N,A13*%
X146304000Y-113665000D02*
X146304000Y-107696000D01*
X112278000Y-119126000D02*
X112278000Y-118354000D01*
X114173000Y-116459000D02*
X114173000Y-110490000D01*
X129794000Y-106553000D02*
X135128000Y-101219000D01*
X127508000Y-89281000D02*
X124121900Y-89281000D01*
X251222000Y-152654000D02*
X246761000Y-152654000D01*
X113411000Y-117221000D02*
X114173000Y-116459000D01*
X135128000Y-101219000D02*
X135128000Y-89281000D01*
X120040400Y-89525600D02*
X123877300Y-89525600D01*
X150241000Y-117602000D02*
X146304000Y-113665000D01*
X123877300Y-89525600D02*
X124030500Y-89372400D01*
X129794000Y-110363000D02*
X129794000Y-106553000D01*
X112278000Y-118354000D02*
X113411000Y-117221000D01*
X124121900Y-89281000D02*
X124030500Y-89372400D01*
X242824000Y-148717000D02*
X242824000Y-124714000D01*
X246761000Y-152654000D02*
X242824000Y-148717000D01*
X114173000Y-110490000D02*
X114173000Y-110363000D01*
%TO.N,A14*%
X116967000Y-108701500D02*
X116967000Y-98171000D01*
X127508000Y-103632000D02*
X127508000Y-97028000D01*
X126873000Y-96393000D02*
X123817100Y-96393000D01*
X118398800Y-96739200D02*
X120040400Y-96739200D01*
X132207000Y-106172000D02*
X134620000Y-103759000D01*
X222418400Y-127519600D02*
X220726000Y-125827200D01*
X220726000Y-122428000D02*
X220726000Y-121793000D01*
X151130000Y-117210500D02*
X151130000Y-107442000D01*
X116967000Y-98171000D02*
X118398800Y-96739200D01*
X127508000Y-97028000D02*
X126873000Y-96393000D01*
X220726000Y-121793000D02*
X220853000Y-121793000D01*
X123470900Y-96739200D02*
X123776500Y-96433600D01*
X109738000Y-118227000D02*
X111887000Y-116078000D01*
X123817100Y-96393000D02*
X123776500Y-96433600D01*
X220726000Y-125827200D02*
X220726000Y-122428000D01*
X109738000Y-119126000D02*
X109738000Y-118227000D01*
X111887000Y-116078000D02*
X112395000Y-115570000D01*
X120040400Y-96739200D02*
X123470900Y-96739200D01*
X174371000Y-121793000D02*
X174371000Y-117983000D01*
X174371000Y-117983000D02*
X173609000Y-117221000D01*
X120040400Y-96739200D02*
X119872000Y-96570800D01*
X112395000Y-115570000D02*
X112395000Y-108966000D01*
X132207000Y-106934000D02*
X132207000Y-106172000D01*
%TO.N,A15*%
X118364000Y-107950000D02*
X118364000Y-104013000D01*
X124139200Y-103546400D02*
X124206000Y-103479600D01*
X109982000Y-116342000D02*
X109982000Y-108077000D01*
X118830600Y-103546400D02*
X119938800Y-103546400D01*
X107198000Y-119126000D02*
X109982000Y-116342000D01*
X208026000Y-127976800D02*
X201295000Y-121245800D01*
X118364000Y-104013000D02*
X118830600Y-103546400D01*
X201295000Y-121245800D02*
X201295000Y-107950000D01*
X119938800Y-103546400D02*
X124139200Y-103546400D01*
X118618000Y-108204000D02*
X118364000Y-107950000D01*
%TO.N,48*%
X138938000Y-126238000D02*
X138938000Y-125612400D01*
X137922000Y-122301000D02*
X137160000Y-123063000D01*
X137160000Y-123063000D02*
X124968000Y-123063000D01*
X138938000Y-125612400D02*
X139836400Y-124714000D01*
X124968000Y-123063000D02*
X123698000Y-121793000D01*
%TO.N,49*%
X104150500Y-119634000D02*
X104150500Y-126354500D01*
X104150500Y-126354500D02*
X103886000Y-126619000D01*
X104775000Y-129159000D02*
X103590600Y-129159000D01*
X99300000Y-107100000D02*
X99964000Y-106436000D01*
X99941750Y-116741750D02*
X99300000Y-116100000D01*
X99964000Y-106436000D02*
X102160000Y-106436000D01*
X99300000Y-116100000D02*
X99300000Y-107100000D01*
X101258250Y-116741750D02*
X99941750Y-116741750D01*
X103590600Y-129159000D02*
X103514400Y-129235200D01*
%TO.N,46*%
X108474000Y-124317000D02*
X108474000Y-123190000D01*
X103251000Y-123063000D02*
X102616000Y-123063000D01*
X102616000Y-123063000D02*
X98298000Y-118745000D01*
X99738000Y-102700000D02*
X103504000Y-102700000D01*
X103504000Y-102700000D02*
X104700000Y-103896000D01*
X108458000Y-124841000D02*
X108458000Y-124333000D01*
X98298000Y-104140000D02*
X99738000Y-102700000D01*
X108458000Y-124333000D02*
X108474000Y-124317000D01*
X98298000Y-118745000D02*
X98298000Y-104140000D01*
X108331000Y-124968000D02*
X108458000Y-124841000D01*
%TO.N,47*%
X107061000Y-128270000D02*
X107061000Y-123698000D01*
X107188000Y-123571000D02*
X107188000Y-121412000D01*
X103505000Y-131826000D02*
X107061000Y-128270000D01*
X99751607Y-136779000D02*
X99822000Y-136779000D01*
X105918000Y-118231193D02*
X106172359Y-117976834D01*
X106172359Y-117976834D02*
X106172359Y-117729359D01*
X108204000Y-108204000D02*
X108077000Y-108077000D01*
X95504000Y-148463000D02*
X95504000Y-141026607D01*
X91795600Y-152171400D02*
X95504000Y-148463000D01*
X107188000Y-121412000D02*
X105918000Y-120142000D01*
X107061000Y-123698000D02*
X107188000Y-123571000D01*
X105918000Y-120142000D02*
X105918000Y-118231193D01*
X100076000Y-132207000D02*
X100457000Y-131826000D01*
X106172359Y-117729359D02*
X107188718Y-116713000D01*
X91795600Y-155702000D02*
X91795600Y-152171400D01*
X100457000Y-131826000D02*
X103505000Y-131826000D01*
X108077000Y-116713000D02*
X108204000Y-116586000D01*
X95504000Y-141026607D02*
X99751607Y-136779000D01*
X108204000Y-116586000D02*
X108204000Y-108204000D01*
X100076000Y-136525000D02*
X100076000Y-132207000D01*
X107188718Y-116713000D02*
X108077000Y-116713000D01*
X108077000Y-108077000D02*
X108077000Y-107569000D01*
X99822000Y-136779000D02*
X100076000Y-136525000D01*
%TO.N,44*%
X169992800Y-92303600D02*
X170053000Y-92363800D01*
X170053000Y-92363800D02*
X170053000Y-100838000D01*
%TO.N,45*%
X102041200Y-123504200D02*
X102041200Y-125272800D01*
X96774000Y-103251000D02*
X96774000Y-118237000D01*
X102160000Y-101356000D02*
X98669000Y-101356000D01*
X98669000Y-101356000D02*
X96774000Y-103251000D01*
X96774000Y-118237000D02*
X102041200Y-123504200D01*
%TO.N,42*%
X168478489Y-83099111D02*
X168773600Y-82804000D01*
X168478489Y-99898489D02*
X168478489Y-83099111D01*
%TO.N,43*%
X92329000Y-130429000D02*
X98425000Y-130429000D01*
X102160000Y-98816000D02*
X102160000Y-98640000D01*
X106055000Y-98490756D02*
X106055000Y-98816000D01*
X102160000Y-98640000D02*
X103172111Y-97627889D01*
X103172111Y-97627889D02*
X105192133Y-97627889D01*
X106055000Y-98816000D02*
X107188000Y-99949000D01*
X105468480Y-117818498D02*
X105547489Y-117739489D01*
X98425000Y-130429000D02*
X99441000Y-129413000D01*
X80137000Y-139954000D02*
X81407000Y-138684000D01*
X89535000Y-133223000D02*
X92329000Y-130429000D01*
X107188000Y-99949000D02*
X107188000Y-116078000D01*
X81407000Y-138684000D02*
X81280000Y-138684000D01*
X99568000Y-128143000D02*
X105664000Y-128143000D01*
X81280000Y-133223000D02*
X89535000Y-133223000D01*
X99441000Y-128270000D02*
X99568000Y-128143000D01*
X107188000Y-116078000D02*
X105537000Y-117729000D01*
X105664000Y-124714000D02*
X105468480Y-124518480D01*
X105192133Y-97627889D02*
X106055000Y-98490756D01*
X80137000Y-140208000D02*
X80137000Y-139954000D01*
X99441000Y-129413000D02*
X99441000Y-128270000D01*
X105468480Y-124518480D02*
X105468480Y-117818498D01*
%TO.N,40*%
X194275200Y-75387200D02*
X192354200Y-75387200D01*
X179070000Y-94361000D02*
X179197000Y-94488000D01*
X192354200Y-75387200D02*
X192278000Y-75311000D01*
X179070000Y-75311000D02*
X179070000Y-94361000D01*
%TO.N,41*%
X63881000Y-121081800D02*
X63855600Y-121107200D01*
X95631000Y-114427000D02*
X95631000Y-99822000D01*
X95123000Y-114935000D02*
X95631000Y-114427000D01*
X102084000Y-96200000D02*
X102160000Y-96276000D01*
X99253000Y-96200000D02*
X102084000Y-96200000D01*
X95631000Y-99822000D02*
X99253000Y-96200000D01*
X63881000Y-117094000D02*
X63881000Y-121081800D01*
%TO.N,38*%
X197739000Y-64262000D02*
X194945000Y-61468000D01*
X115824000Y-86868000D02*
X115697000Y-86995000D01*
X144145000Y-62346500D02*
X137805500Y-62346500D01*
X115824000Y-80772000D02*
X115824000Y-86868000D01*
X110871000Y-62357000D02*
X110871000Y-75819000D01*
X110871000Y-75819000D02*
X115824000Y-80772000D01*
X137541000Y-62611000D02*
X137160000Y-62611000D01*
X199964800Y-64262000D02*
X197739000Y-64262000D01*
X137805500Y-62346500D02*
X137541000Y-62611000D01*
%TO.N,39*%
X145034000Y-49911000D02*
X145059400Y-49885600D01*
X264277600Y-49885600D02*
X145059400Y-49885600D01*
X94100000Y-79700000D02*
X94100000Y-88700000D01*
X108331000Y-78740000D02*
X108204000Y-78867000D01*
X108331000Y-65786000D02*
X108331000Y-78740000D01*
%TO.N,36*%
X94234000Y-99065000D02*
X100799000Y-92500000D01*
X100799000Y-92500000D02*
X103396000Y-92500000D01*
X93345000Y-114427000D02*
X94234000Y-113538000D01*
X73812400Y-115163600D02*
X76225400Y-115163600D01*
X103396000Y-92500000D02*
X104700000Y-91196000D01*
X94234000Y-113538000D02*
X94234000Y-99065000D01*
%TO.N,37*%
X104207867Y-90007889D02*
X103019756Y-91196000D01*
X106436489Y-89402511D02*
X105831111Y-90007889D01*
X109982000Y-64262000D02*
X109982000Y-79883000D01*
X103019756Y-91196000D02*
X102160000Y-91196000D01*
X105831111Y-90007889D02*
X104207867Y-90007889D01*
X110109000Y-64135000D02*
X109982000Y-64262000D01*
X109982000Y-79883000D02*
X110109000Y-80010000D01*
%TO.N,34*%
X92710000Y-99822000D02*
X92710000Y-98490000D01*
X92710000Y-98490000D02*
X101300000Y-89900000D01*
X101300000Y-89900000D02*
X101400000Y-89900000D01*
X74549000Y-99949000D02*
X74533000Y-99965000D01*
X71755000Y-99965000D02*
X74533000Y-99965000D01*
X103511889Y-89844111D02*
X104700000Y-88656000D01*
X71755000Y-99965000D02*
X71755000Y-99949000D01*
X101299511Y-89844111D02*
X103511889Y-89844111D01*
%TO.N,35*%
X117475000Y-79375000D02*
X117475000Y-87122000D01*
X169545000Y-67310000D02*
X169291000Y-67564000D01*
X116713000Y-87884000D02*
X105984000Y-87884000D01*
X105984000Y-87884000D02*
X105567889Y-87467889D01*
X141569880Y-79339880D02*
X141605000Y-79375000D01*
X103348111Y-87467889D02*
X102160000Y-88656000D01*
X169545000Y-61087000D02*
X169545000Y-67310000D01*
X105567889Y-87467889D02*
X103348111Y-87467889D01*
X141569880Y-68996120D02*
X141569880Y-79339880D01*
X117475000Y-87122000D02*
X116713000Y-87884000D01*
%TO.N,32*%
X97998200Y-90220800D02*
X97998200Y-90038000D01*
X72221600Y-90220800D02*
X74371200Y-90220800D01*
X99500000Y-88536200D02*
X99500000Y-87600000D01*
X74371200Y-90220800D02*
X74422000Y-90170000D01*
X97998200Y-90038000D02*
X99500000Y-88536200D01*
%TO.N,33*%
X101793200Y-86116000D02*
X102103000Y-86116000D01*
X190881000Y-85725000D02*
X190881000Y-61214000D01*
%TO.N,30*%
X76463400Y-80899000D02*
X89154000Y-80899000D01*
X89154000Y-80899000D02*
X89281000Y-80772000D01*
X71866000Y-76301600D02*
X76463400Y-80899000D01*
%TO.N,31*%
X105687889Y-82387889D02*
X103348111Y-82387889D01*
X220853000Y-80518000D02*
X220853000Y-58293000D01*
X107352600Y-80772000D02*
X110617000Y-80772000D01*
X220853000Y-58166000D02*
X220853000Y-58293000D01*
X103348111Y-82387889D02*
X102160000Y-83576000D01*
X105719000Y-82419000D02*
X105687889Y-82387889D01*
X105800000Y-82419000D02*
X105719000Y-82419000D01*
X105724600Y-82400000D02*
X107352600Y-80772000D01*
%TO.N,28*%
X100400000Y-81115756D02*
X101715756Y-79800000D01*
X95382000Y-87193200D02*
X100400000Y-82175200D01*
X104200000Y-79800000D02*
X104700000Y-80300000D01*
X101715756Y-79800000D02*
X104200000Y-79800000D01*
X100400000Y-82175200D02*
X100400000Y-81115756D01*
X104700000Y-80300000D02*
X104700000Y-81036000D01*
X95382000Y-87757000D02*
X95382000Y-87193200D01*
%TO.N,29*%
X109093000Y-79502000D02*
X109093000Y-61722000D01*
%TO.N,26*%
X94869000Y-85725000D02*
X94869000Y-84632800D01*
X100492111Y-77307889D02*
X103511889Y-77307889D01*
X103511889Y-77307889D02*
X104700000Y-78496000D01*
X99700000Y-78100000D02*
X100492111Y-77307889D01*
X94869000Y-84632800D02*
X99700000Y-79801800D01*
X99700000Y-79801800D02*
X99700000Y-78100000D01*
%TO.N,27*%
X107315000Y-76300000D02*
X107315000Y-57658000D01*
%TO.N,24*%
X98987000Y-76613000D02*
X100995889Y-74604111D01*
X103348111Y-74604111D02*
X104700000Y-75956000D01*
X98987000Y-78613000D02*
X98987000Y-76613000D01*
X100995889Y-74604111D02*
X103348111Y-74604111D01*
%TO.N,25*%
X106100000Y-71900000D02*
X105900000Y-72100000D01*
X102108000Y-51689000D02*
X106100000Y-55681000D01*
X98600000Y-72100000D02*
X98200000Y-72500000D01*
X78994000Y-51689000D02*
X102108000Y-51689000D01*
X98200000Y-72500000D02*
X98200000Y-75600000D01*
X105900000Y-72100000D02*
X98600000Y-72100000D01*
X106100000Y-55681000D02*
X106100000Y-71900000D01*
X78359000Y-52324000D02*
X78994000Y-51689000D01*
%TO.N,Net-(Q9-Pad1)*%
X201964800Y-64262000D02*
X205622400Y-64262000D01*
X205622400Y-64262000D02*
X205689200Y-64195200D01*
X213926900Y-64195200D02*
X214149700Y-63972400D01*
X205689200Y-64195200D02*
X213926900Y-64195200D01*
%TO.N,Net-(Q10-Pad1)*%
X199964000Y-71803500D02*
X199964000Y-75081600D01*
X196275200Y-75387200D02*
X199964800Y-75387200D01*
X199964000Y-75081600D02*
X200117200Y-75234800D01*
X199964800Y-75387200D02*
X200117200Y-75234800D01*
%TO.N,Net-(Q11-Pad1)*%
X173903600Y-82396800D02*
X174209200Y-82702400D01*
X170773600Y-82804000D02*
X174107600Y-82804000D01*
X174107600Y-82804000D02*
X174209200Y-82702400D01*
X173903600Y-78712300D02*
X173903600Y-82396800D01*
%TO.N,Net-(Q12-Pad1)*%
X174716400Y-92048800D02*
X174818800Y-92151200D01*
X174666400Y-92303600D02*
X174818800Y-92151200D01*
X174716400Y-88567500D02*
X174716400Y-92048800D01*
X171992800Y-92303600D02*
X174666400Y-92303600D01*
%TO.N,Net-(Q13-Pad1)*%
X186908400Y-94663500D02*
X186908400Y-97992400D01*
X186908400Y-97992400D02*
X187010800Y-98094800D01*
X186858400Y-98247200D02*
X187010800Y-98094800D01*
X182762400Y-98247200D02*
X186858400Y-98247200D01*
%TO.N,Net-(Q14-Pad1)*%
X181000400Y-107680000D02*
X182235600Y-108915200D01*
X185638400Y-104721900D02*
X185638400Y-105512400D01*
X185638400Y-105512400D02*
X182235600Y-108915200D01*
X178663600Y-107680000D02*
X181000400Y-107680000D01*
%TO.N,Net-(Q15-Pad1)*%
X273786600Y-49682400D02*
X272034000Y-51435000D01*
X273878800Y-49682400D02*
X273786600Y-49682400D01*
X273878800Y-50121200D02*
X273878800Y-49682400D01*
%TO.N,Net-(Q16-Pad1)*%
X60842400Y-129844800D02*
X60842400Y-133807200D01*
X60842400Y-133807200D02*
X60791600Y-133858000D01*
X60791600Y-133858000D02*
X60791600Y-137239300D01*
X60791600Y-137239300D02*
X60741600Y-137289300D01*
%TO.N,Net-(Q17-Pad1)*%
X70358000Y-140589000D02*
X71501000Y-140589000D01*
X79299600Y-135789200D02*
X79502000Y-135991600D01*
X75969100Y-135789200D02*
X75969100Y-137691100D01*
X75969100Y-135789200D02*
X79299600Y-135789200D01*
X69307200Y-138734800D02*
X69307200Y-139538200D01*
X75969100Y-137691100D02*
X76073000Y-137795000D01*
X69307200Y-139538200D02*
X70358000Y-140589000D01*
%TO.N,Net-(Q18-Pad1)*%
X96605600Y-128270000D02*
X96504000Y-128371600D01*
X98263200Y-136178800D02*
X99060000Y-135382000D01*
X93444300Y-135976400D02*
X96927200Y-135976400D01*
X99060000Y-132715000D02*
X97409000Y-131064000D01*
X97129600Y-136178800D02*
X98263200Y-136178800D01*
X98298000Y-128270000D02*
X96605600Y-128270000D01*
X96927200Y-135976400D02*
X97129600Y-136178800D01*
X99060000Y-135382000D02*
X99060000Y-132715000D01*
%TO.N,Net-(Q19-Pad1)*%
X101177600Y-162610800D02*
X103410000Y-162610800D01*
X105069600Y-157147500D02*
X105069600Y-160917600D01*
X105069600Y-160917600D02*
X105086400Y-160934400D01*
X103410000Y-162610800D02*
X105086400Y-160934400D01*
%TO.N,Net-(Q20-Pad1)*%
X117027200Y-132300500D02*
X115950000Y-133377700D01*
X113563400Y-127863600D02*
X114427000Y-127000000D01*
X117027200Y-127441200D02*
X117027200Y-129641600D01*
X117027200Y-129641600D02*
X117027200Y-132300500D01*
X114427000Y-127000000D02*
X116586000Y-127000000D01*
X116586000Y-127000000D02*
X117027200Y-127441200D01*
X110490000Y-127863600D02*
X113563400Y-127863600D01*
%TO.N,Net-(Q21-Pad1)*%
X130133600Y-132921300D02*
X130083600Y-132971300D01*
X124596400Y-129540000D02*
X125730000Y-129540000D01*
X126832689Y-128437311D02*
X129499689Y-128437311D01*
X130133600Y-129844800D02*
X130133600Y-132921300D01*
X130133600Y-128990600D02*
X130133600Y-129844800D01*
X125730000Y-129540000D02*
X126832689Y-128437311D01*
X129499689Y-128437311D02*
X129540000Y-128397000D01*
X129540000Y-128397000D02*
X130133600Y-128990600D01*
%TO.N,Net-(Q22-Pad1)*%
X138988800Y-129778000D02*
X138988800Y-132654800D01*
X138988800Y-132654800D02*
X139125200Y-132791200D01*
X139125200Y-132791200D02*
X139125200Y-135906000D01*
X139125200Y-135906000D02*
X138887200Y-136144000D01*
%TO.N,Net-(Q31-Pad1)*%
X174614800Y-113510300D02*
X174614800Y-116940800D01*
X174614800Y-116940800D02*
X176495200Y-118821200D01*
X169621200Y-114284000D02*
X173841100Y-114284000D01*
X173841100Y-114284000D02*
X174614800Y-113510300D01*
%TO.N,Net-(Q32-Pad1)*%
X163540400Y-88618300D02*
X163540400Y-92556800D01*
X163540400Y-92556800D02*
X163541200Y-92557600D01*
X163490400Y-92608400D02*
X163541200Y-92557600D01*
X160105600Y-92608400D02*
X163490400Y-92608400D01*
%TO.N,Net-(Q33-Pad1)*%
X160816800Y-102819200D02*
X163592000Y-102819200D01*
X163642000Y-98067100D02*
X163592000Y-98117100D01*
X163592000Y-98117100D02*
X163592000Y-102819200D01*
%TO.N,Net-(Q34-Pad1)*%
X163896000Y-108836700D02*
X163896000Y-113589600D01*
X163744400Y-113639600D02*
X163795200Y-113690400D01*
X159851600Y-113639600D02*
X163744400Y-113639600D01*
X163896000Y-113589600D02*
X163795200Y-113690400D01*
%TO.N,Net-(Q35-Pad1)*%
X151653200Y-87629200D02*
X151806400Y-87782400D01*
X151653200Y-83639900D02*
X151653200Y-87629200D01*
X148116800Y-88188800D02*
X151400000Y-88188800D01*
X151400000Y-88188800D02*
X151806400Y-87782400D01*
%TO.N,Net-(Q36-Pad1)*%
X148320000Y-105460800D02*
X151552400Y-105460800D01*
X151653200Y-105155200D02*
X151755600Y-105257600D01*
X151552400Y-105460800D02*
X151755600Y-105257600D01*
X151653200Y-99845100D02*
X151653200Y-105155200D01*
%TO.N,Net-(Q39-Pad1)*%
X139397500Y-52517000D02*
X135935000Y-52517000D01*
X135935000Y-52517000D02*
X135747000Y-52705000D01*
X135747000Y-52705000D02*
X136652000Y-53610000D01*
X136652000Y-53610000D02*
X136652000Y-59547000D01*
X136652000Y-59547000D02*
X137430000Y-60325000D01*
%TO.N,Net-(R1-Pad2)*%
X76541400Y-65049400D02*
X76541400Y-65825600D01*
X59436000Y-66929000D02*
X57870600Y-66929000D01*
X57184800Y-67614800D02*
X57184800Y-70154800D01*
X57870600Y-66929000D02*
X57184800Y-67614800D01*
X76541400Y-65825600D02*
X75438000Y-66929000D01*
%TO.N,Net-(R3-Pad2)*%
X76165328Y-62509400D02*
X76139928Y-62484000D01*
X74904600Y-62509400D02*
X74295000Y-63119000D01*
X79359000Y-68691000D02*
X79359000Y-69342000D01*
X74295000Y-67310000D02*
X74803000Y-67818000D01*
X79359000Y-69342000D02*
X79359000Y-72450200D01*
X78486000Y-67818000D02*
X79359000Y-68691000D01*
X74803000Y-67818000D02*
X78486000Y-67818000D01*
X76541400Y-62509400D02*
X76165328Y-62509400D01*
X74295000Y-63119000D02*
X74295000Y-67310000D01*
X79359000Y-72450200D02*
X79451200Y-72542400D01*
X79502000Y-72491600D02*
X79451200Y-72542400D01*
X76541400Y-62509400D02*
X74904600Y-62509400D01*
%TO.N,Net-(R57-Pad2)*%
X48971200Y-158870400D02*
X48971200Y-161052000D01*
X48971200Y-161052000D02*
X48920400Y-161102800D01*
%TO.N,Net-(R60-Pad2)*%
X55473600Y-161306000D02*
X55473600Y-159140400D01*
X55473600Y-159140400D02*
X55524400Y-159089600D01*
%TO.N,Net-(R63-Pad2)*%
X61366400Y-159242000D02*
X61366400Y-161509200D01*
X61366400Y-161509200D02*
X61264800Y-161610800D01*
%TO.N,Net-(R66-Pad2)*%
X67767200Y-161509200D02*
X67818000Y-161560000D01*
X67767200Y-159445200D02*
X67767200Y-161509200D01*
%TO.N,Net-(R95-Pad2)*%
X274405600Y-47594400D02*
X274405600Y-46939200D01*
X269250000Y-51500000D02*
X269250000Y-54178800D01*
X272750000Y-48250000D02*
X273750000Y-48250000D01*
X273750000Y-48250000D02*
X274405600Y-47594400D01*
X272500000Y-48500000D02*
X272750000Y-48250000D01*
X269250000Y-54178800D02*
X269341600Y-54270400D01*
%TO.N,Net-(R101-Pad2)*%
X58775600Y-126069600D02*
X58775600Y-129778000D01*
X58775600Y-129778000D02*
X58842400Y-129844800D01*
X53848000Y-131791200D02*
X56896000Y-131791200D01*
X56896000Y-131791200D02*
X58842400Y-129844800D01*
%TO.N,Net-(R107-Pad2)*%
X74676000Y-139734800D02*
X75098400Y-140157200D01*
X70392800Y-132486400D02*
X70392800Y-136051800D01*
X70392800Y-136051800D02*
X71501000Y-137160000D01*
X71501000Y-137160000D02*
X71501000Y-138541000D01*
X71307200Y-138734800D02*
X71678800Y-138734800D01*
X71501000Y-138541000D02*
X71307200Y-138734800D01*
X71678800Y-138734800D02*
X73101200Y-140157200D01*
X73101200Y-140157200D02*
X75098400Y-140157200D01*
%TO.N,Net-(R113-Pad2)*%
X90611200Y-126034800D02*
X90611200Y-125788800D01*
X94244000Y-124200000D02*
X94402400Y-124358400D01*
X94402400Y-124358400D02*
X94402400Y-128270000D01*
X90611200Y-125788800D02*
X92200000Y-124200000D01*
X94402400Y-128270000D02*
X94504000Y-128371600D01*
X92200000Y-124200000D02*
X94244000Y-124200000D01*
%TO.N,Net-(R119-Pad2)*%
X93049600Y-163322000D02*
X93354400Y-163322000D01*
X97282000Y-160715200D02*
X99177600Y-162610800D01*
X93354400Y-163322000D02*
X95961200Y-160715200D01*
X95961200Y-160715200D02*
X97282000Y-160715200D01*
%TO.N,Net-(R125-Pad2)*%
X108670600Y-131445000D02*
X108712000Y-131486400D01*
X103565200Y-133705600D02*
X104165400Y-133705600D01*
X104165400Y-133705600D02*
X106426000Y-131445000D01*
X108490000Y-131264400D02*
X108712000Y-131486400D01*
X108490000Y-127863600D02*
X108490000Y-131264400D01*
X106426000Y-131445000D02*
X108670600Y-131445000D01*
%TO.N,Net-(R131-Pad2)*%
X119227600Y-134248400D02*
X120951600Y-134248400D01*
X120951600Y-134248400D02*
X122291200Y-132908800D01*
X122291200Y-132908800D02*
X123240800Y-132908800D01*
X122596400Y-132264400D02*
X123240800Y-132908800D01*
X122596400Y-129540000D02*
X122596400Y-132264400D01*
%TO.N,Net-(R137-Pad2)*%
X143510000Y-130438400D02*
X143526000Y-130454400D01*
X137557000Y-128000000D02*
X138766800Y-128000000D01*
X143510000Y-127635000D02*
X143510000Y-130438400D01*
X135026400Y-128000000D02*
X137557000Y-128000000D01*
X138766800Y-128000000D02*
X138988800Y-127778000D01*
%TO.N,Net-(R141-Pad1)*%
X242554000Y-78867000D02*
X245253000Y-78867000D01*
X245126000Y-78740000D02*
X245329200Y-78943200D01*
X245253000Y-78867000D02*
X245329200Y-78943200D01*
%TO.N,Net-(R144-Pad1)*%
X266531600Y-87579200D02*
X269916400Y-87579200D01*
X269916400Y-87579200D02*
X269967200Y-87630000D01*
%TO.N,Net-(R147-Pad1)*%
X270052800Y-101447600D02*
X270154400Y-101549200D01*
X266684000Y-101447600D02*
X270052800Y-101447600D01*
%TO.N,Net-(R150-Pad1)*%
X237778800Y-121767600D02*
X237728000Y-121818400D01*
X242535200Y-121767600D02*
X237778800Y-121767600D01*
%TO.N,Net-(R153-Pad1)*%
X270932400Y-132080000D02*
X271034000Y-132181600D01*
X267970000Y-132080000D02*
X270932400Y-132080000D01*
%TO.N,Net-(R156-Pad1)*%
X257673600Y-152654000D02*
X257724400Y-152603200D01*
X253222000Y-152654000D02*
X257673600Y-152654000D01*
%TO.N,Net-(R159-Pad1)*%
X222418400Y-132971200D02*
X222453200Y-133006000D01*
X222418400Y-129519600D02*
X222418400Y-132971200D01*
%TO.N,Net-(R162-Pad1)*%
X208026000Y-129976800D02*
X208026000Y-133107600D01*
X208026000Y-133107600D02*
X208076800Y-133158400D01*
%TO.N,Net-(R165-Pad2)*%
X21116800Y-158461200D02*
X23469600Y-158461200D01*
X20447000Y-161163000D02*
X20447000Y-159131000D01*
X20447000Y-159131000D02*
X21116800Y-158461200D01*
X18440400Y-161934400D02*
X19675600Y-161934400D01*
X19675600Y-161934400D02*
X20447000Y-161163000D01*
%TO.N,Net-(R168-Pad2)*%
X30276800Y-160731200D02*
X30210000Y-160798000D01*
X30276800Y-158226000D02*
X30276800Y-160731200D01*
%TO.N,Net-(R171-Pad2)*%
X36322000Y-158530800D02*
X36322000Y-160848800D01*
X36322000Y-160848800D02*
X36220400Y-160950400D01*
%TO.N,Net-(R174-Pad2)*%
X42926000Y-160899600D02*
X42875200Y-160950400D01*
X42926000Y-158734000D02*
X42926000Y-160899600D01*
%TD*%
M02*
